<svg width="22" height="30" viewBox="0 0 22 30" fill="none" xmlns="http://www.w3.org/2000/svg">
<path d="M9.36751 0.0741272C7.35784 0.40242 5.5404 1.21143 4.03752 2.44838C3.54238 2.85875 2.61618 3.81431 2.24338 4.30675C1.29971 5.54957 0.54244 7.21448 0.233708 8.75042C-0.115799 10.4446 -0.0750233 11.7402 0.367686 13.2879C1.39873 16.8932 4.77731 22.4566 9.73449 28.6942C11.115 30.4353 10.882 30.4353 12.2626 28.6942C17.214 22.4566 20.5984 16.8932 21.6294 13.2937C22.0779 11.7344 22.1129 10.5443 21.7692 8.77973C21.443 7.12654 20.6158 5.36784 19.5324 4.03122C19.1013 3.50361 18.111 2.54218 17.5809 2.1494C16.2819 1.17625 14.7383 0.490355 13.1189 0.1562C12.3092 -0.00794601 10.1655 -0.0548439 9.36751 0.0741272ZM12.3092 0.812784C16.445 1.34626 19.911 4.45331 20.9246 8.53351C21.2624 9.88185 21.3207 11.2947 21.0877 12.344C20.4411 15.2635 18.0353 19.6134 14.0626 25.0478C12.8043 26.7713 11.0859 28.9756 10.9985 28.9756C10.9112 28.9756 9.0879 26.6423 7.84715 24.9305C3.87441 19.4668 1.46864 15.0876 0.891948 12.2737C0.54244 10.556 0.903598 8.34005 1.83562 6.4641C2.66861 4.79919 3.89771 3.40395 5.43555 2.38976C7.42191 1.08245 9.93837 0.502081 12.3092 0.812784Z" fill="#113406"/>
<path d="M9.89223 5.78419C8.26702 6.13007 6.92725 7.19116 6.21658 8.69192C5.87872 9.40713 5.75639 9.87026 5.70397 10.5972C5.65737 11.3358 5.72727 12.0159 5.90785 12.608C7.102 16.4126 11.7912 17.6496 14.6572 14.9119C15.8688 13.7511 16.4222 12.2738 16.2882 10.5327C16.1135 8.21121 14.3834 6.26491 12.0767 5.78419C11.4126 5.6435 10.5505 5.64936 9.89223 5.78419ZM12.2514 6.61079C14.2553 7.24392 15.5426 8.97332 15.5484 11.0251C15.5484 12.1683 15.1931 13.1356 14.4417 14.0384C13.9232 14.6657 12.9388 15.2754 12.0767 15.4981C11.5233 15.6447 10.4223 15.6447 9.89223 15.4981C8.36023 15.0702 7.15443 13.9329 6.65346 12.4438C6.42628 11.7638 6.38551 10.6617 6.56609 9.95233C7.00297 8.20535 8.3544 6.9039 10.1252 6.52285C10.6786 6.39974 11.733 6.44664 12.2514 6.61079Z" fill="#113406"/>
</svg>
