<svg width="28" height="28" viewBox="0 0 28 28" fill="none" xmlns="http://www.w3.org/2000/svg">
<path d="M1.29375 1.29942C0.025 2.5676 0 2.59884 0 2.85497C0 3.06113 0.03125 3.14235 0.1625 3.2423C0.50625 3.51093 0.63125 3.44846 1.5125 2.5801L2.3125 1.7867V12.4507C2.3125 20.1098 2.33125 23.2021 2.38125 23.4395C2.60625 24.4891 3.5 25.3824 4.55 25.6073C4.7875 25.6573 7.88125 25.676 15.5437 25.676H26.2125L25.4188 26.4757C24.7437 27.1566 24.625 27.3066 24.625 27.4752C24.625 27.7689 24.8563 28 25.15 28C25.3813 28 25.45 27.9438 26.6938 26.7006C27.9625 25.4324 28 25.3887 28 25.145C28 24.9014 27.9625 24.8577 26.7 23.5957C25.475 22.3775 25.3875 22.3025 25.1688 22.3025C24.8625 22.3025 24.625 22.5274 24.625 22.8086C24.625 22.9835 24.7313 23.1209 25.4188 23.8144L26.2125 24.614H15.5563C3.41875 24.614 4.54375 24.6702 3.93125 24.058C3.31875 23.4458 3.375 24.5703 3.375 12.4382V1.7867L4.175 2.5801C4.86875 3.26729 5.00625 3.37349 5.18125 3.37349C5.4625 3.37349 5.6875 3.1361 5.6875 2.82999C5.6875 2.61133 5.6125 2.52387 4.39375 1.29942C3.13125 0.0374832 3.0875 0 2.84375 0C2.6 0 2.55625 0.0374832 1.29375 1.29942Z" fill="#113406"/>
<path d="M7.75645 0.162535C7.5877 0.374939 7.5877 0.624828 7.75645 0.830986L7.88145 0.99966L16.7064 1.01215L25.5314 1.0309L25.8502 1.17458C26.2502 1.35575 26.6377 1.74932 26.8252 2.15539L26.9689 2.46775L26.9877 11.2888L27.0064 20.1099L27.1689 20.2348C27.3752 20.4035 27.6252 20.4035 27.8377 20.2348L28.0002 20.1099V11.2201C28.0002 3.2674 27.9877 2.29908 27.9002 1.99297C27.6439 1.11211 26.9252 0.387434 26.0502 0.112556C25.6939 0.00635338 25.2627 0.000106812 16.7814 0.000106812H7.88145L7.75645 0.162535Z" fill="#113406"/>
<path d="M21.0438 5.30998C20.2126 5.52239 19.6063 6.22208 19.5188 7.08419C19.4876 7.4028 19.4938 7.44028 19.6751 7.6152C19.8751 7.82136 20.0501 7.8526 20.2688 7.7339C20.4688 7.63395 20.5563 7.49026 20.5626 7.29035C20.5626 7.00922 20.7188 6.71561 20.9688 6.52819C21.5251 6.09713 22.3188 6.44698 22.4188 7.1654C22.4376 7.32158 22.4188 7.47777 22.3563 7.59646C22.3063 7.69642 21.7501 8.32739 21.1251 8.99584C19.9188 10.2828 19.7501 10.5014 19.7501 10.7326C19.7501 10.9887 19.9376 11.2948 20.1626 11.401C20.3438 11.4885 20.5876 11.501 21.7876 11.4822C23.1876 11.4635 23.2001 11.4635 23.3188 11.3136C23.4813 11.1136 23.4751 10.7388 23.3063 10.5826C23.1938 10.4827 23.0438 10.4577 22.2438 10.4327L21.3063 10.4015L22.2188 9.43314C23.2376 8.34613 23.4313 8.03377 23.4813 7.41529C23.5501 6.58441 23.1501 5.85974 22.4251 5.50365C21.9876 5.29124 21.4376 5.21627 21.0438 5.30998Z" fill="#113406"/>
<path d="M8.78125 8.109C8.7125 8.1215 8.59375 8.19022 8.51875 8.26518L8.375 8.39013V13.4379C8.375 16.2116 8.39375 18.5293 8.4125 18.5856C8.4625 18.7043 8.75625 18.8667 8.9375 18.8667C9.0125 18.8667 9.15625 18.7855 9.25625 18.6855L9.4375 18.5044V14.6373V10.7766L9.5875 10.4642C9.9 9.7895 10.625 9.40842 11.3125 9.54586C11.5 9.58959 11.7687 9.69579 11.9062 9.79575C12.2 9.99566 12.5312 10.5142 12.5875 10.8515C12.6063 10.9827 12.625 12.7632 12.625 14.8123C12.625 18.9791 12.6 18.7667 13.0687 18.8417C13.25 18.8729 13.325 18.848 13.475 18.723L13.6562 18.5668L13.6875 14.6061C13.7125 11.7136 13.7375 10.6079 13.7938 10.4829C13.9062 10.2331 14.3063 9.81449 14.5625 9.6833C15.325 9.29597 16.2562 9.60833 16.6562 10.3955L16.8438 10.7703L16.875 14.6873C16.9062 18.3294 16.9125 18.6231 17.0188 18.723C17.1813 18.8854 17.5875 18.8667 17.7625 18.6918L17.9062 18.5481L17.925 14.9122C17.9375 12.6257 17.9187 11.0952 17.875 10.7828C17.7937 10.1518 17.5875 9.70829 17.1813 9.27723C16.175 8.21521 14.475 8.17147 13.4313 9.18352L13.125 9.47089L12.8688 9.20851C12.1 8.42761 10.8188 8.22145 9.85 8.73372C9.675 8.82743 9.5125 8.90865 9.4875 8.92114C9.45625 8.93363 9.4375 8.83368 9.4375 8.69624C9.4375 8.29017 9.15625 8.04028 8.78125 8.109Z" fill="#113406"/>
</svg>
