<svg width="23" height="28" viewBox="0 0 23 28" fill="none" xmlns="http://www.w3.org/2000/svg">
<path d="M0.22028 0.0701847C0.16778 0.111017 0.0977806 0.221851 0.0627808 0.309351C-0.0247186 0.548515 -0.0188853 27.4458 0.0686141 27.7025C0.103614 27.8017 0.179447 27.9125 0.23778 27.9417C0.307779 27.9767 4.22192 28 11.1694 28C21.8151 28 21.996 28 22.1068 27.8892C22.171 27.825 22.241 27.685 22.2585 27.58C22.276 27.475 22.2818 22.4175 22.276 16.3509L22.2585 5.30848L19.6043 2.65434L16.9502 0.000185013H8.63189C2.06943 0.000185013 0.296113 0.0176849 0.22028 0.0701847ZM16.221 3.30183V5.67015L16.3902 5.83931L16.5593 6.00848H18.9277H21.296V16.5376V27.0667H11.146H0.996108V14.0001V0.933512H8.60856H16.221V3.30183ZM18.9043 3.35433L20.5668 5.01682H18.8868H17.2127V3.35433C17.2127 2.4385 17.2185 1.69184 17.2302 1.69184C17.236 1.69184 17.9885 2.4385 18.9043 3.35433Z" fill="url(#paint0_linear_89_12179)"/>
<path d="M8.13056 6.59802C6.59641 8.01551 5.21975 9.29883 5.06808 9.4505L4.78809 9.73633V13.3763C4.78809 15.383 4.80559 17.0688 4.82309 17.1213C4.92809 17.3896 4.81725 17.3838 11.1464 17.3838C17.4755 17.3838 17.3647 17.3896 17.4697 17.1213C17.4872 17.0688 17.5047 15.383 17.5047 13.3763V9.73633L17.2305 9.4505C17.073 9.29883 15.8772 8.17884 14.5589 6.96552C13.2464 5.75219 11.9922 4.5972 11.7705 4.39303C11.0939 3.76304 11.3914 3.5822 8.13056 6.59802ZM13.8297 7.67718L16.513 10.1563V13.2771V16.3921H15.3463H14.1797V13.5046C14.1797 10.4538 14.168 10.343 13.9172 10.2438C13.7889 10.1972 8.50389 10.1972 8.37556 10.2438C8.12473 10.343 8.11306 10.4538 8.11306 13.5046V16.3921H6.9464H5.77975V13.2771V10.1563L8.4514 7.67718C9.91555 6.31802 11.123 5.19803 11.1347 5.19803C11.1464 5.19219 12.3597 6.31219 13.8297 7.67718ZM13.188 13.7963V16.3921H11.1464H9.10472V15.3421V14.2921H9.69389C10.2655 14.2921 10.283 14.2863 10.4522 14.123C10.6389 13.9305 10.6622 13.7846 10.5339 13.5396C10.423 13.318 10.3589 13.3005 9.68222 13.3005H9.10472V12.2505V11.2005H11.1464H13.188V13.7963Z" fill="url(#paint1_linear_89_12179)"/>
<path d="M3.69133 19.8501C3.55717 19.9959 3.52217 20.2875 3.62133 20.4742C3.6505 20.5325 3.76133 20.6084 3.8605 20.6434C4.123 20.7367 18.1696 20.7367 18.4321 20.6434C18.6479 20.5675 18.7296 20.4392 18.7296 20.165C18.7296 20.0367 18.6829 19.9259 18.5954 19.8442L18.4612 19.7159H11.1405H3.81383L3.69133 19.8501Z" fill="url(#paint2_linear_89_12179)"/>
<path d="M3.82539 23.0534C3.52789 23.2109 3.46372 23.6251 3.69706 23.8468L3.83122 23.9751H11.152H18.4786L18.6011 23.8409C18.7295 23.7068 18.7703 23.4443 18.6945 23.2459C18.5895 22.9776 18.7936 22.9834 11.1345 22.9834C6.04204 22.9893 3.90706 23.0068 3.82539 23.0534Z" fill="url(#paint3_linear_89_12179)"/>
<defs>
<linearGradient id="paint0_linear_89_12179" x1="0" y1="28" x2="12.97" y2="0.875671" gradientUnits="userSpaceOnUse">
<stop stop-color="#DFBD69"/>
<stop offset="0.53125" stop-color="#FEF7C0"/>
<stop offset="1" stop-color="#926F34"/>
</linearGradient>
<linearGradient id="paint1_linear_89_12179" x1="4.78809" y1="17.3838" x2="10.2752" y2="3.66571" gradientUnits="userSpaceOnUse">
<stop stop-color="#DFBD69"/>
<stop offset="0.53125" stop-color="#FEF7C0"/>
<stop offset="1" stop-color="#926F34"/>
</linearGradient>
<linearGradient id="paint2_linear_89_12179" x1="3.56445" y1="20.7134" x2="3.59415" y2="19.5269" gradientUnits="userSpaceOnUse">
<stop stop-color="#DFBD69"/>
<stop offset="0.53125" stop-color="#FEF7C0"/>
<stop offset="1" stop-color="#926F34"/>
</linearGradient>
<linearGradient id="paint3_linear_89_12179" x1="3.55566" y1="23.9751" x2="3.58499" y2="22.7955" gradientUnits="userSpaceOnUse">
<stop stop-color="#DFBD69"/>
<stop offset="0.53125" stop-color="#FEF7C0"/>
<stop offset="1" stop-color="#926F34"/>
</linearGradient>
</defs>
</svg>
