<svg width="28" height="28" viewBox="0 0 28 28" fill="none" xmlns="http://www.w3.org/2000/svg">
<path d="M10.5 0.112902C10.3927 0.22016 10.3871 0.299192 10.3871 2.59677V4.96774H5.30645C0.299194 4.96774 0.225806 4.96774 0.112903 5.08064C0 5.19355 0 5.26694 0 16.4839C0 27.7008 0 27.7742 0.112903 27.8871C0.225806 28 0.299194 28 7.4629 28H14.7056L16.1565 26.5435C17.6016 25.104 17.6129 25.0871 17.6129 24.85C17.6129 24.5339 17.4661 24.3871 17.15 24.3871C16.9129 24.3871 16.896 24.404 15.5524 25.7419L14.1919 27.0968H12.7411H11.2903V25.8548C11.2903 24.6863 11.2847 24.6073 11.1774 24.5C11.104 24.4266 10.9911 24.3871 10.8387 24.3871C10.6863 24.3871 10.5734 24.4266 10.5 24.5C10.3927 24.6073 10.3871 24.6863 10.3871 25.8548V27.0968H5.64516H0.903226V22.8065V18.5161H5.64516H10.3871V19.7581C10.3871 20.9266 10.3927 21.0056 10.5 21.1129C10.6524 21.2653 11.025 21.2653 11.1774 21.1129C11.2903 21 11.2903 20.9266 11.2903 17.8387C11.2903 14.7508 11.2903 14.6774 11.1774 14.5645C11.025 14.4121 10.6524 14.4121 10.5 14.5645C10.3927 14.6718 10.3871 14.7508 10.3871 16.1452V17.6129H5.64516H0.903226V11.7419V5.87097H5.64516H10.3871V8.46774C10.3871 10.9911 10.3927 11.0702 10.5 11.1774C10.5734 11.2508 10.6863 11.2903 10.8387 11.2903C10.9911 11.2903 11.104 11.2508 11.1774 11.1774C11.2903 11.0645 11.2903 10.9911 11.2903 5.98387V0.903225H19.1935H27.0968V9.25806V17.6129H24.7258C22.4282 17.6129 22.3492 17.6185 22.2419 17.7258C22.129 17.8387 22.129 17.9121 22.129 22.4677V27.0968H20.2097C18.3637 27.0968 18.2847 27.1024 18.1774 27.2097C18.025 27.3621 18.025 27.7347 18.1774 27.8871C18.2847 27.9944 18.3637 28 20.5484 28C22.7331 28 22.8121 27.9944 22.9194 27.8871C23.0323 27.7742 23.0323 27.7008 23.0323 23.1452V18.5161H25.4032C27.7008 18.5161 27.7798 18.5105 27.8871 18.4032C28 18.2903 28 18.2169 28 9.25806C28 0.299192 28 0.225805 27.8871 0.112902C27.7742 -1.90735e-06 27.7008 -1.90735e-06 19.1935 -1.90735e-06C10.6863 -1.90735e-06 10.6129 -1.90735e-06 10.5 0.112902Z" fill="#113406"/>
</svg>
