<svg width="46" height="46" viewBox="0 0 46 46" fill="none" xmlns="http://www.w3.org/2000/svg">
<path d="M22.4276 0.0756998C22.3673 0.116079 21.2223 1.80193 19.8966 3.81082C17.3957 7.60651 17.2249 7.92955 17.6669 8.17183C17.7773 8.2223 18.4101 8.27278 19.073 8.27278H20.2782L20.3083 10.8066L20.3385 13.3404L20.5795 13.5322C20.8105 13.724 20.9612 13.7341 22.7992 13.7038C24.2957 13.6837 24.8179 13.6433 24.9385 13.5322C25.0891 13.4111 25.1092 13.0881 25.1092 10.8369V8.27278H26.4048C27.8009 8.27278 28.0219 8.20211 28.0219 7.74784C28.0219 7.54594 23.6127 0.721775 23.1708 0.217029C22.9599 -0.0050602 22.6485 -0.065629 22.4276 0.0756998ZM26.3144 7.11186C26.3144 7.14215 25.8725 7.16234 25.3402 7.16234C23.914 7.16234 24.0044 6.97053 24.0044 10.0091V12.5126H22.7489H21.4935V10.0596C21.4935 6.98063 21.5738 7.16234 20.1376 7.16234H19.0931L20.921 4.38623L22.7489 1.61013L24.5267 4.33576C25.511 5.8399 26.3144 7.08158 26.3144 7.11186Z" fill="url(#paint0_linear_89_11724)"/>
<path d="M38.186 5.04268C35.7153 5.29506 33.6664 6.31464 33.0436 7.60679C32.8428 8.03078 32.8428 8.12163 32.8428 25.495C32.8428 42.2526 32.8528 42.9693 33.0336 43.3529C33.5358 44.4533 35.0122 45.3416 37.0611 45.7858C38.3166 46.0584 40.7069 46.0281 41.9825 45.7353C43.7703 45.3315 45.3069 44.3725 45.7991 43.363C46 42.939 46 42.8482 46 25.5051C46 8.20239 46 8.06106 45.7991 7.63708C44.9655 5.86037 41.5807 4.69945 38.186 5.04268ZM41.5707 6.35502C43.8807 6.82948 45.317 8.08125 44.7244 9.10084C44.3327 9.7873 43.0572 10.4939 41.7013 10.8069C39.6725 11.2612 37.1214 11.0189 35.4843 10.2214C34.3895 9.68634 33.8271 8.9696 33.9877 8.32353C34.1786 7.57651 35.6249 6.69825 37.2118 6.35502C38.4572 6.09255 40.3253 6.09255 41.5707 6.35502ZM36.3982 11.7962C38.9794 12.4725 41.872 12.2404 43.9711 11.1905L44.8952 10.7261V11.776C44.8952 12.9571 44.8148 13.2095 44.2423 13.7142C43.489 14.3805 42.2235 14.8348 40.5262 15.0367C38.3668 15.3092 35.7454 14.7136 34.6004 13.7142C34.0279 13.2095 33.9476 12.9571 33.9476 11.7659V10.7059L34.7812 11.1501C35.2332 11.3924 35.9563 11.6851 36.3982 11.7962ZM35.5746 15.5818C36.7498 16.026 37.7842 16.1875 39.4214 16.1875C41.5506 16.1875 43.1074 15.8241 44.393 15.0266L44.8449 14.7439L44.8751 15.8241C44.8952 16.4197 44.855 17.0758 44.7947 17.2777C44.6039 17.9541 43.5593 18.6506 42.0729 19.0847C41.1187 19.3573 38.8187 19.4582 37.6838 19.2765C36.107 19.0242 34.6004 18.2771 34.1484 17.5301C33.9777 17.2575 33.9476 17.0254 33.9476 15.9755V14.7338L34.4297 15.0367C34.7008 15.1982 35.2131 15.4505 35.5746 15.5818ZM36.5589 20.2154C39.1904 20.8412 42.1733 20.5586 44.172 19.4784L44.8952 19.0847V20.2456C44.8952 21.5984 44.7847 21.9315 44.1821 22.406C43.7 22.7997 42.7257 23.2337 41.8318 23.476C40.8476 23.7385 38.1358 23.7486 37.0611 23.4861C35.7353 23.1732 34.5602 22.517 34.1484 21.8507C33.9777 21.5681 33.9476 21.346 33.9476 20.3163V19.1049L34.8816 19.5693C35.3838 19.8217 36.1471 20.1144 36.5589 20.2154ZM34.6004 23.7688C35.7856 24.4754 37.3624 24.8388 39.3711 24.8489C41.4301 24.8489 43.3384 24.4047 44.4131 23.6678C44.6139 23.5265 44.8048 23.4154 44.8349 23.4154C44.9353 23.4154 44.9052 25.707 44.8048 25.9695C44.6541 26.3632 44.0113 26.9285 43.3484 27.2515C40.9781 28.4225 37.0109 28.2812 34.9821 26.9588C34.0581 26.3632 33.9476 26.1108 33.9476 24.6369C33.9476 23.9707 33.9677 23.4154 33.9877 23.4154C34.0078 23.4154 34.279 23.577 34.6004 23.7688ZM44.8449 29.644C44.7646 30.0781 44.1017 30.7141 43.3484 31.0876C42.3441 31.5822 41.2895 31.8144 39.7729 31.8649C37.724 31.9356 36.0467 31.5419 34.8113 30.6939C34.0882 30.1891 33.9476 29.8661 33.9476 28.7254C33.9476 28.1903 33.9677 27.7563 33.9978 27.7563C34.0279 27.7563 34.2589 27.8875 34.5201 28.049C35.1729 28.4528 36.6192 28.9273 37.6537 29.0787C38.8589 29.2503 41.2091 29.1494 42.2336 28.8768C43.1074 28.6446 44.5235 28.0187 44.7244 27.7765C44.8248 27.6553 44.855 27.7765 44.8751 28.473C44.8952 28.9374 44.8751 29.4623 44.8449 29.644ZM44.7947 34.1262C44.624 34.5401 44.0013 35.0852 43.3183 35.4183C40.5262 36.8114 35.665 36.2966 34.2188 34.4593C34.0179 34.2069 33.9978 34.0353 33.9677 32.8845C33.9476 32.1778 33.9476 31.5923 33.9777 31.5923C34.0078 31.5923 34.269 31.7438 34.5803 31.9255C36.127 32.8643 39.1502 33.2681 41.5104 32.8542C42.5449 32.6725 43.8908 32.198 44.4432 31.8144L44.8449 31.5318L44.8751 32.6927C44.8851 33.3791 44.855 33.9646 44.7947 34.1262ZM34.9419 36.4379C35.3035 36.6196 36.0266 36.8821 36.5489 37.0234C37.4227 37.2556 37.6838 37.2758 39.4214 37.2758C41.1589 37.2758 41.42 37.2556 42.2938 37.0234C43.2379 36.771 44.0615 36.4076 44.624 36.0139L44.8952 35.8221V37.0436C44.8952 38.4064 44.8248 38.6386 44.2423 39.1534C43.0772 40.173 40.6266 40.7383 38.3567 40.486C36.6895 40.3043 35.3838 39.8399 34.6004 39.1534C34.0179 38.6386 33.9476 38.4165 33.9476 37.0335C33.9476 35.8726 33.9576 35.812 34.1284 35.9533C34.2188 36.0442 34.5904 36.2562 34.9419 36.4379ZM35.4441 40.9907C38.2563 42.0406 42.1131 41.8387 44.3227 40.5263L44.8952 40.1831V41.4248C44.8952 42.8986 44.8048 43.1106 43.8406 43.7567C42.7559 44.4936 41.2794 44.847 39.3711 44.847C37.3825 44.8369 35.5947 44.3422 34.6607 43.5447C34.0179 42.9895 33.9476 42.7775 33.9476 41.3945V40.173L34.4196 40.4759C34.6808 40.6475 35.1428 40.8696 35.4441 40.9907Z" fill="url(#paint1_linear_89_11724)"/>
<path d="M6.28746 12.634C5.76519 13.3406 1.66738 19.6399 1.56694 19.9023C1.4866 20.1244 1.50668 20.2153 1.65734 20.3768C1.81804 20.5686 1.95865 20.5888 3.13375 20.5888H4.41934V23.1529C4.41934 25.6968 4.41934 25.7271 4.6403 25.8785C4.83113 26.0098 5.21279 26.04 6.8499 26.04C8.70798 26.04 8.84859 26.0299 9.03942 25.8381C9.23025 25.6463 9.24029 25.505 9.24029 23.1125V20.5888H10.5259C11.3896 20.5888 11.8516 20.5484 11.932 20.4676C12.2433 20.1547 12.0525 19.7913 9.68221 16.1773C8.37654 14.1886 7.24161 12.5027 7.15121 12.4321C6.86999 12.2201 6.54859 12.2908 6.28746 12.634ZM8.65776 16.7325L10.4455 19.4279L9.37086 19.4783C8.34641 19.5288 8.28614 19.5389 8.16562 19.7812C8.07523 19.9629 8.03505 20.6998 8.03505 22.4261V24.8286H6.7796H5.52414V22.315C5.52414 20.1547 5.50405 19.7711 5.36344 19.6399C5.24292 19.5187 4.98178 19.4783 4.20842 19.4783C3.66607 19.4783 3.2141 19.4581 3.2141 19.4279C3.2141 19.337 6.75951 14.0271 6.81977 14.0271C6.8499 14.0271 7.68353 15.2486 8.65776 16.7325Z" fill="url(#paint2_linear_89_11724)"/>
<path d="M20.9209 18.1052C18.8118 18.509 17.255 19.3973 16.6423 20.5381L16.4214 20.9419V31.9958V43.0498L16.6926 43.5242C17.2249 44.4227 18.2895 45.1192 19.8262 45.5634C23.4921 46.6335 28.0519 45.6542 29.3074 43.5242L29.5786 43.0498V31.9958V20.9419L29.3576 20.528C28.8454 19.569 27.4794 18.7008 25.8122 18.2667C24.7174 17.9841 22.0358 17.8932 20.9209 18.1052ZM25.4607 19.3772C26.5856 19.6699 27.4292 20.0939 27.9716 20.6289C28.3733 21.0428 28.4235 21.1337 28.4235 21.5476C28.4235 21.9615 28.3733 22.0523 27.9716 22.4662C27.4393 23.0012 26.6056 23.4151 25.4607 23.7281C24.2956 24.0511 21.7043 24.0511 20.5393 23.7281C19.3943 23.4151 18.5607 23.0012 18.0284 22.4662C17.6266 22.0523 17.5764 21.9615 17.5764 21.5476C17.5764 21.1438 17.6266 21.0428 18.0183 20.639C18.7113 19.9425 19.9568 19.4074 21.4432 19.1753C22.4074 19.0238 24.5367 19.1349 25.4607 19.3772ZM18.3297 24.1319C18.8419 24.4448 20.0672 24.8284 21.0415 24.9798C23.462 25.3836 26.3947 24.9496 27.9314 23.9703L28.4738 23.6271L28.5039 24.4044C28.5742 26.0196 28.3131 26.5143 27.0174 27.1906C26.0131 27.7257 24.9886 27.9679 23.4519 28.0285C20.9209 28.1295 18.7616 27.4733 17.8375 26.3124C17.5362 25.9389 17.5262 25.8783 17.486 24.7477L17.4559 23.5766L17.7271 23.7584C17.8878 23.8593 18.1589 24.0309 18.3297 24.1319ZM18.5707 28.3112C18.872 28.4626 19.545 28.7049 20.0773 28.8462C20.9511 29.0784 21.2222 29.1087 22.9498 29.1087C24.5969 29.1188 24.9786 29.0885 25.7318 28.8967C26.6659 28.6544 27.7305 28.2102 28.2327 27.8468L28.5441 27.6247L28.5139 28.9471C28.4738 30.2393 28.4738 30.2696 28.1624 30.6532C26.4148 32.8337 20.1476 32.975 18.0485 30.8652C17.5362 30.3402 17.476 30.1283 17.476 28.6948V27.6449L17.7572 27.8367C17.9078 27.9477 18.2694 28.1597 18.5707 28.3112ZM18.631 32.652C21.3528 33.9038 25.8624 33.7422 28.0218 32.2987L28.4738 31.9958L28.5039 33.0053C28.5139 33.5605 28.4838 34.1965 28.4235 34.4287C28.1925 35.2868 27.0576 36.0338 25.3502 36.4477C24.1851 36.7404 22.0358 36.7606 20.8406 36.4981C19.4043 36.1751 18.179 35.529 17.7672 34.8628C17.5563 34.5094 17.5262 34.3277 17.486 33.2173L17.4559 31.9655L17.7873 32.1876C17.9782 32.3088 18.3598 32.5207 18.631 32.652ZM17.9279 36.5789C19.7358 37.8206 23.3917 38.1941 26.1235 37.437C26.8467 37.2351 28.1524 36.6294 28.2729 36.4376C28.303 36.3871 28.3733 36.3366 28.4336 36.3366C28.5541 36.3366 28.5441 38.3152 28.4135 38.7897C28.0218 40.203 24.9685 41.2529 22.0257 40.9702C19.7157 40.7582 17.8777 39.8497 17.5864 38.7796C17.476 38.4162 17.4258 36.3366 17.5262 36.3366C17.5463 36.3366 17.7271 36.4477 17.9279 36.5789ZM19.0528 41.485C19.3742 41.6062 20.0471 41.798 20.5393 41.909C21.7345 42.1917 24.165 42.2018 25.3602 41.9494C26.3947 41.7172 27.5899 41.2529 28.1122 40.8793L28.524 40.5765V41.4043C28.524 41.8686 28.4738 42.4138 28.4135 42.6258C28.0218 44.0391 24.8982 45.1091 22.0257 44.8164C19.6554 44.564 17.8777 43.6958 17.5864 42.6258C17.5262 42.4138 17.476 41.8686 17.476 41.4144V40.5866L17.9782 40.9298C18.2493 41.1115 18.7415 41.3639 19.0528 41.485Z" fill="url(#paint3_linear_89_11724)"/>
<path d="M5.12237 30.4917C3.44508 30.6835 1.75775 31.3498 0.893997 32.1675C-0.030018 33.0356 0.000112944 32.8035 0.000112944 38.1841C0.000112944 43.5949 -0.030018 43.4031 0.934172 44.2612C3.43504 46.5326 9.83284 46.5225 12.2433 44.2612C13.1975 43.3628 13.1573 43.6151 13.1573 38.2042C13.1573 33.6514 13.1472 33.4596 12.9564 33.0457C12.0726 31.2186 8.61756 30.0879 5.12237 30.4917ZM9.23022 31.8848C10.2848 32.1978 11.0079 32.5612 11.5001 33.0457C12.2232 33.7322 12.2232 34.2975 11.5001 34.984C10.9979 35.4786 10.2748 35.8319 9.18001 36.155C8.48699 36.3569 8.1656 36.3872 6.5787 36.3872C4.99181 36.3872 4.67041 36.3569 3.96735 36.155C2.29006 35.6704 1.15513 34.8124 1.15513 34.0249C1.15513 33.0962 2.48089 32.1978 4.48962 31.7536C5.53416 31.5214 8.2359 31.5921 9.23022 31.8848ZM3.44508 37.1847C6.0263 37.9317 9.22018 37.6692 11.3293 36.5386L12.0525 36.1449V37.2049C12.0525 38.4263 11.9721 38.6585 11.3394 39.2036C10.3953 40.0112 8.60752 40.5059 6.5787 40.5059C4.54988 40.5059 2.76212 40.0112 1.81801 39.2036C1.18526 38.6585 1.10491 38.4263 1.10491 37.2049V36.1449L1.8381 36.5386C2.2298 36.7506 2.95294 37.0433 3.44508 37.1847ZM2.33024 40.8491C3.63591 41.4851 5.8656 41.798 7.71363 41.6062C9.41101 41.4346 10.566 41.0813 11.6909 40.3747L12.0525 40.1526V41.4144C12.0525 42.8883 11.9521 43.1104 11.0481 43.7161C9.96341 44.453 8.48699 44.8164 6.5787 44.8164C4.67041 44.8164 3.19399 44.453 2.10928 43.7161C1.20535 43.1104 1.10491 42.8883 1.10491 41.4144V40.1526L1.46649 40.3747C1.65731 40.5059 2.04902 40.7179 2.33024 40.8491Z" fill="url(#paint4_linear_89_11724)"/>
<defs>
<linearGradient id="paint0_linear_89_11724" x1="17.4766" y1="13.7168" x2="23.9668" y2="0.602255" gradientUnits="userSpaceOnUse">
<stop stop-color="#DFBD69"/>
<stop offset="0.53125" stop-color="#FEF7C0"/>
<stop offset="1" stop-color="#926F34"/>
</linearGradient>
<linearGradient id="paint1_linear_89_11724" x1="32.8428" y1="45.9736" x2="56.8888" y2="25.6869" gradientUnits="userSpaceOnUse">
<stop stop-color="#DFBD69"/>
<stop offset="0.53125" stop-color="#FEF7C0"/>
<stop offset="1" stop-color="#926F34"/>
</linearGradient>
<linearGradient id="paint2_linear_89_11724" x1="1.52051" y1="26.04" x2="8.02595" y2="12.9287" gradientUnits="userSpaceOnUse">
<stop stop-color="#DFBD69"/>
<stop offset="0.53125" stop-color="#FEF7C0"/>
<stop offset="1" stop-color="#926F34"/>
</linearGradient>
<linearGradient id="paint3_linear_89_11724" x1="16.4214" y1="46" x2="32.7279" y2="25.8681" gradientUnits="userSpaceOnUse">
<stop stop-color="#DFBD69"/>
<stop offset="0.53125" stop-color="#FEF7C0"/>
<stop offset="1" stop-color="#926F34"/>
</linearGradient>
<linearGradient id="paint4_linear_89_11724" x1="0" y1="45.9609" x2="6.92306" y2="30.5648" gradientUnits="userSpaceOnUse">
<stop stop-color="#DFBD69"/>
<stop offset="0.53125" stop-color="#FEF7C0"/>
<stop offset="1" stop-color="#926F34"/>
</linearGradient>
</defs>
</svg>
