<svg width="46" height="46" viewBox="0 0 46 46" fill="none" xmlns="http://www.w3.org/2000/svg">
<path d="M24.3885 0.103682C23.2836 0.46323 23.3465 0.409298 15.7289 8.00478C7.69813 16.0227 7.99457 15.6902 7.99457 16.7868C8.00355 18.4946 9.62048 19.6452 11.2284 19.0789C11.435 19.007 11.6237 18.9441 11.6417 18.9441C11.6596 18.9441 11.6776 20.4182 11.6776 22.225C11.6776 25.371 11.6866 25.5059 11.8483 25.5957C12.0998 25.7216 12.3603 25.7036 12.522 25.5418C12.6477 25.425 12.6657 24.9486 12.6657 21.7036V18.0003L19.1335 11.5284L25.6012 5.05647L32.1139 11.5733L38.6265 18.0901V23.0879C38.6265 27.025 38.6535 28.1126 38.7433 28.2384C38.923 28.4811 39.444 28.4002 39.5877 28.1126C39.6775 27.9418 39.7045 26.8362 39.7045 23.4654V19.043L40.1357 19.2317C41.4292 19.816 42.9922 19.1508 43.4504 17.8205C43.621 17.2991 43.5761 16.4272 43.3426 15.9418C43.1539 15.5463 28.7273 1.10143 28.0985 0.678961C27.4068 0.211546 26.8049 0.04076 25.7359 0.00480461C25.0892 -0.0131721 24.6221 0.0227814 24.3885 0.103682ZM26.769 1.20031C26.9936 1.29019 27.3349 1.46997 27.5325 1.6048C27.7302 1.73963 31.1347 5.10142 35.0962 9.07444C42.9024 16.8946 42.615 16.58 42.3994 17.3261C42.2916 17.7126 41.8245 18.189 41.4382 18.3239C40.6836 18.5665 41.0878 18.9261 33.1918 11.025C26.8319 4.66996 25.8797 3.75311 25.6461 3.75311C25.4126 3.75311 24.4783 4.65198 18.2352 10.8902C12.4322 16.6879 11.0308 18.0452 10.7434 18.1351C10.2583 18.2879 9.80913 18.1351 9.40489 17.6946C9.01862 17.2722 8.91083 16.8137 9.08151 16.3823C9.25218 15.9688 23.2746 1.88345 23.8675 1.53289C24.8736 0.948622 25.8348 0.831768 26.769 1.20031Z" fill="url(#paint0_linear_89_11742)"/>
<path d="M25.0356 12.7428C24.0116 12.9226 23.0414 13.6597 22.5743 14.6125C22.3497 15.0799 22.3228 15.2147 22.3228 16.0687C22.3228 16.9586 22.3407 17.0574 22.6192 17.6147C22.9695 18.3428 23.6253 18.9451 24.3439 19.2327C24.7212 19.3855 25.0356 19.4305 25.6465 19.4395C26.3741 19.4395 26.5178 19.4125 27.0568 19.1518C27.7844 18.8102 28.3773 18.235 28.7186 17.5249C28.9342 17.0754 28.9612 16.9136 28.9702 16.1136C28.9702 15.2777 28.9522 15.1698 28.6737 14.6125C28 13.2372 26.5358 12.4912 25.0356 12.7428ZM26.6436 13.9833C27.0747 14.199 27.6317 14.8013 27.8114 15.2237C27.991 15.6462 27.9641 16.572 27.7664 17.0125C27.2095 18.244 25.8081 18.7653 24.6314 18.172C23.0324 17.372 22.8438 15.1878 24.29 14.199C24.5326 14.0462 24.847 13.8754 25.0087 13.8215C25.4219 13.6956 26.2393 13.7765 26.6436 13.9833Z" fill="url(#paint1_linear_89_11742)"/>
<path d="M20.7234 22.8269C20.1395 23.1685 20.0317 23.528 20.0317 25.2269C20.0317 26.0629 20.0677 26.764 20.1216 26.8628C20.1844 26.9797 20.3102 27.0336 20.5258 27.0336C21.0468 27.0336 21.1097 26.8449 21.1097 25.2629C21.1097 23.9235 21.1097 23.8876 21.3253 23.7527C21.5049 23.6269 22.0619 23.6179 25.7629 23.6359C29.0866 23.6539 30.0208 23.6898 30.1106 23.7797C30.2005 23.8696 30.2364 24.5258 30.2544 26.5572C30.2723 28.301 30.3172 29.2718 30.3801 29.3437C30.5328 29.5325 30.964 29.4876 31.1167 29.2628C31.2425 29.0921 31.2605 28.6696 31.2605 26.4494C31.2605 23.9145 31.2515 23.8247 31.0628 23.4381C30.9461 23.2134 30.7215 22.9438 30.5508 22.8359L30.2454 22.6292H25.6551C21.1007 22.6292 21.0648 22.6381 20.7234 22.8269Z" fill="url(#paint2_linear_89_11742)"/>
<path d="M0.116779 27.1332C0.0269489 27.2231 0 28.913 0 34.9624C0 42.6478 0 42.6658 0.188643 42.7646C0.314404 42.8366 1.2127 42.8545 3.03625 42.8366C5.59639 42.8096 5.72216 42.8006 6.16232 42.6028C6.72825 42.3422 7.38401 41.686 7.63553 41.1287C7.84214 40.6523 7.73434 40.6793 8.88416 40.895C9.52195 41.0118 9.67467 41.0748 15.316 43.3939C20.7956 45.65 20.9124 45.695 21.8107 45.8747C22.7808 46.0635 24.6583 46.0365 25.6194 45.8208C26.5267 45.6231 27.5598 45.2276 28.2784 44.8051C30.1918 43.6815 45.0227 34.4141 45.2652 34.1894C45.9839 33.5242 46.2174 32.2388 45.7772 31.304C45.5257 30.7557 44.6544 29.9287 43.9986 29.6051C42.8847 29.0658 41.5463 28.9669 40.4324 29.3355C40.1359 29.4343 38.7076 30.2973 36.8392 31.4928L33.7311 33.4793L33.6682 33.1826C33.4885 32.3737 32.8507 31.5647 32.0692 31.1602L31.665 30.9444L27.1286 30.8995C21.9724 30.8456 22.2149 30.8815 21.5502 30.0905C20.4273 28.7422 19.8524 28.2748 18.6756 27.7175C17.418 27.1242 17.1395 27.0793 14.2829 27.0793C12.1091 27.0793 11.633 27.1063 11.1389 27.2411C10.4292 27.4299 9.35128 27.9422 8.444 28.4995C8.0757 28.7332 7.75231 28.922 7.71638 28.922C7.68044 28.922 7.62655 28.8231 7.5996 28.7063C7.51875 28.3737 6.7552 27.5827 6.25215 27.322L5.79402 27.0793L3.0093 27.0523C0.871349 27.0343 0.197625 27.0523 0.116779 27.1332ZM5.64131 28.1669C6.06351 28.3377 6.43181 28.6883 6.65639 29.1287C6.82706 29.4523 6.82706 29.677 6.8091 34.9714L6.78215 40.4815L6.53961 40.859C6.40486 41.0568 6.09944 41.3444 5.86588 41.4793L5.4347 41.7309L3.21591 41.7579L0.988127 41.7939V34.9085V28.0231H3.14404C4.89572 28.0231 5.37182 28.0501 5.64131 28.1669ZM16.9149 28.1669C18.3432 28.4905 19.4571 29.1916 20.562 30.486C21.1369 31.1512 21.4154 31.3939 21.8107 31.5916L22.3227 31.8433L26.8321 31.8883L31.3326 31.9332L31.7279 32.2029C33.0574 33.1467 32.9406 34.9175 31.4943 35.6905L31.126 35.8883L24.5864 35.9152L18.0558 35.9422L17.9121 36.1579C17.7953 36.3467 17.7863 36.4096 17.8941 36.6253L18.0109 36.877H24.7481H31.4853L32.0513 36.5714C32.689 36.2298 33.0574 35.8343 33.3538 35.1871C33.5424 34.7737 33.6412 34.7017 36.8302 32.6793C38.6358 31.5377 40.2797 30.522 40.4863 30.4321C41.8158 29.8478 43.3968 30.1714 44.3939 31.2411C45.0766 31.9692 45.1305 32.6703 44.5645 33.3175C44.3759 33.5422 29.0689 43.1152 27.4789 44.0141C25.835 44.9309 23.5623 45.2186 21.6759 44.7422C21.3256 44.6433 18.5678 43.5646 15.5585 42.3242C10.043 40.059 9.45009 39.8433 8.45298 39.7444L7.90502 39.6815V34.8456V30.0006L8.35417 29.7759C8.60569 29.6501 9.03687 29.3984 9.30636 29.2276C10.0699 28.7332 11.0311 28.3107 11.6779 28.1669C12.5582 27.9782 16.0616 27.9782 16.9149 28.1669Z" fill="url(#paint3_linear_89_11742)"/>
<defs>
<linearGradient id="paint0_linear_89_11742" x1="7.99316" y1="28.3818" x2="17.3847" y2="-2.54694" gradientUnits="userSpaceOnUse">
<stop stop-color="#DFBD69"/>
<stop offset="0.53125" stop-color="#FEF7C0"/>
<stop offset="1" stop-color="#926F34"/>
</linearGradient>
<linearGradient id="paint1_linear_89_11742" x1="22.3228" y1="19.4395" x2="25.02" y2="12.4526" gradientUnits="userSpaceOnUse">
<stop stop-color="#DFBD69"/>
<stop offset="0.53125" stop-color="#FEF7C0"/>
<stop offset="1" stop-color="#926F34"/>
</linearGradient>
<linearGradient id="paint2_linear_89_11742" x1="20.0317" y1="29.4619" x2="21.8187" y2="21.7431" gradientUnits="userSpaceOnUse">
<stop stop-color="#DFBD69"/>
<stop offset="0.53125" stop-color="#FEF7C0"/>
<stop offset="1" stop-color="#926F34"/>
</linearGradient>
<linearGradient id="paint3_linear_89_11742" x1="0" y1="46.001" x2="3.45208" y2="23.9814" gradientUnits="userSpaceOnUse">
<stop stop-color="#DFBD69"/>
<stop offset="0.53125" stop-color="#FEF7C0"/>
<stop offset="1" stop-color="#926F34"/>
</linearGradient>
</defs>
</svg>
