<svg width="37" height="42" viewBox="0 0 37 42" fill="none" xmlns="http://www.w3.org/2000/svg">
<path d="M10.8126 0.124449C8.95337 0.792471 7.89098 2.63557 8.28535 4.51086C8.39803 5.05816 8.71192 5.72618 9.02581 6.07226C9.15459 6.22518 9.24312 6.37005 9.21897 6.3942C9.19483 6.42639 8.99362 6.53102 8.76826 6.6276L8.37389 6.81272L8.18877 6.61956C7.89903 6.31371 7.23905 5.90324 6.70785 5.70203C6.03983 5.45253 4.98548 5.44448 4.26112 5.69398C2.98142 6.13665 2.10413 7.09442 1.79829 8.37412C1.64537 9.02605 1.64537 9.57334 1.79829 10.1689C1.94316 10.7243 2.33754 11.4889 2.60314 11.7384L2.7963 11.9154L2.23291 12.1971C1.2027 12.7122 0.454197 13.5895 0.188598 14.5956C0.0920165 14.9658 0.0678711 15.5453 0.0678711 17.2033C0.0678711 19.1993 0.0759196 19.3522 0.236889 19.6822C0.357616 19.9237 0.518585 20.1007 0.776136 20.2537L1.15441 20.471L18.2976 20.4951C30.483 20.5112 35.5455 20.4871 35.795 20.4307C36.2699 20.31 36.5757 20.0846 36.7769 19.6903C36.9298 19.3844 36.9379 19.2556 36.9137 16.9779L36.8896 14.5875L36.5918 13.9759C36.2296 13.2434 35.5214 12.5432 34.797 12.1891C34.5314 12.0603 34.298 11.9476 34.2819 11.9315C34.2658 11.9154 34.3624 11.7786 34.5072 11.6177C35.4248 10.5633 35.5777 8.84898 34.8694 7.44855C34.5716 6.87711 33.8312 6.16884 33.2034 5.87105C32.5434 5.55716 31.6661 5.42034 30.9659 5.53301C30.3301 5.63764 29.4367 6.07226 28.9699 6.49883L28.6238 6.82077L28.1973 6.61151L27.7626 6.40225L28.0765 5.95958C28.5031 5.37204 28.7285 4.74427 28.7767 4.01186C28.8894 2.41021 28.0846 1.00978 26.6519 0.325661C26.0322 0.0278664 26.0161 0.0278664 25.0101 0.0278664C24.0121 0.0278664 23.996 0.0278664 23.4004 0.325661C21.7987 1.12246 20.9617 2.80458 21.3239 4.51086C21.4365 5.05011 21.8229 5.83081 22.1207 6.1447L22.3621 6.38615L21.8792 6.60346L21.4043 6.81272L21.2192 6.61151C20.7122 6.07226 19.7544 5.6135 18.8932 5.50887C17.9435 5.38814 16.6558 5.81471 15.9314 6.49078L15.5853 6.82077L15.1587 6.61151L14.7241 6.40225L15.038 5.95958C15.4646 5.37204 15.6899 4.74427 15.7382 4.01186C15.8509 2.41021 15.038 1.00978 13.5973 0.317612C13.0259 0.0439644 12.9293 0.0278664 12.1003 0.00372124C11.4082 -0.0123749 11.1265 0.0198193 10.8126 0.124449ZM12.9696 1.54903C13.38 1.71804 13.8951 2.21705 14.1366 2.67581C14.3137 3.02189 14.3539 3.19091 14.3539 3.73016C14.3539 4.26941 14.3137 4.43842 14.1366 4.78451C13.7985 5.42034 13.1708 5.92739 12.551 6.06421C11.4323 6.30567 10.3297 5.77447 9.83066 4.75231C9.64554 4.38208 9.6053 4.18892 9.6053 3.73016C9.61335 1.9756 11.3357 0.864906 12.9696 1.54903ZM26.0886 1.56512C27.4648 2.28144 27.8431 4.13258 26.8532 5.25937C25.67 6.59541 23.6499 6.33786 22.8692 4.75231C22.169 3.32774 23.0865 1.60537 24.672 1.36391C25.1066 1.29952 25.7425 1.3961 26.0886 1.56512ZM6.4825 7.11856C7.96341 7.83487 8.3095 9.67797 7.19076 10.9174C6.56298 11.6177 5.404 11.8672 4.55891 11.4808C3.95528 11.2072 3.577 10.845 3.3114 10.3058C2.99751 9.66992 2.99751 8.83288 3.30335 8.22925C3.93113 7.01393 5.29132 6.53907 6.4825 7.11856ZM19.4808 7.08637C20.0361 7.31977 20.6317 8.00389 20.8007 8.58338C21.0422 9.42042 20.841 10.2414 20.2293 10.9174C19.6015 11.6177 18.4425 11.8672 17.5974 11.4808C16.6316 11.0382 16.1246 10.2736 16.1246 9.2836C16.1326 7.51294 17.855 6.38615 19.4808 7.08637ZM32.5193 7.08637C33.0746 7.31977 33.6702 8.00389 33.8392 8.58338C34.4187 10.5794 32.3583 12.334 30.5072 11.4164C29.6218 10.9738 29.1711 10.2494 29.1711 9.2836C29.1711 7.51294 30.8935 6.38615 32.5193 7.08637ZM14.0802 7.6739C14.3297 7.75439 14.6114 7.87512 14.7161 7.9556C14.8851 8.08438 14.8931 8.11657 14.8046 8.51094C14.6839 9.08239 14.6919 9.60554 14.8368 10.1689C14.9817 10.7243 15.376 11.4889 15.6416 11.7384L15.8348 11.9154L15.2553 12.2052C14.2251 12.7122 13.4283 13.6861 13.1949 14.7244C13.1466 14.9175 13.1064 15.996 13.1064 17.1067V19.143H11.9796H10.8528V17.0584C10.8528 15.2395 10.8367 14.9095 10.6999 14.4829C10.394 13.4929 9.65359 12.6559 8.66363 12.181L8.12438 11.9235L8.35779 11.6981C8.63948 11.4245 9.03386 10.6357 9.16263 10.0562C9.25922 9.63773 9.23507 8.62362 9.11434 8.21315C9.06605 8.06023 9.12239 8.01194 9.52482 7.81878C10.1526 7.53708 10.6436 7.48074 12.2613 7.50489C13.2995 7.52098 13.7342 7.56123 14.0802 7.6739ZM27.1188 7.6739C27.3683 7.75439 27.65 7.87512 27.7465 7.94755C27.9156 8.07633 27.9156 8.10047 27.819 8.65582C27.7465 9.09043 27.7465 9.37213 27.8109 9.8148C27.9156 10.4587 28.3421 11.4245 28.6721 11.7303L28.8733 11.9154L28.2938 12.2052C27.2475 12.7203 26.4185 13.7666 26.2254 14.8048C26.1771 15.0382 26.1449 16.1006 26.1449 17.1791V19.143H25.0181H23.8913V17.0665C23.8913 14.8773 23.843 14.5312 23.4889 13.831C23.2153 13.2998 22.4024 12.5271 21.7987 12.2213C21.509 12.0764 21.2595 11.9476 21.2434 11.9315C21.2273 11.9154 21.3319 11.7706 21.4768 11.6016C21.8068 11.2313 22.0885 10.6277 22.2092 10.0482C22.2977 9.62163 22.2655 8.59948 22.1529 8.21315C22.1046 8.06023 22.1609 8.01194 22.5633 7.81878C23.1911 7.53708 23.6821 7.48074 25.2998 7.50489C26.3381 7.52098 26.7727 7.56123 27.1188 7.6739ZM7.2632 13.1469C8.21292 13.3481 8.87289 13.8229 9.24312 14.5795L9.48457 15.0785L9.46848 17.0906L9.44433 19.1027H5.46034H1.47635V17.0101C1.47635 14.99 1.4844 14.9014 1.66147 14.5795C2.03974 13.8632 2.77215 13.332 3.62529 13.1469C4.32551 12.9939 6.54688 12.9939 7.2632 13.1469ZM20.7524 13.2515C21.6056 13.5815 22.2253 14.2012 22.4346 14.9175C22.4989 15.1348 22.5231 15.8753 22.507 17.1711L22.4828 19.1027H18.4989H14.5149V17.0101C14.5149 14.99 14.5229 14.9014 14.7 14.5795C14.9253 14.1529 15.3278 13.7424 15.7946 13.4688C16.4063 13.1066 16.9938 13.0261 18.7403 13.0583C20.1166 13.0744 20.3661 13.0986 20.7524 13.2515ZM33.7909 13.2515C34.6441 13.5815 35.2638 14.2012 35.4731 14.9175C35.5374 15.1348 35.5616 15.8753 35.5455 17.1711L35.5214 19.1027H31.5374H27.5534L27.5292 17.155C27.5051 14.8773 27.5614 14.6197 28.2133 13.9678C28.994 13.1871 29.6299 13.0181 31.7788 13.0583C33.1551 13.0744 33.4046 13.0986 33.7909 13.2515Z" fill="url(#paint0_linear_163_37)"/>
<path d="M0.671328 22.2259C-0.0127917 22.6122 -0.12547 23.1595 0.115984 25.0348C1.08985 32.8015 6.8123 39.0793 14.4825 40.7937C16.9453 41.341 20.0037 41.341 22.5953 40.7776C24.1487 40.4476 26.0562 39.7232 27.4727 38.9264C32.7203 35.9807 36.1087 30.9665 36.8894 24.9945C37.1228 23.1756 37.0101 22.6122 36.326 22.2259L36.0041 22.0407H18.4987H0.993266L0.671328 22.2259ZM18.0962 23.8034C18.0962 24.4231 18.2572 25.405 18.4262 25.8799C18.6435 26.4433 19.2713 27.1274 19.8267 27.393C20.8005 27.8517 21.9032 27.8356 24.6155 27.3125C25.3882 27.1676 26.2171 27.0227 26.4506 26.9986C26.9093 26.9423 27.4405 27.0469 27.5854 27.224C27.6417 27.2883 27.7544 27.8034 27.8349 28.3749C28.1488 30.4112 28.5753 32.2623 29.2434 34.4998C29.4446 35.1758 29.5895 35.7634 29.5653 35.8117C29.5331 35.8519 29.2273 36.1014 28.8731 36.3751C26.5793 38.1216 23.7463 39.2967 20.8327 39.7071C19.6094 39.8761 17.3799 39.8761 16.1646 39.7071C14.5952 39.4818 12.414 38.854 11.3758 38.3228L11.086 38.1699L11.4241 37.695C11.915 36.9787 12.1082 36.7936 12.8647 36.3026C14.0076 35.5622 15.0539 34.7251 15.8507 33.8961C16.728 32.9867 17.219 32.3025 17.5651 31.4977C17.7743 31.0067 17.8065 30.8377 17.8146 30.1697C17.8146 29.4936 17.7904 29.3488 17.5892 28.9222C16.9614 27.5781 15.3195 26.8215 12.2692 26.4674C11.5287 26.3789 10.5629 26.234 10.1363 26.1374C9.70975 26.0489 8.9532 25.8879 8.45419 25.7833C6.61109 25.397 5.45211 25.4533 4.36557 25.9845C3.77803 26.2742 2.94904 27.0147 2.52247 27.6344L2.20858 28.0851L2.09591 27.7793C1.79006 26.9101 1.35545 24.5116 1.35545 23.6826V23.409H9.72585H18.0962V23.8034ZM35.6419 23.6746C35.6419 23.8195 35.6017 24.246 35.5614 24.6163C35.1268 28.222 33.5171 31.7713 31.2152 34.2181L30.7484 34.7171L30.5311 34.033C29.9838 32.2945 29.4526 29.9121 29.1629 27.9161C29.0019 26.7974 28.7846 26.3386 28.2534 25.9845C27.6095 25.5579 26.6357 25.5257 24.857 25.8638C24.2614 25.9764 23.4646 26.1294 23.0863 26.2018C22.708 26.2662 22.0561 26.3306 21.6376 26.3386C20.9696 26.3467 20.8247 26.3225 20.4705 26.1455C19.8106 25.8155 19.5852 25.3406 19.4886 24.1092L19.4403 23.409H27.5451H35.6419V23.6746ZM8.82442 27.2642C10.2973 27.5942 10.7641 27.6666 12.4623 27.8759C14.2169 28.0851 15.392 28.4876 16.0197 29.0993C16.5912 29.6546 16.6234 30.3387 16.1163 31.2965C15.5127 32.4474 14.2732 33.6627 12.4382 34.8941C11.3355 35.6346 10.5468 36.3992 10.1605 37.0833C10.0317 37.3087 9.88682 37.4938 9.83853 37.4938C9.79024 37.4938 9.42805 37.2765 9.03368 37.0189C7.03766 35.6909 5.15432 33.7674 3.93096 31.7955C3.49634 31.0953 2.88465 29.9041 2.88465 29.7592C2.88465 29.55 3.68145 28.3427 4.10802 27.9081C5.20261 26.7893 6.11209 26.6686 8.82442 27.2642Z" fill="url(#paint1_linear_163_37)"/>
<defs>
<linearGradient id="paint0_linear_163_37" x1="0.0678711" y1="20.5" x2="5.01001" y2="-2.85407" gradientUnits="userSpaceOnUse">
<stop stop-color="#DFBD69"/>
<stop offset="0.53125" stop-color="#FEF7C0"/>
<stop offset="1" stop-color="#926F34"/>
</linearGradient>
<linearGradient id="paint1_linear_163_37" x1="0" y1="41.2021" x2="4.32561" y2="19.248" gradientUnits="userSpaceOnUse">
<stop stop-color="#DFBD69"/>
<stop offset="0.53125" stop-color="#FEF7C0"/>
<stop offset="1" stop-color="#926F34"/>
</linearGradient>
</defs>
</svg>
