<svg width="43" height="35" viewBox="0 0 43 35" fill="none" xmlns="http://www.w3.org/2000/svg">
<path d="M20.0728 0.0544052C17.8649 0.264282 15.8836 0.818363 13.9863 1.75023C13.0881 2.18677 11.5937 3.11864 11.0061 3.59716C10.7962 3.76506 10.7038 3.77346 6.12847 3.77346H1.45236L1.00742 4.00852C0.721984 4.15124 0.461734 4.37791 0.302226 4.60458C0.0503709 4.96557 0.0503709 4.96557 0.0251855 6.3004L0 7.63523H0.629637H1.26767V6.72016C1.26767 5.74632 1.36002 5.32656 1.60348 5.20064C1.81335 5.0915 12.0554 5.0915 12.2653 5.20064C12.5843 5.36854 12.6011 5.66237 12.6011 10.7414C12.6011 15.8205 12.5843 16.1143 12.2653 16.2822C12.1646 16.3326 10.6954 16.3662 8.52108 16.3662H4.92796L3.13979 17.3736C2.14916 17.9277 1.32643 18.381 1.30964 18.381C1.28446 18.381 1.26767 16.2235 1.26767 13.5958V8.81055H0.638032H0.00839516V14.7291C0.00839516 17.9865 0.0251855 20.6477 0.0503709 20.6477C0.0755564 20.6477 1.0326 20.1188 2.19114 19.4724C3.34127 18.826 4.3403 18.2719 4.41585 18.2467C4.51659 18.2047 4.54178 18.2635 4.54178 18.5573C4.54178 19.5647 5.07068 21.8482 5.63315 23.2586C8.91566 31.4859 17.697 35.8094 26.2181 33.4084C28.2161 32.8375 30.508 31.679 31.9939 30.4785C32.1954 30.3106 32.3214 30.3022 34.9406 30.3022H37.6775L40.2884 31.7713C41.7323 32.5772 42.9244 33.2405 42.9496 33.2405C42.9748 33.2405 42.9916 31.4271 42.9916 29.2108V25.1811H42.362H41.7323V28.0774C41.7323 29.6725 41.7155 30.9738 41.6904 30.9738C41.6736 30.9738 40.8508 30.5204 39.8602 29.9664L38.072 28.9589H34.4789C32.3046 28.9589 30.8354 28.9254 30.7347 28.875C30.4157 28.7071 30.3989 28.4132 30.3989 23.3342C30.3989 18.2551 30.4157 17.9613 30.7347 17.7934C30.9446 17.6842 41.1866 17.6842 41.3965 17.7934C41.6652 17.9361 41.7323 18.3558 41.7323 19.9425V21.4872H42.3704H43L42.9748 19.5228L42.9496 17.5583L42.6978 17.1973C42.5383 16.9706 42.278 16.744 41.9926 16.6013C41.5476 16.3662 41.5224 16.3662 40.0533 16.3662H38.5506L38.5002 15.8793C38.3491 14.4521 38.2651 13.898 38.0804 13.1341C36.6029 6.93004 31.8512 2.08603 25.7312 0.532928C24.0102 0.0963783 21.6427 -0.105103 20.0728 0.0544052ZM20.8284 4.68853V7.95425L19.9301 8.01301C18.1839 8.12215 15.615 8.49993 14.5572 8.80216C14.4061 8.84414 14.2802 8.85253 14.2802 8.81055C14.2802 8.76858 14.4649 8.29005 14.6831 7.73597C15.4723 5.79669 16.4209 4.32754 17.6298 3.16901C18.4442 2.37986 19.1494 1.91813 19.9721 1.6243C20.9207 1.28849 20.8284 0.952686 20.8284 4.68853ZM23.3637 1.70825C24.1864 2.04406 24.7741 2.43863 25.4877 3.14382C26.3104 3.96655 26.9569 4.9152 27.6201 6.3004C28.1238 7.33301 28.7618 8.97006 28.6863 9.03722C28.6695 9.05401 28.4092 9.00364 28.1154 8.91129C26.9149 8.53351 24.9168 8.18092 23.5148 8.09697C23.0783 8.07178 22.5914 8.0298 22.4487 8.00462L22.1716 7.96264V4.68014V1.39763L22.5242 1.45639C22.7173 1.48997 23.0951 1.59911 23.3637 1.70825ZM16.4461 2.3211C16.379 2.40505 16.1607 2.6653 15.9508 2.90036C15.4051 3.53 14.7419 4.51223 14.2802 5.38533L13.8772 6.14089L13.8436 5.55323C13.8184 5.0831 13.7681 4.90681 13.575 4.62137C13.4406 4.43668 13.2224 4.21001 13.0881 4.12605L12.8446 3.96655L13.1636 3.75667C13.81 3.33691 14.6496 2.90036 15.5226 2.54777C16.5217 2.1364 16.6308 2.11122 16.4461 2.3211ZM28.3504 2.94234C29.4082 3.44605 30.9697 4.48705 31.9016 5.30977C34.269 7.42535 35.9313 10.1874 36.7456 13.3439C37.0478 14.5612 37.0394 14.5696 36.2335 13.7049C34.9323 12.3113 33.1861 11.0353 31.3559 10.1454L30.3401 9.65007L29.9036 8.32364C29.148 6.02336 28.2917 4.35272 27.1332 2.91715L26.5455 2.18677L27.024 2.36307C27.2843 2.45542 27.8887 2.71567 28.3504 2.94234ZM20.8284 12.8402V16.3662H17.3444H13.8604V13.3943V10.414L14.3473 10.2797C16.0599 9.776 18.6373 9.37303 20.3918 9.32266L20.8284 9.31426V12.8402ZM24.3124 9.53254C25.6808 9.69205 27.066 9.99427 28.2581 10.3888L29.1816 10.6995L29.3663 11.5222C29.5929 12.5716 29.87 14.4857 29.9455 15.5435L30.0043 16.3662H26.0838H22.1716V12.8486V9.33105L22.7005 9.36463C22.9859 9.38982 23.7163 9.46538 24.3124 9.53254ZM31.3139 11.6565C32.0863 12.0511 33.4799 13.0165 34.2606 13.6965C35.0834 14.4185 36.2335 15.703 36.5609 16.2571C36.6113 16.341 36.0656 16.3662 33.9752 16.3662H31.3223V15.9213C31.3223 15.1741 30.9613 12.3953 30.7599 11.6061C30.7011 11.3627 30.7263 11.3627 31.3139 11.6565ZM18.8303 17.7094H20.8284V21.227V24.7446L20.3079 24.711C19.1326 24.6186 17.5459 24.4004 16.6308 24.1989C15.5898 23.9722 13.894 23.4517 13.8268 23.3426C13.6505 23.0655 13.1384 19.8502 13.0545 18.5154L12.9957 17.6003L14.9098 17.6507C15.9676 17.6842 17.7306 17.7094 18.8303 17.7094ZM11.7112 18.6077C11.77 19.5564 12.0219 21.4872 12.1814 22.1924C12.2317 22.4191 12.2569 22.6206 12.2317 22.6374C12.089 22.7801 9.78875 21.2942 8.73936 20.3791C7.91663 19.6571 6.7665 18.3726 6.43909 17.8102C6.38872 17.7346 6.92601 17.7094 9.0164 17.7094H11.6525L11.7112 18.6077ZM29.1396 20.6897V23.6616L28.7114 23.7875C28.0146 23.9974 26.428 24.3332 25.5549 24.4675C24.7909 24.5767 22.8264 24.7614 22.3731 24.7614H22.1716V21.2354V17.7094H25.6556H29.1396V20.6897ZM8.25244 21.7643C9.30184 22.6122 10.4184 23.3258 11.6441 23.9218L12.6599 24.4255L13.0964 25.7436C13.852 28.0523 14.7083 29.7229 15.8668 31.1585L16.4545 31.8888L15.976 31.7125C14.4229 31.1501 12.4248 29.9412 11.0984 28.7658C9.369 27.2211 7.87466 25.1307 7.03514 23.0823C6.56501 21.9406 6.05291 20.2028 6.05291 19.741C6.05291 19.6655 6.36353 19.9341 6.7665 20.3707C7.15267 20.7904 7.82429 21.4117 8.25244 21.7643ZM15.5814 25.3406C16.8155 25.6596 17.8733 25.8359 19.1913 25.9451C19.7958 25.9954 20.4086 26.0542 20.5597 26.071L20.8284 26.113V29.3955V32.678L20.4758 32.6192C19.5355 32.4681 18.4358 31.8469 17.5123 30.9318C16.6896 30.1259 16.0515 29.1772 15.3799 27.7752C14.9602 26.9105 14.2802 25.2147 14.2802 25.0384C14.2802 25.0132 14.3641 25.0216 14.4733 25.0468C14.574 25.0804 15.0777 25.2147 15.5814 25.3406ZM28.51 25.8695C28.384 26.2053 28.0818 26.9021 27.8383 27.4058C26.5203 30.1594 24.3627 32.2582 22.4822 32.6108L22.1716 32.6696V29.3955V26.1214L23.0363 26.071C24.8161 25.9535 26.705 25.6932 28.0482 25.3658C28.3924 25.2819 28.6946 25.2231 28.7114 25.2315C28.7282 25.2483 28.6359 25.5337 28.51 25.8695ZM29.425 29.4542C29.5594 29.6389 29.7776 29.8656 29.9119 29.9496L30.1554 30.1091L29.828 30.3189C29.0053 30.8646 26.6043 31.9896 26.4951 31.8804C26.4783 31.8637 26.6882 31.5866 26.9652 31.2676C27.5865 30.5456 28.4428 29.2779 28.8206 28.514L29.0976 27.9347L29.148 28.5224C29.1816 28.9841 29.2403 29.1856 29.425 29.4542Z" fill="url(#paint0_linear_163_26)"/>
<path d="M23.9348 4.86452V5.53613H24.6064H25.278V4.86452V4.19291H24.6064H23.9348V4.86452Z" fill="url(#paint1_linear_163_26)"/>
<path d="M31.4902 8.3069V8.97852H32.1618H32.8335V8.3069V7.63529H32.1618H31.4902V8.3069Z" fill="url(#paint2_linear_163_26)"/>
<path d="M6.30465 8.09675V8.72638H5.0034H3.70215V9.398V10.0696H4.23944C4.75994 10.0696 4.77673 10.078 4.87747 10.3299C4.93624 10.4642 5.22167 10.9427 5.50711 11.3793L6.036 12.1684L5.28883 12.8148C4.87747 13.1674 4.54166 13.478 4.54166 13.4948C4.54166 13.562 5.31402 14.519 5.36439 14.519C5.39797 14.519 5.76736 14.2252 6.17872 13.8558L6.93428 13.201L7.68985 13.8558C8.10121 14.2252 8.4706 14.519 8.50418 14.519C8.55455 14.519 9.3269 13.562 9.3269 13.4948C9.3269 13.478 8.9911 13.1674 8.57974 12.8148L7.83257 12.1684L8.36146 11.3793C8.6469 10.9427 8.93233 10.4642 8.9911 10.3299C9.09184 10.078 9.10863 10.0696 9.62913 10.0696H10.1664V9.398V8.72638H8.86517H7.56392V8.09675V7.46711H6.93428H6.30465V8.09675ZM7.4296 10.2963C7.35404 10.4306 7.20293 10.6489 7.11058 10.8L6.94268 11.0602L6.75799 10.8C6.66564 10.6489 6.51453 10.4306 6.43057 10.2963L6.28786 10.0696H6.93428H7.58071L7.4296 10.2963Z" fill="url(#paint3_linear_163_26)"/>
<path d="M34.2944 23.1413C33.6563 24.8455 33.1274 26.2643 33.1274 26.3062C33.1274 26.3902 33.8998 26.7344 34.202 26.7848C34.3279 26.8099 34.4119 26.684 34.6302 26.1047L34.8988 25.3912H36.0657H37.2327L37.4677 26.0208C37.6021 26.365 37.7196 26.7008 37.7448 26.7512C37.77 26.8351 37.9379 26.8015 38.3912 26.6336C38.727 26.5161 39.0208 26.407 39.0292 26.3902C39.0544 26.3734 37.4006 21.9407 36.7374 20.203C36.687 20.0854 36.5695 20.0602 36.0741 20.0602H35.4697L34.2944 23.1413ZM36.3932 23.158C36.5611 23.5862 36.6954 23.9556 36.6954 23.9724C36.6954 23.9892 36.4099 24.006 36.0574 24.006C35.7048 24.006 35.4361 23.9724 35.4529 23.9388C35.4697 23.9052 35.6124 23.5274 35.7719 23.0993C35.9314 22.6795 36.0657 22.3437 36.0741 22.3521C36.0825 22.3605 36.2253 22.7215 36.3932 23.158Z" fill="url(#paint4_linear_163_26)"/>
<path d="M41.7322 23.3342V24.0059H42.3618H42.9915V23.3342V22.6626H42.3618H41.7322V23.3342Z" fill="url(#paint5_linear_163_26)"/>
<defs>
<linearGradient id="paint0_linear_163_26" x1="0" y1="34.0684" x2="11.2046" y2="-3.10323" gradientUnits="userSpaceOnUse">
<stop stop-color="#DFBD69"/>
<stop offset="0.53125" stop-color="#FEF7C0"/>
<stop offset="1" stop-color="#926F34"/>
</linearGradient>
<linearGradient id="paint1_linear_163_26" x1="23.9348" y1="5.53613" x2="24.4662" y2="4.13954" gradientUnits="userSpaceOnUse">
<stop stop-color="#DFBD69"/>
<stop offset="0.53125" stop-color="#FEF7C0"/>
<stop offset="1" stop-color="#926F34"/>
</linearGradient>
<linearGradient id="paint2_linear_163_26" x1="31.4902" y1="8.97852" x2="32.0216" y2="7.58192" gradientUnits="userSpaceOnUse">
<stop stop-color="#DFBD69"/>
<stop offset="0.53125" stop-color="#FEF7C0"/>
<stop offset="1" stop-color="#926F34"/>
</linearGradient>
<linearGradient id="paint3_linear_163_26" x1="3.70215" y1="14.519" x2="6.67387" y2="7.35903" gradientUnits="userSpaceOnUse">
<stop stop-color="#DFBD69"/>
<stop offset="0.53125" stop-color="#FEF7C0"/>
<stop offset="1" stop-color="#926F34"/>
</linearGradient>
<linearGradient id="paint4_linear_163_26" x1="33.1274" y1="26.7954" x2="36.0558" y2="20.0504" gradientUnits="userSpaceOnUse">
<stop stop-color="#DFBD69"/>
<stop offset="0.53125" stop-color="#FEF7C0"/>
<stop offset="1" stop-color="#926F34"/>
</linearGradient>
<linearGradient id="paint5_linear_163_26" x1="41.7322" y1="24.0059" x2="42.2892" y2="22.6332" gradientUnits="userSpaceOnUse">
<stop stop-color="#DFBD69"/>
<stop offset="0.53125" stop-color="#FEF7C0"/>
<stop offset="1" stop-color="#926F34"/>
</linearGradient>
</defs>
</svg>
