<svg width="28" height="37" viewBox="0 0 28 37" fill="none" xmlns="http://www.w3.org/2000/svg">
<path d="M0.153927 0.187889C0.0146597 0.361328 0 0.476952 0 1.22129C0 1.68379 0.0293194 2.16797 0.0732984 2.30527C0.183246 2.68105 0.505759 3.10019 0.850262 3.29531L1.15812 3.47598L1.19476 5.62226C1.22408 7.1832 1.26073 7.89863 1.34136 8.23828C1.6199 9.3873 2.2356 10.7025 2.93194 11.6275C3.40105 12.249 3.57696 12.408 7.60838 15.8912C9.22827 17.2932 10.555 18.4639 10.555 18.5C10.555 18.5361 9.22827 19.7068 7.60838 21.1088C3.57696 24.592 3.40105 24.751 2.93194 25.3725C2.2356 26.2975 1.6199 27.6127 1.34136 28.7617C1.26073 29.1014 1.22408 29.8168 1.19476 31.3777L1.15812 33.524L0.850262 33.7047C0.505759 33.8998 0.183246 34.3189 0.0732984 34.6947C0.0293194 34.832 0 35.3162 0 35.7787C0 36.523 0.0146597 36.6387 0.153927 36.8121L0.300524 37H14H27.6995L27.8461 36.8121C27.9853 36.6387 28 36.523 28 35.7787C28 35.3162 27.9707 34.832 27.9267 34.6947C27.8168 34.3189 27.4942 33.8998 27.1497 33.7047L26.8419 33.524L26.8052 31.3777C26.7759 29.8168 26.7393 29.1014 26.6586 28.7617C26.3801 27.6127 25.7644 26.2975 25.0681 25.3725C24.599 24.751 24.423 24.592 20.399 21.1088C18.7717 19.7068 17.445 18.5361 17.445 18.5C17.445 18.4639 18.7717 17.2932 20.399 15.8912C24.423 12.408 24.599 12.249 25.0681 11.6275C25.7644 10.7025 26.3801 9.3873 26.6586 8.23828C26.7393 7.89863 26.7759 7.1832 26.8052 5.62226L26.8419 3.47598L27.1497 3.29531C27.4942 3.10019 27.8168 2.68105 27.9267 2.30527C27.9707 2.16797 28 1.68379 28 1.22129C28 0.476952 27.9853 0.361328 27.8461 0.187889L27.6995 0H14H0.300524L0.153927 0.187889ZM26.7539 1.5248C26.7539 1.83554 26.6513 2.08125 26.4681 2.21856C26.2995 2.34863 1.70052 2.34863 1.53194 2.21856C1.34869 2.08125 1.24607 1.83554 1.24607 1.5248V1.22852H14H26.7539V1.5248ZM25.5079 5.55723C25.5079 7.36387 25.4932 7.54453 25.3319 8.17324C25.0094 9.42344 24.2691 10.7459 23.4408 11.5336C23.2283 11.7359 21.4251 13.3113 19.4461 15.024C17.0492 17.0908 15.8178 18.2037 15.7885 18.3193C15.7665 18.4205 15.7665 18.5795 15.7885 18.6807C15.8178 18.7963 16.5581 19.49 17.8995 20.6463C23.3382 25.3508 23.6461 25.6326 24.0272 26.124C24.5476 26.8033 25.112 27.9596 25.3319 28.8051C25.4932 29.4627 25.5079 29.6217 25.5079 31.4428V33.3867H14H2.49215V31.4428C2.49215 29.6217 2.50681 29.4627 2.66806 28.8051C2.88796 27.9596 3.45236 26.8033 3.97277 26.124C4.35393 25.6326 4.66178 25.3508 10.1005 20.6463C11.4419 19.49 12.1822 18.7963 12.2115 18.6807C12.2335 18.5795 12.2335 18.4205 12.2115 18.3193C12.1822 18.2037 10.9508 17.0908 8.55393 15.024C6.57487 13.3113 4.77173 11.7359 4.55916 11.5336C3.73089 10.7459 2.99058 9.42344 2.66806 8.17324C2.50681 7.54453 2.49215 7.36387 2.49215 5.55723V3.61328H14H25.5079V5.55723ZM26.4681 34.7814C26.6513 34.9188 26.7539 35.1645 26.7539 35.4752V35.7715H14H1.24607V35.4752C1.24607 35.1645 1.34869 34.9188 1.53194 34.7814C1.70052 34.6514 26.2995 34.6514 26.4681 34.7814Z" fill="url(#paint0_linear_89_11791)"/>
<path d="M3.78237 4.88472C3.5918 5.07984 3.5918 5.07984 3.5918 6.21441C3.5918 7.52964 3.70174 8.09331 4.17085 9.0689C4.72792 10.2468 4.79389 10.3119 9.21379 14.1347L13.3332 17.7046L13.3551 20.3134L13.3771 22.9222L13.5824 23.0957C13.8462 23.3197 14.1541 23.3197 14.418 23.0957L14.6232 22.9222L14.6452 20.3134L14.6672 17.7046L15.8546 16.6857C17.6871 15.1031 17.8117 14.973 17.8117 14.6695C17.8117 14.2503 17.3719 13.9396 16.9908 14.0841C16.8881 14.1203 16.1845 14.6912 15.4295 15.3488C14.6672 16.0064 14.0222 16.5484 14.0002 16.5484C13.9342 16.5484 6.35515 9.98667 6.06928 9.67593C5.73211 9.30737 5.35096 8.6353 5.09441 7.94155C4.94782 7.54409 4.88918 7.2189 4.85986 6.66245L4.81588 5.92534H14.0002H23.1845L23.1405 6.66245C23.0892 7.65249 22.8033 8.44741 22.151 9.41577C22.0483 9.56753 21.3154 10.2541 20.5311 10.9261C18.4347 12.7255 18.3981 12.7689 18.3981 13.1013C18.3981 13.5927 18.8672 13.8746 19.2997 13.6433C19.3876 13.6 20.2379 12.8845 21.1834 12.0607C23.0452 10.4492 23.3237 10.1312 23.8295 9.0689C24.2986 8.09331 24.4086 7.52964 24.4086 6.21441C24.4086 5.07984 24.4086 5.07984 24.218 4.88472L24.0201 4.69683H14.0002H3.98028L3.78237 4.88472Z" fill="url(#paint1_linear_89_11791)"/>
<path d="M7.80628 7.60957C7.37382 7.9709 7.64502 8.67188 8.20209 8.67188C8.51728 8.66465 8.68586 8.54902 8.79581 8.28164C8.8911 8.02148 8.8178 7.76133 8.5979 7.58789C8.34869 7.4 8.04084 7.40723 7.80628 7.60957Z" fill="url(#paint2_linear_89_11791)"/>
<path d="M10.958 9.21392C10.7088 9.4524 10.7088 9.82096 10.9653 10.0739C11.3684 10.4713 12.0208 10.204 12.0208 9.64752C12.0208 9.0983 11.3465 8.82369 10.958 9.21392Z" fill="url(#paint3_linear_89_11791)"/>
<path d="M13.6116 24.5125C13.4137 24.6715 13.3404 24.9822 13.3404 25.7482L13.3331 26.4854L11.7719 27.8223C10.9143 28.5594 10.0933 29.3182 9.94672 29.5133C9.58023 29.983 9.38232 30.6551 9.38232 31.3777C9.38232 31.8836 9.40431 31.9703 9.56557 32.1221L9.74149 32.3027H14.0001H18.2588L18.4347 32.1221C18.5959 31.9703 18.6179 31.8836 18.6179 31.3777C18.6179 30.6551 18.42 29.983 18.0535 29.5133C17.9069 29.3182 17.086 28.5594 16.2284 27.8223L14.6671 26.4854L14.6598 25.7555C14.6598 24.9678 14.5719 24.6064 14.3666 24.498C14.176 24.3969 13.7582 24.4113 13.6116 24.5125ZM15.4368 28.834C16.1917 29.4916 16.8734 30.0914 16.9541 30.1709C17.0933 30.3082 17.2253 30.5828 17.3279 30.908L17.3792 31.0742H14.0001H10.6211L10.6724 30.908C10.797 30.4961 10.9216 30.2937 11.2221 30.0119C11.9331 29.3471 13.9635 27.6127 14.0148 27.6271C14.0441 27.6344 14.6818 28.1764 15.4368 28.834Z" fill="url(#paint4_linear_89_11791)"/>
<defs>
<linearGradient id="paint0_linear_89_11791" x1="0" y1="37" x2="17.6732" y2="1.84668" gradientUnits="userSpaceOnUse">
<stop stop-color="#DFBD69"/>
<stop offset="0.53125" stop-color="#FEF7C0"/>
<stop offset="1" stop-color="#926F34"/>
</linearGradient>
<linearGradient id="paint1_linear_89_11791" x1="3.5918" y1="23.2637" x2="10.3164" y2="3.44678" gradientUnits="userSpaceOnUse">
<stop stop-color="#DFBD69"/>
<stop offset="0.53125" stop-color="#FEF7C0"/>
<stop offset="1" stop-color="#926F34"/>
</linearGradient>
<linearGradient id="paint2_linear_89_11791" x1="7.59277" y1="8.67187" x2="8.06816" y2="7.39751" gradientUnits="userSpaceOnUse">
<stop stop-color="#DFBD69"/>
<stop offset="0.53125" stop-color="#FEF7C0"/>
<stop offset="1" stop-color="#926F34"/>
</linearGradient>
<linearGradient id="paint3_linear_89_11791" x1="10.772" y1="10.2637" x2="11.255" y2="8.97763" gradientUnits="userSpaceOnUse">
<stop stop-color="#DFBD69"/>
<stop offset="0.53125" stop-color="#FEF7C0"/>
<stop offset="1" stop-color="#926F34"/>
</linearGradient>
<linearGradient id="paint4_linear_89_11791" x1="9.38232" y1="32.3027" x2="12.1327" y2="23.8233" gradientUnits="userSpaceOnUse">
<stop stop-color="#DFBD69"/>
<stop offset="0.53125" stop-color="#FEF7C0"/>
<stop offset="1" stop-color="#926F34"/>
</linearGradient>
</defs>
</svg>
