<svg width="41" height="41" viewBox="0 0 41 41" fill="none" xmlns="http://www.w3.org/2000/svg">
<path d="M16.695 0.100864C15.5899 0.261028 14.4448 0.517284 13.4357 0.837608C6.57284 3.00779 1.50374 8.79762 0.238462 15.9168C0.0142366 17.166 -0.0738521 20.0169 0.070293 21.2902C0.815043 27.8728 4.71497 33.4785 10.5769 36.4254C11.9943 37.1301 14.0604 37.8669 14.717 37.8909C15.1495 37.8989 15.3737 37.6747 15.3737 37.2102C15.3737 36.7938 15.1815 36.6416 14.4127 36.4334C9.60789 35.1441 5.30756 31.5485 3.12136 27.008C2.39263 25.4864 1.92816 24.037 1.59182 22.2832C1.34357 21.0019 1.28752 18.3673 1.47971 16.9258L1.61585 15.8767L3.41766 15.4043C4.81907 15.0439 5.25952 14.9558 5.39565 15.0199C5.50777 15.0679 6.50877 16.6695 8.20648 19.4884L10.8411 23.8848L10.8892 24.8057C10.9292 25.5665 10.9693 25.8067 11.1454 26.1911C11.4257 26.7837 12.0504 27.4484 12.5949 27.7127C13.0273 27.9209 14.645 28.3293 15.0534 28.3293C15.3657 28.3293 15.6139 28.097 15.662 27.7607C15.702 27.5365 15.67 27.4324 15.5178 27.2562C15.3577 27.072 15.1735 26.9999 14.3487 26.8158C13.2676 26.5675 12.8592 26.3513 12.5308 25.8628C12.2986 25.5104 12.1705 24.8698 12.1705 24.061C12.1705 23.6526 12.1224 23.4283 11.9783 23.1401C11.5939 22.3873 6.78906 14.4273 6.58085 14.2111C6.28455 13.8988 5.82809 13.6745 5.37964 13.6185C5.08334 13.5864 4.68294 13.6585 3.57782 13.9468C2.79303 14.155 2.11235 14.3152 2.07231 14.2992C1.85609 14.2271 3.17742 11.152 3.99424 9.83867C6.39666 5.97078 10.2646 3.08787 14.6289 1.91069L15.1975 1.75853L15.2536 2.36715C15.3577 3.70449 15.3577 3.70449 16.4628 4.06486C16.9032 4.20099 17.3116 4.38518 17.3837 4.47327C17.5279 4.63343 18.4168 6.7956 18.4168 6.9878C18.4168 7.05186 18.0724 7.7886 17.648 8.62945C17.1275 9.68652 16.8312 10.183 16.711 10.2311C16.6149 10.2791 15.3256 10.5113 13.8522 10.7516C12.3787 10.9918 11.0814 11.2321 10.9693 11.2801C10.1845 11.6084 9.73602 12.2811 9.73602 13.114C9.73602 13.7386 9.67196 13.6025 11.2736 16.2771C11.9703 17.4383 12.651 18.4874 12.8271 18.6555C13.0193 18.8477 13.2916 18.9999 13.5639 19.08C13.9643 19.2001 14.1805 19.1921 17.3357 18.9198C20.667 18.6395 20.683 18.6395 21.0114 18.7917C21.4598 18.9999 23.5419 20.6976 23.7421 21.0179C23.8302 21.1621 23.9744 21.3943 24.0624 21.5384C24.1986 21.7627 24.2787 21.8027 24.567 21.8267C24.8392 21.8508 24.9433 21.8107 25.1035 21.6506C25.3437 21.4023 25.3598 21.13 25.1355 20.6415C24.8633 20.0489 24.631 19.8087 23.2376 18.7116C21.8762 17.6305 21.5079 17.4143 20.9393 17.3262C20.7631 17.2942 19.1455 17.3983 17.3517 17.5504C15.0294 17.7506 14.0283 17.8067 13.9002 17.7506C13.66 17.6385 11.1054 13.3862 11.1054 13.0899C11.0974 12.6175 11.1935 12.5854 14.2285 12.0809C17.1515 11.5924 17.4558 11.5043 17.8722 11.0559C17.9843 10.9358 18.4488 10.0949 18.8972 9.19002C19.9943 7.00381 19.9783 7.11593 19.2256 5.21001C18.7211 3.93673 18.609 3.72051 18.3046 3.44023C18.0003 3.15995 17.4238 2.87966 16.8712 2.74353C16.711 2.70349 16.663 2.62341 16.623 2.32711C16.5589 1.83862 16.5589 1.50228 16.639 1.50228C16.671 1.50228 16.9273 1.46224 17.2156 1.4222C18.0244 1.30207 20.4989 1.31809 21.4999 1.45423C22.7091 1.6224 23.9503 1.91069 23.9984 2.03081C24.0224 2.08686 23.9824 2.66344 23.9103 3.30409C23.6941 5.2981 23.7661 5.90671 24.3267 6.55536C24.4869 6.73955 25.3678 7.53235 26.2967 8.33315C27.2256 9.12595 28.0264 9.81464 28.0825 9.86269C28.1385 9.91875 28.2667 11.0239 28.4268 12.7536C28.563 14.2912 28.7071 15.7326 28.7552 15.9568C28.8593 16.4934 29.1155 16.9739 29.4599 17.3022C29.7322 17.5664 33.4239 19.6726 34.4889 20.1771C34.8974 20.3693 35.0815 20.4093 35.57 20.4093C35.8904 20.4093 36.3548 20.3693 36.5951 20.3292C36.8353 20.2892 37.0435 20.2652 37.0595 20.2812C37.1156 20.3292 36.9074 21.9068 36.7472 22.7236C36.6511 23.1881 36.4749 23.9088 36.3468 24.3413C36.0986 25.1741 36.1226 25.5185 36.4349 25.6866C36.6271 25.7907 37.0435 25.7907 37.2357 25.6866C37.54 25.5265 38.1566 23.124 38.3648 21.2902C38.509 20.0169 38.4209 17.166 38.1967 15.9168C36.7712 7.87669 30.549 1.65443 22.5009 0.220985C21.2116 -0.0112457 17.9603 -0.0753098 16.695 0.100864ZM27.4499 3.34413C32.9194 6.15496 36.7152 11.9368 37.0515 17.9669L37.0996 18.8557L36.555 18.9518C35.3939 19.1601 35.4499 19.1761 33.2557 17.9508C30.557 16.4613 30.4128 16.3652 30.2367 16.0689C30.1085 15.8607 30.0365 15.2521 29.7882 12.5854C29.58 10.3592 29.4599 9.31014 29.3798 9.19802C29.3157 9.10994 28.3868 8.2851 27.3057 7.36418C26.2246 6.43524 25.2957 5.58639 25.2396 5.47427C25.1115 5.19399 25.1195 4.73753 25.2637 3.46425C25.3277 2.88767 25.3838 2.4152 25.3838 2.40719C25.3838 2.36715 26.7532 2.98377 27.4499 3.34413Z" fill="url(#paint0_linear_163_52)"/>
<path d="M21.1394 23.1319C19.2976 23.4362 17.9842 24.0128 17.2315 24.8376C16.6149 25.5023 16.6549 25.0458 16.6549 32.0288C16.6549 39.2121 16.5908 38.6034 17.4477 39.3962C18.1124 40.0209 19.1214 40.4693 20.5388 40.7896C21.2996 40.9578 23.9502 41.0299 24.8391 40.9098C26.3366 40.6935 27.8662 40.125 28.5308 39.5484L28.8271 39.2841L29.1234 39.5484C29.7881 40.125 31.3177 40.6935 32.8152 40.9098C33.7201 41.0379 36.3467 40.9578 37.1555 40.7816C38.5329 40.4773 39.5339 40.0209 40.2066 39.3962C41.0474 38.6195 40.9994 38.9478 40.9994 33.9347C40.9994 28.9217 41.0474 29.25 40.2066 28.4732C39.1255 27.4722 37.5079 26.9837 35.0654 26.9117C32.9113 26.8476 31.5499 27.0718 30.1965 27.6965C29.8282 27.8646 29.5158 28.0088 29.4998 28.0088C29.4838 28.0088 29.4678 27.4963 29.4678 26.8716C29.4678 25.5183 29.3877 25.286 28.675 24.6294C28.0023 24.0047 27.0173 23.5563 25.6239 23.244C24.9192 23.0838 21.8601 23.0037 21.1394 23.1319ZM24.1424 24.4372C26.0884 24.5493 28.1064 25.4702 28.1064 26.247C28.1064 26.4552 28.0343 26.5833 27.7861 26.8156C26.8411 27.7205 24.5588 28.225 22.1644 28.0728C20.0183 27.9367 18.0163 27.0478 18.0163 26.247C18.0163 25.6944 19.0253 25.0458 20.4827 24.6774C21.1955 24.4932 22.741 24.3251 23.2215 24.3731C23.3336 24.3891 23.75 24.4132 24.1424 24.4372ZM35.674 28.2811C37.62 28.3932 39.638 29.3141 39.638 30.0909C39.638 30.2991 39.566 30.4272 39.3177 30.6594C38.3728 31.5644 36.0905 32.0689 33.696 31.9167C31.5499 31.7806 29.5479 30.8917 29.5479 30.0909C29.5479 29.5383 30.5569 28.8897 32.0144 28.5213C32.7271 28.3371 34.2726 28.1689 34.7531 28.217C34.8652 28.233 35.2816 28.257 35.674 28.2811ZM18.6649 28.6414C19.8901 29.21 21.1794 29.4502 23.0613 29.4502C24.9432 29.4502 26.2325 29.21 27.4578 28.6414C27.8261 28.4732 28.1385 28.3291 28.1545 28.3291C28.1705 28.3291 28.1865 28.7135 28.1865 29.186C28.1865 30.2671 28.0904 30.4913 27.4257 30.9317C26.4568 31.5804 24.9112 31.9407 23.0613 31.9407C21.2115 31.9407 19.6659 31.5804 18.6969 30.9317C18.0323 30.4913 17.9362 30.2671 17.9362 29.186C17.9362 28.7135 17.9522 28.3291 17.9682 28.3291C17.9842 28.3291 18.2965 28.4732 18.6649 28.6414ZM18.6649 32.4853C19.8901 33.0539 21.1794 33.2941 23.0613 33.2941C24.9432 33.2941 26.2325 33.0539 27.4578 32.4853C27.8261 32.3171 28.1385 32.173 28.1545 32.173C28.1705 32.173 28.1865 32.5574 28.1865 33.0298C28.1865 34.1109 28.0904 34.3351 27.4257 34.7756C26.4568 35.4242 24.9112 35.7846 23.0613 35.7846C21.2115 35.7846 19.6659 35.4242 18.6969 34.7756C18.0323 34.3351 17.9362 34.1109 17.9362 33.0298C17.9362 32.5574 17.9522 32.173 17.9682 32.173C17.9842 32.173 18.2965 32.3171 18.6649 32.4853ZM30.1965 32.4853C31.4218 33.0539 32.7111 33.2941 34.5929 33.2941C36.4748 33.2941 37.7641 33.0539 38.9894 32.4853C39.3577 32.3171 39.6701 32.173 39.6861 32.173C39.7021 32.173 39.7181 32.5574 39.7181 33.0298C39.7181 34.1109 39.622 34.3351 38.9573 34.7756C37.9884 35.4242 36.4428 35.7846 34.5929 35.7846C32.7431 35.7846 31.1975 35.4242 30.2286 34.7756C29.5639 34.3351 29.4678 34.1109 29.4678 33.0298C29.4678 32.5574 29.4838 32.173 29.4998 32.173C29.5158 32.173 29.8282 32.3171 30.1965 32.4853ZM18.6649 36.3292C19.8901 36.8977 21.1794 37.138 23.0613 37.138C24.9432 37.138 26.2325 36.8977 27.4578 36.3292C27.8261 36.161 28.1385 36.0168 28.1545 36.0168C28.1705 36.0168 28.1865 36.4012 28.1865 36.8737C28.1865 37.9548 28.0904 38.179 27.4257 38.6195C26.4568 39.2681 24.9112 39.6285 23.0613 39.6285C21.2115 39.6285 19.6659 39.2681 18.6969 38.6195C18.0323 38.179 17.9362 37.9548 17.9362 36.8737C17.9362 36.4012 17.9522 36.0168 17.9682 36.0168C17.9842 36.0168 18.2965 36.161 18.6649 36.3292ZM30.1965 36.3292C31.4218 36.8977 32.7111 37.138 34.5929 37.138C36.4748 37.138 37.7641 36.8977 38.9894 36.3292C39.3577 36.161 39.6701 36.0168 39.6861 36.0168C39.7021 36.0168 39.7181 36.4012 39.7181 36.8737C39.7181 37.9548 39.622 38.179 38.9573 38.6195C37.9884 39.2681 36.4428 39.6285 34.5929 39.6285C32.7431 39.6285 31.1975 39.2681 30.2286 38.6195C29.5639 38.179 29.4678 37.9548 29.4678 36.8737C29.4678 36.4012 29.4838 36.0168 29.4998 36.0168C29.5158 36.0168 29.8282 36.161 30.1965 36.3292Z" fill="url(#paint1_linear_163_52)"/>
<defs>
<linearGradient id="paint0_linear_163_52" x1="0" y1="37.8911" x2="14.8292" y2="-1.64588" gradientUnits="userSpaceOnUse">
<stop stop-color="#DFBD69"/>
<stop offset="0.53125" stop-color="#FEF7C0"/>
<stop offset="1" stop-color="#926F34"/>
</linearGradient>
<linearGradient id="paint1_linear_163_52" x1="16.6538" y1="40.9727" x2="22.1833" y2="21.2095" gradientUnits="userSpaceOnUse">
<stop stop-color="#DFBD69"/>
<stop offset="0.53125" stop-color="#FEF7C0"/>
<stop offset="1" stop-color="#926F34"/>
</linearGradient>
</defs>
</svg>
