<svg width="46" height="42" viewBox="0 0 46 42" fill="none" xmlns="http://www.w3.org/2000/svg">
<path d="M41.0847 0.251511C38.7569 0.867302 1.20565 10.0317 0.806855 10.077C0.547177 10.1132 0.278226 10.2128 0.17621 10.3124C0 10.4845 0 10.7562 0 22.4381C0 34.274 0 34.3917 0.185484 34.5728C0.370968 34.7539 0.491532 34.7539 13.3548 34.7539C26.2181 34.7539 26.3387 34.7539 26.5242 34.5728C26.7746 34.3283 26.7746 33.7306 26.5242 33.4861C26.3387 33.305 26.2181 33.305 13.9113 33.305H1.48387V22.4381V11.5712H23H44.5161V22.9814C44.5161 34.274 44.5161 34.3917 44.7016 34.5728C44.8222 34.6905 45.0077 34.7539 45.2581 34.7539C45.5085 34.7539 45.694 34.6905 45.8145 34.5728C46 34.3917 46 34.274 46 22.4653C46 10.9011 45.9907 10.5388 45.8238 10.3577C45.7032 10.2309 45.2488 8.63713 44.3863 5.34084C43.6907 2.67845 43.0786 0.432625 43.0323 0.333012C42.7911 -0.0926056 42.4294 -0.101662 41.0847 0.251511ZM42.8839 5.83891C43.4774 8.12095 43.9597 10.0136 43.9597 10.0498C43.9597 10.0951 43.6536 10.1223 43.2734 10.1223H42.5871L42.4016 9.41593C42.2903 9.03559 42.0492 8.1119 41.8637 7.37838C41.6782 6.63581 41.4464 5.94758 41.3629 5.83891C41.2238 5.6759 41.1032 5.64874 40.519 5.63968C39.6008 5.63968 39.2762 5.44951 38.9052 4.73411C38.7105 4.35376 38.5528 4.17265 38.3766 4.10926C38.0706 4.00059 38.6363 3.87381 23.8996 7.45083L12.8726 10.1223L10.248 10.1042L7.62339 10.077L24.6137 5.89324C33.9528 3.60214 41.6411 1.70949 41.6968 1.70949C41.7524 1.70043 42.2625 3.49347 42.8839 5.83891ZM37.95 6.18303C38.4137 6.6992 38.9516 7.0071 39.6472 7.16105L40.2036 7.28783L40.5004 8.5013C40.6673 9.17142 40.825 9.80532 40.8528 9.91399L40.8992 10.1223L30.2617 10.1132L19.6149 10.1042L28.4254 7.9489C33.2758 6.76259 37.3101 5.79363 37.4121 5.78457C37.5048 5.77552 37.746 5.95663 37.95 6.18303Z" fill="url(#paint0_linear_163_55)"/>
<path d="M39.7406 3.61287C39.4345 3.78493 39.3232 3.98416 39.3232 4.34639C39.3232 4.79917 39.5829 5.05273 40.0466 5.05273C40.5289 5.05273 40.8071 4.79012 40.8071 4.33733C40.8071 4.1381 40.7329 3.90265 40.6495 3.79399C40.4454 3.56759 39.991 3.47703 39.7406 3.61287Z" fill="url(#paint1_linear_163_55)"/>
<path d="M3.38462 13.0108C3.08784 13.1376 2.94873 13.3549 2.94873 13.7081C2.94873 14.1518 3.26405 14.4688 3.70921 14.4688C4.65518 14.4688 4.77575 13.1285 3.84833 12.9746C3.69067 12.9564 3.48663 12.9655 3.38462 13.0108Z" fill="url(#paint2_linear_163_55)"/>
<path d="M5.38834 13.1916C5.28632 13.2912 5.17503 13.5538 5.14721 13.7711C5.02664 14.559 4.54439 15.0299 3.73753 15.1476C3.51495 15.1748 3.246 15.2835 3.14398 15.3831C2.97705 15.5461 2.96777 15.7634 2.96777 22.4375C2.96777 29.1116 2.97705 29.3289 3.14398 29.4919C3.246 29.5915 3.51495 29.7002 3.73753 29.7274C4.54439 29.8451 5.02664 30.316 5.14721 31.1038C5.17503 31.3212 5.28632 31.5838 5.38834 31.6834C5.56455 31.8555 5.81495 31.8555 15.9516 31.8555C26.2182 31.8555 26.3387 31.8555 26.5242 31.6744C26.7746 31.4298 26.7746 30.8322 26.5242 30.5877C26.3387 30.4065 26.2182 30.4065 16.471 30.4065H6.60326L6.53834 30.1439C6.39922 29.51 5.36979 28.5048 4.7206 28.369L4.45164 28.3056V22.4375V16.5694L4.7206 16.506C5.36979 16.3701 6.39922 15.365 6.53834 14.7311L6.60326 14.4684H23H39.3968L39.4617 14.7311C39.6008 15.365 40.6303 16.3701 41.2795 16.506L41.5484 16.5694V22.5824C41.5484 28.4777 41.5484 28.5954 41.7339 28.7765C41.9843 29.021 42.5964 29.021 42.8468 28.7765C43.0323 28.5954 43.0323 28.4777 43.0323 22.0753C43.0323 15.7543 43.023 15.5461 42.8561 15.3831C42.7541 15.2835 42.4851 15.1748 42.2625 15.1476C41.4557 15.0299 40.9734 14.559 40.8529 13.7711C40.825 13.5538 40.7137 13.2912 40.6117 13.1916C40.4355 13.0195 40.0924 13.0195 23 13.0195C5.90769 13.0195 5.56455 13.0195 5.38834 13.1916Z" fill="url(#paint3_linear_163_55)"/>
<path d="M41.7338 13.2009C41.6133 13.3187 41.5483 13.4998 41.5483 13.7443C41.5483 13.9888 41.6133 14.1699 41.7338 14.2876C41.8544 14.4054 42.0399 14.4688 42.2903 14.4688C42.5407 14.4688 42.7262 14.4054 42.8467 14.2876C42.9673 14.1699 43.0322 13.9888 43.0322 13.7443C43.0322 13.4998 42.9673 13.3187 42.8467 13.2009C42.7262 13.0832 42.5407 13.0198 42.2903 13.0198C42.0399 13.0198 41.8544 13.0832 41.7338 13.2009Z" fill="url(#paint4_linear_163_55)"/>
<path d="M22.379 15.2058C19.7266 15.4503 17.5843 16.8086 16.425 19.0001C15.3307 21.0467 15.3121 23.6819 16.3601 25.7467C17.1206 27.2318 18.1129 28.2098 19.6153 28.9162C20.923 29.532 21.4145 29.6406 23.1395 29.6406C24.5307 29.6406 24.6698 29.6225 25.3653 29.3871C27.8137 28.5539 29.6686 26.4892 30.2992 23.9355C30.5218 23.0209 30.494 21.4271 30.2436 20.5124C30.021 19.6884 29.3996 18.4749 28.9823 18.0402C28.6206 17.6689 28.2311 17.6327 27.8786 17.9315C27.5262 18.2394 27.4984 18.5292 27.7766 19.0001C28.2867 19.8785 28.6484 20.7026 28.7504 21.2369C28.9266 22.1153 28.8339 23.528 28.5371 24.334C27.9528 25.9459 26.5988 27.2771 24.948 27.8476C24.0298 28.1645 22.5182 28.237 21.6093 28.0106C19.4948 27.4763 17.8532 25.8734 17.2968 23.7906C17.0557 22.9031 17.1391 21.3365 17.473 20.4943C18.2057 18.6288 19.8194 17.2524 21.7669 16.8267C22.4069 16.6819 23.7887 16.709 24.4379 16.872C24.744 16.9535 25.319 17.1709 25.727 17.3701C26.5988 17.8048 26.9883 17.8319 27.2573 17.4969C27.6839 16.9716 27.3686 16.383 26.4226 15.9212C25.7919 15.6042 24.7996 15.3235 24.0484 15.242C23.7516 15.2148 23.427 15.1786 23.325 15.1605C23.223 15.1514 22.7964 15.1695 22.379 15.2058Z" fill="url(#paint5_linear_163_55)"/>
<path d="M22.7679 18.99C22.3134 19.1982 21.8497 19.6601 21.6642 20.0857C21.59 20.2668 21.4973 20.7015 21.4695 21.0637L21.3953 21.7157H20.9037C20.2917 21.7157 20.032 21.915 20.032 22.3859C20.032 22.8296 20.1154 22.9926 20.4122 23.1103L20.6626 23.2099L19.9763 24.1065C19.4013 24.8581 19.29 25.0664 19.29 25.3562C19.29 25.5825 19.355 25.7637 19.4755 25.8814C19.6517 26.0534 19.7816 26.0625 22.9997 26.0625C26.2179 26.0625 26.3477 26.0534 26.5239 25.8814C26.6445 25.7637 26.7094 25.5825 26.7094 25.338C26.7094 25.0935 26.6445 24.9124 26.5239 24.7947C26.3477 24.6226 26.2179 24.6136 23.9735 24.6136H21.6086L21.9239 24.1789C22.0908 23.9435 22.3042 23.6174 22.3876 23.4544C22.5267 23.1918 22.5824 23.1647 22.9441 23.1647C23.4449 23.1647 23.7417 22.893 23.7417 22.4311C23.7417 22.078 23.4356 21.7157 23.1388 21.7157C22.9904 21.7157 22.9812 21.6614 23.0275 21.2539C23.1017 20.6291 23.2965 20.3574 23.6582 20.3574C24.2517 20.3574 24.4836 20.7106 24.4836 21.589C24.4836 22.2048 24.6876 22.4402 25.2255 22.4402C25.8469 22.4402 25.9675 22.241 25.9675 21.2358C25.9675 20.62 25.9211 20.3121 25.7912 20.0404C25.5779 19.5967 25.105 19.1439 24.6505 18.9628C24.1683 18.7636 23.2316 18.7817 22.7679 18.99Z" fill="url(#paint6_linear_163_55)"/>
<path d="M9.19983 19.7335C7.3079 20.4489 6.78854 23.0841 8.25387 24.524C9.73774 25.9639 12.4458 25.4477 13.1599 23.5731C13.7535 22.0246 13.0115 20.2678 11.5462 19.7335C10.8599 19.4799 9.87685 19.4799 9.19983 19.7335ZM11.1103 21.2639C12.316 21.9793 11.7966 23.7995 10.3869 23.7995C8.97725 23.7995 8.4579 21.9793 9.66354 21.2639C10.0623 21.0285 10.7115 21.0285 11.1103 21.2639Z" fill="url(#paint7_linear_163_55)"/>
<path d="M34.4259 19.7335C32.534 20.4489 32.0146 23.0841 33.4799 24.524C34.9638 25.9639 37.6719 25.4477 38.386 23.5731C38.9795 22.0246 38.2376 20.2678 36.7723 19.7335C36.086 19.4799 35.1029 19.4799 34.4259 19.7335ZM36.3364 21.2639C37.542 21.9793 37.0227 23.7995 35.613 23.7995C34.2033 23.7995 33.684 21.9793 34.8896 21.2639C35.2884 21.0285 35.9376 21.0285 36.3364 21.2639Z" fill="url(#paint8_linear_163_55)"/>
<path d="M33.7579 28.2353C31.5042 28.4073 29.5288 28.8963 28.4901 29.5393C28.0635 29.8019 27.5627 30.3362 27.4978 30.6169C27.4607 30.7347 27.4514 31.6855 27.47 32.7269L27.4978 34.6377L27.7482 34.9637C27.8966 35.1357 28.2119 35.4165 28.4716 35.5795L28.9353 35.8693V37.7438V39.6183L29.2042 39.9806C30.1224 41.2122 33.1921 42 37.0966 42C41.001 42 44.0708 41.2122 44.9889 39.9806L45.2579 39.6183V37.6804C45.2579 36.1772 45.23 35.6881 45.128 35.4889C44.9704 35.1991 44.3305 34.6105 43.9966 34.4656L43.774 34.366V32.5186C43.774 30.4539 43.7555 30.3905 43.1434 29.8472C42.3829 29.1771 40.8434 28.6609 38.7938 28.3802C37.5232 28.2081 35.0284 28.1357 33.7579 28.2353ZM38.4506 29.9196C39.9994 30.1189 41.5946 30.5807 42.0768 30.9701C42.3829 31.2146 41.576 31.6764 40.2869 32.0025C37.7365 32.6273 34.5833 32.7088 31.9123 32.2107C30.345 31.9119 28.8982 31.3233 29.0651 31.0516C29.1579 30.9158 29.7792 30.6079 30.4099 30.3996C32.2462 29.7838 35.7425 29.5755 38.4506 29.9196ZM30.4006 34.1215C30.4284 34.7645 30.4284 34.7735 30.2151 34.7101C29.9276 34.6196 29.501 34.4022 29.195 34.1939C28.9631 34.04 28.9353 33.9676 28.9353 33.4876V32.9533L29.6587 33.2159L30.3728 33.4695L30.4006 34.1215ZM42.2067 34.0672C42.0861 34.203 41.3163 34.6196 41.0103 34.7101C40.797 34.7735 40.797 34.7645 40.8248 34.1124L40.8526 33.4604L41.5482 33.225L42.2438 32.9895L42.2716 33.4695C42.2901 33.7412 42.253 34.0038 42.2067 34.0672ZM39.3224 34.4294C39.3224 35.1901 39.3502 35.1629 38.4599 35.2535L37.8385 35.3169V34.6377V33.9585L38.5155 33.8679C38.8772 33.8227 39.2111 33.7774 39.2575 33.7683C39.2946 33.7683 39.3224 34.0581 39.3224 34.4294ZM33.1365 33.9404H33.3869V34.6286V35.3259L32.7841 35.2625C31.8845 35.172 31.903 35.1901 31.903 34.4656V33.8227L32.3946 33.8861C32.6542 33.9132 32.9881 33.9404 33.1365 33.9404ZM36.3546 34.7554V35.4799H35.6127H34.8708V34.7554V34.0309H35.6127H36.3546V34.7554ZM43.6534 36.1772C43.7369 36.4126 41.8635 37.1008 40.528 37.3272C38.8587 37.608 36.1228 37.6532 34.3885 37.4268C33.3313 37.291 32.0143 36.9741 31.4208 36.7024L31.1147 36.5666L31.4393 36.6028C31.6155 36.6299 32.3111 36.7114 32.9696 36.802C34.472 36.9922 37.9776 36.9378 39.2482 36.7114C40.1292 36.5575 41.7986 36.0504 42.355 35.7696L42.7075 35.5885L43.1619 35.824C43.4123 35.9598 43.6349 36.1138 43.6534 36.1772ZM31.8845 39.1837L31.9123 39.8266L31.43 39.6455C31.1611 39.5368 30.8272 39.3738 30.6788 39.2742C30.447 39.1112 30.4192 39.0388 30.4192 38.5588V38.0245L31.1425 38.2871L31.8567 38.5407L31.8845 39.1837ZM43.7369 39.0659C43.6905 39.1746 43.0135 39.5549 42.5127 39.7361L42.2809 39.8266L42.3087 39.1837L42.3365 38.5407L43.0321 38.2962L43.7276 38.0426L43.7555 38.4954C43.774 38.7399 43.7647 39.0025 43.7369 39.0659ZM34.2958 38.9663L34.8708 39.0297V39.7089V40.3881L34.4349 40.3337C34.1845 40.2975 33.8506 40.2432 33.693 40.216L33.3869 40.1707V39.4916C33.3869 38.8939 33.4055 38.8214 33.5538 38.8667C33.6373 38.8848 33.9712 38.9392 34.2958 38.9663ZM40.8063 39.5006C40.8063 40.2613 40.8341 40.2341 39.9438 40.3247L39.3224 40.3881V39.7089V39.0297L39.9994 38.9392C40.3611 38.8939 40.695 38.8486 40.7413 38.8395C40.7784 38.8395 40.8063 39.1293 40.8063 39.5006ZM37.8385 39.8266V40.5511H37.0966H36.3546V39.8266V39.1022H37.0966H37.8385V39.8266Z" fill="url(#paint9_linear_163_55)"/>
<path d="M3.38462 30.3975C3.08784 30.5243 2.94873 30.7416 2.94873 31.0948C2.94873 31.5385 3.26405 31.8555 3.70921 31.8555C4.65518 31.8555 4.77575 30.5152 3.84833 30.3613C3.69067 30.3432 3.48663 30.3522 3.38462 30.3975Z" fill="url(#paint10_linear_163_55)"/>
<defs>
<linearGradient id="paint0_linear_163_55" x1="0" y1="34.7539" x2="10.9831" y2="-3.45502" gradientUnits="userSpaceOnUse">
<stop stop-color="#DFBD69"/>
<stop offset="0.53125" stop-color="#FEF7C0"/>
<stop offset="1" stop-color="#926F34"/>
</linearGradient>
<linearGradient id="paint1_linear_163_55" x1="39.3232" y1="5.05273" x2="39.924" y2="3.4946" gradientUnits="userSpaceOnUse">
<stop stop-color="#DFBD69"/>
<stop offset="0.53125" stop-color="#FEF7C0"/>
<stop offset="1" stop-color="#926F34"/>
</linearGradient>
<linearGradient id="paint2_linear_163_55" x1="2.94873" y1="14.4687" x2="3.53363" y2="12.8977" gradientUnits="userSpaceOnUse">
<stop stop-color="#DFBD69"/>
<stop offset="0.53125" stop-color="#FEF7C0"/>
<stop offset="1" stop-color="#926F34"/>
</linearGradient>
<linearGradient id="paint3_linear_163_55" x1="2.96777" y1="31.8555" x2="6.85351" y2="10.1314" gradientUnits="userSpaceOnUse">
<stop stop-color="#DFBD69"/>
<stop offset="0.53125" stop-color="#FEF7C0"/>
<stop offset="1" stop-color="#926F34"/>
</linearGradient>
<linearGradient id="paint4_linear_163_55" x1="41.5483" y1="14.4687" x2="42.1113" y2="12.9533" gradientUnits="userSpaceOnUse">
<stop stop-color="#DFBD69"/>
<stop offset="0.53125" stop-color="#FEF7C0"/>
<stop offset="1" stop-color="#926F34"/>
</linearGradient>
<linearGradient id="paint5_linear_163_55" x1="15.5889" y1="29.6406" x2="21.2074" y2="14.4863" gradientUnits="userSpaceOnUse">
<stop stop-color="#DFBD69"/>
<stop offset="0.53125" stop-color="#FEF7C0"/>
<stop offset="1" stop-color="#926F34"/>
</linearGradient>
<linearGradient id="paint6_linear_163_55" x1="19.29" y1="26.0625" x2="22.1013" y2="18.4896" gradientUnits="userSpaceOnUse">
<stop stop-color="#DFBD69"/>
<stop offset="0.53125" stop-color="#FEF7C0"/>
<stop offset="1" stop-color="#926F34"/>
</linearGradient>
<linearGradient id="paint7_linear_163_55" x1="7.40869" y1="25.3516" x2="9.66312" y2="19.2748" gradientUnits="userSpaceOnUse">
<stop stop-color="#DFBD69"/>
<stop offset="0.53125" stop-color="#FEF7C0"/>
<stop offset="1" stop-color="#926F34"/>
</linearGradient>
<linearGradient id="paint8_linear_163_55" x1="32.6348" y1="25.3516" x2="34.8892" y2="19.2748" gradientUnits="userSpaceOnUse">
<stop stop-color="#DFBD69"/>
<stop offset="0.53125" stop-color="#FEF7C0"/>
<stop offset="1" stop-color="#926F34"/>
</linearGradient>
<linearGradient id="paint9_linear_163_55" x1="27.4607" y1="42" x2="31.9242" y2="26.8807" gradientUnits="userSpaceOnUse">
<stop stop-color="#DFBD69"/>
<stop offset="0.53125" stop-color="#FEF7C0"/>
<stop offset="1" stop-color="#926F34"/>
</linearGradient>
<linearGradient id="paint10_linear_163_55" x1="2.94873" y1="31.8555" x2="3.53363" y2="30.2844" gradientUnits="userSpaceOnUse">
<stop stop-color="#DFBD69"/>
<stop offset="0.53125" stop-color="#FEF7C0"/>
<stop offset="1" stop-color="#926F34"/>
</linearGradient>
</defs>
</svg>
