<svg width="40" height="42" viewBox="0 0 40 42" fill="none" xmlns="http://www.w3.org/2000/svg">
<path d="M27.5754 0.131645C24.5823 0.718014 21.9655 2.73967 20.6527 5.46146C19.55 7.75442 19.3837 10.625 20.2326 12.9705C20.8715 14.7558 21.948 16.2611 23.4008 17.4076L24.1097 17.9677V27.5946V37.2303L26.4989 39.6108L28.8794 42H29.2732H29.667L32.0037 39.6545L34.3492 37.3091V35.8825V34.4472L33.6053 33.6946C33.194 33.2745 32.8614 32.9069 32.8614 32.8807C32.8614 32.8544 33.159 32.6094 33.5178 32.3293C34.2442 31.7692 34.3492 31.6379 34.3492 31.2354C34.3492 31.0078 34.2004 30.8153 33.4565 30.0451C32.9752 29.5463 32.5901 29.1174 32.6076 29.0999C32.6251 29.0912 33.0014 28.8374 33.439 28.5398C33.8766 28.251 34.2617 27.9447 34.2967 27.8659C34.323 27.7872 34.3492 25.5817 34.3492 22.965V18.2128L34.9443 17.8364C35.2681 17.6264 35.8895 17.1013 36.3271 16.6637C41.3068 11.754 39.6528 3.35229 33.1852 0.683006C31.995 0.192909 30.8573 -0.00838089 29.387 0.000370026C28.7218 0.000370026 27.9079 0.0616302 27.5754 0.131645ZM31.6274 1.73322C34.0254 2.43335 35.8808 4.00867 36.931 6.22286C37.4998 7.42185 37.7099 8.35829 37.7011 9.70605C37.7011 10.9401 37.5699 11.6577 37.1498 12.7517C36.5634 14.2657 35.1281 15.9723 33.7453 16.795C33.404 16.9963 33.0627 17.2501 32.9927 17.3551C32.8789 17.5039 32.8614 18.2653 32.8614 22.3261V27.1133L31.8637 27.7609C30.2271 28.8374 30.2096 28.9511 31.5224 30.2814C32.0387 30.8065 32.4413 31.2441 32.4151 31.2616C31.1286 32.2418 30.936 32.4431 30.936 32.7932C30.936 33.0645 31.0498 33.2132 31.8987 34.0797L32.8614 35.0511V35.8388V36.6177L31.0761 38.403L29.2907 40.1884L27.4441 38.403L25.5975 36.6177V26.9645C25.5975 20.7945 25.5625 17.2501 25.5099 17.145C25.4662 17.0575 25.1161 16.7687 24.7485 16.5062C23.8996 15.9198 22.8669 14.8258 22.3943 14.0294C21.5629 12.6116 21.1953 11.3076 21.1953 9.70605C21.1953 5.80278 23.8996 2.47712 27.7854 1.61069C28.6431 1.41815 30.7785 1.48817 31.6274 1.73322Z" fill="url(#paint0_linear_163_77)"/>
<path d="M28.9237 5.43414C26.9546 5.62668 25.4755 7.09698 25.1605 9.16239C24.8191 11.3328 26.3682 13.5295 28.5561 13.9846C29.9914 14.2822 31.4092 13.8708 32.4769 12.8381C35.1025 10.3264 33.6059 5.81922 30.0177 5.42539C29.7289 5.39914 29.2388 5.39914 28.9237 5.43414ZM30.4465 7.04447C30.8491 7.19325 31.3567 7.55207 31.6718 7.92839C32.3369 8.71605 32.4944 9.92379 32.0656 10.8427C31.7505 11.5079 31.3917 11.9017 30.7703 12.2255C29.1163 13.1094 27.1646 12.208 26.692 10.3439C26.3069 8.83857 27.3747 7.22825 28.95 6.90444C29.3701 6.82567 29.9564 6.87818 30.4465 7.04447Z" fill="url(#paint1_linear_163_77)"/>
<path d="M11.1574 14.668C8.27808 15.1231 5.98512 16.2083 4.04223 18.0199C2.02058 19.919 0.707814 22.3257 0.156454 25.1526C-0.0535877 26.2465 -0.0535877 28.6183 0.165206 29.7035C1.10164 34.4294 4.34854 38.1489 8.79443 39.5842C9.97591 39.9693 10.9299 40.1443 12.1639 40.2143C13.144 40.2756 13.1528 40.2756 13.3803 40.048C13.5466 39.8817 13.6079 39.733 13.6079 39.4704C13.6079 38.9278 13.3803 38.7965 12.2601 38.7353C9.36329 38.5515 6.83404 37.4225 4.81238 35.3921C2.6332 33.2129 1.50422 30.5174 1.49547 27.4718C1.48672 26.054 1.60049 25.2838 1.98557 24.0586C3.27208 19.9978 6.55398 17.0747 10.7373 16.2608C11.2099 16.1733 11.8488 16.0945 12.1463 16.0945C12.8465 16.0857 13.3541 15.972 13.4941 15.7794C13.6692 15.5344 13.6341 14.983 13.4329 14.7817C13.2753 14.6242 13.1528 14.6067 12.3214 14.6155C11.7963 14.6242 11.2799 14.6505 11.1574 14.668Z" fill="url(#paint2_linear_163_77)"/>
<path d="M11.9276 17.4952C11.2362 17.7052 10.7286 18.2829 10.6586 18.9392C10.6323 19.1493 10.5623 19.3681 10.5098 19.4031C10.4573 19.4468 10.0809 19.6306 9.6696 19.7969L8.93446 20.1207L8.61939 19.9019C8.00677 19.4818 7.32413 19.3856 6.72902 19.6394C6.32644 19.8057 5.4075 20.6896 5.17996 21.1272C4.94366 21.5998 4.94366 22.3174 5.18871 22.8075C5.29373 23.0088 5.41625 23.1926 5.46876 23.2276C5.61754 23.3151 5.57379 23.5514 5.26747 24.234C4.89115 25.1092 4.90865 25.083 4.47982 25.1442C3.80593 25.2492 3.24582 25.7043 3.03578 26.3257C2.8695 26.8071 2.9045 28.2423 3.09704 28.6537C3.29833 29.1088 3.70966 29.4501 4.18226 29.5726C4.96991 29.7826 4.93491 29.7476 5.24997 30.5353C5.41625 30.9466 5.55628 31.3142 5.55628 31.358C5.55628 31.4105 5.45126 31.5943 5.32874 31.7693C5.01367 32.2331 4.90865 32.7495 5.03993 33.2746C5.11869 33.6159 5.25872 33.8347 5.71381 34.3161C6.47522 35.1212 6.80778 35.2875 7.56918 35.2437C8.03303 35.2175 8.23432 35.165 8.54063 34.9637C8.88195 34.7361 8.94321 34.7186 9.17951 34.8237C9.32829 34.8849 9.68711 35.0162 9.97591 35.13C10.5273 35.34 10.5098 35.3138 10.7198 36.1189C10.8423 36.6003 11.2449 37.0554 11.7175 37.2304C12.0151 37.3442 12.3214 37.3704 13.0565 37.3442C13.9317 37.3179 14.0455 37.3004 14.3868 37.0729C14.7806 36.8103 15.1832 36.1189 15.1832 35.6901C15.1832 35.4013 15.2357 35.3663 16.1371 34.9987C16.7148 34.7624 16.8985 34.7274 17.0123 34.8062C17.7037 35.305 18.5701 35.4188 19.1915 35.095C19.6291 34.8674 20.4868 33.9835 20.653 33.5809C20.9156 32.9333 20.8018 32.2244 20.3117 31.5418C20.198 31.3842 20.2067 31.3055 20.443 30.7541C20.8893 29.6951 20.8806 29.7126 21.3444 29.6426C21.8958 29.5639 22.3946 29.2225 22.6397 28.7587C22.876 28.3036 22.9635 27.0258 22.7972 26.422C22.6047 25.7218 21.8083 25.1092 21.0644 25.1092C20.9506 25.1092 20.8456 25.0392 20.8106 24.9517C20.7843 24.8729 20.6355 24.4966 20.478 24.1203L20.1892 23.4289L20.4605 23.0438C20.7756 22.5975 20.8718 21.8448 20.6968 21.2935C20.548 20.8471 19.4453 19.7444 18.999 19.5956C18.4389 19.4118 17.73 19.5169 17.2749 19.8407L16.8898 20.1207L16.1897 19.8144C15.8046 19.6481 15.437 19.5081 15.3845 19.5081C15.3232 19.5081 15.2532 19.4031 15.227 19.2631C15.0257 18.2829 14.5793 17.6877 13.9142 17.5039C13.5204 17.3989 12.2776 17.3902 11.9276 17.4952ZM13.5554 19.0355C13.6341 19.1055 13.6954 19.2718 13.6954 19.4031C13.7042 19.7181 13.9755 20.2958 14.238 20.5408C14.5706 20.8471 16.426 21.6085 16.846 21.6085C17.1786 21.6085 17.6337 21.4422 17.9575 21.2059C18.1063 21.0922 18.2813 20.9959 18.3426 20.9959C18.5001 20.9959 19.2965 21.7923 19.2965 21.9411C19.2965 22.0023 19.2003 22.1861 19.0865 22.3349C18.8502 22.6587 18.6839 23.1138 18.6839 23.4464C18.6839 23.8665 19.4453 25.7218 19.7516 26.0544C19.9967 26.317 20.5743 26.5883 20.8893 26.597C21.2744 26.597 21.3969 26.8071 21.3969 27.4197C21.3969 28.0498 21.3444 28.1286 20.8106 28.2161C20.3205 28.2949 19.7254 28.6887 19.5416 29.0563C19.2353 29.6689 18.7627 30.8766 18.7189 31.1654C18.6489 31.5593 18.8152 32.1281 19.0777 32.4432C19.2003 32.592 19.2965 32.7582 19.2965 32.8283C19.2965 32.8895 19.0865 33.1608 18.8239 33.4146L18.3513 33.8872L17.94 33.5897C17.6074 33.3534 17.4412 33.2921 16.9861 33.2658C16.3997 33.2308 16.3472 33.2483 14.7719 33.9572C14.1417 34.2373 13.8004 34.6749 13.7217 35.2787C13.6516 35.8214 13.5816 35.8739 12.9077 35.8739C12.2426 35.8739 12.1726 35.8214 12.0763 35.305C11.9363 34.4998 11.5862 34.1673 10.3347 33.6509C9.02197 33.0996 8.33934 33.1083 7.68296 33.7034C7.45541 33.9222 7.30663 33.8522 6.79028 33.2921C6.43146 32.907 6.4227 32.8808 6.55398 32.697C7.19286 31.8131 7.21036 31.2704 6.6415 29.9402C6.11639 28.7062 5.78383 28.3561 4.98742 28.2161C4.47107 28.1198 4.41855 28.0498 4.41855 27.3934C4.41855 26.737 4.50607 26.597 4.89115 26.597C5.26747 26.597 5.8801 26.2732 6.11639 25.9494C6.23017 25.8006 6.4052 25.4505 6.51022 25.1705C6.60649 24.8904 6.77277 24.5053 6.86904 24.3216C6.99157 24.0853 7.04408 23.8052 7.04408 23.4201C7.04408 22.9125 7.00907 22.8075 6.73777 22.4049L6.4227 21.9586L6.8778 21.4772C7.1316 21.2147 7.3854 20.9959 7.46416 20.9959C7.53418 20.9959 7.70046 21.0922 7.84049 21.2147C8.12054 21.4422 8.60189 21.6085 8.99572 21.6085C9.13575 21.6085 9.72211 21.416 10.3085 21.1709C11.1049 20.8471 11.4462 20.6546 11.6475 20.427C11.9101 20.1295 12.1201 19.6219 12.1201 19.2718C12.1201 18.9917 12.3039 18.8955 12.8727 18.8955C13.2578 18.8955 13.4591 18.9392 13.5554 19.0355Z" fill="url(#paint3_linear_163_77)"/>
<path d="M11.814 21.3798C8.86467 21.94 6.79051 24.4255 6.78176 27.4098C6.77301 30.7617 9.52106 33.5098 12.873 33.5098C15.6823 33.5098 18.089 31.6719 18.8242 28.9589C19.0605 28.0837 19.043 26.5609 18.7804 25.7207C18.4391 24.6092 18.019 23.9179 17.1963 23.0864C16.0586 21.94 14.8421 21.4061 13.1793 21.3098C12.7242 21.2836 12.1816 21.3098 11.814 21.3798ZM14.3258 23.0164C15.0697 23.2615 15.9798 23.8828 16.4437 24.4605C18.0278 26.3946 17.8352 29.1164 15.9973 30.7967C14.5621 32.1095 12.5929 32.3808 10.8076 31.5231C10.1687 31.2168 9.08347 30.1228 8.76841 29.4665C7.86698 27.5848 8.20829 25.5982 9.67859 24.1366C10.9301 22.8851 12.6892 22.4651 14.3258 23.0164Z" fill="url(#paint4_linear_163_77)"/>
<path d="M12.6454 23.5951C12.4003 23.6913 12.2165 23.9014 12.164 24.1552C12.129 24.3127 12.0152 24.4615 11.8752 24.5315C11.5602 24.6978 11.1926 25.1004 11.0788 25.3979C11.0263 25.538 10.9825 25.923 10.9825 26.2556C10.9825 26.9557 11.1663 27.4021 11.5952 27.7697C11.8665 27.9972 11.8665 27.9972 11.6564 27.9972C11.5426 27.9972 11.3414 28.076 11.2101 28.181C10.6412 28.6273 11.1401 30.0626 11.9452 30.3164C12.0327 30.3427 12.1378 30.4827 12.164 30.6315C12.2515 31.0078 12.5316 31.2354 12.9079 31.2354C13.2667 31.2354 13.6081 30.9553 13.6081 30.649C13.6081 30.5352 13.7481 30.3864 14.0281 30.2114C14.597 29.8613 14.8333 29.38 14.8333 28.5748C14.8333 27.8834 14.6495 27.4633 14.1769 27.052L13.8619 26.772H14.1594C15.1921 26.772 14.9558 24.9428 13.8619 24.4965C13.6868 24.4177 13.6081 24.3215 13.6081 24.1902C13.6081 23.7789 13.0479 23.4375 12.6454 23.5951ZM13.363 26.1593C13.4068 26.3256 13.5118 26.5269 13.6081 26.6057C13.7568 26.737 13.7393 26.7457 13.3193 26.7107C12.4966 26.6494 12.4703 26.6319 12.4703 26.2556C12.4703 25.8355 12.5141 25.7918 12.9429 25.8268C13.258 25.853 13.3017 25.8793 13.363 26.1593ZM13.2405 28.2248C13.3718 28.2598 13.3805 28.8024 13.2405 28.9424C13.1005 29.0824 12.6891 29.0737 12.5754 28.9336C12.5316 28.8811 12.4616 28.7324 12.4266 28.6098C12.3916 28.4873 12.3041 28.321 12.234 28.2423C12.1115 28.1022 12.1378 28.1022 12.6191 28.1372C12.8992 28.1635 13.1792 28.1985 13.2405 28.2248Z" fill="url(#paint5_linear_163_77)"/>
<defs>
<linearGradient id="paint0_linear_163_77" x1="19.6943" y1="42" x2="44.1914" y2="12.0425" gradientUnits="userSpaceOnUse">
<stop stop-color="#DFBD69"/>
<stop offset="0.53125" stop-color="#FEF7C0"/>
<stop offset="1" stop-color="#926F34"/>
</linearGradient>
<linearGradient id="paint1_linear_163_77" x1="25.1133" y1="14.0791" x2="28.5379" y2="5.05681" gradientUnits="userSpaceOnUse">
<stop stop-color="#DFBD69"/>
<stop offset="0.53125" stop-color="#FEF7C0"/>
<stop offset="1" stop-color="#926F34"/>
</linearGradient>
<linearGradient id="paint2_linear_163_77" x1="0" y1="40.249" x2="14.4472" y2="20.0918" gradientUnits="userSpaceOnUse">
<stop stop-color="#DFBD69"/>
<stop offset="0.53125" stop-color="#FEF7C0"/>
<stop offset="1" stop-color="#926F34"/>
</linearGradient>
<linearGradient id="paint3_linear_163_77" x1="2.92944" y1="37.3535" x2="10.8082" y2="16.6233" gradientUnits="userSpaceOnUse">
<stop stop-color="#DFBD69"/>
<stop offset="0.53125" stop-color="#FEF7C0"/>
<stop offset="1" stop-color="#926F34"/>
</linearGradient>
<linearGradient id="paint4_linear_163_77" x1="6.78174" y1="33.5098" x2="11.6121" y2="20.8152" gradientUnits="userSpaceOnUse">
<stop stop-color="#DFBD69"/>
<stop offset="0.53125" stop-color="#FEF7C0"/>
<stop offset="1" stop-color="#926F34"/>
</linearGradient>
<linearGradient id="paint5_linear_163_77" x1="10.9658" y1="31.2354" x2="15.362" y2="25.4161" gradientUnits="userSpaceOnUse">
<stop stop-color="#DFBD69"/>
<stop offset="0.53125" stop-color="#FEF7C0"/>
<stop offset="1" stop-color="#926F34"/>
</linearGradient>
</defs>
</svg>
