<svg width="55" height="54" viewBox="0 0 55 54" fill="none" xmlns="http://www.w3.org/2000/svg">
<path d="M14.9812 0.103043C9.35423 0.700006 5.18653 5.8958 5.87194 11.5006C6.13725 13.7448 7.05481 15.7347 8.55827 17.3266C9.60849 18.432 10.4929 19.0843 11.7531 19.6702C14.6053 21.0078 17.8665 20.9636 20.7076 19.5486C23.007 18.4099 24.6652 16.5859 25.7044 14.0654C26.025 13.2805 26.0692 13.2362 28.0038 11.5449C29.0872 10.6052 30.0269 9.83134 30.0932 9.83134C30.1485 9.83134 32.271 10.8484 34.7915 12.0976C37.7432 13.5568 39.512 14.3638 39.7331 14.3638C40.0315 14.3638 40.2637 14.1649 41.4576 12.9267C42.2204 12.1308 44.3319 9.93084 46.1559 8.0294L49.4724 4.56922L49.5277 5.66365C49.594 6.9018 49.6935 7.06762 50.4342 7.06762C50.9427 7.06762 51.2523 6.79125 51.3517 6.27167C51.396 6.07268 51.407 5.01141 51.3849 3.92803L51.3517 1.96026L51.0422 1.69495C50.7327 1.42963 50.6884 1.42963 48.588 1.42963C47.2283 1.42963 46.3439 1.47385 46.167 1.55123C45.6585 1.78339 45.5369 2.50195 45.9238 3.03259C46.0565 3.20947 46.2444 3.26474 47.0182 3.30896L47.9579 3.36423L43.7239 7.78619C41.3913 10.2183 39.4346 12.1971 39.3793 12.186C39.313 12.175 37.2457 11.169 34.7584 9.94189C31.4308 8.30577 30.1485 7.73092 29.861 7.73092C29.5073 7.73092 29.2751 7.89674 27.9596 9.04645L26.4451 10.362L26.3677 9.47759C26.2682 8.28366 25.9476 7.10079 25.417 5.98424C24.2341 3.43056 21.9457 1.40752 19.2926 0.556293C18.4192 0.268866 16.5288 -0.0406704 15.954 0.00354767C15.8434 0.0146027 15.4123 0.0588226 14.9812 0.103043ZM18.1981 2.21453C21.5035 3.04364 24.013 5.92897 24.4552 9.42231C24.6874 11.2795 24.1567 13.4463 23.0844 14.994C21.6915 17.006 19.7348 18.2552 17.3469 18.6421C16.3962 18.7969 16.0756 18.8079 15.1802 18.6974C11.6647 18.2552 8.83465 15.7789 7.95026 12.385C7.66283 11.2795 7.64072 9.52181 7.90604 8.44948C8.90098 4.43656 12.6375 1.66178 16.6394 1.94921C17.0705 1.98237 17.767 2.10398 18.1981 2.21453Z" fill="url(#paint0_linear_163_70)"/>
<path d="M15.3793 3.81807C15.2356 4.006 15.1472 4.27132 15.1472 4.53663C15.1472 4.85723 15.103 4.96777 14.9703 4.96777C14.8708 4.96777 14.4949 5.12254 14.1301 5.32153C13.3784 5.71951 12.7814 6.41597 12.5935 7.11242C12.4387 7.69833 12.5161 8.90331 12.7483 9.35657C13.2236 10.2631 14.2849 10.8932 15.9984 11.258C16.5511 11.3796 17.1592 11.5565 17.336 11.6449C18.132 12.054 18.3641 12.8831 17.8446 13.4027C17.4576 13.7896 16.8938 13.9665 16.0758 13.9665C15.114 13.9554 14.517 13.6127 14.1301 12.8278C13.7874 12.1092 13.5774 11.9324 13.0799 11.9324C12.5824 11.9324 12.1624 12.3524 12.1624 12.8389C12.1624 13.8338 13.2789 15.1493 14.4949 15.5915C15.114 15.8237 15.1472 15.8458 15.1472 16.2106C15.1472 16.487 15.2356 16.686 15.4678 16.9181C15.8326 17.2719 16.1089 17.3161 16.5733 17.0729C16.927 16.896 17.0265 16.7081 17.0265 16.1995C17.0265 15.8679 17.0597 15.8347 17.6235 15.6579C18.4305 15.4036 19.2154 14.8619 19.6244 14.276C19.9339 13.8227 19.956 13.7232 19.956 12.7836C19.956 11.6449 19.8344 11.3243 19.1601 10.65C18.6295 10.1194 17.6456 9.6661 16.3964 9.40078C15.2577 9.15758 14.8045 8.95859 14.5502 8.59378C14.1301 7.99681 14.5281 7.10137 15.3351 6.83605C16.3411 6.5044 17.4134 6.88027 17.8888 7.72044C18.1873 8.25108 18.4194 8.39479 18.9501 8.39479C19.4144 8.39479 19.7902 7.98576 19.7902 7.46618C19.7902 6.70339 18.6847 5.4763 17.6456 5.08938C17.1149 4.89039 17.0818 4.85723 17.0486 4.45925C16.9933 3.85123 16.6617 3.53064 16.0758 3.53064C15.6999 3.53064 15.5562 3.58591 15.3793 3.81807Z" fill="url(#paint1_linear_163_70)"/>
<path d="M46.1229 10.086L45.8797 10.3403L45.8576 21.2625L45.8244 32.1848L44.531 32.9475L43.2265 33.6993V27.2874V20.8646L42.8949 20.544L42.5743 20.2123L39.5895 20.2455C36.6489 20.2786 36.5936 20.2786 36.3504 20.5329L36.0961 20.7872L36.063 29.3215C36.0519 34.0088 35.9967 37.8891 35.9524 37.9333C35.9082 37.9665 35.6097 38.1102 35.2891 38.2318L34.7143 38.4639L34.869 38.1544C35.1786 37.5574 35.3002 36.5625 35.1565 35.855C34.9685 34.9706 34.6811 34.4289 34.0399 33.8098L33.4982 33.2792V25.3639C33.4982 16.9843 33.4982 16.9511 33.0008 16.7521C32.9013 16.719 31.4863 16.6858 29.8612 16.6858C27.0422 16.6858 26.8985 16.6969 26.6663 16.9069C26.5337 17.0396 26.4121 17.1501 26.401 17.1612C26.3789 17.1722 26.3457 20.3229 26.3126 24.1589L26.2573 31.1345L25.0191 30.6923L23.7699 30.2501V28.2161V26.1709L23.4494 25.8503L23.1288 25.5297H20.155C17.9993 25.5408 17.1481 25.5739 17.0154 25.6734C16.6285 25.9609 16.5843 26.2704 16.5843 28.3266C16.5843 30.0954 16.5622 30.3828 16.4074 30.4381C16.3079 30.4712 14.4396 31.5436 12.2397 32.8149C10.0398 34.0862 8.17149 35.1475 8.08306 35.1696C7.99462 35.1917 7.75141 34.8932 7.47504 34.4289C6.83385 33.3566 6.31427 33.0028 5.27511 32.9586L4.47916 32.9254L2.76565 33.8762C0.919488 34.9153 0.543622 35.2027 0.211975 35.8329C-0.0533419 36.3524 -0.0754517 37.4469 0.178811 37.9444C0.278305 38.1433 2.20186 41.5593 4.446 45.5391C8.92323 53.4765 9.01167 53.5981 10.0619 53.8192C10.891 53.996 11.4106 53.8302 13.1904 52.8242C14.9481 51.8293 15.3903 51.4645 15.6557 50.7791C15.9652 49.9721 15.8325 49.1761 15.2356 48.137L14.716 47.2636L15.5341 46.7883L16.3411 46.3129L22.9519 48.0927C26.6332 49.0766 29.9496 49.9057 30.436 49.961C31.9395 50.1379 33.5425 49.8284 34.869 49.0987C36.1404 48.4023 53.6955 37.5353 53.983 37.2589C54.1488 37.1042 54.4473 36.6509 54.6462 36.253C54.9779 35.5786 55 35.4681 55 34.3183C55 33.2018 54.9779 33.0581 54.6905 32.5275C54.3035 31.7868 53.8503 31.2672 53.3528 31.0019L52.9548 30.7808V20.5992C52.9548 10.4619 52.9548 10.4177 52.7227 10.1192L52.5016 9.83177H49.4283C46.3661 9.83177 46.3551 9.83177 46.1229 10.086ZM51.0755 21.0304V30.3607L50.1911 30.4934C49.4283 30.6039 48.6987 30.8139 47.958 31.1124C47.7701 31.1898 47.759 30.6813 47.759 21.4505V11.7111H49.4173H51.0755V21.0304ZM31.6189 25.6292V32.6933L31.1546 32.5938C30.8893 32.5385 30.1154 32.3285 29.4411 32.1405L28.1919 31.7978V25.176V18.5651H29.9054H31.6189V25.6292ZM41.3251 28.4703L41.2919 34.8269L39.6116 35.8108L37.9202 36.7946V29.4431V22.1027H39.6337H41.3472L41.3251 28.4703ZM21.8906 28.5035V29.609L21.4816 29.5316C20.9288 29.4321 19.6465 29.4321 18.9942 29.5316L18.4636 29.62V28.5145V27.409H20.1771H21.8906V28.5035ZM23.2725 32.1074C26.611 33.2902 28.2472 33.8098 29.9054 34.2189C32.1938 34.7827 32.238 34.7937 32.6139 35.1032C33.0671 35.4902 33.2993 35.9655 33.2993 36.5293C33.2993 37.3916 32.7907 38.0217 31.9284 38.2539C31.2873 38.4308 30.5024 38.2649 26.8653 37.2479C25.5829 36.8831 24.389 36.5846 24.2011 36.5846C23.2835 36.5846 22.9961 37.8891 23.8252 38.3202C24.1237 38.486 29.1095 39.8458 30.4029 40.1222C31.9616 40.4649 34.051 40.5312 35.068 40.288C36.1404 40.0337 36.4167 39.89 42.2316 36.4962C47.8807 33.2129 48.8867 32.6822 50.0916 32.428C51.8936 32.03 53.0433 32.6822 53.1538 34.1415C53.2091 34.9264 53.0543 35.457 52.6453 35.8329C52.181 36.2751 33.9073 47.4847 33.1887 47.7721C32.6581 47.9822 32.3596 48.0264 31.232 48.0154H29.9054L23.9358 46.4013C20.6525 45.5059 17.535 44.6657 17.0154 44.5331L16.0536 44.2899L14.926 44.931C14.0306 45.4285 13.7763 45.5391 13.6989 45.4175C12.914 44.1793 8.95639 36.9826 9.02272 36.9162C9.23276 36.7173 16.9159 32.3174 17.6566 31.9747C19.6133 31.0682 20.365 31.0903 23.2725 32.1074ZM5.55149 35.0038C5.63993 35.1143 7.56348 38.475 9.82973 42.4879C12.4166 47.0646 13.9311 49.8505 13.909 49.9942C13.8648 50.3258 11.0347 51.9619 10.5704 51.9177C10.283 51.8956 10.0066 51.4424 6.07107 44.4888C3.1968 39.4257 1.88126 36.9936 1.90337 36.8168C1.92548 36.6067 2.22396 36.3856 3.42895 35.6892C4.24701 35.2248 5.02085 34.8269 5.15351 34.8269C5.27511 34.8158 5.46305 34.9043 5.55149 35.0038Z" fill="url(#paint2_linear_163_70)"/>
<path d="M3.8603 36.9047C3.42916 37.3469 3.40705 38.0655 3.82713 38.563C4.70047 39.6021 6.33659 38.563 5.81701 37.3138C5.60697 36.8163 5.24216 36.5841 4.66731 36.5841C4.28038 36.5841 4.12562 36.6505 3.8603 36.9047Z" fill="url(#paint3_linear_163_70)"/>
<defs>
<linearGradient id="paint0_linear_163_70" x1="5.7981" y1="20.6426" x2="9.90818" y2="-3.2197" gradientUnits="userSpaceOnUse">
<stop stop-color="#DFBD69"/>
<stop offset="0.53125" stop-color="#FEF7C0"/>
<stop offset="1" stop-color="#926F34"/>
</linearGradient>
<linearGradient id="paint1_linear_163_70" x1="12.1624" y1="17.2256" x2="19.6935" y2="5.96031" gradientUnits="userSpaceOnUse">
<stop stop-color="#DFBD69"/>
<stop offset="0.53125" stop-color="#FEF7C0"/>
<stop offset="1" stop-color="#926F34"/>
</linearGradient>
<linearGradient id="paint2_linear_163_70" x1="0" y1="53.8809" x2="14.618" y2="5.90656" gradientUnits="userSpaceOnUse">
<stop stop-color="#DFBD69"/>
<stop offset="0.53125" stop-color="#FEF7C0"/>
<stop offset="1" stop-color="#926F34"/>
</linearGradient>
<linearGradient id="paint3_linear_163_70" x1="3.52417" y1="38.9883" x2="4.47859" y2="36.4917" gradientUnits="userSpaceOnUse">
<stop stop-color="#DFBD69"/>
<stop offset="0.53125" stop-color="#FEF7C0"/>
<stop offset="1" stop-color="#926F34"/>
</linearGradient>
</defs>
</svg>
