<svg width="118" height="118" viewBox="0 0 118 118" fill="none" xmlns="http://www.w3.org/2000/svg">
<path d="M18.6393 61.6151L18.4079 61.6093L18.2575 60.5043L10.1749 60.3654L10.0013 61.4647L9.75835 61.4589L9.8162 57.9354L10.0592 57.9412L10.1981 59.0463L14.1959 59.1157L10.5741 55.1583L10.0881 56.4543L9.84513 56.4485L9.89142 53.683L10.1344 53.6888L10.5857 54.6781L13.0735 57.4379L18.379 53.6946L18.5583 52.8846L18.7897 52.8903L18.7319 56.4254L18.5005 56.4196L18.3616 55.3261L13.924 58.3925L14.5894 59.1215L18.2864 59.1851L18.4715 58.0859L18.703 58.0917L18.6393 61.6151Z" fill="#1F381C"/>
<path d="M18.8534 53.1623L18.6277 53.1102L18.703 51.9994L10.8113 50.2405L10.4179 51.2819L10.1807 51.2299L11.7486 44.1887L14.2307 44.7442L14.1612 45.0624L11.7486 45.4674L10.9733 48.9272L14.8787 49.795L15.22 48.2734L13.8025 47.232L13.8719 46.9254L17.2971 47.6891L17.2276 47.9957L15.4804 48.3428L15.1448 49.8529L19.1253 50.7381L19.9469 47.0642L17.7773 45.5715L17.8467 45.2649L20.4907 45.855L18.8534 53.1623Z" fill="#1F381C"/>
<path d="M20.6701 45.0739L20.456 44.9756L20.5197 43.778L13.6752 40.6364L12.819 41.4695L12.5991 41.3653L13.5306 39.3404L21.7809 37.4485L16.3019 34.9317L15.4456 35.7648L15.2258 35.6607L16.2903 33.3406L16.5102 33.4448L16.4292 34.6598L23.8869 38.0849L23.7654 38.3568L14.1959 40.5438L20.6527 43.506L21.5379 42.644L21.752 42.7423L20.6701 45.0739Z" fill="#1F381C"/>
<path d="M25.3507 35.1342L25.1366 36.2393L24.9804 36.4533L22.6777 34.7697L22.8339 34.5556L25.1077 34.9433C25.8482 34.6656 26.4731 34.1796 26.9764 33.4911C27.393 32.9241 27.5955 32.3513 27.5897 31.7785C27.5839 31.2057 27.3294 30.7371 26.826 30.3668C26.4615 30.1007 26.0855 30.0081 25.6978 30.0949C25.3102 30.1759 24.8589 30.442 24.344 30.8875L22.7818 32.2124C22.238 32.6753 21.6941 32.9241 21.1503 32.9646C20.6122 33.0051 20.1147 32.8604 19.6576 32.5307C19.2468 32.2298 18.946 31.8711 18.755 31.4603C18.5641 31.0495 18.5063 30.6098 18.5815 30.1354C18.6567 29.6668 18.865 29.1923 19.2063 28.7237C19.6345 28.1393 20.1147 27.6765 20.6354 27.3467L20.8726 26.4384L21.0288 26.2243L22.8571 27.5608L22.7066 27.7749L20.8899 27.5145C20.3229 27.8385 19.8312 28.2898 19.4146 28.8568C19.0038 29.418 18.8129 29.956 18.8476 30.4768C18.8823 30.9975 19.1137 31.414 19.5477 31.7322C19.8717 31.9694 20.2072 32.0389 20.5602 31.9463C20.9131 31.8537 21.3065 31.6223 21.7404 31.2578L23.4298 29.8345C23.9737 29.3717 24.5002 29.1171 25.0209 29.0766C25.5416 29.0361 26.126 29.256 26.7797 29.7304C27.4451 30.2164 27.8038 30.8181 27.8559 31.5355C27.9079 32.2529 27.6649 32.9819 27.1269 33.7225C26.6814 34.3069 26.0912 34.7813 25.3507 35.1342Z" fill="#1F381C"/>
<path d="M29.3717 30.5404L29.2039 30.3784L29.8519 29.4758L24.072 23.8233L23.1926 24.5002L23.0191 24.3266L25.478 21.8098L25.6515 21.9776L24.992 22.8744L30.7776 28.527L31.6686 27.8559L31.8364 28.0179L29.3717 30.5404Z" fill="#1F381C"/>
<path d="M32.2182 27.4046L32.0794 27.2194L32.7158 26.2012L28.2666 20.1262L27.1095 20.4329L26.9649 20.2362L28.7642 18.917L36.893 21.2834L33.3291 16.4176L32.172 16.7243L32.0273 16.5276L34.087 15.0233L34.2316 15.22L33.5721 16.2441L38.4205 22.8686L38.1775 23.048L28.7584 20.294L32.953 26.0334L34.1449 25.7152L34.2837 25.9061L32.2182 27.4046Z" fill="#1F381C"/>
<path d="M41.6488 20.7511C40.8909 20.6469 40.214 20.3461 39.6065 19.8369C39.0048 19.3278 38.5188 18.6567 38.1601 17.812C37.7956 16.9673 37.651 16.1515 37.7204 15.3531C37.7898 14.5604 38.056 13.8488 38.5188 13.2239C38.9817 12.5991 39.6181 12.1131 40.4165 11.7717C41.1744 11.4478 41.8861 11.3494 42.563 11.4825L43.0085 10.6609L43.2399 10.5625L44.3276 13.0967L44.0962 13.195L42.6498 11.8238C41.9439 11.6445 41.2381 11.7023 40.5264 12.009C40.0115 12.2288 39.6065 12.547 39.2999 12.9694C38.999 13.3917 38.8312 13.8835 38.8023 14.4505C38.7734 15.0175 38.8949 15.625 39.1726 16.273L39.971 18.1417C40.2487 18.7897 40.5959 19.2989 41.0124 19.6749C41.429 20.051 41.8861 20.2824 42.3778 20.3634C42.8696 20.4444 43.373 20.3808 43.8879 20.1552C44.5185 19.8832 44.9293 19.4956 45.126 18.9865C45.3227 18.4773 45.288 17.9161 45.0277 17.3144L44.6227 16.3656L43.535 16.6548L43.4366 16.4292L46.7286 15.0175L46.827 15.2431L45.8608 15.8275L46.2716 16.7763C46.4394 17.164 46.4799 17.5748 46.3989 18.0087C46.3179 18.4426 46.0749 18.8707 45.6814 19.2873C45.288 19.7039 44.721 20.0742 43.992 20.3866C43.1878 20.7337 42.4068 20.8552 41.6488 20.7511Z" fill="#1F381C"/>
<path d="M50.2984 18.026L50.2521 17.7946L51.2993 17.4185L49.7256 9.36492L47.7874 9.74099L47.313 12.0726L46.9716 12.1362L46.4972 9.70627L54.1516 8.21358L54.6261 10.6435L54.2731 10.713L52.9714 8.7285L51.0216 9.11035L52.5953 17.164L53.7061 17.1177L53.7524 17.3491L50.2984 18.026Z" fill="#1F381C"/>
<path d="M58.5892 16.5276C57.9123 16.111 57.3974 15.5498 57.0387 14.8266C56.68 14.1092 56.5122 13.2934 56.5411 12.385C56.57 11.4767 56.7841 10.6725 57.1891 9.9782C57.5941 9.28392 58.1437 8.75164 58.8438 8.38136C59.5439 8.01108 60.3249 7.83751 61.1985 7.86644C62.0664 7.89536 62.8417 8.11522 63.5128 8.526C64.1839 8.93678 64.7047 9.50378 65.0634 10.227C65.4221 10.9444 65.5899 11.7602 65.5609 12.6685C65.532 13.5769 65.3179 14.3811 64.9071 15.0754C64.5022 15.7696 63.9525 16.3019 63.2525 16.6722C62.5524 17.0425 61.7713 17.216 60.8977 17.1871C60.0356 17.164 59.2604 16.9441 58.5892 16.5276ZM62.4772 16.5623C62.9458 16.2961 63.3161 15.8969 63.5996 15.3704C63.8831 14.8439 64.0335 14.2133 64.0567 13.4785L64.1087 11.7717C64.1319 11.037 64.0219 10.4006 63.7732 9.8567C63.5244 9.31285 63.1772 8.8905 62.726 8.59543C62.2747 8.30036 61.7655 8.14415 61.187 8.12679C60.6026 8.10943 60.0819 8.23093 59.6191 8.50286C59.1562 8.769 58.7801 9.16821 58.5024 9.6947C58.2247 10.2212 58.0685 10.8518 58.0454 11.5866L57.9933 13.2934C57.9702 14.0282 58.0801 14.6646 58.3289 15.2084C58.5777 15.7523 58.919 16.1746 59.3645 16.4697C59.81 16.7648 60.3249 16.921 60.9093 16.9383C61.4878 16.9557 62.0085 16.8284 62.4772 16.5623Z" fill="#1F381C"/>
<path d="M66.1279 17.2392L66.1916 17.0135L67.3834 16.892L69.4373 9.64842L68.4827 8.92521L68.5521 8.688L70.6928 9.29549L73.8286 17.1582L75.4717 11.3552L74.5171 10.632L74.5865 10.3948L77.0397 11.089L76.9702 11.3263L75.7552 11.4304L73.5162 19.3278L73.2269 19.2468L69.5993 10.1286L67.6611 16.9673L68.6447 17.7078L68.581 17.9335L66.1279 17.2392Z" fill="#1F381C"/>
<path d="M81.9112 23.372C81.6277 22.6603 81.5583 21.9198 81.7029 21.1445C81.8475 20.3692 82.1947 19.6171 82.7559 18.8881C83.3171 18.1591 83.9535 17.6268 84.6767 17.297C85.3999 16.9673 86.1521 16.8458 86.9273 16.9441C87.7026 17.0425 88.4374 17.3549 89.1259 17.8814C89.7797 18.379 90.2136 18.9517 90.4334 19.6055L91.3649 19.5882L91.5674 19.7386L89.8954 21.9314L89.6987 21.7809L90.1789 19.8427C89.988 19.1427 89.5887 18.5525 88.9755 18.0839C88.53 17.7425 88.0498 17.5458 87.5406 17.488C87.0257 17.4301 86.5166 17.5285 86.0016 17.783C85.4925 18.0376 85.0239 18.4426 84.5957 19.0038L83.3634 20.618C82.9352 21.1792 82.6633 21.7289 82.5418 22.2785C82.4203 22.8281 82.4435 23.3373 82.6112 23.8059C82.779 24.2745 83.0857 24.6795 83.5312 25.0151C84.075 25.4317 84.6189 25.5995 85.1569 25.5185C85.695 25.4375 86.1636 25.1308 86.5686 24.6101L87.1935 23.7885L86.4008 22.9901L86.5513 22.7934L89.3978 24.963L89.2474 25.1597L88.2696 24.6101L87.6448 25.4317C87.3902 25.7672 87.0488 26.0044 86.6323 26.1491C86.2157 26.2937 85.7239 26.2937 85.1685 26.1549C84.6073 26.016 84.0114 25.7094 83.3807 25.2234C82.6807 24.6969 82.1947 24.0836 81.9112 23.372Z" fill="#1F381C"/>
<path d="M91.2203 32.5307C91.2319 32.2298 91.3939 31.8942 91.7178 31.5297L92.7188 30.4015C93.0543 30.0197 93.2395 29.6205 93.2742 29.2155C93.3089 28.8105 93.1295 28.3708 92.7361 27.8964L92.1344 27.1789L89.1259 29.6783L89.7044 30.633L89.5251 30.7834L87.2745 28.0757L87.4538 27.9253L88.287 28.6658L94.5065 23.4993L93.9222 22.5504L94.1073 22.3942L96.2538 24.9746C97.0869 25.9755 97.544 26.8202 97.625 27.5087C97.706 28.1972 97.4514 28.7873 96.8613 29.2791C95.8835 30.0949 94.7842 29.9271 93.5693 28.7758L93.5172 28.8163C93.847 29.3428 94.009 29.8519 93.9916 30.3437C93.98 30.8355 93.7949 31.2925 93.442 31.7149L92.8056 32.4439C92.5278 32.7563 92.3601 32.9935 92.2964 33.1555C92.2386 33.3175 92.2617 33.4622 92.3716 33.5952C92.4468 33.6878 92.5568 33.763 92.6956 33.8209C92.8345 33.8787 92.9849 33.9192 93.1527 33.9424L93.1295 34.2259C92.794 34.2027 92.5047 34.1333 92.2675 34.006C92.0303 33.8845 91.8162 33.7109 91.6369 33.4853C91.3476 33.1555 91.2145 32.8315 91.2203 32.5307ZM93.1932 28.041C93.5635 28.4865 93.98 28.7353 94.4429 28.77C94.9 28.8105 95.3802 28.6196 95.8777 28.2088L96.0571 28.0584C97.0001 27.2715 96.9944 26.2995 96.0339 25.1482L95.438 24.4308L92.3369 27.0112L93.1932 28.041Z" fill="#1F381C"/>
<path d="M93.9685 36.3608C94.009 35.5681 94.2635 34.8449 94.7264 34.1854C95.1892 33.5258 95.8256 32.9935 96.6414 32.5827C97.4572 32.1777 98.2672 31.9868 99.0714 32.01C99.8756 32.0331 100.605 32.2703 101.264 32.71C101.924 33.1497 102.444 33.7572 102.838 34.5325C103.225 35.3078 103.399 36.0946 103.359 36.8873C103.312 37.6741 103.063 38.4031 102.601 39.0627C102.138 39.7222 101.501 40.2545 100.686 40.6653C99.8698 41.0703 99.0598 41.2612 98.2556 41.2381C97.4514 41.2149 96.7224 40.9777 96.0629 40.5438C95.4033 40.1041 94.8826 39.4966 94.4892 38.7155C94.0957 37.9345 93.9222 37.1534 93.9685 36.3608ZM95.7852 39.7974C96.2422 40.0809 96.7687 40.2198 97.3704 40.2198C97.9721 40.2198 98.597 40.0462 99.2508 39.7222L100.778 38.9585C101.432 38.6287 101.941 38.2295 102.306 37.7551C102.67 37.2807 102.873 36.7715 102.919 36.2393C102.965 35.7012 102.861 35.1747 102.601 34.6656C102.34 34.1449 101.982 33.7456 101.525 33.4621C101.067 33.1787 100.541 33.0456 99.945 33.0456C99.3491 33.0514 98.7185 33.2192 98.0647 33.5431L96.5373 34.3069C95.8835 34.6366 95.3744 35.0358 95.0099 35.5103C94.6512 35.9847 94.4429 36.4938 94.3966 37.0261C94.3503 37.5584 94.4545 38.0849 94.7148 38.6056C94.9752 39.1147 95.3281 39.5139 95.7852 39.7974Z" fill="#1F381C"/>
<path d="M97.8275 45.5137C98.0589 44.7557 98.4813 44.1135 99.0888 43.587C99.6963 43.0605 100.443 42.696 101.334 42.4935C102.225 42.291 103.052 42.3026 103.827 42.5225C104.603 42.7423 105.256 43.1415 105.789 43.7259C106.321 44.3102 106.685 45.0277 106.876 45.8782C107.067 46.7286 107.044 47.5328 106.813 48.285C106.581 49.0429 106.159 49.6851 105.557 50.2116C104.95 50.7381 104.203 51.1026 103.312 51.3051C102.421 51.5018 101.594 51.496 100.819 51.2762C100.043 51.0563 99.3896 50.6571 98.8574 50.0727C98.3251 49.4884 97.9606 48.771 97.7697 47.9205C97.5729 47.07 97.5961 46.2658 97.8275 45.5137ZM98.7648 49.2859C99.1409 49.6735 99.6211 49.9339 100.2 50.0785C100.778 50.2174 101.426 50.2058 102.144 50.0496L103.81 49.6735C104.527 49.5115 105.117 49.2454 105.58 48.8693C106.049 48.4933 106.367 48.0536 106.541 47.5444C106.714 47.0353 106.737 46.4972 106.616 45.936C106.489 45.369 106.24 44.8888 105.864 44.507C105.488 44.1251 105.013 43.8647 104.429 43.7259C103.845 43.587 103.202 43.5986 102.485 43.7548L100.819 44.1309C100.101 44.2929 99.5111 44.559 99.0483 44.9351C98.5796 45.3112 98.2614 45.7509 98.0879 46.2542C97.9143 46.7634 97.8912 47.2956 98.0184 47.8684C98.1399 48.4238 98.3887 48.8983 98.7648 49.2859Z" fill="#1F381C"/>
<path d="M99.1871 53.0176L99.3607 54.1169L107.449 54.0764L107.599 52.9714H107.842L107.86 56.732C107.866 57.9123 107.634 58.7917 107.171 59.3703C106.708 59.9489 106.032 60.2381 105.152 60.2439C104.273 60.2497 103.596 59.9662 103.127 59.3934C102.659 58.8207 102.421 57.9412 102.416 56.761L102.41 55.4187L99.3665 55.4303L99.2045 56.5353H98.9731L98.9557 53.0119L99.1871 53.0176ZM102.682 56.599C102.687 58.0743 103.434 58.8091 104.926 58.8033H105.372C106.853 58.7975 107.588 58.0569 107.582 56.5758L107.576 55.4013L102.682 55.4245V56.599Z" fill="#1F381C"/>
<path d="M59 117.423C26.7855 117.423 0.576523 91.2145 0.576523 59C0.576523 26.7855 26.7855 0.576519 59 0.576519C91.2145 0.576519 117.423 26.7855 117.423 59C117.423 91.2145 91.2145 117.423 59 117.423ZM59 1.01044C27.0227 1.01044 1.01045 27.0227 1.01045 59C1.01045 90.9773 27.0227 116.99 59 116.99C90.9773 116.99 116.99 90.9773 116.99 59C116.99 27.0227 90.9773 1.01044 59 1.01044Z" fill="#1F381C"/>
<path d="M59 96.0224C38.5882 96.0224 21.9776 79.4118 21.9776 59C21.9776 38.5882 38.5882 21.9776 59 21.9776C79.4118 21.9776 96.0224 38.5882 96.0224 59C96.0224 79.4118 79.4176 96.0224 59 96.0224ZM59 22.4116C38.8254 22.4116 22.4116 38.8254 22.4116 59C22.4116 79.1746 38.8254 95.5884 59 95.5884C79.1746 95.5884 95.5884 79.1746 95.5884 59C95.5884 38.8254 79.1746 22.4116 59 22.4116Z" fill="#1F381C"/>
<path d="M20.7395 92.603C20.4907 92.3195 20.2998 92.0071 20.1725 91.6658C20.0394 91.3244 19.9874 91.0062 20.0105 90.7227L20.6469 90.5086C20.6354 90.7748 20.6759 91.0525 20.78 91.3533C20.8841 91.6542 21.0404 91.9203 21.2486 92.1575C21.4396 92.3716 21.6189 92.5221 21.7925 92.6088C21.9661 92.6956 22.1281 92.7245 22.2843 92.7014C22.4347 92.6783 22.5736 92.6146 22.6951 92.5047C22.8397 92.3774 22.9149 92.2385 22.9323 92.0765C22.9496 91.9146 22.9207 91.7468 22.8571 91.5674C22.7934 91.3881 22.7124 91.2029 22.6141 91.0062C22.5157 90.8095 22.4173 90.6128 22.3306 90.4045C22.2438 90.1962 22.1801 89.9879 22.1454 89.7854C22.1107 89.5772 22.1281 89.3747 22.1975 89.1664C22.2669 88.9581 22.4116 88.7614 22.6314 88.5647C22.8455 88.3737 23.0885 88.2522 23.3546 88.1944C23.6208 88.1365 23.9043 88.1655 24.1993 88.2754C24.4944 88.3911 24.7837 88.6109 25.0672 88.9349C25.2581 89.149 25.4143 89.392 25.5358 89.6582C25.6573 89.9243 25.7325 90.1904 25.7499 90.4508L25.1192 90.6938C25.0961 90.4276 25.0382 90.1846 24.9341 89.9648C24.83 89.7392 24.7085 89.5482 24.558 89.3804C24.3729 89.1722 24.1935 89.0275 24.0142 88.9465C23.8348 88.8655 23.6728 88.8366 23.5166 88.8655C23.3604 88.8887 23.2216 88.9581 23.1001 89.068C22.9554 89.1953 22.8744 89.3399 22.8571 89.5019C22.8455 89.6639 22.8686 89.8317 22.9323 90.0111C22.9959 90.1904 23.0769 90.3756 23.1753 90.5723C23.2736 90.769 23.3662 90.9715 23.4588 91.174C23.5513 91.3823 23.6092 91.5848 23.6439 91.7931C23.6786 92.0013 23.6613 92.2038 23.5976 92.4063C23.5282 92.6088 23.3893 92.8055 23.1695 93.0023C22.9612 93.1874 22.7182 93.3089 22.4463 93.3668C22.1744 93.4246 21.8909 93.3957 21.5958 93.2742C21.3181 93.1469 21.023 92.927 20.7395 92.603Z" fill="#1F381C"/>
<path d="M23.9795 94.9347L26.0681 96.9191L25.5937 97.4225L22.9901 94.952L26.8087 90.9252L29.3428 93.3263L28.8683 93.8296L26.8492 91.9146L23.9795 94.9347ZM25.6284 93.1006L27.474 94.8479L27.0112 95.3397L25.1655 93.5924L25.6284 93.1006Z" fill="#1F381C"/>
<path d="M28.4229 99.7888C28.1278 99.5574 27.8964 99.2855 27.7344 98.9788C27.5724 98.6722 27.474 98.3482 27.4509 98.0011C27.4277 97.6539 27.4682 97.3068 27.5724 96.9539C27.6823 96.6009 27.8616 96.2654 28.1162 95.9414C28.3708 95.6174 28.6543 95.357 28.9725 95.1719C29.2907 94.981 29.6205 94.8595 29.9618 94.8016C30.3032 94.7437 30.6445 94.7611 30.9801 94.8479C31.3157 94.9347 31.6339 95.0909 31.929 95.3281C32.2298 95.5653 32.4612 95.8372 32.6232 96.1497C32.7852 96.4621 32.872 96.8034 32.872 97.1679L32.2009 97.2779C32.1893 96.9886 32.1257 96.7282 32.01 96.4968C31.8885 96.2654 31.7265 96.0687 31.5182 95.9009C31.2983 95.7273 31.0611 95.6116 30.8123 95.5479C30.5578 95.4843 30.309 95.4727 30.0544 95.519C29.7998 95.5595 29.5511 95.6579 29.3138 95.8025C29.0766 95.9472 28.8626 96.1439 28.6716 96.3869C28.4807 96.6299 28.3476 96.8844 28.2609 97.1448C28.1741 97.4109 28.1451 97.6713 28.1625 97.9316C28.1799 98.1862 28.2551 98.435 28.3766 98.6606C28.4981 98.8921 28.6658 99.0888 28.8857 99.2623C29.0998 99.4301 29.3312 99.54 29.58 99.5979C29.8345 99.6558 30.1007 99.6558 30.39 99.5921L30.442 100.269C30.0891 100.356 29.7362 100.356 29.3948 100.275C29.0477 100.188 28.7237 100.032 28.4229 99.7888Z" fill="#1F381C"/>
<path d="M32.7505 102.826C32.2009 102.479 31.8827 102.028 31.7901 101.478C31.6975 100.929 31.8711 100.31 32.2992 99.6326L33.9886 96.9654L34.5846 97.3415L32.9125 99.9797C32.5827 100.5 32.4381 100.952 32.4902 101.322C32.5422 101.692 32.7563 101.999 33.1266 102.236C33.5026 102.473 33.8729 102.537 34.2316 102.427C34.5903 102.317 34.9317 101.999 35.2673 101.478L36.9393 98.84L37.5179 99.2045L35.8285 101.872C35.3946 102.549 34.9143 102.965 34.3763 103.121C33.8498 103.278 33.3059 103.179 32.7505 102.826Z" fill="#1F381C"/>
<path d="M36.1236 104.77L38.623 99.812L40.3471 100.68C40.7347 100.877 41.0298 101.108 41.2323 101.386C41.4348 101.658 41.5447 101.964 41.5621 102.3C41.5794 102.635 41.4926 102.982 41.3133 103.341C41.1339 103.7 40.9025 103.972 40.6248 104.157C40.3471 104.342 40.0404 104.429 39.6933 104.429C39.3462 104.429 38.9874 104.331 38.5998 104.134L37.2228 103.44L37.6683 103.254L36.7426 105.088L36.1236 104.77ZM37.6394 103.324L37.5295 102.832L38.8833 103.515C39.2883 103.717 39.6412 103.775 39.9479 103.683C40.2545 103.59 40.4975 103.37 40.6769 103.017C40.8562 102.664 40.8909 102.335 40.781 102.039C40.6711 101.739 40.4165 101.49 40.0115 101.287L38.6577 100.605L39.1205 100.396L37.6394 103.324ZM39.0742 106.257L38.8602 103.891L39.5371 104.232L39.7627 106.604L39.0742 106.257Z" fill="#1F381C"/>
<path d="M41.9439 106.761L44.6285 107.814L44.3739 108.456L41.0356 107.142L43.0663 101.976L46.3121 103.249L46.0575 103.891L43.4655 102.873L41.9439 106.761ZM42.7886 104.44L45.155 105.372L44.9062 105.997L42.5398 105.065L42.7886 104.44Z" fill="#1F381C"/>
<path d="M50.8422 110.272L51.2877 108.195L51.3456 108.71L50.0901 104.435L50.8307 104.591L51.8836 108.201L51.4844 108.114L53.9318 105.256L54.6145 105.401L51.7217 108.786L51.9762 108.34L51.5307 110.417L50.8422 110.272Z" fill="#1F381C"/>
<path d="M56.5006 111.273C56.1245 111.233 55.789 111.123 55.4823 110.944C55.1757 110.764 54.9211 110.539 54.7186 110.255C54.5103 109.972 54.3657 109.653 54.2731 109.3C54.1806 108.948 54.1574 108.566 54.2037 108.161C54.25 107.756 54.3541 107.391 54.5277 107.061C54.6955 106.737 54.9095 106.46 55.1757 106.228C55.436 105.997 55.7369 105.835 56.0725 105.725C56.408 105.621 56.761 105.586 57.1428 105.627C57.5189 105.667 57.8544 105.777 58.1553 105.951C58.4562 106.124 58.7107 106.356 58.919 106.633C59.1273 106.917 59.2777 107.235 59.3645 107.588C59.4513 107.941 59.4802 108.328 59.4339 108.739C59.3876 109.15 59.2835 109.52 59.1157 109.844C58.9479 110.174 58.7339 110.452 58.4677 110.677C58.2016 110.909 57.9065 111.071 57.5709 111.175C57.2296 111.285 56.8767 111.314 56.5006 111.273ZM56.5816 110.573C56.8535 110.602 57.1081 110.579 57.3511 110.498C57.5941 110.417 57.8139 110.296 58.0049 110.122C58.1958 109.948 58.3578 109.74 58.4793 109.491C58.6008 109.243 58.6818 108.971 58.7165 108.664C58.7512 108.357 58.7339 108.074 58.6644 107.802C58.595 107.536 58.4909 107.293 58.3404 107.085C58.19 106.876 58.0049 106.703 57.785 106.57C57.5652 106.437 57.3222 106.356 57.0502 106.327C56.7725 106.298 56.5122 106.321 56.2692 106.402C56.0262 106.483 55.8063 106.604 55.6096 106.778C55.4129 106.951 55.2567 107.16 55.1294 107.409C55.0021 107.657 54.9269 107.929 54.8922 108.236C54.8575 108.543 54.8748 108.826 54.9385 109.098C55.0079 109.364 55.1178 109.607 55.2683 109.815C55.4187 110.029 55.6038 110.197 55.8237 110.33C56.0551 110.463 56.3039 110.544 56.5816 110.573Z" fill="#1F381C"/>
<path d="M62.6565 111.597C62.0085 111.603 61.4936 111.395 61.1176 110.978C60.7415 110.562 60.5506 109.954 60.5506 109.15L60.5332 105.991L61.2391 105.985L61.2564 109.109C61.2622 109.729 61.3837 110.18 61.6267 110.463C61.8697 110.747 62.211 110.886 62.6565 110.886C63.102 110.886 63.4492 110.735 63.6864 110.452C63.9294 110.162 64.0451 109.711 64.0393 109.092L64.0219 105.968L64.7047 105.962L64.722 109.121C64.7278 109.925 64.5484 110.539 64.1782 110.955C63.8194 111.383 63.3103 111.597 62.6565 111.597Z" fill="#1F381C"/>
<path d="M66.5908 111.395L65.9312 105.881L67.8463 105.65C68.2744 105.598 68.6505 105.632 68.9745 105.748C69.2985 105.864 69.5588 106.055 69.7555 106.327C69.9522 106.593 70.0795 106.928 70.1258 107.328C70.1721 107.727 70.1316 108.08 70.0043 108.386C69.877 108.693 69.6687 108.942 69.3795 109.127C69.096 109.318 68.7372 109.434 68.3033 109.486L66.7759 109.671L67.0478 109.272L67.2908 111.314L66.5908 111.395ZM67.0536 109.347L66.6949 109L68.1992 108.82C68.6505 108.768 68.9745 108.618 69.1827 108.369C69.391 108.12 69.4662 107.802 69.42 107.409C69.3737 107.015 69.2232 106.726 68.9629 106.535C68.7083 106.35 68.3554 106.28 67.9041 106.332L66.3941 106.512L66.6602 106.078L67.0536 109.347ZM69.8712 111.001L68.3843 109.15L69.1365 109.057L70.6407 110.909L69.8712 111.001Z" fill="#1F381C"/>
<path d="M76.6983 109.451L76.0272 109.665L74.3262 104.377L77.6472 103.306L77.8612 103.966L75.2114 104.817L76.6983 109.451ZM75.7321 106.685L78.1621 105.904L78.3704 106.552L75.9404 107.333L75.7321 106.685Z" fill="#1F381C"/>
<path d="M82.5592 107.293C81.969 107.565 81.4194 107.588 80.9045 107.362C80.3895 107.137 79.9672 106.662 79.6316 105.927L78.3125 103.058L78.9547 102.763L80.2565 105.603C80.5168 106.165 80.8119 106.523 81.1533 106.685C81.4946 106.842 81.8649 106.83 82.2641 106.645C82.6691 106.46 82.9237 106.182 83.0278 105.823C83.1262 105.465 83.051 105.002 82.7906 104.44L81.4888 101.6L82.1137 101.316L83.4328 104.186C83.7684 104.915 83.8552 105.551 83.6932 106.084C83.5312 106.616 83.1551 107.015 82.5592 107.293Z" fill="#1F381C"/>
<path d="M86.8174 104.979L84.2775 100.83L82.8311 101.715L82.4724 101.125L85.9611 98.9904L86.3198 99.5805L84.8734 100.466L87.4133 104.614L86.8174 104.979Z" fill="#1F381C"/>
<path d="M91.4286 101.854C90.9194 102.259 90.3929 102.416 89.8375 102.317C89.2879 102.225 88.7614 101.86 88.258 101.229L86.2909 98.759L86.8406 98.3193L88.7903 100.767C89.178 101.253 89.554 101.53 89.9185 101.6C90.2888 101.669 90.6417 101.571 90.9889 101.293C91.3418 101.015 91.5211 100.691 91.5327 100.315C91.5443 99.9392 91.3591 99.5111 90.9715 99.0251L89.0217 96.5778L89.5598 96.1497L91.5269 98.6201C92.0245 99.2508 92.2617 99.8409 92.2328 100.402C92.2096 100.963 91.9435 101.444 91.4286 101.854Z" fill="#1F381C"/>
<path d="M94.4487 99.164L90.4045 95.357L91.7294 93.9511C92.0245 93.6387 92.3369 93.4188 92.6551 93.3031C92.9733 93.1874 93.2973 93.1642 93.6213 93.2452C93.9453 93.3262 94.252 93.4998 94.547 93.7775C94.8421 94.0552 95.033 94.3503 95.1314 94.6685C95.2297 94.9867 95.2297 95.3107 95.1314 95.6347C95.033 95.9645 94.8363 96.2827 94.5355 96.6009L93.4767 97.7233L93.4304 97.2431L94.9289 98.649L94.4487 99.164ZM93.4998 97.2952L92.9965 97.2605L94.0379 96.1554C94.3503 95.8256 94.5008 95.5017 94.5008 95.1834C94.5008 94.8652 94.3561 94.5644 94.0668 94.2924C93.7775 94.0205 93.4767 93.8932 93.1585 93.9164C92.8403 93.9395 92.5278 94.1131 92.2154 94.4429L91.174 95.5479L91.1046 95.0446L93.4998 97.2952ZM96.7167 96.7629L94.385 96.2943L94.9057 95.7447L97.2432 96.2017L96.7167 96.7629Z" fill="#1F381C"/>
<path d="M98.0358 94.0147L99.7136 91.6716L100.275 92.0765L98.1804 94.9925L93.6676 91.7526L95.7042 88.9176L96.2654 89.3226L94.6454 91.5848L98.0358 94.0147ZM95.9934 92.632L97.4746 90.5665L98.0242 90.9599L96.5431 93.0254L95.9934 92.632Z" fill="#1F381C"/>
<path d="M14.5836 76.49C15.2952 75.7552 15.6481 74.87 15.6481 73.8402C15.6481 74.87 16.0011 75.7552 16.6896 76.49C17.4012 77.2248 18.2401 77.5835 19.2352 77.5835C18.2401 77.5835 17.3954 77.9422 16.6896 78.677C16.0011 79.4118 15.6481 80.2738 15.6481 81.3037C15.6481 80.2738 15.2952 79.4118 14.5836 78.677C13.9009 77.9422 13.033 77.5835 12.0379 77.5835C13.033 77.5835 13.8951 77.2248 14.5836 76.49Z" fill="#E0BE69"/>
<path d="M101.536 76.49C102.248 75.7552 102.601 74.87 102.601 73.8402C102.601 74.87 102.954 75.7552 103.642 76.49C104.354 77.2248 105.193 77.5835 106.188 77.5835C105.193 77.5835 104.348 77.9422 103.642 78.677C102.954 79.4118 102.601 80.2738 102.601 81.3037C102.601 80.2738 102.248 79.4118 101.536 78.677C100.853 77.9422 99.9855 77.5835 98.9904 77.5835C99.9855 77.5835 100.853 77.2248 101.536 76.49Z" fill="#E0BE69"/>
<path d="M76.085 59.567V77.0686H71.578V72.4748C70.5366 73.3831 69.4431 74.1642 68.2686 74.818V74.8122C67.314 75.3445 66.3246 75.79 65.2948 76.1545C64.4096 76.4669 63.5244 76.7157 62.6276 76.895C61.1928 77.1959 59.7348 77.3405 58.2768 77.3116C56.8072 77.3 55.3493 77.1149 53.9028 76.7793V74.5808C54.4641 74.8643 55.06 75.113 55.6617 75.3329C57.5999 76.0619 59.5439 76.3859 61.4936 76.3222C61.754 76.3107 62.0143 76.2991 62.2747 76.2702C63.9409 76.114 65.5956 75.6222 67.2272 74.8006C67.4991 74.656 67.7595 74.5113 68.0083 74.3725C68.6215 73.9964 69.1712 73.5798 69.6745 73.0996C70.3804 72.4227 71.0168 71.6532 71.578 70.7912V60.0356C70.7969 60.0472 70.0275 60.0877 69.258 60.1687C68.205 60.2555 67.1751 60.4291 66.1858 60.6605C65.208 60.8977 64.2997 61.2448 63.4781 61.7424V59.567H76.085Z" fill="#E0BE69"/>
<path d="M68.5463 75.2982C67.8752 75.8305 67.0883 76.1834 66.3073 76.5247C65.2716 76.976 64.2244 77.4099 63.1194 77.6761C63.102 77.6819 63.0905 77.6761 63.0731 77.6761L65.208 81.4078H72.0582L68.5463 75.2982Z" fill="#E0BE69"/>
<path d="M62.7028 41.7761L62.4367 42.0423C62.8937 42.1406 63.3508 42.2853 63.8137 42.3663C63.9699 42.239 64.1261 42.1175 64.2823 42.0076C64.9245 41.5505 65.5494 41.1339 66.1626 40.7868C67.3256 40.1272 68.4422 39.809 69.5415 39.809V35.0127L62.7028 41.7761Z" fill="#E0BE69"/>
<path d="M45.4269 65.8907C45.7914 66.6197 46.1848 67.3255 46.6129 67.9851V73.3773C46.0922 73.0013 45.612 72.5673 45.126 72.1276C43.2515 70.4093 41.8456 68.4827 40.9199 66.3304C39.9941 64.1955 39.5371 62.0085 39.5371 59.7695C39.5371 57.5189 39.9941 55.3261 40.9199 53.1912C41.8456 51.0447 43.2515 49.1123 45.126 47.394C45.5831 46.9658 46.0517 46.5609 46.5435 46.2079V47.3014C46.1501 47.7469 45.8145 48.2271 45.5021 48.7363C44.5532 50.2868 43.8995 52.0283 43.5465 53.9723C43.2052 55.8237 43.2052 57.7734 43.5176 59.8331C43.8358 61.8928 44.4607 63.912 45.4269 65.8907Z" fill="#E0BE69"/>
<path d="M75.2345 51.4613L71.5722 53.5846C70.4267 51.3051 68.9571 49.39 67.1983 47.8279C65.4683 46.2889 63.5533 45.1087 61.4705 44.3102C61.4415 44.3102 61.4184 44.2987 61.3895 44.2813C61.1002 44.1772 60.8167 44.073 60.5158 43.9805C60.5043 43.9805 60.4869 43.9689 60.4753 43.9689C60.1861 43.8647 59.891 43.8011 59.5786 43.7201C58.1437 43.3672 56.6742 43.2225 55.1873 43.292C54.7302 43.3209 54.2731 43.3556 53.845 43.4366V42.8002C55.4071 42.4068 56.9982 42.2158 58.6008 42.239C59.3818 42.239 60.1513 42.291 60.9208 42.3952C61.2622 42.4241 61.5977 42.4762 61.9391 42.5398C62.0548 42.5514 62.159 42.5803 62.2631 42.5919C62.5871 42.6555 62.8995 42.725 63.2293 42.8002C64.0624 42.9969 64.8956 43.2457 65.7171 43.5407C68.0487 44.4028 70.1316 45.6872 71.983 47.394C73.3195 48.661 74.413 50.0033 75.2345 51.4613Z" fill="#E0BE69"/>
<path d="M67.6322 73.7187C65.8733 74.6155 64.0219 75.7784 61.9912 75.7726L54.4641 62.5987C53.9954 61.806 53.5441 61.0828 53.1102 60.4522V81.402H47.4171V36.6153H53.1102V51.2762L53.4631 50.929L59.9373 44.5127C60.2323 44.6632 60.5332 44.7962 60.834 44.9177C60.2208 45.4905 59.6075 46.0806 58.9942 46.7113C57.7677 47.961 56.5295 49.2165 55.2798 50.472L53.4631 52.1961L53.1102 52.5316V55.2162C53.5673 55.3088 54.0186 55.4187 54.4641 55.5691C55.4939 55.9105 56.4485 56.4138 57.3453 57.1081C58.2421 57.785 58.9711 58.6181 59.5207 59.5959L67.6322 73.7187Z" fill="#E0BE69"/>
</svg>
