<svg width="24" height="18" viewBox="0 0 24 18" fill="none" xmlns="http://www.w3.org/2000/svg">
<path d="M2.1 1.82233L10.6493 7.80132C11.4438 8.35692 12.5562 8.35692 13.3507 7.80132L21.9 1.82233M4.52 16.6586H19.48C20.7121 16.6586 21.3282 16.6586 21.7988 16.443C22.2127 16.2533 22.5493 15.9507 22.7602 15.5785C23 15.1553 23 14.6014 23 13.4935V3.99832C23 2.89044 23 2.3365 22.7602 1.91335C22.5493 1.54113 22.2127 1.23851 21.7988 1.04886C21.3282 0.833252 20.7121 0.833252 19.48 0.833252H4.52C3.28788 0.833252 2.67183 0.833252 2.20122 1.04886C1.78726 1.23851 1.45071 1.54113 1.23979 1.91335C1 2.3365 1 2.89044 1 3.99832V13.4935C1 14.6014 1 15.1553 1.23979 15.5785C1.45071 15.9507 1.78726 16.2533 2.20122 16.443C2.67183 16.6586 3.28788 16.6586 4.52 16.6586Z" stroke="url(#paint0_linear_227_928)"/>
<defs>
<linearGradient id="paint0_linear_227_928" x1="1" y1="0.833252" x2="5.79568" y2="18.3565" gradientUnits="userSpaceOnUse">
<stop stop-color="#DFBD69"/>
<stop offset="0.53125" stop-color="#FEF7C0"/>
<stop offset="1" stop-color="#926F34"/>
</linearGradient>
</defs>
</svg>
