<svg width="17" height="17" viewBox="0 0 17 17" fill="none" xmlns="http://www.w3.org/2000/svg">
<path d="M2.98325 0.0617523C2.62759 0.164803 2.37498 0.321039 1.90964 0.716619C1.05208 1.45127 0.77287 1.78701 0.450453 2.46847C-0.300743 4.04414 -0.107958 6.12176 0.995569 8.36891C2.07583 10.5562 3.83416 12.6638 5.98471 14.3425C6.39355 14.6616 7.43725 15.3663 7.84608 15.5957C10.5717 17.1381 13.0513 17.4207 14.8528 16.3902C15.3547 16.101 15.5841 15.8982 16.1757 15.2234C16.8372 14.4655 16.9701 14.1929 16.9967 13.5114C17.0133 13.0494 16.9701 12.8233 16.7906 12.4477C16.6078 12.0588 16.4715 11.9258 15.4943 11.1679C14.2445 10.1972 14.2279 10.1872 13.9421 10.0742C13.4368 9.87477 12.9017 9.8648 12.3765 10.0377C12.0774 10.1407 11.9178 10.2471 11.1932 10.8288L10.5517 11.3441L10.1828 11.1745C8.27486 10.287 6.74256 8.7379 5.80522 6.75335L5.66229 6.44753L6.17417 5.80596C6.4567 5.45692 6.73591 5.09126 6.79241 5.0015C6.92537 4.78211 7.02508 4.4796 7.07162 4.14719C7.14474 3.64191 6.98852 3.02028 6.68937 2.61806C6.11767 1.8402 5.09391 0.56703 4.95431 0.454008C4.75488 0.294447 4.3959 0.118265 4.12334 0.0484562C3.84746 -0.0213528 3.25581 -0.0147038 2.98325 0.0617523ZM3.9372 1.52772C4.02362 1.57759 4.26627 1.86347 4.7582 2.49506C5.14045 2.98704 5.49278 3.46573 5.54596 3.56213C5.65897 3.7782 5.66562 3.9843 5.55925 4.1904C5.51937 4.27018 5.21025 4.67906 4.87121 5.10123C4.53218 5.52008 4.22306 5.93228 4.18317 6.01206C4.03359 6.30459 4.09342 6.56387 4.52553 7.46805C5.55925 9.65205 7.35083 11.4438 9.53461 12.4776C10.4387 12.9098 10.698 12.9696 10.9905 12.82C11.0702 12.7801 11.4824 12.471 11.9012 12.1319C12.3233 11.7928 12.7322 11.4837 12.812 11.4438C13.018 11.3374 13.2241 11.3441 13.4402 11.4571C13.5366 11.5103 14.0185 11.8626 14.5105 12.2482C15.2683 12.8366 15.4212 12.9696 15.481 13.0926C15.5741 13.2821 15.5774 13.5646 15.4877 13.7342C15.3846 13.9336 14.6235 14.7813 14.4008 14.9442C12.9283 16.0312 10.6049 15.6422 7.87932 13.8472C6.89878 13.2023 6.12431 12.5607 5.17036 11.6034C3.8541 10.287 2.96995 9.09026 2.29521 7.72734C1.9329 6.99602 1.78 6.60044 1.63043 5.99876C1.34125 4.85524 1.40108 3.86795 1.80992 3.04023C2.07251 2.51168 2.17222 2.39866 2.98325 1.72052C3.1295 1.60085 3.30234 1.48451 3.36882 1.46456C3.53834 1.41802 3.78763 1.44462 3.9372 1.52772Z" fill="url(#paint0_linear_91_14406)"/>
<defs>
<linearGradient id="paint0_linear_91_14406" x1="0" y1="17" x2="6.72472" y2="-0.675415" gradientUnits="userSpaceOnUse">
<stop stop-color="#DFBD69"/>
<stop offset="0.53125" stop-color="#FEF7C0"/>
<stop offset="1" stop-color="#926F34"/>
</linearGradient>
</defs>
</svg>
