<svg width="46" height="46" viewBox="0 0 46 46" fill="none" xmlns="http://www.w3.org/2000/svg">
<path d="M25.767 0.337633C24.5208 0.95055 24.5016 1.00801 24.5783 9.45478L24.6358 17.0779L25.2685 17.6909C25.882 18.3038 25.9204 18.3229 27.8951 18.3804L29.9081 18.457V19.7403C29.9081 21.0044 30.0999 21.4833 30.6175 21.4833C30.7517 21.4833 31.8637 20.8129 33.1099 19.9893L35.3722 18.5145L40.0118 18.4187L44.6706 18.3229L45.2841 17.6909L45.9168 17.0779L45.9743 9.45478C46.051 0.988857 46.0318 0.931396 44.7665 0.337633C43.8271 -0.122055 26.6681 -0.102901 25.767 0.337633ZM44.2488 1.79331C44.5748 2.11892 44.5748 16.3309 44.2488 16.6566C44.0763 16.8289 42.7534 16.8864 39.5133 16.8864H35.0079L33.2824 18.0548L31.5378 19.2423L31.4802 18.3038C31.4419 17.7866 31.3269 17.2695 31.2118 17.1354C31.0776 16.963 30.3491 16.8864 28.777 16.8864C27.2816 16.8864 26.4572 16.8098 26.3038 16.6566C25.9779 16.3309 25.9779 2.11892 26.3038 1.79331C26.6297 1.4677 43.9229 1.4677 44.2488 1.79331Z" fill="url(#paint0_linear_108_15592)"/>
<path d="M34.7401 4.09177C34.6059 4.22584 34.51 4.55145 34.51 4.83876C34.51 5.26014 34.395 5.39422 33.954 5.48998C32.6312 5.77729 31.8068 7.61604 32.497 8.78441C32.9954 9.62718 33.4939 9.85702 35.066 9.97194C36.6189 10.106 37.1174 10.4316 36.6956 11.0829C36.5231 11.3702 36.1205 11.4468 34.51 11.5234C32.8996 11.6 32.497 11.6766 32.3244 11.9448C31.9601 12.5385 32.4011 12.9599 33.5131 13.0174C34.4525 13.0748 34.4909 13.094 34.5484 13.6686C34.6634 14.8753 35.8904 14.8753 36.0054 13.6686C36.063 13.1898 36.178 13.0557 36.6189 12.9599C37.2708 12.8067 38.1144 12.0214 38.2677 11.3893C38.4595 10.6423 38.1719 9.70379 37.5776 9.12918C37.0791 8.65034 36.8107 8.55457 35.5261 8.4588C33.9349 8.34388 33.4364 8.01827 33.8582 7.34789C34.0307 7.07974 34.4333 7.00312 36.0438 6.92651C37.6542 6.84989 38.0569 6.77328 38.2294 6.48597C38.5937 5.91136 38.1527 5.48998 37.0216 5.43252C36.1013 5.37506 36.0438 5.33675 36.0438 4.83876C36.0438 4.26415 35.737 3.86192 35.2769 3.86192C35.1044 3.86192 34.8743 3.95769 34.7401 4.09177Z" fill="url(#paint1_linear_108_15592)"/>
<path d="M7.07449 9.47397C5.02308 10.0486 3.25925 11.5617 2.24313 13.6303C1.6488 14.837 1.62963 14.9328 1.55294 17.9207C1.51459 19.8361 1.57211 21.2343 1.70631 21.694C1.91721 22.4027 3.0867 23.5902 3.566 23.5902C3.70021 23.5902 3.85358 23.935 3.93027 24.3755C4.16034 25.6971 5.29149 27.7083 6.34595 28.6468C6.88277 29.1448 7.40041 29.5279 7.49628 29.5279C7.59214 29.5279 7.66882 30.1599 7.66882 30.9452V32.3626L5.52155 33.0521C3.06753 33.8183 2.05141 34.4695 1.15032 35.7911C0.172549 37.2851 0 38.2045 0 42.0735C0 44.506 0.0766882 45.6169 0.230065 45.7702C0.402613 45.9425 3.18256 46 11.5224 46C20.9934 46 22.6039 45.9617 22.8148 45.7127C22.9873 45.5212 23.0256 44.4294 22.9681 41.6521C22.9106 38.2236 22.8723 37.7639 22.4888 36.9403C21.5302 34.8526 20.3607 33.9523 17.5041 33.0521L15.3376 32.3626V30.9452C15.3376 30.1599 15.4143 29.5279 15.5102 29.5279C15.6061 29.5279 16.1045 29.1448 16.6222 28.6851C17.6958 27.7083 18.6736 26.0227 18.9803 24.6245C19.1529 23.8584 19.2871 23.6285 19.7664 23.4178C20.0731 23.2838 20.5716 22.8624 20.8592 22.4793L21.3768 21.8089V18.4379C21.3768 15.3541 21.3385 14.9711 20.9359 13.9559C20.3032 12.4045 18.7119 10.7381 17.1015 9.95281L15.8169 9.32074L11.8867 9.28243C9.16424 9.24413 7.688 9.30159 7.07449 9.47397ZM16.3154 11.2553C17.6 11.849 18.6928 12.9216 19.3063 14.1666C19.8047 15.2009 19.8431 15.4308 19.9006 18.2272C19.9581 21.0045 19.9389 21.2343 19.5747 21.6749L19.1912 22.1537L19.1721 20.6789C19.1721 17.9782 18.7694 17.6717 15.2993 17.6334C13.9956 17.6143 13.1329 17.5568 13.3821 17.5185C13.6122 17.4802 13.8039 17.3653 13.8039 17.2887C13.8039 17.2312 13.2862 16.6566 12.6536 16.0245L11.5032 14.8945V16.1011V17.327L10.4679 16.331C9.89278 15.7947 9.33679 15.3541 9.24093 15.3541C9.1259 15.3541 8.56991 15.8138 7.99475 16.3884C7.20869 17.1737 6.74856 17.461 6.19257 17.5568C4.27537 17.8824 3.83441 18.4187 3.83441 20.5256C3.83441 21.9047 3.58518 22.2686 3.25925 21.3684C2.9525 20.5831 3.02919 16.1394 3.35511 15.0285C3.89193 13.2089 5.31066 11.7533 7.15118 11.102C8.01392 10.7956 8.66577 10.7573 11.7908 10.7956C15.0501 10.853 15.5294 10.8913 16.3154 11.2553ZM13.2287 17.2312C12.9603 17.2695 12.8453 17.4036 12.922 17.576C12.9795 17.7292 13.0945 17.9782 13.152 18.1314C13.3629 18.6294 12.922 18.4379 12.6727 17.9207C12.4618 17.4227 12.4427 17.4227 12.0784 17.7484C11.695 18.0931 11.695 18.074 11.695 16.6757V15.2775L12.6727 16.2161C13.5163 17.0588 13.593 17.1737 13.2287 17.2312ZM10.0845 18.0548C11.0048 19.0316 11.2348 19.0891 14.4749 19.1849L17.5424 19.2806V21.9622V24.6437L16.8906 25.8503C16.162 27.1911 15.5485 27.7849 14.1106 28.5319C13.2862 28.9532 12.8836 29.0299 11.5032 29.0299C10.1228 29.0299 9.72023 28.9532 8.89584 28.5319C7.45793 27.7849 6.84443 27.1911 6.11589 25.8503L5.46404 24.6437V21.9813V19.319L6.49933 19.0508C7.07449 18.9167 7.93723 18.4953 8.41653 18.1314C8.89584 17.7675 9.35596 17.461 9.41348 17.461C9.471 17.461 9.75858 17.7292 10.0845 18.0548ZM12.6536 30.5622L13.8039 30.3706V31.539V32.7074L12.6536 33.8374L11.5032 34.9675L10.3529 33.8374L9.20259 32.7074V31.539V30.3706L10.3529 30.5622C11.1198 30.6771 11.8867 30.6771 12.6536 30.5622ZM9.35596 34.9483L10.3721 35.9826L9.58603 36.5189C9.16424 36.8062 8.7808 37.0169 8.74246 36.9786C8.66577 36.8829 7.66882 34.1247 7.66882 34.0098C7.66882 33.9715 7.8222 33.9332 8.01392 33.9332C8.20564 33.9332 8.79998 34.3929 9.35596 34.9483ZM15.3376 34.029C15.3376 34.2205 14.3599 36.7105 14.2257 36.8446C14.149 36.9212 13.7464 36.7679 13.3629 36.4806L12.6344 35.9635L13.6505 34.9483C14.2065 34.3929 14.8008 33.9332 14.9926 33.9332C15.1843 33.9332 15.3376 33.9715 15.3376 34.029ZM6.9978 36.6147C7.9564 39.1621 7.97558 39.1621 8.6466 39.0281C9.06838 38.9515 9.26011 39.0281 9.54769 39.4303C9.96947 40.0049 10.0078 39.6601 8.9917 43.1653L8.60825 44.4677H5.06142H1.49542L1.57211 41.2499C1.6488 37.6873 1.80217 37.151 3.10587 35.8869C3.7769 35.2548 5.42569 34.4887 5.94334 34.5653C6.09671 34.5844 6.53767 35.4463 6.9978 36.6147ZM18.271 34.8909C19.3446 35.2931 20.4374 36.2699 21.0126 37.3809C21.3193 37.9363 21.3768 38.5875 21.4344 41.2499L21.5111 44.4677H17.945H14.3982L14.0148 43.1653C12.9987 39.6601 13.037 40.0049 13.4588 39.4303C13.7464 39.0281 13.9381 38.9515 14.3599 39.0281C15.0309 39.1621 15.1459 39.0281 15.9895 36.7105C16.3921 35.6762 16.7564 34.7376 16.7947 34.661C16.9289 34.4312 17.1398 34.4695 18.271 34.8909ZM12.1167 37.4383L12.6536 37.8597L12.2701 38.4918C11.7908 39.2771 11.2732 39.2771 10.7172 38.5109L10.2954 37.9172L10.8514 37.4575C11.5224 36.9212 11.4841 36.9212 12.1167 37.4383ZM12.0592 41.9394C12.2893 42.6673 12.5194 43.5292 12.5769 43.8548L12.7111 44.4677H11.5032H10.3146L10.4296 43.8548C10.6788 42.5906 11.3307 40.637 11.5032 40.637C11.5991 40.637 11.8483 41.2307 12.0592 41.9394Z" fill="url(#paint2_linear_108_15592)"/>
<path d="M25.767 24.8544C24.5208 25.4673 24.5016 25.5247 24.5783 33.9715L24.6358 41.5947L25.2685 42.2076C25.882 42.8205 25.9204 42.8396 27.8951 42.8971L29.9081 42.9737V44.257C29.9081 45.5212 30.0999 46 30.6175 46C30.7517 46 31.8637 45.3296 33.1099 44.506L35.3722 43.0312L40.0118 42.9354L44.6706 42.8396L45.2841 42.2076L45.9168 41.5947L45.9743 33.9715C46.051 25.5056 46.0318 25.4481 44.7665 24.8544C43.8271 24.3947 26.6681 24.4138 25.767 24.8544ZM44.2488 26.31C44.5748 26.6356 44.5748 40.8477 44.2488 41.1733C44.0763 41.3457 42.7534 41.4031 39.5133 41.4031H35.0079L33.2824 42.5715L31.5378 43.759L31.4802 42.8205C31.4419 42.3033 31.3269 41.7862 31.2118 41.6521C31.0776 41.4797 30.3491 41.4031 28.777 41.4031C27.2816 41.4031 26.4572 41.3265 26.3038 41.1733C25.9779 40.8477 25.9779 26.6356 26.3038 26.31C26.6297 25.9844 43.9229 25.9844 44.2488 26.31Z" fill="url(#paint3_linear_108_15592)"/>
<path d="M28.6043 29.3746C28.2976 29.6811 28.3167 30.1982 28.6427 30.4664C29.0644 30.8303 31.0583 30.6579 31.3267 30.2365C31.4801 30.0067 31.4801 29.8151 31.3267 29.5661C31.0583 29.1639 28.9878 28.9915 28.6043 29.3746Z" fill="url(#paint4_linear_108_15592)"/>
<path d="M33.2059 29.3746C32.8991 29.6811 32.9183 30.1982 33.2442 30.4664C33.4168 30.6196 34.7588 30.6771 37.673 30.6388C41.4115 30.5813 41.8716 30.543 42.0634 30.2365C42.2167 30.0067 42.2167 29.8152 42.0634 29.5662C41.8716 29.2789 41.4115 29.2406 37.6538 29.1831C34.5479 29.1448 33.3784 29.2023 33.2059 29.3746Z" fill="url(#paint5_linear_108_15592)"/>
<path d="M28.6043 33.2054C28.2976 33.5119 28.3167 34.029 28.6427 34.2972C29.0644 34.6611 31.0583 34.4887 31.3267 34.0673C31.4801 33.8375 31.4801 33.6459 31.3267 33.3969C31.0583 32.9947 28.9878 32.8223 28.6043 33.2054Z" fill="url(#paint6_linear_108_15592)"/>
<path d="M33.2059 33.2054C32.8991 33.5119 32.9183 34.0291 33.2442 34.2972C33.4168 34.4504 34.7588 34.5079 37.673 34.4696C41.4115 34.4121 41.8716 34.3738 42.0634 34.0674C42.2167 33.8375 42.2167 33.646 42.0634 33.397C41.8716 33.1097 41.4115 33.0714 37.6538 33.0139C34.5479 32.9756 33.3784 33.0331 33.2059 33.2054Z" fill="url(#paint7_linear_108_15592)"/>
<path d="M28.6043 37.0361C28.2976 37.3426 28.3167 37.8597 28.6427 38.1279C29.0644 38.4918 31.0583 38.3194 31.3267 37.898C31.4801 37.6682 31.4801 37.4766 31.3267 37.2276C31.0583 36.8254 28.9878 36.653 28.6043 37.0361Z" fill="url(#paint8_linear_108_15592)"/>
<path d="M33.2059 37.036C32.8991 37.3425 32.9183 37.8596 33.2442 38.1278C33.4168 38.281 34.7588 38.3385 37.673 38.3002C41.4115 38.2427 41.8716 38.2044 42.0634 37.8979C42.2167 37.6681 42.2167 37.4765 42.0634 37.2275C41.8716 36.9402 41.4115 36.9019 37.6538 36.8445C34.5479 36.8062 33.3784 36.8636 33.2059 37.036Z" fill="url(#paint9_linear_108_15592)"/>
<defs>
<linearGradient id="paint0_linear_108_15592" x1="24.5527" y1="21.4833" x2="33.0616" y2="-0.843977" gradientUnits="userSpaceOnUse">
<stop stop-color="#DFBD69"/>
<stop offset="0.53125" stop-color="#FEF7C0"/>
<stop offset="1" stop-color="#926F34"/>
</linearGradient>
<linearGradient id="paint1_linear_108_15592" x1="32.1992" y1="14.5736" x2="38.0679" y2="5.70991" gradientUnits="userSpaceOnUse">
<stop stop-color="#DFBD69"/>
<stop offset="0.53125" stop-color="#FEF7C0"/>
<stop offset="1" stop-color="#926F34"/>
</linearGradient>
<linearGradient id="paint2_linear_108_15592" x1="0" y1="46" x2="19.4018" y2="14.0754" gradientUnits="userSpaceOnUse">
<stop stop-color="#DFBD69"/>
<stop offset="0.53125" stop-color="#FEF7C0"/>
<stop offset="1" stop-color="#926F34"/>
</linearGradient>
<linearGradient id="paint3_linear_108_15592" x1="24.5527" y1="46" x2="33.0616" y2="23.6727" gradientUnits="userSpaceOnUse">
<stop stop-color="#DFBD69"/>
<stop offset="0.53125" stop-color="#FEF7C0"/>
<stop offset="1" stop-color="#926F34"/>
</linearGradient>
<linearGradient id="paint4_linear_108_15592" x1="28.3857" y1="30.6647" x2="28.7096" y2="28.9351" gradientUnits="userSpaceOnUse">
<stop stop-color="#DFBD69"/>
<stop offset="0.53125" stop-color="#FEF7C0"/>
<stop offset="1" stop-color="#926F34"/>
</linearGradient>
<linearGradient id="paint5_linear_108_15592" x1="32.9873" y1="30.6503" x2="33.0946" y2="28.8971" gradientUnits="userSpaceOnUse">
<stop stop-color="#DFBD69"/>
<stop offset="0.53125" stop-color="#FEF7C0"/>
<stop offset="1" stop-color="#926F34"/>
</linearGradient>
<linearGradient id="paint6_linear_108_15592" x1="28.3857" y1="34.4955" x2="28.7096" y2="32.7659" gradientUnits="userSpaceOnUse">
<stop stop-color="#DFBD69"/>
<stop offset="0.53125" stop-color="#FEF7C0"/>
<stop offset="1" stop-color="#926F34"/>
</linearGradient>
<linearGradient id="paint7_linear_108_15592" x1="32.9873" y1="34.4811" x2="33.0946" y2="32.7279" gradientUnits="userSpaceOnUse">
<stop stop-color="#DFBD69"/>
<stop offset="0.53125" stop-color="#FEF7C0"/>
<stop offset="1" stop-color="#926F34"/>
</linearGradient>
<linearGradient id="paint8_linear_108_15592" x1="28.3857" y1="38.3262" x2="28.7096" y2="36.5966" gradientUnits="userSpaceOnUse">
<stop stop-color="#DFBD69"/>
<stop offset="0.53125" stop-color="#FEF7C0"/>
<stop offset="1" stop-color="#926F34"/>
</linearGradient>
<linearGradient id="paint9_linear_108_15592" x1="32.9873" y1="38.3116" x2="33.0946" y2="36.5584" gradientUnits="userSpaceOnUse">
<stop stop-color="#DFBD69"/>
<stop offset="0.53125" stop-color="#FEF7C0"/>
<stop offset="1" stop-color="#926F34"/>
</linearGradient>
</defs>
</svg>
