<svg width="28" height="46" viewBox="0 0 28 46" fill="none" xmlns="http://www.w3.org/2000/svg">
<path d="M18.0165 0.152815C17.8727 0.233678 17.3875 0.61104 16.9473 1.00637C16.1297 1.73414 15.6625 1.94978 15.1952 1.84196C15.0695 1.815 14.7191 1.52749 14.4136 1.19505C13.9374 0.664948 13.8296 0.59307 13.542 0.59307C13.2635 0.59307 13.1287 0.682918 12.4998 1.27592C11.772 1.98572 11.4126 2.15643 10.9454 2.03064C10.8286 2.00368 10.3974 1.77906 9.97507 1.52749C9.1305 1.03333 8.74416 0.961447 8.44766 1.25795C8.24101 1.4646 8.20507 2.04861 8.36679 2.35409C8.4207 2.46191 8.70822 2.86623 9.00471 3.27054C9.94812 4.54639 10.595 6.06482 10.9364 7.81686L11.0892 8.62549H14.0272H16.9742L17.0281 8.28407C17.4414 5.79527 18.0614 4.03425 19.0228 2.59668C19.6697 1.64429 19.7685 1.41069 19.7685 0.898553C19.7685 0.521192 19.7236 0.404389 19.5349 0.224693C19.3372 0.0360117 19.2025 7.24792e-05 18.7892 7.24792e-05C18.5017 0.009058 18.1692 0.0719509 18.0165 0.152815ZM13.6948 2.77638C13.9464 3.05491 14.6023 3.32445 15.1683 3.37836C15.5726 3.42328 15.8152 3.38735 16.3363 3.21663C16.6867 3.09085 16.9832 3.001 16.9832 3.01897C16.9832 3.02795 16.8844 3.25257 16.7676 3.51313C16.4801 4.16902 15.95 5.8402 15.8062 6.53203L15.6894 7.09807H14.0182H12.3381L12.2213 6.57695C12.0775 5.92106 11.6373 4.66319 11.3587 4.11511C11.2419 3.88151 11.1431 3.66587 11.1431 3.63892C11.1431 3.61197 11.2779 3.594 11.4396 3.594C11.9068 3.594 12.4908 3.36039 12.985 2.97404C13.2366 2.77638 13.4612 2.61465 13.4881 2.61465C13.5151 2.60567 13.6139 2.68653 13.6948 2.77638Z" fill="url(#paint0_linear_106_15016)"/>
<path d="M10.1009 10.099C9.94818 10.1709 9.79544 10.2877 9.7595 10.3775C9.6427 10.683 9.7056 11.1412 9.88529 11.3209C10.056 11.4916 10.1818 11.5006 14.0183 11.5006C17.8548 11.5006 17.9806 11.4916 18.1513 11.3209C18.349 11.1232 18.3939 10.6201 18.2412 10.3326C18.0615 10.0001 17.6931 9.97319 13.9824 9.97319C11.1611 9.98218 10.3166 10.0091 10.1009 10.099Z" fill="url(#paint1_linear_106_15016)"/>
<path d="M10.6938 13.5761C10.02 14.7082 8.18707 17.4036 6.37214 19.9014C5.41076 21.2311 4.33259 22.7496 3.98218 23.2707C1.80786 26.5322 0.585923 29.4163 0.127697 32.3813C-0.0969229 33.8907 -0.0160596 36.5682 0.298409 37.7542C1.46643 42.1927 5.60843 45.2835 11.188 45.9124C12.2302 46.0292 15.8062 46.0292 16.8484 45.9124C22.428 45.2835 26.534 42.2107 27.747 37.7542C27.9626 36.9366 27.9806 36.7659 27.9806 34.7712C27.9896 32.3094 27.8638 31.4648 27.172 29.3804C26.2465 26.613 25.1504 24.7172 21.6912 19.9373C19.7775 17.2958 18.3848 15.2652 17.5223 13.8546L16.9562 12.9382H14.0182H11.0712L10.6938 13.5761ZM17.073 16.011C17.684 16.9184 19.1935 19.0838 20.4334 20.8178C23.1468 24.6364 23.6859 25.4809 24.6562 27.4127C25.4379 28.976 25.9231 30.3238 26.2555 31.8332C26.4352 32.6329 26.4622 33.0012 26.4532 34.7263C26.4532 36.6131 26.4442 36.7389 26.2106 37.4936C25.2852 40.5035 23.0479 42.6329 19.6068 43.7471C17.7559 44.358 17.1359 44.4299 13.9733 44.4299C10.8286 44.4299 10.0649 44.3311 8.24996 43.7021C4.89863 42.5341 2.73329 40.4496 1.82583 37.4936C1.59222 36.7389 1.58324 36.6131 1.58324 34.7263C1.57425 32.9922 1.60121 32.6329 1.7809 31.8152C2.10436 30.3238 2.56258 29.0839 3.37121 27.4486C4.34157 25.4899 4.82675 24.7352 7.58509 20.8538C8.84296 19.0927 10.3614 16.9184 10.9634 16.011L12.0595 14.3757H14.0182H15.9769L17.073 16.011Z" fill="url(#paint2_linear_106_15016)"/>
<path d="M13.381 24.8162C13.0755 24.915 13.0576 24.9509 12.222 27.3409C11.3505 29.8207 11.3235 30.1891 11.9614 30.1891C12.2669 30.1891 12.3388 30.0903 12.5454 29.4433L12.7072 28.9222L13.6416 28.9492L14.585 28.9761L14.7467 29.4613C14.9534 30.0633 15.0612 30.1891 15.3577 30.1891C15.6811 30.1891 15.8159 30.0363 15.8159 29.677C15.8159 29.3355 14.3424 25.1845 14.1447 24.9689C13.974 24.7802 13.6685 24.7173 13.381 24.8162ZM13.965 27.1163L14.2795 28.0327H13.6416C13.1744 28.0327 13.0216 28.0058 13.0486 27.9159C13.0755 27.862 13.2103 27.4308 13.3451 26.9725C13.4888 26.5233 13.6146 26.1549 13.6326 26.1729C13.6506 26.1908 13.8033 26.6221 13.965 27.1163Z" fill="url(#paint3_linear_106_15016)"/>
<path d="M16.9924 24.7892C16.4893 24.924 16.5881 25.3373 17.4237 26.5772L17.9628 27.3858L17.6663 27.7812C16.8397 28.8683 16.5342 29.4074 16.5342 29.7398C16.5342 30.1082 16.633 30.1891 17.0643 30.1891C17.3518 30.1891 17.5225 30.0184 18.0616 29.2008C18.7355 28.1855 18.6456 28.1945 19.2117 29.039C19.8765 30.0543 20.0113 30.1891 20.3527 30.1891C21.0805 30.1891 21.0266 29.6949 20.164 28.4011C19.6968 27.7003 19.4992 27.3319 19.5531 27.26C20.7391 25.535 20.766 25.49 20.7391 25.1666C20.7211 24.924 20.6672 24.8431 20.4875 24.7982C20.0922 24.6904 19.8855 24.8521 19.3195 25.6967C18.987 26.1819 18.7265 26.4873 18.6815 26.4424C18.6366 26.3975 18.3671 26.0291 18.0886 25.6068C17.5495 24.8341 17.3698 24.6994 16.9924 24.7892Z" fill="url(#paint4_linear_106_15016)"/>
<path d="M7.29825 24.906C7.23535 24.9689 7.19043 25.1217 7.19043 25.2474C7.19043 25.6248 7.34317 25.6967 8.10688 25.6967H8.8077V27.7722C8.8077 29.03 8.84363 29.9106 8.89754 30.0184C8.96942 30.1442 9.08622 30.1891 9.34678 30.1891C9.60734 30.1891 9.72415 30.1442 9.79602 30.0184C9.84993 29.9106 9.88587 29.03 9.88587 27.7722V25.6967H10.5238C10.8742 25.6967 11.2336 25.6518 11.3324 25.6068C11.5301 25.499 11.566 25.0767 11.3953 24.906C11.2426 24.7533 7.45099 24.7533 7.29825 24.906Z" fill="url(#paint5_linear_106_15016)"/>
<path d="M9.64325 32.3544C9.14908 32.4442 8.82563 32.6239 8.47522 32.9923C8.07989 33.4056 7.90918 33.8638 7.90918 34.5197C7.91816 35.7955 8.78071 36.6581 10.0655 36.6581C10.973 36.6581 11.6918 36.2178 12.0512 35.4451C12.2758 34.9689 12.2758 34.0435 12.0512 33.5583C11.6558 32.6868 10.6226 32.1657 9.64325 32.3544ZM10.5148 34.0525C10.6136 34.1513 10.6945 34.349 10.6945 34.5017C10.6945 34.6545 10.6136 34.8521 10.5148 34.951C10.1284 35.3373 9.4366 35.0498 9.4366 34.5017C9.4366 34.349 9.51746 34.1513 9.61629 34.0525C9.71513 33.9537 9.91279 33.8728 10.0655 33.8728C10.2183 33.8728 10.4159 33.9537 10.5148 34.0525Z" fill="url(#paint6_linear_106_15016)"/>
<path d="M15.8776 32.3633C15.68 32.4352 15.2307 33.127 13.3888 36.1908C10.9809 40.216 10.909 40.3777 11.3223 40.791C11.529 40.9977 12.104 41.0336 12.3286 40.8539C12.4095 40.8 13.4697 39.0929 14.6826 37.0623C16.9827 33.2348 17.0906 33.0012 16.7851 32.5879C16.6234 32.3723 16.1831 32.2645 15.8776 32.3633Z" fill="url(#paint7_linear_106_15016)"/>
<path d="M17.0284 36.4693C16.2467 36.8287 15.8154 37.5475 15.8154 38.4729C15.8244 39.7488 16.687 40.6113 17.9718 40.6113C19.2656 40.6113 20.1281 39.7488 20.1281 38.455C20.1281 37.5206 19.6519 36.7748 18.8523 36.4424C18.3851 36.2447 17.4776 36.2627 17.0284 36.4693ZM18.421 38.0057C18.5199 38.1046 18.6007 38.3022 18.6007 38.455C18.6007 38.6077 18.5199 38.8054 18.421 38.9042C18.0347 39.2906 17.3428 39.003 17.3428 38.455C17.3428 38.1136 17.6304 37.826 17.9718 37.826C18.1245 37.826 18.3222 37.9069 18.421 38.0057Z" fill="url(#paint8_linear_106_15016)"/>
<defs>
<linearGradient id="paint0_linear_106_15016" x1="8.26563" y1="8.62549" x2="10.974" y2="-0.868071" gradientUnits="userSpaceOnUse">
<stop stop-color="#DFBD69"/>
<stop offset="0.53125" stop-color="#FEF7C0"/>
<stop offset="1" stop-color="#926F34"/>
</linearGradient>
<linearGradient id="paint1_linear_106_15016" x1="9.7002" y1="11.5006" x2="9.82203" y2="9.69084" gradientUnits="userSpaceOnUse">
<stop stop-color="#DFBD69"/>
<stop offset="0.53125" stop-color="#FEF7C0"/>
<stop offset="1" stop-color="#926F34"/>
</linearGradient>
<linearGradient id="paint2_linear_106_15016" x1="0" y1="46" x2="14.716" y2="13.2643" gradientUnits="userSpaceOnUse">
<stop stop-color="#DFBD69"/>
<stop offset="0.53125" stop-color="#FEF7C0"/>
<stop offset="1" stop-color="#926F34"/>
</linearGradient>
<linearGradient id="paint3_linear_106_15016" x1="11.5205" y1="30.1891" x2="14.0369" y2="24.9467" gradientUnits="userSpaceOnUse">
<stop stop-color="#DFBD69"/>
<stop offset="0.53125" stop-color="#FEF7C0"/>
<stop offset="1" stop-color="#926F34"/>
</linearGradient>
<linearGradient id="paint4_linear_106_15016" x1="16.5342" y1="30.1891" x2="19.0437" y2="24.9308" gradientUnits="userSpaceOnUse">
<stop stop-color="#DFBD69"/>
<stop offset="0.53125" stop-color="#FEF7C0"/>
<stop offset="1" stop-color="#926F34"/>
</linearGradient>
<linearGradient id="paint5_linear_106_15016" x1="7.19043" y1="30.1891" x2="9.68361" y2="24.9515" gradientUnits="userSpaceOnUse">
<stop stop-color="#DFBD69"/>
<stop offset="0.53125" stop-color="#FEF7C0"/>
<stop offset="1" stop-color="#926F34"/>
</linearGradient>
<linearGradient id="paint6_linear_106_15016" x1="7.90918" y1="36.6581" x2="9.63627" y2="32.1518" gradientUnits="userSpaceOnUse">
<stop stop-color="#DFBD69"/>
<stop offset="0.53125" stop-color="#FEF7C0"/>
<stop offset="1" stop-color="#926F34"/>
</linearGradient>
<linearGradient id="paint7_linear_106_15016" x1="11.1299" y1="40.9697" x2="15.5519" y2="33.1983" gradientUnits="userSpaceOnUse">
<stop stop-color="#DFBD69"/>
<stop offset="0.53125" stop-color="#FEF7C0"/>
<stop offset="1" stop-color="#926F34"/>
</linearGradient>
<linearGradient id="paint8_linear_106_15016" x1="15.8154" y1="40.6113" x2="17.5179" y2="36.1313" gradientUnits="userSpaceOnUse">
<stop stop-color="#DFBD69"/>
<stop offset="0.53125" stop-color="#FEF7C0"/>
<stop offset="1" stop-color="#926F34"/>
</linearGradient>
</defs>
</svg>
