<svg width="40" height="46" viewBox="0 0 40 46" fill="none" xmlns="http://www.w3.org/2000/svg">
<path d="M18.3774 0.80862V1.61721H13.892H9.40659L8.88835 2.13831L8.37012 2.67737L8.40586 10.6375L8.45947 18.5977L8.95983 18.6516C9.22788 18.6875 9.4602 18.6875 9.47807 18.6516C9.49594 18.6157 9.56742 15.0758 9.62103 10.7813L9.71038 2.96487L14.0528 2.91096L18.3774 2.87503V3.73753C18.3774 4.20471 18.4668 4.68987 18.5918 4.81565C18.8956 5.12112 28.0452 5.12112 28.3489 4.81565C28.474 4.68987 28.5634 4.20471 28.5634 3.73753V2.87503L33.6206 2.91096L38.66 2.96487V21.2031V39.4414L29.7964 39.4953C22.559 39.5313 20.8792 39.5852 20.7184 39.7828C20.4503 40.1063 20.6469 40.5914 21.1294 40.6992C21.326 40.7531 25.4719 40.7711 30.3147 40.7531L39.1425 40.6992L39.5714 40.1961L40.0003 39.693V21.1852V2.6594L39.482 2.13831L38.9638 1.61721H33.7636H28.5634V0.80862V2.67029e-05H23.4704H18.3774V0.80862ZM27.3125 2.24612V3.77346H23.4704H19.6283V2.24612V0.718777H23.4704H27.3125V2.24612Z" fill="url(#paint0_linear_108_15582)"/>
<path d="M10.9972 6.41484C10.9257 6.46875 10.8721 9.21797 10.8721 12.5063C10.8721 17.7711 10.9078 18.4898 11.158 18.5797C11.5333 18.7234 11.5154 18.7234 11.8371 18.4C12.0872 18.1664 12.123 17.3938 12.123 12.8297V7.54688H24.1853H36.2477V18.5078V29.4688H33.1561C30.9939 29.4688 29.9931 29.5406 29.8502 29.6844C29.7072 29.8281 29.6357 30.8344 29.6357 33.0086V36.1172L25.4184 36.1531C21.755 36.207 21.1653 36.243 21.0044 36.4945C20.8972 36.6562 20.8794 36.9258 20.933 37.0875C21.0402 37.3391 21.5584 37.375 25.8294 37.375H30.6186L34.0675 33.907L37.4986 30.457L37.4629 18.418L37.4092 6.37891L24.2568 6.325C17.0373 6.30703 11.0508 6.34297 10.9972 6.41484ZM35.3542 30.7805C35.3542 30.7984 34.3534 31.8227 33.1204 33.0625L30.8866 35.3086V33.0086V30.7266H33.1204C34.3534 30.7266 35.3542 30.7445 35.3542 30.7805Z" fill="url(#paint1_linear_108_15582)"/>
<path d="M29.3305 9.1101C28.8122 9.30775 29.1339 10.0085 30.2776 11.1585L31.457 12.3445L29.4198 12.4343C26.6499 12.5781 25.6313 12.9734 24.0945 14.5367C23.2367 15.3992 22.79 16.0281 22.4862 16.8007C22.0752 17.8429 22.0573 18.0585 21.9858 23.6828C21.9144 29.8281 21.9501 30.0796 22.7364 29.9718C23.1117 29.9179 23.1117 29.8281 23.201 23.9882L23.2904 18.0585L23.7907 17.0523C24.0588 16.4953 24.6485 15.6867 25.0952 15.2734C26.3283 14.1234 27.2397 13.7999 29.4913 13.6921C30.6171 13.6382 31.4213 13.6742 31.4213 13.764C31.4213 13.8538 30.903 14.4648 30.2597 15.0937C29.0267 16.3156 28.8658 16.7468 29.4734 17.0703C29.7951 17.2499 30.0453 17.0703 31.7966 15.3453C32.8688 14.2851 33.7444 13.2788 33.7444 13.1171C33.7444 12.8117 30.0095 8.98431 29.7236 9.00228C29.6164 9.00228 29.4377 9.05619 29.3305 9.1101Z" fill="url(#paint2_linear_108_15582)"/>
<path d="M16.2499 13.6923C14.8025 14.4649 14.2664 16.1719 14.9633 17.7173C15.3922 18.6696 16.2321 19.2626 17.3222 19.3704C18.4301 19.4782 18.9305 19.3344 19.6274 18.7594C20.3779 18.1126 20.7353 17.3399 20.7353 16.3516C20.7353 14.0157 18.3229 12.5782 16.2499 13.6923ZM18.9305 15.0758C19.4487 15.5969 19.5202 15.8305 19.4666 16.711C19.413 17.3938 18.5016 18.1485 17.7332 18.1485C16.9111 18.1485 16.4823 17.8969 16.1427 17.2501C15.1777 15.3813 17.4651 13.6024 18.9305 15.0758Z" fill="url(#paint3_linear_108_15582)"/>
<path d="M5.61715 19.2805C4.84874 19.8375 4.97383 22.2094 5.86734 23.8445C6.31409 24.6891 6.33196 24.7969 6.04604 24.7969C5.59928 24.7969 5.27762 25.2641 5.38484 25.7313C5.47419 26.0547 5.33123 26.2703 4.68791 26.7555C3.09746 27.9773 1.23897 31.032 0.506291 33.6375C0.30972 34.3562 0.0952781 35.7219 0.0237975 36.6562C-0.226385 40.6633 1.50702 43.9156 4.70578 45.4609L5.8316 46H9.94173H14.034L15.3206 45.3531C18.3586 43.8258 19.8061 41.2203 19.8418 37.2852C19.8597 33.4039 18.1977 29.5406 15.4279 26.9891C14.5701 26.2164 14.2663 25.8031 14.2663 25.4617C14.2663 25.1562 14.1412 24.9586 13.891 24.8867C13.6945 24.8148 13.5515 24.707 13.5872 24.6531C15.1062 21.7781 15.2134 19.4781 13.8553 19.1187C13.623 19.0648 12.9439 19.1906 12.3363 19.3883C10.9067 19.8734 8.99461 19.8734 7.65435 19.4062C6.49279 18.993 6.04604 18.975 5.61715 19.2805ZM9.87025 21.0234C11.0139 21.0234 12.3721 20.7719 13.2477 20.3945C13.4979 20.2867 13.5515 20.3586 13.5515 20.8797C13.5515 21.9219 13.0511 23.2516 12.3721 24.0422L11.7287 24.7969H9.99534C8.29768 24.7969 8.24407 24.7789 7.70796 24.2578C6.93955 23.5031 6.52853 22.5508 6.43918 21.3469L6.3677 20.3227L7.47565 20.682C8.13684 20.8797 9.10183 21.0234 9.87025 21.0234ZM9.44137 26.1805C9.44137 26.2523 9.33414 26.5758 9.22692 26.9172C9.03035 27.4563 9.03035 27.5461 9.33414 27.7617C9.74516 28.0852 10.1383 27.9234 10.3527 27.3305L10.5314 26.8813L10.9067 27.4922C11.1212 27.8336 11.3892 28.3008 11.5322 28.5164C11.8181 29.0016 12.3899 29.0555 12.6401 28.6063C12.7652 28.3727 12.658 28.0312 12.1934 27.1688L11.5679 26.0367L12.1934 26.3062C15.3743 27.6359 18.1263 31.8586 18.5194 35.9914C19.0734 41.5438 16.3392 44.832 10.8888 45.2094C7.29695 45.4789 4.3305 44.4008 2.72219 42.2805C-0.512307 38.0219 1.97164 29.2172 7.11825 26.6297C8.13684 26.1086 9.44137 25.857 9.44137 26.1805Z" fill="url(#paint4_linear_108_15582)"/>
<path d="M9.44205 31.607C9.3527 31.8046 9.26335 32.0921 9.26335 32.2359C9.26335 32.3976 9.06678 32.5593 8.8166 32.6312C8.56642 32.6851 8.11966 33.0265 7.81587 33.3859C7.33338 33.9249 7.27977 34.1226 7.35125 34.7156C7.45847 35.5421 7.86948 36.0632 8.69151 36.4226C9.20974 36.6382 9.26335 36.7281 9.26335 37.4648V38.2734H8.47707C6.94023 38.2734 6.88662 39.3874 8.40558 39.4953C9.13826 39.5492 9.22761 39.6031 9.31696 40.0523C9.49566 40.9687 10.5143 40.8968 10.5143 39.9804C10.5143 39.6929 10.693 39.5132 11.2112 39.3156C12.9982 38.6148 12.9982 36.3507 11.2112 35.596C10.5679 35.3265 10.5143 35.2546 10.5143 34.5359V33.7812H11.4078C12.3728 33.7812 12.7659 33.4398 12.4621 32.8468C12.337 32.5953 12.069 32.5234 11.4078 32.5234C10.55 32.5234 10.5143 32.5054 10.5143 32.0023C10.5143 31.2656 9.78159 30.996 9.44205 31.607ZM9.26335 34.5179C9.26335 35.2726 9.01317 35.3984 8.65577 34.8054C8.51281 34.5898 8.56642 34.4281 8.79873 34.1585C8.9953 33.9429 9.174 33.7812 9.20974 33.7812C9.22761 33.7812 9.26335 34.1046 9.26335 34.5179ZM11.2827 37.2312C11.3899 37.5726 11.0861 38.0937 10.7823 38.0937C10.5857 38.0937 10.5143 37.8781 10.5143 37.3749C10.5143 36.7101 10.55 36.6562 10.8538 36.8359C11.0504 36.9257 11.2291 37.1054 11.2827 37.2312Z" fill="url(#paint5_linear_108_15582)"/>
<path d="M27.1691 20.1609C26.8117 20.5203 26.9189 20.8258 27.7945 21.7602L28.6166 22.6586L27.7767 23.5211C26.8474 24.4734 26.7402 25.0305 27.4729 25.1203C27.7767 25.1742 28.1162 24.9586 28.7238 24.3656L29.5637 23.5391L30.35 24.3477C30.9397 24.9586 31.2613 25.1563 31.6009 25.1203C32.3514 25.0305 32.2621 24.4734 31.3149 23.5211L30.4572 22.6406L31.3149 21.7602C32.1906 20.8617 32.3157 20.4125 31.7438 20.0531C31.4758 19.8914 31.2613 20.0172 30.475 20.8078L29.5279 21.7422L28.6523 20.8438C27.723 19.9094 27.5265 19.8016 27.1691 20.1609Z" fill="url(#paint6_linear_108_15582)"/>
<defs>
<linearGradient id="paint0_linear_108_15582" x1="8.37012" y1="40.7599" x2="27.5457" y2="1.6476" gradientUnits="userSpaceOnUse">
<stop stop-color="#DFBD69"/>
<stop offset="0.53125" stop-color="#FEF7C0"/>
<stop offset="1" stop-color="#926F34"/>
</linearGradient>
<linearGradient id="paint1_linear_108_15582" x1="10.8721" y1="37.375" x2="24.5751" y2="6.49337" gradientUnits="userSpaceOnUse">
<stop stop-color="#DFBD69"/>
<stop offset="0.53125" stop-color="#FEF7C0"/>
<stop offset="1" stop-color="#926F34"/>
</linearGradient>
<linearGradient id="paint2_linear_108_15582" x1="21.9609" y1="29.9882" x2="33.5602" y2="12.8695" gradientUnits="userSpaceOnUse">
<stop stop-color="#DFBD69"/>
<stop offset="0.53125" stop-color="#FEF7C0"/>
<stop offset="1" stop-color="#926F34"/>
</linearGradient>
<linearGradient id="paint3_linear_108_15582" x1="14.6602" y1="19.4034" x2="17.0773" y2="13.0713" gradientUnits="userSpaceOnUse">
<stop stop-color="#DFBD69"/>
<stop offset="0.53125" stop-color="#FEF7C0"/>
<stop offset="1" stop-color="#926F34"/>
</linearGradient>
<linearGradient id="paint4_linear_108_15582" x1="0" y1="46" x2="13.066" y2="20.6951" gradientUnits="userSpaceOnUse">
<stop stop-color="#DFBD69"/>
<stop offset="0.53125" stop-color="#FEF7C0"/>
<stop offset="1" stop-color="#926F34"/>
</linearGradient>
<linearGradient id="paint5_linear_108_15582" x1="7.29492" y1="40.7047" x2="12.521" y2="33.0357" gradientUnits="userSpaceOnUse">
<stop stop-color="#DFBD69"/>
<stop offset="0.53125" stop-color="#FEF7C0"/>
<stop offset="1" stop-color="#926F34"/>
</linearGradient>
<linearGradient id="paint6_linear_108_15582" x1="26.9775" y1="25.1283" x2="29.0276" y2="19.7743" gradientUnits="userSpaceOnUse">
<stop stop-color="#DFBD69"/>
<stop offset="0.53125" stop-color="#FEF7C0"/>
<stop offset="1" stop-color="#926F34"/>
</linearGradient>
</defs>
</svg>
