<svg width="41" height="50" viewBox="0 0 41 50" fill="none" xmlns="http://www.w3.org/2000/svg">
<path d="M6.73347 0.521042C6.37275 0.981964 6.31263 1.34269 6.31263 3.14629V5.23046L5.27054 5.13026C4.46894 5.03006 4.10822 5.09018 3.80762 5.31062C3.40681 5.63126 3.40681 5.89178 3.34669 23.9479L3.30661 42.2645L1.64329 42.3246C0.160321 42.3848 0 42.4248 0 42.7856C0 43.1864 0.160321 43.1864 12.6253 43.2866L25.2305 43.3868L25.3908 44.1683C25.8317 46.2926 27.6353 48.4569 29.7595 49.479C30.7214 49.9399 31.1222 50 32.9659 50C34.9499 50 35.1703 49.9599 36.4128 49.3387C38.0762 48.517 39.5792 46.9539 40.2004 45.3307C40.8417 43.7275 40.8417 41.0421 40.2204 39.479C39.5792 37.8557 38.0561 36.2325 36.4128 35.4309C35.1503 34.8096 34.9499 34.7695 32.9258 34.7695H30.7615V21.9038V9.03808L30.3206 8.61723C30.0802 8.39679 29.5992 8.21643 29.2786 8.21643C27.7355 8.21643 27.7555 8.23647 27.7555 5.53106C27.7555 3.18637 27.7355 3.04609 27.2545 2.60521C26.8136 2.18437 26.1122 2.06413 17.8958 1.08216C13.006 0.480961 8.59719 0 8.07615 0C7.31463 0 7.07415 0.100201 6.73347 0.521042ZM17.5351 2.06413C22.3447 2.64529 26.3727 3.20641 26.513 3.28658C26.6733 3.38677 26.7535 4.12826 26.7535 5.63126C26.7535 7.57515 26.7134 7.81563 26.4128 7.81563C26.2124 7.81563 21.9038 7.27455 16.8337 6.61323C11.7635 5.9519 7.55511 5.41082 7.47495 5.41082C7.27455 5.41082 7.25451 1.32265 7.45491 1.14228C7.67535 0.901806 8.61723 0.981964 17.5351 2.06413ZM7.91583 6.51303C13.5872 7.21443 28.8978 9.23848 29.3186 9.31864L29.7595 9.41884V22.3246V35.2104L28.7776 35.8317C28.2365 36.1924 27.495 36.8136 27.1543 37.2144C26.2926 38.1764 25.4108 40.0802 25.2505 41.3026L25.1102 42.2846H23.7475H22.3647L22.3046 37.8557C22.2445 33.7475 22.2244 33.4068 21.8637 33.1463C21.5431 32.9259 20.5411 32.8657 17.0341 32.8657C12.9058 32.8657 12.5651 32.8858 12.2445 33.2465C11.9439 33.5872 11.9038 34.1283 11.9238 37.9559L11.9439 42.2846H8.11623H4.30862V24.2886C4.30862 14.3888 4.36874 6.21243 4.42886 6.15231C4.50902 6.07214 4.7495 6.0521 4.98998 6.11222C5.23046 6.17234 6.53307 6.35271 7.91583 6.51303ZM21.3026 38.1162L21.3427 42.2846H17.1343H12.9259V38.0762V33.8677L17.0942 33.9078L21.2425 33.9679L21.3026 38.1162ZM35.1303 35.9719C36.6934 36.4329 38.1363 37.7154 38.978 39.3788C39.6192 40.6012 39.6794 40.9018 39.6794 42.3647C39.6794 43.8076 39.5992 44.1483 39.018 45.3307C38.2966 46.7936 37.2745 47.8156 35.7916 48.5371C35.0301 48.9178 34.5291 48.998 32.9659 48.998C31.2826 48.998 30.9419 48.9379 30 48.4369C24.509 45.5511 25.2305 37.6754 31.1623 35.8517C32.024 35.5912 34.0481 35.6513 35.1303 35.9719Z" fill="#1F381C"/>
<path d="M7.91545 12.6252C7.59481 12.9459 7.51465 13.2866 7.51465 14.529C7.51465 15.8717 7.57477 16.1122 8.01565 16.5331C8.45653 16.9739 8.65693 17.0341 10.1199 17.0341C11.5828 17.0341 11.7832 16.9739 12.2241 16.5331C12.6649 16.1122 12.7251 15.8717 12.7251 14.6693C12.7251 13.5671 12.6449 13.1663 12.3042 12.7455C11.9235 12.2445 11.8032 12.2244 10.0998 12.2244C8.57677 12.2244 8.25613 12.2846 7.91545 12.6252ZM11.683 14.4489C11.7631 15.8918 11.5427 16.0721 9.87938 15.992L8.61685 15.9319L8.55673 14.8497C8.45653 13.2264 8.49661 13.2064 10.1599 13.2665L11.6229 13.3266L11.683 14.4489Z" fill="#1F381C"/>
<path d="M14.9301 12.6252C14.5894 12.9659 14.5293 13.2866 14.5293 14.5691C14.5293 15.4309 14.6095 16.2325 14.6896 16.3527C14.9902 16.8337 15.7718 17.0341 17.2147 17.0341C19.3189 17.0341 19.5393 16.7936 19.5393 14.5691C19.5393 12.3447 19.399 12.2244 17.0744 12.2244C15.5914 12.2244 15.2708 12.2846 14.9301 12.6252ZM18.4972 14.5691L18.4371 15.9319L17.4551 15.992C15.6515 16.1122 15.5313 16.012 15.5313 14.529V13.2264H17.0343H18.5574L18.4972 14.5691Z" fill="#1F381C"/>
<path d="M21.8435 12.6252C21.3625 13.1663 21.2022 15.1904 21.5429 16.0521C21.8635 16.8337 22.4247 17.0341 24.1281 17.0341C25.2102 17.0341 25.611 16.9539 26.0319 16.6132C26.5128 16.2325 26.5529 16.0922 26.5529 14.6092C26.5529 12.4048 26.3525 12.2244 23.9878 12.2244C22.4447 12.2244 22.1642 12.2846 21.8435 12.6252ZM25.5108 14.5691L25.4507 15.9319H24.0479H22.6451L22.585 14.5691L22.5249 13.2264H24.0479H25.571L25.5108 14.5691Z" fill="#1F381C"/>
<path d="M7.91545 19.439C7.59481 19.7596 7.51465 20.1003 7.51465 21.3428C7.51465 22.6855 7.57477 22.9259 8.01565 23.3468C8.43649 23.7877 8.67697 23.8478 10.0798 23.8478C12.3042 23.8478 12.5848 23.5873 12.685 21.6233C12.7451 20.3408 12.705 20.0602 12.3243 19.5792C11.9034 19.0582 11.8233 19.0382 10.0998 19.0382C8.57677 19.0382 8.25613 19.0983 7.91545 19.439ZM11.6028 20.3608C11.8233 20.962 11.7231 22.3849 11.4425 22.6253C11.2621 22.7656 10.6409 22.8458 9.87938 22.8057L8.61685 22.7456L8.55673 21.6634C8.45653 20.0802 8.49661 20.0402 10.0998 20.0402C11.182 20.0402 11.5026 20.1203 11.6028 20.3608Z" fill="#1F381C"/>
<path d="M14.9301 19.4389C14.5894 19.7796 14.5293 20.1002 14.5293 21.4229C14.5293 22.9059 14.5694 23.0461 15.0503 23.4269C15.8119 24.0281 18.5373 24.0481 19.1385 23.4469C19.5794 23.0061 19.5794 22.9459 19.5393 21.0421C19.4992 19.1984 19.3189 19.0381 17.0944 19.0381C15.5914 19.0381 15.2708 19.0982 14.9301 19.4389ZM18.4972 21.3828L18.4371 22.7455L17.4551 22.8056C15.6515 22.9259 15.5313 22.8257 15.5313 21.3427V20.0401H17.0343H18.5574L18.4972 21.3828Z" fill="#1F381C"/>
<path d="M21.7437 19.5792C21.363 20.0602 21.3229 20.3408 21.383 21.6233C21.4832 23.5873 21.7838 23.8478 23.9481 23.8478C25.2107 23.8478 25.5914 23.7676 26.0323 23.4269C26.5133 23.0462 26.5534 22.9059 26.5534 21.4229C26.5534 19.2185 26.353 19.0382 23.9682 19.0382C22.2447 19.0382 22.1646 19.0582 21.7437 19.5792ZM25.5113 21.3828L25.4512 22.7456H24.0483H22.6455L22.5854 21.3828L22.5253 20.0402H24.0483H25.5714L25.5113 21.3828Z" fill="#1F381C"/>
<path d="M7.91545 26.2526C7.59481 26.5732 7.51465 26.9139 7.51465 28.1564C7.51465 29.4991 7.57477 29.7395 8.01565 30.1604C8.45653 30.6013 8.65693 30.6614 10.1199 30.6614C11.5828 30.6614 11.7832 30.6013 12.2241 30.1604C12.6649 29.7395 12.7251 29.4991 12.7251 28.2966C12.7251 27.1944 12.6449 26.7936 12.3042 26.3728C11.9235 25.8718 11.8032 25.8518 10.0998 25.8518C8.57677 25.8518 8.25613 25.9119 7.91545 26.2526ZM11.6028 27.1744C11.8032 27.7155 11.7431 29.1584 11.4826 29.4189C11.2421 29.6594 9.39842 29.7596 8.83729 29.5391C8.59681 29.4389 8.51665 29.1383 8.51665 28.2766C8.51665 27.6353 8.57677 27.0542 8.65693 26.994C8.71705 26.9139 9.39842 26.8538 10.1399 26.8538C11.182 26.8538 11.5026 26.9339 11.6028 27.1744Z" fill="#1F381C"/>
<path d="M14.9702 26.1723C14.5694 26.4528 14.5293 26.6532 14.5293 28.1562C14.5293 29.7194 14.5694 29.8596 15.0503 30.2404C15.8119 30.8416 18.4572 30.8416 19.0984 30.2604C19.5794 29.7995 19.6195 29.559 19.5594 27.7554C19.4792 26.012 19.2588 25.8516 17.1545 25.8516C15.9121 25.8516 15.2908 25.9318 14.9702 26.1723ZM18.4972 28.1963L18.4371 29.559H17.0343H15.6315L15.5714 28.1963L15.5113 26.8536H17.0343H18.5574L18.4972 28.1963Z" fill="#1F381C"/>
<path d="M21.8231 26.2726C21.5225 26.6132 21.4424 27.014 21.4424 28.2766C21.4424 30.3607 21.6227 30.5411 23.8071 30.6213C25.25 30.6814 25.5105 30.6413 26.0115 30.2605C26.5125 29.8597 26.5526 29.7395 26.5526 28.2365C26.5526 26.0321 26.3522 25.8517 23.9875 25.8517C22.4243 25.8517 22.1638 25.9118 21.8231 26.2726ZM25.5105 28.1964L25.4504 29.5591H24.0476H22.6448L22.5847 28.1964L22.5245 26.8537H24.0476H25.5706L25.5105 28.1964Z" fill="#1F381C"/>
<path d="M32.7057 37.0141C32.6255 37.0742 32.5654 37.8958 32.5654 38.8177V40.481H31.5634C29.9 40.481 29.7598 40.7615 29.7598 43.8678V46.4529L30.3008 46.5932C31.0624 46.7736 35.5914 46.6734 36.0323 46.4529C36.373 46.2726 36.393 46.012 36.3329 43.7876C36.2528 40.8016 36.0924 40.481 34.5293 40.481C33.2267 40.481 33.3269 40.0201 34.6095 39.98C35.8519 39.9599 36.1726 39.6593 36.1726 38.4569C36.1726 37.1143 35.872 36.8738 34.1886 36.8738C33.4471 36.8738 32.7658 36.9339 32.7057 37.0141ZM35.1305 38.4169C35.1906 38.8377 35.1105 38.8778 34.389 38.8778C33.6475 38.8778 33.5674 38.8377 33.5674 38.3567C33.5674 37.8958 33.6275 37.8557 34.3289 37.9159C34.9301 37.9559 35.0904 38.0561 35.1305 38.4169ZM35.1706 43.487C35.1706 45.1303 35.1105 45.491 34.87 45.491C34.6495 45.491 34.5694 45.2505 34.5694 44.509C34.5694 43.3467 34.1485 42.7455 33.2267 42.5652C32.6856 42.465 32.4852 42.5451 31.9642 43.0461C31.4632 43.5471 31.363 43.8277 31.363 44.5692C31.363 45.2505 31.2828 45.491 31.0624 45.491C30.8219 45.491 30.7618 45.1303 30.7618 43.487V41.483H32.9662H35.1706V43.487ZM33.3269 43.7275C33.4672 43.8678 33.5674 44.3086 33.5674 44.7295C33.5674 45.4509 33.5273 45.491 32.9662 45.491C32.4051 45.491 32.365 45.4509 32.365 44.7295C32.365 44.0481 32.6455 43.487 32.9662 43.487C33.0263 43.487 33.1866 43.5872 33.3269 43.7275Z" fill="#1F381C"/>
</svg>
