<svg width="44" height="44" viewBox="0 0 44 44" fill="none" xmlns="http://www.w3.org/2000/svg">
<path d="M5.55631 0.197689C5.30414 0.335186 5.08676 0.541435 4.91285 0.816433L4.65199 1.22893L4.62591 2.8875L4.59113 4.54608L2.92163 4.57186L1.24343 4.59764L0.826055 4.85545C0.547805 5.02732 0.339117 5.24216 0.199992 5.49138L0 5.8695V24.2513C0 40.648 0.0173906 42.6675 0.13043 42.9511C0.304336 43.355 0.565196 43.63 0.973875 43.8362C1.28691 43.9909 1.71298 43.9995 15.5211 43.9995C30.9814 43.9995 30.0423 44.0339 30.5466 43.5183C31.051 43.0198 31.0771 42.8909 31.1118 41.1035L31.1466 39.4449H32.7205C34.0769 39.4449 34.3552 39.4191 34.6508 39.2816C35.1117 39.0754 35.3725 38.809 35.5725 38.3793C35.7204 38.0441 35.7378 37.709 35.7378 32.6645V27.3021L38.6072 22.3951C40.1898 19.6967 41.5114 17.4366 41.5549 17.3678C41.6158 17.2733 41.6853 17.2819 41.9375 17.4366L42.2505 17.6256L41.6593 18.6311C39.7985 21.7935 39.1289 22.9966 39.1289 23.1771C39.1289 23.4349 39.5724 23.8904 39.8159 23.8904C40.3028 23.8904 40.3811 23.7787 42.1027 20.8224C44.1287 17.3592 43.9983 17.6084 43.9983 17.2819C43.9983 16.9467 43.8331 16.792 43.0157 16.328L42.3549 15.9584L42.4853 15.7178C42.6244 15.4342 42.6505 14.8413 42.5201 14.6006C42.4418 14.4717 42.494 14.3256 42.781 13.8444C43.0592 13.3718 43.1288 13.1655 43.1288 12.8304C43.1288 12.1686 42.9462 11.9882 41.5984 11.2147C40.5202 10.6046 40.3463 10.5273 39.955 10.5358C39.3724 10.5358 39.1463 10.7163 38.6855 11.4897C38.3811 12.0311 38.2942 12.1171 38.0855 12.1171C37.6159 12.1171 37.3029 12.4436 36.529 13.7842L35.7812 15.0733L35.7378 12.1085L35.6943 9.15227L35.4595 8.76556C35.1204 8.19838 27.0859 0.300812 26.6772 0.137535C26.3903 0.0172234 25.1642 3.43323e-05 16.1472 3.43323e-05H5.9389L5.55631 0.197689ZM25.5642 5.37107C25.5642 9.59055 25.5816 9.77102 25.9555 9.91711C26.0338 9.94289 27.9381 9.96867 30.1814 9.96867H34.2595V13.8186V17.6686L31.3292 22.6873L28.3989 27.706L28.5554 29.7255C28.6424 30.8426 28.7554 31.8481 28.8076 31.9598C28.8685 32.0715 29.0163 32.2434 29.1467 32.3379C29.5728 32.6473 29.9032 32.57 31.7379 31.6934C33.8422 30.6966 33.6683 30.7997 33.99 30.3012L34.2595 29.8716V33.8246C34.2595 36.7809 34.2335 37.8035 34.1552 37.8808C34.0769 37.9582 30.8597 37.984 20.2079 37.984C7.73883 37.984 6.34758 37.9668 6.22585 37.8465C6.10411 37.7262 6.08672 35.9645 6.08672 19.7311C6.08672 0.971115 6.07803 1.56408 6.43453 1.43517C6.5041 1.40939 10.8431 1.38361 16.0689 1.38361L25.5642 1.37502V5.37107ZM30.1293 5.49997L33.1726 8.50775H30.1032H27.0424V5.49997C27.0424 3.8414 27.0511 2.4922 27.0685 2.4922C27.0772 2.4922 28.4598 3.8414 30.1293 5.49997ZM4.60852 21.8795C4.60852 33.0254 4.6346 37.8465 4.70417 38.1043C4.8259 38.5855 5.24328 39.084 5.68674 39.2816C6.02585 39.4363 6.55627 39.4449 17.8515 39.4449H29.651V40.8457C29.651 41.9199 29.6249 42.2894 29.5293 42.4183C29.4076 42.5816 29.1641 42.5816 15.5211 42.5816C3.28683 42.5816 1.63472 42.5644 1.56516 42.4527C1.43473 42.2464 1.45212 6.24762 1.58255 6.11871C1.65211 6.04996 2.13035 6.01559 3.1477 6.01559H4.60852V21.8795ZM40.8419 12.5124C41.2158 12.7272 41.5288 12.9163 41.5462 12.9249C41.5549 12.9421 41.4767 13.1054 41.3723 13.2944L41.181 13.6382L40.4332 13.2085L39.6854 12.7702L39.8593 12.4436C39.9637 12.2632 40.068 12.1171 40.1028 12.1171C40.1376 12.1171 40.468 12.2975 40.8419 12.5124ZM39.7115 14.5061L41.0332 15.2624L38.9028 18.9147C37.729 20.917 36.7203 22.6443 36.6681 22.7474C36.5638 22.9279 36.5377 22.9193 35.1899 22.1545C33.8683 21.4068 33.8248 21.3724 33.9378 21.192C33.9987 21.0974 35.0073 19.3787 36.1725 17.3764C37.329 15.3827 38.3116 13.7499 38.3377 13.7499C38.3637 13.7499 38.9811 14.0936 39.7115 14.5061ZM34.4595 23.4607C35.1639 23.856 35.7378 24.2169 35.7378 24.2599C35.7378 24.3373 33.0683 28.9434 32.9466 29.0809C32.877 29.1583 30.1641 27.6716 30.2162 27.5857C30.8771 26.3825 33.077 22.6873 33.1292 22.7045C33.1552 22.7216 33.7639 23.0568 34.4595 23.4607ZM30.8423 29.7169L31.5553 30.1294L30.8249 30.4903L30.0858 30.8512V30.3958C30.0858 30.1552 30.0597 29.8028 30.0336 29.6223C29.9988 29.4505 30.0075 29.3044 30.051 29.3044C30.0945 29.3044 30.451 29.4934 30.8423 29.7169Z" fill="url(#paint0_linear_106_15064)"/>
<path d="M9.30454 4.06486C8.85239 4.28829 8.76544 4.88126 9.13064 5.24219C9.30454 5.41406 9.44367 5.41406 14.8956 5.41406H20.4954L20.678 5.21641C20.8693 5.01875 20.9302 4.63204 20.8171 4.33986C20.6693 3.96174 20.5737 3.95314 14.8956 3.95314C10.7393 3.95314 9.46976 3.97892 9.30454 4.06486Z" fill="url(#paint1_linear_106_15064)"/>
<path d="M9.30454 8.61942C8.85239 8.84286 8.76544 9.43582 9.13064 9.79675C9.30454 9.96863 9.44367 9.96863 14.8956 9.96863H20.4954L20.678 9.77097C20.8693 9.57332 20.9302 9.18661 20.8171 8.89442C20.6693 8.5163 20.5737 8.50771 14.8956 8.50771C10.7393 8.50771 9.46976 8.53349 9.30454 8.61942Z" fill="url(#paint2_linear_106_15064)"/>
<path d="M9.1213 13.9132C8.97348 14.0679 8.86914 14.2569 8.86914 14.3944C8.86914 14.5319 8.97348 14.721 9.1213 14.8757L9.37347 15.1249H20.2165H31.0509L31.2596 14.91C31.5552 14.6264 31.5552 14.1624 31.2596 13.8788L31.0509 13.664H20.2165H9.37347L9.1213 13.9132Z" fill="url(#paint3_linear_106_15064)"/>
<path d="M9.11174 18.4763C8.89436 18.6998 8.85958 18.7857 8.90306 19.0177C8.92914 19.1724 9.05088 19.3787 9.18131 19.4818L9.39869 19.6794H20.0765C30.7457 19.6794 30.7544 19.6794 30.9892 19.499C31.1718 19.3615 31.2152 19.2498 31.2152 18.949C31.2152 18.6482 31.1718 18.5365 30.9892 18.399C30.7544 18.2185 30.7544 18.2185 20.0678 18.2185H9.3726L9.11174 18.4763Z" fill="url(#paint4_linear_106_15064)"/>
<path d="M9.08663 23.0482C8.80838 23.3748 8.83447 23.7443 9.18228 24.0365L9.39966 24.2341H18.695C25.4164 24.2341 28.0511 24.2083 28.2076 24.1396C28.4772 24.0107 28.6424 23.6326 28.5641 23.2974C28.4424 22.7388 29.0772 22.7732 18.7297 22.7732H9.3214L9.08663 23.0482Z" fill="url(#paint5_linear_106_15064)"/>
<path d="M9.20882 27.4395C8.80884 27.7403 8.80014 28.3075 9.19143 28.6168C9.40882 28.7887 9.53055 28.7887 17.7563 28.7887H26.0951L26.3038 28.5739C26.6168 28.2731 26.6082 27.7489 26.2951 27.5082C26.0603 27.3278 26.0343 27.3278 17.7041 27.3278C11.2696 27.3364 9.31317 27.3536 9.20882 27.4395Z" fill="url(#paint6_linear_106_15064)"/>
<path d="M9.20882 31.9942C8.80884 32.295 8.80014 32.8621 9.19143 33.1715C9.40882 33.3348 9.53925 33.3434 13.0608 33.3434H16.7042L16.9129 33.1285C17.2259 32.8278 17.2172 32.3036 16.9042 32.0629C16.6781 31.8825 16.5825 31.8825 13.0087 31.8825C10.2697 31.8911 9.31317 31.9168 9.20882 31.9942Z" fill="url(#paint7_linear_106_15064)"/>
<defs>
<linearGradient id="paint0_linear_106_15064" x1="0" y1="44" x2="17.4051" y2="-1.74811" gradientUnits="userSpaceOnUse">
<stop stop-color="#DFBD69"/>
<stop offset="0.53125" stop-color="#FEF7C0"/>
<stop offset="1" stop-color="#926F34"/>
</linearGradient>
<linearGradient id="paint1_linear_106_15064" x1="8.90332" y1="5.41406" x2="8.98388" y2="3.67897" gradientUnits="userSpaceOnUse">
<stop stop-color="#DFBD69"/>
<stop offset="0.53125" stop-color="#FEF7C0"/>
<stop offset="1" stop-color="#926F34"/>
</linearGradient>
<linearGradient id="paint2_linear_106_15064" x1="8.90332" y1="9.96863" x2="8.98388" y2="8.23354" gradientUnits="userSpaceOnUse">
<stop stop-color="#DFBD69"/>
<stop offset="0.53125" stop-color="#FEF7C0"/>
<stop offset="1" stop-color="#926F34"/>
</linearGradient>
<linearGradient id="paint3_linear_106_15064" x1="8.86914" y1="15.1249" x2="8.91186" y2="13.3871" gradientUnits="userSpaceOnUse">
<stop stop-color="#DFBD69"/>
<stop offset="0.53125" stop-color="#FEF7C0"/>
<stop offset="1" stop-color="#926F34"/>
</linearGradient>
<linearGradient id="paint4_linear_106_15064" x1="8.88672" y1="19.6794" x2="8.92998" y2="17.9417" gradientUnits="userSpaceOnUse">
<stop stop-color="#DFBD69"/>
<stop offset="0.53125" stop-color="#FEF7C0"/>
<stop offset="1" stop-color="#926F34"/>
</linearGradient>
<linearGradient id="paint5_linear_106_15064" x1="8.89746" y1="24.2341" x2="8.94654" y2="22.4962" gradientUnits="userSpaceOnUse">
<stop stop-color="#DFBD69"/>
<stop offset="0.53125" stop-color="#FEF7C0"/>
<stop offset="1" stop-color="#926F34"/>
</linearGradient>
<linearGradient id="paint6_linear_106_15064" x1="8.90332" y1="28.7887" x2="8.95808" y2="27.0516" gradientUnits="userSpaceOnUse">
<stop stop-color="#DFBD69"/>
<stop offset="0.53125" stop-color="#FEF7C0"/>
<stop offset="1" stop-color="#926F34"/>
</linearGradient>
<linearGradient id="paint7_linear_106_15064" x1="8.90332" y1="33.3434" x2="9.02008" y2="31.6124" gradientUnits="userSpaceOnUse">
<stop stop-color="#DFBD69"/>
<stop offset="0.53125" stop-color="#FEF7C0"/>
<stop offset="1" stop-color="#926F34"/>
</linearGradient>
</defs>
</svg>
