<svg width="50" height="46" viewBox="0 0 50 46" fill="none" xmlns="http://www.w3.org/2000/svg">
<path d="M12.5902 0.272972C11.8671 0.604435 11.0268 1.48185 10.7532 2.20327C10.6164 2.53473 10.5382 4.40654 10.5382 6.74629V10.7239H7.7045C4.47992 10.7239 3.71774 10.9189 3.22917 11.8743C2.97511 12.3617 2.91648 13.3171 2.91648 17.6067C2.91648 22.9296 2.95557 23.2026 3.73729 23.2026C4.3822 23.2026 4.49946 22.3252 4.47992 17.4312C4.46038 14.8185 4.51901 12.5957 4.57763 12.4787C4.65581 12.3617 5.86747 12.2837 7.62633 12.2837H10.5382V19.342V26.3807L11.0268 27.2387C11.8867 28.6815 12.1407 28.74 17.476 28.857L22.1663 28.9545L23.0653 31.5672C23.5734 32.9906 24.101 34.2384 24.2378 34.3359C24.5896 34.5504 25.4104 34.5504 25.7817 34.3164C25.9381 34.2189 26.4657 32.9711 26.9543 31.5477L27.8337 28.9545L32.524 28.857C36.9212 28.7595 37.2534 28.74 37.8983 28.3305C38.2892 28.0966 38.7973 27.5506 39.0318 27.1412C39.4618 26.3807 39.4618 26.2248 39.4618 19.3225V12.2642L42.4518 12.3227L45.4224 12.3812L45.481 25.3863L45.5201 38.411H25H4.47992V32.4836C4.47992 27.3361 4.44083 26.4977 4.16723 26.2443C3.81546 25.8738 3.77637 25.8738 3.2878 26.1273C2.93603 26.3223 2.91648 26.5952 2.91648 32.3471V38.3525L1.90025 38.45C1.09899 38.528 0.786305 38.6645 0.414989 39.0934C-0.0149556 39.6199 -0.0344985 39.7564 0.0241303 41.8426C0.0827591 44.2214 0.258646 44.6308 1.43122 45.5083C1.95888 45.9177 2.13477 45.9177 19.0199 45.9762C34.4588 46.0152 36.1199 45.9957 36.3544 45.7032C36.5303 45.4888 36.5499 45.3133 36.3935 45.0793C36.2176 44.7673 34.791 44.7478 19.3716 44.6503L2.56471 44.5529L2.0566 44.0849C1.58757 43.6364 1.54848 43.5 1.54848 41.7841V39.9708H10.0497H18.5508V40.9457C18.5508 41.7451 18.6485 42.0376 19.0394 42.4081L19.5084 42.8955H25H30.4916L30.9606 42.4081C31.3515 42.0376 31.4492 41.7451 31.4492 40.9457V39.9708H39.9503H48.4515V41.7841C48.4515 43.5 48.4124 43.6364 47.9434 44.0849C47.4548 44.5529 47.3767 44.5529 43.4681 44.6113C39.6767 44.6698 39.4813 44.6893 39.3641 45.0598C39.2859 45.2743 39.3445 45.5862 39.4813 45.7422C39.6767 45.9957 40.3607 46.0347 43.8785 45.9762C47.7089 45.9177 48.0802 45.8787 48.5688 45.5083C49.7414 44.6308 49.9172 44.2214 49.9759 41.8426C50.0345 39.7564 50.015 39.6199 49.585 39.0934C49.2137 38.6645 48.901 38.528 48.0997 38.45L47.0835 38.3525V25.4058C47.0835 11.1918 47.1226 11.6403 45.9109 11.0163C45.481 10.8019 44.6406 10.7239 42.3932 10.7239H39.4618V6.7268C39.4618 2.35925 39.3641 1.8718 38.3674 0.935902C37.4879 0.116985 36.9016 0 34.0093 0C31.7814 0 31.2537 0.0584946 31.0388 0.311966C30.8629 0.526443 30.8433 0.701927 30.9997 0.935902C31.156 1.20887 31.6641 1.28687 33.9116 1.36486C36.9407 1.48185 37.3902 1.61833 37.8202 2.63223C38.2501 3.66562 38.2306 25.5033 37.8006 26.3223C37.2339 27.4141 36.8039 27.4921 31.84 27.4921C29.2017 27.4921 27.1693 27.5701 26.9543 27.6871C26.7198 27.8041 26.3289 28.662 25.8599 30.1244C25.4495 31.3527 25.0586 32.3666 25 32.3666C24.9414 32.3666 24.5505 31.3527 24.1401 30.1244C23.6711 28.662 23.2802 27.8041 23.0457 27.6871C22.8307 27.5701 20.7983 27.4921 18.16 27.4921C13.1961 27.4921 12.7661 27.4141 12.1994 26.3223C11.7694 25.4838 11.7499 3.66562 12.1994 2.61273C12.7075 1.40385 12.9616 1.36486 20.8764 1.36486C27.7946 1.36486 27.9119 1.36486 28.0292 0.974895C28.3418 0.0194969 28.205 0 20.427 0C14.7986 0.0194969 13.0397 0.0779915 12.5902 0.272972ZM30.0421 40.6923L29.9834 41.4332H25H20.0166L19.9579 40.6923L19.8993 39.9708H25H30.1007L30.0421 40.6923Z" fill="#1F381C"/>
<path d="M20.8184 6.23941C17.8283 9.24209 17.7306 9.35908 17.8479 9.98302C18.0824 11.1919 20.0758 12.7907 21.0334 12.5567C21.2484 12.4983 21.522 12.5957 21.6783 12.7712C21.9128 13.0442 21.8346 13.1807 21.0725 13.8436C18.0433 16.4368 15.1119 19.0886 14.7796 19.5175C14.1934 20.3364 14.1347 21.5843 14.6819 22.5982C15.3659 23.9241 15.9718 24.275 17.5743 24.275C18.8837 24.275 18.9423 24.2555 19.724 23.4951C20.1735 23.0662 21.6783 21.3698 23.1049 19.7515C25.411 17.0803 25.6846 16.8073 25.9777 17.0608C26.1927 17.2558 26.2709 17.5677 26.2123 18.0357C26.1341 18.6596 26.2318 18.8351 27.1894 19.7905C28.9287 21.5258 28.9678 21.5063 32.7005 17.7432C35.6906 14.7405 35.7883 14.6235 35.671 13.9996C35.4365 12.8102 33.4431 11.1919 32.5051 11.4259C32.2315 11.5039 31.5084 10.8994 29.6909 9.06661C27.3848 6.76585 27.2676 6.59037 27.3262 5.92744C27.3653 5.323 27.2676 5.10853 26.31 4.17262C24.5902 2.4568 24.5316 2.4958 20.8184 6.23941ZM25.2937 5.26451L25.8605 5.86895L23.2417 8.48167L20.623 11.1139L19.9781 10.49L19.3331 9.86603L21.9128 7.2728C23.3395 5.84945 24.5511 4.67957 24.6097 4.67957C24.6879 4.67957 24.9811 4.95254 25.2937 5.26451ZM28.6747 10.0025C29.984 11.3284 31.0589 12.4788 31.0589 12.5957C31.0589 12.6932 30.2381 13.5901 29.2414 14.5845L27.4239 16.3783L24.942 13.9411C23.574 12.5762 22.46 11.4259 22.46 11.3674C22.46 11.2309 26.0364 7.60427 26.1732 7.60427C26.2318 7.60427 27.3458 8.67665 28.6747 10.0025ZM31.5475 16.7683L28.9092 19.4005L28.2838 18.7571L27.6389 18.1332L30.2772 15.5009L32.8959 12.8687L33.5409 13.4927L34.2053 14.1166L31.5475 16.7683ZM23.9062 14.994L24.6488 15.7544L21.5806 19.264C18.0824 23.2806 17.6525 23.5341 16.4213 22.5007C15.6591 21.8573 15.5809 20.7459 16.2649 20.0245C16.9098 19.303 22.8313 14.2336 23.0072 14.2336C23.0854 14.2336 23.4958 14.5845 23.9062 14.994Z" fill="#1F381C"/>
</svg>
