<svg width="31" height="46" viewBox="0 0 31 46" fill="none" xmlns="http://www.w3.org/2000/svg">
<path d="M1.95814 1.97693L0 3.94455L0.018473 24.8458C0.0461825 41.849 0.0646555 45.7656 0.166257 45.8677C0.34175 46.0441 30.6929 46.0441 30.8684 45.8677C31.0439 45.6914 31.0439 0.343441 30.8684 0.167099C30.7668 0.0650063 28.1898 0.0464439 17.3369 0.0186005L3.92551 3.8147e-05L1.95814 1.97693ZM29.5568 23.0174V44.5498H15.5173H1.47784V24.7623V4.96548L3.20507 3.2299L4.94153 1.48503H17.2445H29.5568V23.0174Z" fill="#1F381C"/>
<path d="M6.6498 4.40859V5.83789L6.30805 5.89358C6.11408 5.93071 5.83699 5.97711 5.67997 6.00496C4.74708 6.1813 3.50015 7.25792 3.14917 8.21388C2.96444 8.6965 2.94596 8.90997 2.97367 9.83809C3.00138 10.8126 3.02909 10.9518 3.26924 11.3973C3.78648 12.3347 4.95952 13.2072 5.88317 13.3278C6.07714 13.3557 6.32652 13.3928 6.4466 13.4206L6.6498 13.4578V15.5924C6.6498 16.7711 6.62209 17.7271 6.58514 17.7271C6.35423 17.7271 5.73538 17.4951 5.46753 17.3095C4.8025 16.8547 4.60853 16.3535 4.47922 14.8221L4.41457 14.1074H3.64794H2.87207L2.91825 14.9613C3.00138 16.7526 3.01985 16.864 3.28771 17.3466C3.78648 18.2747 4.96876 19.1471 5.88317 19.2678C6.73293 19.3792 6.6498 19.2214 6.6498 20.8363V22.2749H7.38872H8.12764V20.8363V19.407L8.47862 19.3513C8.66335 19.3142 8.94969 19.2678 9.09747 19.2399C10.0304 19.0636 11.2773 17.987 11.6283 17.031C11.813 16.5484 11.8315 16.3349 11.8038 15.4068C11.7761 14.4323 11.7483 14.2931 11.5082 13.8476C11.0094 12.938 9.87334 12.0749 8.99587 11.9264C8.8019 11.8985 8.52481 11.8428 8.38626 11.8243L8.12764 11.7686V9.6339V7.49923L8.46939 7.5642C9.49464 7.7591 10.252 8.71507 10.252 9.82881C10.252 10.0144 10.2797 10.3857 10.3075 10.6456L10.3721 11.1375H11.1387H11.9054L11.8592 10.2743C11.7761 8.49232 11.7576 8.38094 11.4897 7.89832C11.0094 7.00732 9.87334 6.13489 8.99587 5.98639C8.8019 5.95855 8.52481 5.90286 8.38626 5.8843L8.12764 5.82861V4.39931V2.97H7.38872H6.6498V4.40859ZM6.6498 9.65247C6.6498 10.8219 6.62209 11.7871 6.58514 11.7871C6.53896 11.7871 6.34499 11.7407 6.15103 11.6851C5.04265 11.3788 4.39609 10.2929 4.63624 9.142C4.8025 8.38094 5.75386 7.53635 6.49278 7.51779C6.64056 7.51779 6.6498 7.67557 6.6498 9.65247ZM8.70954 13.5599C9.37457 13.7455 10.0488 14.5344 10.1874 15.2954C10.3813 16.3164 9.5593 17.4301 8.43244 17.6807L8.12764 17.7457V15.6017C8.12764 13.9497 8.15535 13.4578 8.24771 13.4578C8.30313 13.4578 8.51557 13.5042 8.70954 13.5599Z" fill="#1F381C"/>
<path d="M13.2998 5.94V6.6825H20.689H28.0782V5.94V5.1975H20.689H13.2998V5.94Z" fill="#1F381C"/>
<path d="M13.2998 10.395V11.1375H20.689H28.0782V10.395V9.65246H20.689H13.2998V10.395Z" fill="#1F381C"/>
<path d="M13.2998 14.8499V15.5924H20.689H28.0782V14.8499V14.1074H20.689H13.2998V14.8499Z" fill="#1F381C"/>
<path d="M13.2998 19.305V20.0475H20.689H28.0782V19.305V18.5625H20.689H13.2998V19.305Z" fill="#1F381C"/>
<path d="M3.13981 26.9155C2.95508 27.1011 2.95508 27.2218 2.95508 34.8974C2.95508 42.5729 2.95508 42.6936 3.13981 42.8792C3.32454 43.0648 3.44461 43.0648 15.5167 43.0648C27.5888 43.0648 27.7089 43.0648 27.8936 42.8792C28.0784 42.6936 28.0784 42.5729 28.0784 34.8974C28.0784 27.2218 28.0784 27.1011 27.8936 26.9155C27.7089 26.7299 27.5888 26.7299 15.5167 26.7299C3.44461 26.7299 3.32454 26.7299 3.13981 26.9155ZM8.86644 34.8974V41.5798H6.64968H4.43292V34.8974V28.2149H6.64968H8.86644V34.8974ZM14.7778 34.8974V41.5798H12.561H10.3443V34.8974V28.2149H12.561H14.7778V34.8974ZM20.6892 34.8974V41.5798H18.4724H16.2556V34.8974V28.2149H18.4724H20.6892V34.8974ZM26.6005 34.8974V41.5798H24.3838H22.167V34.8974V28.2149H24.3838H26.6005V34.8974Z" fill="#1F381C"/>
<path d="M5.91113 30.4424V31.1849H6.65005H7.38897V30.4424V29.6999H6.65005H5.91113V30.4424Z" fill="#1F381C"/>
<path d="M11.8223 30.4424V31.1849H12.5612H13.3001V30.4424V29.6999H12.5612H11.8223V30.4424Z" fill="#1F381C"/>
<path d="M17.7344 30.4424V31.1849H18.4733H19.2122V30.4424V29.6999H18.4733H17.7344V30.4424Z" fill="#1F381C"/>
<path d="M23.6465 30.4424V31.1849H24.3854H25.1243V30.4424V29.6999H24.3854H23.6465V30.4424Z" fill="#1F381C"/>
</svg>
