<svg width="46" height="46" viewBox="0 0 46 46" fill="none" xmlns="http://www.w3.org/2000/svg">
<path d="M1.42708 0.413097C1.0855 0.646601 0.618086 1.11361 0.384376 1.45488C-0.0291097 2.06558 -0.0291097 2.08354 0.0248233 7.22061C0.0787562 12.1421 0.0967338 12.4116 0.456287 12.8965C1.2473 13.9563 1.85854 14.2077 3.72822 14.2077H5.43609L8.81589 16.3631C10.6676 17.5486 12.3036 18.5186 12.4474 18.5186C12.9867 18.5186 13.1125 18.0875 13.1125 16.1656V14.2437L14.7126 14.1718C16.5103 14.1179 17.0497 13.8485 17.6968 12.7528C18.0384 12.1781 18.0564 11.8188 18.0564 7.11283C18.0564 2.40685 18.0384 2.04762 17.6968 1.47284C17.4991 1.13157 17.1036 0.700485 16.8339 0.484945C16.3305 0.12571 16.1148 0.107748 9.17545 0.0538616L2.03832 -2.28882e-05L1.42708 0.413097ZM16.2946 1.70634L16.798 2.13743V7.11283V12.0882L16.2946 12.5193C15.8452 12.9145 15.6294 12.9504 14.1013 12.9504C13.1845 12.9504 12.3036 13.0043 12.1418 13.0582C11.908 13.148 11.8541 13.4893 11.8541 14.9621C11.8541 15.95 11.7822 16.7224 11.7103 16.6865C11.6384 16.6505 10.2721 15.8063 8.69005 14.7825L5.79565 12.9504H4.05182C2.36192 12.9504 2.29001 12.9324 1.76865 12.4295L1.2473 11.9086V7.22061C1.2473 2.33501 1.31921 1.83208 2.03832 1.4908C2.27203 1.36507 4.89677 1.29322 9.10353 1.29322L15.7912 1.27526L16.2946 1.70634Z" fill="#1F381C"/>
<path d="M9.69638 3.78983C9.58852 3.98741 9.51661 4.29276 9.53459 4.47238C9.55256 4.63404 9.55256 5.85544 9.53459 7.14868L9.51661 9.5376H8.97728H8.43795V7.57977C8.43795 5.33455 8.49188 5.40639 6.73007 5.40639C4.96826 5.40639 5.0222 5.33455 5.0222 7.57977C5.0222 9.5376 5.0222 9.5376 4.59073 9.5376C4.17725 9.5376 3.58398 9.95072 3.58398 10.2381C3.58398 10.741 4.14129 10.7949 9.10312 10.7949C13.6515 10.7949 14.2088 10.759 14.3166 10.5075C14.4784 10.0765 14.1369 9.62741 13.5975 9.57352L13.1121 9.51964L13.0762 6.52002L13.0222 3.52041L11.4582 3.46652C10.038 3.41264 9.87616 3.44856 9.69638 3.78983ZM11.8537 7.11276V9.5376H11.3144H10.775V7.11276V4.68792H11.3144H11.8537V7.11276ZM7.17951 8.10066C7.17951 9.51964 7.17951 9.5376 6.73007 9.5376C6.28063 9.5376 6.28063 9.51964 6.28063 8.10066C6.28063 6.68168 6.28063 6.66372 6.73007 6.66372C7.17951 6.66372 7.17951 6.68168 7.17951 8.10066Z" fill="#1F381C"/>
<path d="M29.5614 0.269403C28.8782 0.574753 28.4827 1.0238 28.1232 1.868C27.9074 2.38889 27.8535 3.37679 27.8535 7.14876C27.8535 11.28 27.8895 11.8547 28.1951 12.5193C28.7344 13.7228 29.4715 14.1 31.3232 14.1718L32.8873 14.2437V16.0937C32.8873 18.2132 32.9592 18.5186 33.4625 18.5186C33.6783 18.5186 35.2963 17.5666 37.094 16.417L40.348 14.2975L42.2716 14.2077C44.339 14.1179 44.7525 13.9383 45.5435 12.8786C45.9031 12.4116 45.9211 12.1062 45.975 7.22061C46.0289 2.1015 46.0289 2.06558 45.6154 1.47284C45.3817 1.13157 44.9682 0.682524 44.6986 0.484945C44.1952 0.12571 43.9795 0.107748 37.148 0.071825C31.5749 0.0359001 29.9929 0.071825 29.5614 0.269403ZM43.9076 1.47284C44.6806 1.83208 44.7525 2.28112 44.7525 7.11283C44.7525 10.0765 44.6806 11.8368 44.5548 12.1062C44.2491 12.7708 43.6559 12.9504 41.8401 12.9504H40.2042L37.3098 14.7825C35.7277 15.8063 34.3794 16.6505 34.2895 16.6865C34.2176 16.7224 34.1277 15.9141 34.1097 14.8903L34.0558 13.0402L32.0423 12.9504C29.0041 12.8067 29.2018 13.2198 29.2018 7.09487V2.13743L29.7052 1.70634L30.2086 1.27526H36.8423C41.3188 1.27526 43.6199 1.34711 43.9076 1.47284Z" fill="#1F381C"/>
<path d="M35.5308 2.99953C35.4589 3.07137 35.4049 3.30488 35.4049 3.52042C35.4049 3.73596 35.1173 4.22093 34.7577 4.58016C34.1645 5.19086 34.1105 5.33456 34.2004 5.98118C34.2544 6.44818 34.4701 6.89723 34.7577 7.18462C35.1712 7.59774 35.4049 7.65162 36.6634 7.70551C38.1375 7.77736 38.605 8.01086 38.3892 8.54971C38.3173 8.76525 37.9218 8.81914 36.4297 8.81914C34.9375 8.81914 34.506 8.87302 34.3083 9.10653C34.0027 9.48372 34.3083 9.96869 34.9195 10.0405C35.2971 10.0944 35.387 10.2022 35.4409 10.6692C35.4768 11.1542 35.5667 11.244 35.9443 11.244C36.3038 11.244 36.4297 11.1182 36.5735 10.6512C36.7892 9.87888 37.3825 9.84296 37.3825 10.5974C37.3825 10.9745 37.4903 11.1721 37.742 11.244C38.2274 11.3877 38.6409 11.0464 38.6409 10.5255C38.6409 10.292 38.8926 9.86092 39.1802 9.57353C39.9533 8.78321 39.9353 7.92105 39.1083 7.09481C38.5151 6.50207 38.4432 6.48411 37.1488 6.48411C35.7465 6.48411 35.2431 6.25061 35.4589 5.67583C35.5488 5.47825 35.9982 5.4064 37.5982 5.37048L39.6297 5.31659V4.77774C39.6297 4.3287 39.5578 4.22093 39.1443 4.185C38.7847 4.14908 38.6409 4.02335 38.605 3.66411C38.4971 2.67622 37.3825 2.62233 37.3825 3.61023C37.3825 4.38258 36.7892 4.34666 36.5735 3.55634C36.3937 2.99953 35.8364 2.69418 35.5308 2.99953Z" fill="#1F381C"/>
<path d="M19.6383 15.3033C18.3799 15.7883 17.1934 16.9918 16.726 18.2491C16.4203 19.0753 16.3484 19.6681 16.3484 21.5002C16.3484 23.6735 16.3305 23.7454 15.935 23.8891C15.7012 23.9789 15.2878 24.3202 15.0361 24.6255C13.9574 25.9008 14.6585 27.9305 16.2586 28.1999C16.9237 28.3077 16.9597 28.3436 17.2473 29.3854C17.6069 30.6966 17.9484 31.3612 18.6676 32.1335C19.1889 32.6903 19.2069 32.7442 19.0451 33.7321C18.9552 34.2889 18.7574 34.8637 18.6136 35.0074C18.4338 35.187 17.7147 35.3307 16.4923 35.4205C14.0833 35.6181 12.6091 36.0133 11.5664 36.7497C10.5417 37.4861 9.58884 38.7973 9.24727 39.9648C8.90569 41.0964 8.86974 45.4611 9.19334 45.7845C9.35514 45.9461 12.681 46 23.0181 46C34.7396 46 36.6452 45.9641 36.843 45.7306C36.9868 45.551 37.0407 44.7247 36.9868 42.8208C36.9328 40.4139 36.8969 40.0726 36.4654 39.1745C35.8901 37.9531 34.7575 36.8215 33.553 36.2108C32.8339 35.8696 32.0609 35.7079 30.1193 35.5103C28.4114 35.3307 27.5305 35.1511 27.3508 34.9715C27.189 34.8278 27.0092 34.271 26.9552 33.7501C26.8294 32.852 26.8654 32.7442 27.4047 32.0796C28.1777 31.1277 28.4114 30.6786 28.753 29.3854C29.0227 28.4514 29.1126 28.3077 29.58 28.1999C31.216 27.8766 31.9351 26.2421 31.0721 24.8231C30.8744 24.4998 30.4789 24.1405 30.1912 24.0328L29.6519 23.8352V21.5361C29.6519 18.734 29.3283 17.6923 28.1058 16.4709C26.8654 15.2315 25.8406 14.9261 22.9462 14.9441C21.0226 14.9441 20.3934 15.016 19.6383 15.3033ZM25.7148 16.399C27.4586 16.9918 28.3935 18.5005 28.3935 20.7098C28.3935 21.4822 28.3395 22.1109 28.2676 22.1109C27.8541 22.1109 26.9912 21.3565 26.7934 20.8356C26.6676 20.4943 26.4878 20.0453 26.3979 19.8118C26.1103 19.0753 25.535 19.3088 25.0676 20.3865C24.3305 22.039 24.1687 22.1109 20.6451 22.1109H17.6069V20.7098C17.6249 18.5365 18.2541 17.351 19.8541 16.6146C20.6451 16.2374 21.0226 16.1835 22.9283 16.1835C24.1328 16.1835 25.3732 16.2733 25.7148 16.399ZM27.2609 23.0808C27.5845 23.2424 27.962 23.3682 28.1238 23.3682C28.8429 23.3682 27.8901 28.9184 26.8833 30.6068C26.0564 31.9719 24.9418 32.6005 23.1979 32.6724C21.9754 32.7263 21.7238 32.6903 20.8428 32.2233C19.3147 31.415 18.7754 30.517 18.1462 27.679C17.8406 26.3858 17.6069 24.877 17.6069 24.3381V23.3682L18.9192 23.3861C19.9799 23.3861 20.1417 23.4221 19.8001 23.5837C19.0451 23.9609 19.0271 25.2542 19.7822 25.6852C20.7709 26.2421 21.8316 25.3799 21.4541 24.3022C21.3642 24.0507 21.0766 23.7274 20.8428 23.6017C20.4473 23.4041 20.6091 23.3682 22.0653 23.3682C23.899 23.3682 24.6361 23.1526 25.3193 22.3982L25.7687 21.9312L26.2182 22.3623C26.4699 22.5958 26.9373 22.9191 27.2609 23.0808ZM16.6001 26.9426C16.5462 26.9965 16.3664 26.9426 16.2046 26.8528C15.8271 26.6013 15.7012 25.7751 16.0069 25.3979C16.2226 25.1644 16.2765 25.2362 16.4743 25.9906C16.5821 26.4756 16.6541 26.9066 16.6001 26.9426ZM30.1912 25.9906C30.1912 26.4037 29.7598 26.9605 29.4362 26.9605C29.3463 26.9605 29.2923 26.8528 29.3463 26.7091C29.4002 26.5654 29.5081 26.1523 29.58 25.793C29.6699 25.2721 29.7418 25.2003 29.9395 25.3619C30.0834 25.4697 30.1912 25.7571 30.1912 25.9906ZM23.0002 33.9656C23.6653 33.9656 24.5462 33.8399 24.9597 33.6962C25.6788 33.4447 25.6968 33.4447 25.6968 33.8399C25.6968 34.0554 25.7507 34.3967 25.8047 34.6122C25.8766 34.9176 25.6609 35.1152 24.5283 35.8157C23.7912 36.2827 23.0901 36.6599 23.0002 36.6599C22.9103 36.6599 22.2092 36.2827 21.4721 35.8157C20.3395 35.1152 20.1237 34.9176 20.1957 34.6122C20.2496 34.3967 20.3035 34.0554 20.3035 33.8399C20.3035 33.4447 20.3215 33.4447 21.0406 33.6962C21.4541 33.8399 22.335 33.9656 23.0002 33.9656ZM20.753 36.8575C21.4002 37.2526 21.9215 37.6478 21.9215 37.7196C21.9215 37.9891 20.5372 39.1745 19.89 39.444C19.2428 39.7134 19.2069 39.7134 19.0631 39.3182C18.9732 39.0847 18.6855 38.4381 18.4338 37.8633C18.1822 37.2885 17.9664 36.7856 17.9664 36.7497C17.9664 36.6419 19.0631 36.157 19.3687 36.139C19.4945 36.121 20.1237 36.4443 20.753 36.8575ZM27.3148 36.3366C27.7103 36.4623 28.0339 36.624 28.0339 36.6958C28.0339 36.7677 27.8182 37.2885 27.5665 37.8633C27.3148 38.4381 27.0272 39.0847 26.9373 39.3182C26.7934 39.7134 26.7575 39.7134 26.1103 39.444C25.4631 39.1745 24.0788 37.9891 24.0788 37.7196C24.0788 37.5759 26.2361 36.157 26.4699 36.139C26.5418 36.121 26.9193 36.2288 27.3148 36.3366ZM17.4091 38.6896C18.5417 41.2401 18.5956 41.2761 19.6743 40.8809C20.5732 40.5217 20.6631 40.5755 21.0226 41.4736C21.2204 42.0125 21.2024 42.1741 20.6631 43.3955L20.0698 44.7427H17.4091H14.7305V43.5033C14.7305 42.6052 14.6585 42.1741 14.4428 41.9766C13.7956 41.3299 13.472 41.8329 13.472 43.4315V44.7427H11.854H10.236V42.8926C10.236 40.7372 10.3978 40.0367 11.1889 38.8871C11.9259 37.8094 13.1844 37.091 14.7305 36.8754C16.5642 36.606 16.4563 36.5342 17.4091 38.6896ZM32.2766 37.1269C33.5351 37.4682 34.5059 38.2226 35.1351 39.3721C35.6385 40.2702 35.6744 40.5037 35.7283 42.5334L35.8002 44.7427H34.1643H32.5283V43.4315C32.5283 41.8329 32.2047 41.3299 31.5575 41.9766C31.3418 42.1741 31.2699 42.6052 31.2699 43.5033V44.7427H28.6092H25.9485L25.3552 43.4135C24.7979 42.1562 24.78 42.0305 25.0137 41.4018C25.3013 40.5935 25.4271 40.5396 26.38 40.8629C26.7934 41.0246 27.2429 41.0964 27.3687 41.0605C27.4766 41.0066 28.0159 40.0187 28.5373 38.8333L29.4901 36.7138L30.4249 36.7856C30.9463 36.8395 31.7733 36.9832 32.2766 37.1269ZM23.7013 39.1925L24.3125 39.911L23.9889 40.6115C23.7013 41.2581 23.5934 41.3299 23.0002 41.3299C22.4069 41.3299 22.299 41.2581 22.0114 40.6115L21.6878 39.911L22.299 39.1925C22.6406 38.7973 22.9462 38.492 23.0002 38.492C23.0541 38.492 23.3597 38.7973 23.7013 39.1925ZM24.0249 43.4854C24.6361 44.7247 24.6182 44.7427 23.0002 44.7427C22.1372 44.7427 21.562 44.6708 21.562 44.5631C21.562 44.4553 21.7597 43.9703 22.0114 43.4674C22.4429 42.6412 22.5327 42.5693 23.0541 42.6232C23.5395 42.6591 23.6833 42.8028 24.0249 43.4854Z" fill="#1F381C"/>
<path d="M24.7257 23.943C24.3302 24.4818 24.3661 25.0207 24.7976 25.4877C25.4987 26.2421 26.8291 25.7391 26.8291 24.7512C26.8291 23.6376 25.3189 23.0808 24.7257 23.943Z" fill="#1F381C"/>
<path d="M22.4605 24.8949C22.3526 25.0386 22.2088 25.6313 22.1549 26.242C22.065 27.1222 22.1189 27.3916 22.3706 27.679C23.0178 28.3975 24.492 27.9125 24.0785 27.1222C23.9706 26.9426 23.7549 26.7809 23.6111 26.7809C23.3594 26.7809 23.3414 26.6372 23.4493 25.9547C23.6111 24.8231 23.0358 24.1944 22.4605 24.8949Z" fill="#1F381C"/>
<path d="M20.861 28.8284C20.5554 29.1877 20.879 29.7445 21.5981 30.1217C22.4251 30.5528 24.115 30.3911 24.7082 29.8343C25.5712 29.026 25.0498 28.2357 24.0431 28.8105C23.3959 29.1877 22.461 29.2056 21.9936 28.8464C21.5622 28.5231 21.1307 28.5051 20.861 28.8284Z" fill="#1F381C"/>
</svg>
