<svg width="49" height="47" viewBox="0 0 49 47" fill="none" xmlns="http://www.w3.org/2000/svg">
<path d="M18.066 0.235374C7.49832 2.22057 0 11.1028 0 21.6223C0 30.0952 4.88215 37.6676 12.6895 41.2901C17.5922 43.5823 23.5867 43.9097 28.7779 42.1906L30.2817 41.6789H39.222C47.1735 41.6789 48.1829 41.638 48.2859 41.3515C48.3477 41.1673 48.4095 39.0184 48.4095 36.5624C48.4095 33.0423 48.4713 31.9576 48.7185 31.3641C48.9863 30.7501 49.0275 29.7473 48.9863 25.8588L48.9245 21.1107L46.3289 21.0493L43.7333 20.9879L43.4861 19.2073C42.8063 13.968 40.8906 10.0181 37.2032 6.3547C34.175 3.36667 30.8997 1.50426 26.8827 0.521896C24.6579 -0.0306816 20.2702 -0.173946 18.066 0.235374ZM23.9369 1.74986C24.9669 2.40477 26.3059 4.16484 27.0887 5.94538C27.6655 7.2552 28.9221 11.1847 28.7985 11.3075C28.4689 11.6144 25.7497 11.8805 22.6598 11.8805C18.787 11.901 15.697 11.5326 15.5116 11.0414C15.3262 10.5707 16.8712 6.21144 17.7364 4.71742C19.7346 1.29961 21.7122 0.358173 23.9369 1.74986ZM18.0454 2.20011C16.7476 3.73505 15.285 6.92775 14.4404 10.1L14.2138 10.9391L13.4723 10.7344C11.3917 10.1818 7.00393 7.86918 7.00393 7.33706C7.00393 7.15287 8.67251 5.72025 9.99089 4.79929C11.9479 3.4076 15.0996 2.03638 17.6128 1.50426C18.7458 1.25867 18.8076 1.34054 18.0454 2.20011ZM28.3247 2.11824C30.9615 2.95735 34.3398 5.02441 36.2556 6.98914L37.1826 7.93058L36.6676 8.31943C35.4934 9.21993 31.2705 10.98 30.3023 10.98C30.0551 10.98 29.8079 10.4274 29.3959 8.97434C28.6955 6.55936 27.4595 3.89878 26.3677 2.46617L25.5643 1.40194L26.4295 1.6066C26.9033 1.70893 27.7685 1.93405 28.3247 2.11824ZM7.18932 9.01527C8.44591 9.91578 10.6707 11.0209 12.4629 11.594C13.2663 11.8396 13.9255 12.0647 13.9461 12.0852C13.9667 12.1056 13.8637 12.9447 13.6783 13.9476C13.5135 14.9709 13.3281 16.9561 13.2457 18.3887L13.1221 21.0083H7.14812H1.17419L1.29779 19.412C1.44198 17.5496 1.83338 15.9737 2.71917 13.7634C3.46076 11.901 5.70614 8.31943 6.13873 8.31943C6.17993 8.31943 6.65373 8.62642 7.18932 9.01527ZM38.7482 9.79298C39.737 11.1642 41.3438 14.6025 41.797 16.3625C42.3326 18.3887 42.5797 21.0083 42.2501 21.0083C42.1266 21.0083 42.0236 20.7013 42.0236 20.3329C42.003 19.371 41.3438 18.0612 40.561 17.5086C39.8812 17.0175 39.7782 17.0175 35.3904 17.0175C32.9184 17.0175 30.8997 16.9356 30.8997 16.8333C30.8997 16.7309 30.7555 15.6872 30.5701 14.5206C30.4053 13.3336 30.2817 12.3512 30.3229 12.3103C30.3641 12.2898 31.1675 12.0033 32.1357 11.6963C33.9896 11.1028 36.441 9.95671 37.265 9.32226C37.5328 9.09714 37.8418 8.93341 37.9242 8.93341C38.0272 8.93341 38.398 9.32226 38.7482 9.79298ZM17.2626 12.7401C19.714 13.1494 24.5755 13.1903 27.0475 12.8424C28.0775 12.6787 28.9427 12.6377 29.0457 12.7401C29.1487 12.8424 29.3547 14.0294 29.5195 15.3802C29.8079 17.8156 29.8079 17.8361 29.3341 18.7366C29.0663 19.2278 28.8397 19.9441 28.8397 20.3125V21.0083H21.5268C14.7082 21.0083 14.2138 20.9879 14.2138 20.6399C14.2344 18.7775 14.976 12.4126 15.1614 12.4126C15.2232 12.4126 16.1502 12.5559 17.2626 12.7401ZM39.428 18.225C40.3344 18.5933 40.7876 19.2687 40.7876 20.2306V21.0083H35.4316H30.0757V20.3943C30.0757 19.4734 30.6319 18.5524 31.3735 18.2454C32.3005 17.8361 38.4598 17.8156 39.428 18.225ZM13.2045 24.4875C13.2869 25.7769 13.4517 27.7007 13.5959 28.724C13.7401 29.7677 13.8431 30.6887 13.8431 30.7706C13.8431 30.832 12.8543 31.2413 11.6801 31.6506C9.4553 32.4283 7.66312 33.3493 6.57133 34.2703L5.93274 34.8024L5.54134 34.2907C3.11057 31.2618 1.23599 26.3295 1.23599 23.0345V22.0316L7.16872 22.0726L13.0809 22.1339L13.2045 24.4875ZM21.6298 26.0225V30.0133H20.4556C19.7964 30.0133 18.3338 30.1566 17.2214 30.3203C16.0884 30.4841 15.1614 30.6273 15.1202 30.6273C14.873 30.6273 14.0903 22.8503 14.2962 22.3181C14.3786 22.093 15.079 22.0316 18.0248 22.0316H21.6298V26.0225ZM47.9975 22.9526V23.6689H35.4316H22.8658V22.9526V22.2363H35.4316H47.9975V22.9526ZM47.9975 27.4551C47.9975 31.712 47.6885 32.0599 43.9599 32.0599H41.4674L41.3438 31.0162C40.973 27.9258 38.4598 25.7155 35.3286 25.7155C32.3005 25.736 29.9727 27.7416 29.4371 30.8115L29.2105 32.0599H26.7385C25.3995 32.0599 24.1017 31.9576 23.8751 31.8553C23.0718 31.405 22.8658 30.6069 22.8658 27.6598V24.8969H35.4316H47.9975V27.4551ZM36.8942 27.0458C38.9748 27.7826 40.1696 29.5222 40.1696 31.7939C40.1696 33.3288 39.7782 34.3521 38.8718 35.2936C37.5946 36.6238 35.9878 37.156 34.4016 36.7671C33.0626 36.4397 31.8885 35.5801 31.1675 34.3726C30.6731 33.5335 30.5907 33.1651 30.5907 31.8553C30.6113 29.5426 31.5383 28.0895 33.5776 27.1686C34.69 26.6569 35.6788 26.6365 36.8942 27.0458ZM22.083 31.4869C22.2684 31.8143 22.3714 33.3902 22.4538 36.7671L22.5568 41.5561L23.0718 41.6789C23.525 41.7813 23.5455 41.8222 23.216 41.945C22.5774 42.1906 21.2384 42.1087 20.6204 41.7813C18.993 40.9422 16.9742 37.6676 15.9648 34.2293C15.2026 31.5688 15.1202 31.7325 17.4686 31.4664C21.9388 30.9548 21.774 30.9548 22.083 31.4869ZM14.7288 34.1065C15.4086 36.542 16.9536 39.7961 18.0454 41.0445L18.8282 41.945L17.9218 41.8017C16.212 41.5357 13.2251 40.41 11.5359 39.4072C9.7643 38.3635 7.02453 36.2555 6.85973 35.8052C6.71553 35.4368 7.43652 34.8842 9.2699 33.9223C10.5265 33.2674 13.5341 32.0804 14.0285 32.0599C14.0903 32.0599 14.3992 32.9809 14.7288 34.1065ZM27.1093 33.2879H29.4577L29.6637 33.8405C30.0757 34.9252 30.3847 35.4368 31.2087 36.2555C32.5065 37.5448 33.3922 37.8927 35.4316 37.8927C36.956 37.8927 37.3062 37.8313 38.1302 37.3402C39.3456 36.6238 40.4168 35.4573 40.9112 34.2498L41.3026 33.2879H43.7745C45.1341 33.2879 46.4525 33.2265 46.7203 33.1651L47.1735 33.0423V36.849V40.6556L35.3904 40.6147L23.5867 40.5533L23.525 36.7876L23.4837 33.0218L24.1223 33.1651C24.4725 33.2265 25.8321 33.2879 27.1093 33.2879Z" fill="#1F381C"/>
<path d="M35.0404 27.6187C34.9168 27.7415 34.8138 27.9257 34.8138 28.028C34.8138 28.1099 34.4842 28.4988 34.0928 28.8671C33.5161 29.4197 33.3719 29.7063 33.3719 30.2998C33.3719 31.6096 33.9486 32.2236 35.4318 32.4487C36.0704 32.5715 36.1528 32.6534 36.2146 33.2469C36.2764 33.779 36.194 33.9427 35.8026 34.086C35.2258 34.2906 34.6078 34.0246 34.4636 33.472C34.4018 33.2264 34.1752 33.0831 33.8662 33.0831C33.1041 33.0831 33.2071 34.0041 34.0516 34.8023C34.4224 35.1502 34.7932 35.6004 34.8756 35.7846C35.0816 36.3372 35.8026 36.2349 35.9674 35.6414C36.0292 35.3753 36.2764 35.0888 36.4824 35.0274C36.9356 34.8841 37.4918 33.9222 37.4918 33.2878C37.4918 32.1826 36.7296 31.4868 35.1846 31.1593C34.443 30.9956 34.237 30.2998 34.7726 29.7677C35.2876 29.256 35.988 29.4402 36.2558 30.136C36.4618 30.6886 37.224 30.8114 37.4094 30.3407C37.5536 29.9518 36.9768 28.8467 36.4824 28.5806C36.2558 28.4783 36.0292 28.1918 35.9468 27.9871C35.8026 27.4959 35.3494 27.3117 35.0404 27.6187Z" fill="#1F381C"/>
<path d="M42.8477 44.8101C42.8477 46.5907 42.9713 46.8772 43.4862 46.2632C43.7128 45.9767 43.7746 45.9972 44.0218 46.4679C44.1866 46.7544 44.3926 47 44.4956 47C44.8252 47 44.9282 46.6111 44.7016 46.1814C44.5162 45.8334 44.5368 45.772 44.9076 45.772C45.1342 45.772 45.3196 45.6902 45.3196 45.6083C45.3196 45.5265 44.7634 44.9125 44.0836 44.2371L42.8477 43.0296V44.8101ZM44.7016 45.5265C44.4132 45.5674 44.2896 45.7106 44.372 45.8948C44.4338 46.0586 44.5574 46.3246 44.6192 46.4884C44.8458 47.0205 44.372 46.8158 44.1042 46.2632C43.8776 45.7311 43.857 45.7311 43.4656 46.079C43.0537 46.4474 43.0537 46.427 43.0537 44.9329V43.4389L44.1042 44.4418C45.0106 45.3423 45.093 45.4651 44.7016 45.5265Z" fill="#1F381C"/>
</svg>
