<svg width="50" height="48" viewBox="0 0 50 48" fill="none" xmlns="http://www.w3.org/2000/svg">
<path d="M22.4491 0.154629C15.5402 1.06211 9.45327 5.42198 6.38047 11.6954C4.893 14.7533 4.20798 17.8308 4.20798 21.5594C4.20798 22.9798 4.12969 23.8281 3.99268 23.9267C3.87525 23.9859 3.60125 24.4397 3.40553 24.9131C3.11195 25.5839 2.89665 25.7812 2.38778 25.8798C1.54619 26.0771 0.743735 26.6689 0.332724 27.4186C0.0782879 27.9118 0 28.5431 0 30.3186C0 32.3308 0.058716 32.6662 0.450156 33.2975C0.880739 34.0274 1.89848 34.6587 2.5835 34.6587C2.85751 34.6587 3.09237 34.9349 3.34681 35.4873C3.89482 36.7104 4.75599 37.6179 5.8716 38.1308C6.71319 38.5254 7.16335 38.6043 8.96397 38.6043C11.3322 38.6043 11.8606 38.407 12.2129 37.3812C12.3499 36.9866 12.4282 34.3628 12.4282 30.1805C12.4282 22.8417 12.3891 22.6444 11.156 22.1118C10.7842 21.954 10.0209 21.8356 9.47284 21.8356H8.4551L8.61167 20.0206C9.15969 12.7805 13.5634 7.21721 20.4527 5.02742C21.7249 4.63286 22.3121 4.57368 24.9543 4.57368C27.5965 4.57368 28.1837 4.63286 29.4558 5.02742C32.0002 5.83626 34.1923 7.11858 36.032 8.85463C39.3201 12.0111 40.9446 15.4635 41.2969 20.0403L41.4535 21.8356H40.3379C39.7311 21.8356 38.9678 21.9737 38.6547 22.1315C37.5195 22.7233 37.4804 22.9403 37.4804 30.1805C37.4804 34.3628 37.5586 36.9866 37.6956 37.3812C38.0479 38.3873 38.596 38.6043 40.8272 38.6043H42.8039L42.7256 39.788C42.6278 41.2281 41.884 42.4118 40.7097 43.0233C39.9856 43.4179 39.555 43.4376 34.3097 43.4968L28.673 43.556L28.3598 42.7669C27.8509 41.4648 26.3047 40.3798 24.9543 40.3798C24.2888 40.3798 23.1732 40.8138 22.5861 41.307C20.2961 43.2601 21.1182 47.107 24.0148 47.8764C25.698 48.3499 27.5965 47.4227 28.3011 45.7852L28.6925 44.9172H34.4075C39.9856 44.9172 40.1421 44.8975 41.1012 44.4438C42.1972 43.9308 43.3911 42.7077 43.8412 41.6424C43.9978 41.2478 44.1935 40.2812 44.2718 39.5118C44.3893 38.19 44.4284 38.0716 45.1917 37.4009C45.6419 37.0063 46.2095 36.2172 46.4639 35.6648C46.7966 34.9744 47.051 34.6587 47.3251 34.6587C48.0101 34.6587 49.0082 34.0274 49.4193 33.3567C49.9086 32.5873 50.1239 30.5356 49.9281 28.8784C49.7324 27.3594 49.1648 26.5703 47.8535 26.0376C47.1881 25.7812 46.7379 25.4655 46.64 25.1893C46.5617 24.9526 46.3073 24.4989 46.092 24.2029C45.7593 23.7295 45.7006 23.3349 45.7006 21.4805C45.7006 14.4376 42.7648 8.32198 37.4021 4.2383C33.1941 1.02266 27.5574 -0.516121 22.4491 0.154629ZM29.7103 2.08796C33.1354 2.99545 35.7189 4.49477 38.3807 7.1383C42.1972 10.9261 44.1348 15.4437 44.1348 20.5533V22.388L43.4498 22.171L42.7648 21.9737V20.4744C42.7452 13.905 38.6155 7.55259 32.5091 4.67232C29.7494 3.35055 28.2424 3.0349 24.9543 3.0349C21.6466 3.0349 20.0417 3.39 17.3408 4.69204C11.2343 7.61177 7.16335 13.9444 7.14377 20.4546V21.9342L6.45876 22.1512L5.77374 22.3682V20.5335C5.77374 15.7791 7.65265 11.1431 11.0386 7.57232C13.9353 4.51449 17.3995 2.60089 21.5292 1.79204C23.506 1.41721 27.7335 1.55531 29.7103 2.08796ZM8.31809 30.3186C8.31809 38.0322 8.43552 37.4601 6.90891 36.9866C5.96946 36.7104 4.65813 35.29 4.50156 34.3825C4.42327 34.0472 4.4037 31.9955 4.44284 29.8057C4.50156 25.8601 4.50156 25.8403 5.03 25.0315C5.6563 24.1043 6.75233 23.4335 7.69179 23.4138H8.31809V30.3186ZM10.7646 30.3186V37.1247L10.334 37.1839L9.88385 37.2431V30.3186V23.3941L10.334 23.4533L10.7646 23.5125V30.3186ZM40.0247 30.3383V37.2431L39.5941 37.1839L39.144 37.1247L39.0853 30.5159C39.0657 26.8859 39.0853 23.7886 39.144 23.6703C39.1831 23.5322 39.418 23.4138 39.6333 23.4138C40.0247 23.4138 40.0247 23.5125 40.0247 30.3383ZM43.5477 23.8084C43.9782 24.0254 44.5654 24.5778 44.859 25.0315C45.407 25.8403 45.407 25.8601 45.4657 29.8057C45.5049 31.9955 45.4853 34.0472 45.407 34.3825C45.2504 35.29 43.9391 36.7104 42.9996 36.9866C41.473 37.4601 41.5905 38.0322 41.5905 30.3186V23.4138H42.1776C42.5103 23.4138 43.1367 23.5914 43.5477 23.8084ZM2.83794 30.3186C2.83794 32.2519 2.75965 33.2778 2.64222 33.2778C2.52479 33.2778 2.21163 33.0608 1.9572 32.7846C1.50704 32.3506 1.4679 32.173 1.4679 30.3186C1.4679 28.4642 1.50704 28.2866 1.9572 27.8526C2.21163 27.5764 2.52479 27.3594 2.64222 27.3594C2.75965 27.3594 2.83794 28.3852 2.83794 30.3186ZM48.0296 27.8723C48.3819 28.3261 48.4407 28.6812 48.4407 30.358C48.4407 32.173 48.4015 32.3506 47.9514 32.7846C47.6969 33.0608 47.3838 33.2778 47.2663 33.2778C47.1489 33.2778 47.0706 32.2519 47.0706 30.3186C47.0706 27.892 47.1293 27.3594 47.3446 27.3594C47.5012 27.3594 47.8144 27.5961 48.0296 27.8723ZM26.3047 42.4512C27.1659 43.2009 27.4008 44.0689 26.9898 45.0948C26.2265 47.0281 23.6234 46.9295 22.8014 44.9369C22.2729 43.6546 23.506 41.958 24.9543 41.958C25.4827 41.958 25.8937 42.1159 26.3047 42.4512Z" fill="#1F381C"/>
<path d="M22.8014 16.075C22.4491 16.3709 22.3316 16.7063 22.2534 17.6138C22.2142 18.2451 22.0772 18.8961 21.9793 19.0145C21.5879 19.488 20.7463 19.3104 20.0613 18.5805C19.0827 17.5743 18.3781 17.6138 17.1059 18.8172C16.1078 19.7641 15.5597 20.573 15.5597 21.1451C15.5597 21.3029 15.912 21.8356 16.3426 22.309C16.7732 22.7825 17.1255 23.3546 17.1255 23.5716C17.1255 24.1832 16.3818 24.5975 15.3249 24.5975C13.8374 24.5975 13.6025 24.9723 13.6025 27.241C13.6025 29.0165 13.6221 29.1349 14.1114 29.5097C14.4833 29.8056 14.9139 29.924 15.5793 29.924C17.2821 29.924 17.5757 30.7723 16.3426 32.1927C15.912 32.6859 15.5597 33.2777 15.5597 33.5145C15.5597 33.7315 16.1273 34.5009 16.8711 35.2703C18.4564 36.9274 18.8478 36.9866 20.1592 35.8424C20.6485 35.4084 21.1769 35.0533 21.3139 35.0533C21.8815 35.0533 22.1751 35.5662 22.2534 36.7104C22.3316 37.6968 22.4491 37.9533 22.8992 38.3675C23.4081 38.8016 23.5843 38.841 25.0717 38.7621C27.1659 38.6832 27.5574 38.3675 27.6357 36.6907C27.6748 35.8818 27.7922 35.4675 28.0271 35.3097C28.536 34.9152 28.7708 34.9941 29.7494 35.8424C31.0607 36.9866 31.4522 36.9274 33.0375 35.2703C33.7813 34.5009 34.3488 33.7315 34.3488 33.5145C34.3488 33.2777 33.9965 32.6859 33.566 32.1927C32.3329 30.7723 32.6265 29.924 34.3293 29.924C34.9947 29.924 35.4253 29.8056 35.7972 29.5097C36.2865 29.1349 36.306 29.0165 36.306 27.241C36.306 24.9328 36.0712 24.5975 34.4858 24.5975C33.703 24.5975 33.3507 24.4988 33.1158 24.2424C32.6069 23.69 32.7048 23.2363 33.566 22.309C33.9965 21.8356 34.3488 21.3029 34.3488 21.1451C34.3488 20.573 33.8008 19.7641 32.8027 18.8172C31.55 17.6335 30.9042 17.5941 29.8277 18.5805C29.0448 19.2907 28.2815 19.4682 27.9292 19.0145C27.8314 18.8961 27.6944 18.2451 27.6552 17.6138C27.5182 15.9567 27.1855 15.7199 24.9543 15.7199C23.5843 15.7199 23.1537 15.7988 22.8014 16.075ZM26.1678 18.3043C26.2852 19.5471 26.8136 20.2771 27.8314 20.6322C28.81 20.9873 29.4754 20.8097 30.4149 19.9614L31.1586 19.2907L31.9611 20.1192L32.7831 20.9675L32.2938 21.441C32.0393 21.6777 31.6675 22.2696 31.5109 22.7036C30.8846 24.341 31.9023 25.7811 33.8204 25.9784L34.8381 26.0771L34.8969 27.2016L34.9556 28.3458H34.2706C31.5892 28.3458 30.4149 30.9301 32.2351 32.824L32.8614 33.475L32.0393 34.3036L31.2173 35.1322L30.6889 34.6192C29.906 33.909 29.3971 33.6723 28.5164 33.6723C27.1659 33.6723 26.1286 34.8757 26.1286 36.4342V37.2233H24.9739H23.8191L23.7408 36.0988C23.6625 35.1322 23.5647 34.9152 22.9384 34.3233C21.8228 33.3172 20.5114 33.4158 19.2197 34.6192L18.6913 35.1322L17.8692 34.3036L17.0472 33.475L17.6735 32.824C19.4937 30.9301 18.3194 28.3458 15.638 28.3458H14.953L15.0117 27.2016L15.0704 26.0771L16.0882 25.9784C17.3408 25.8403 18.1237 25.3077 18.4368 24.341C18.7695 23.3546 18.5738 22.5852 17.8105 21.6975L17.1646 20.9478L17.9475 20.1192L18.75 19.2907L19.4937 19.9614C20.4332 20.8097 21.0986 20.9873 22.0968 20.6322C23.1341 20.2771 23.78 19.3104 23.78 18.1662V17.2982H24.9347H26.0699L26.1678 18.3043Z" fill="#1F381C"/>
<path d="M23.9949 21.6581C21.1766 22.1907 19.3955 24.3805 19.3955 27.2608C19.3955 30.3186 21.5289 32.6268 24.5625 32.824C26.8916 33.0016 29.0249 31.739 30.0818 29.5492C31.0996 27.4975 30.4341 24.4791 28.6335 22.9404C27.42 21.8948 25.5411 21.3621 23.9949 21.6581ZM26.4806 23.3349C27.4004 23.7098 28.2029 24.4791 28.7118 25.4655C29.2989 26.6295 29.1424 28.4444 28.3595 29.5689C26.4806 32.2717 22.39 31.8771 21.1374 28.8982C19.7478 25.4853 23.1533 21.9342 26.4806 23.3349Z" fill="#1F381C"/>
<path d="M24.5235 23.5125C24.3865 23.6901 23.9754 24.1438 23.6427 24.5384C22.899 25.3472 22.7816 26.3731 23.31 27.1227C23.6036 27.537 23.6036 27.6159 23.2904 27.9513C22.8794 28.405 23.0164 29.1744 23.6427 29.8254C23.8776 30.0622 24.1712 30.437 24.2886 30.6343C24.5626 31.1077 25.3455 31.1077 25.6195 30.6343C25.7369 30.437 26.0696 30.0227 26.3828 29.7268C27.0287 29.0363 27.107 27.8526 26.5394 27.2411C26.1871 26.8465 26.1871 26.8268 26.5589 26.5901C27.0874 26.2547 26.9112 25.3867 26.1284 24.42C25.7956 24.0254 25.4433 23.5914 25.3259 23.4533C25.0715 23.1377 24.8366 23.1574 24.5235 23.5125ZM25.3455 25.9588C25.6195 26.4914 25.5999 26.5703 25.1693 26.5703C24.7388 26.5703 24.2886 26.0771 24.4647 25.7812C24.6605 25.4656 25.1106 25.5445 25.3455 25.9588ZM25.5021 28.3656C25.5803 28.839 24.9149 29.0363 24.6213 28.622C24.2299 28.0894 24.3082 27.9118 24.8953 27.9907C25.2085 28.0302 25.4629 28.188 25.5021 28.3656Z" fill="#1F381C"/>
<path d="M12.8193 20.3165C12.8193 22.0328 12.9368 22.309 13.4261 21.7172C13.6414 21.441 13.7001 21.4607 13.9349 21.9144C14.0915 22.1906 14.2872 22.4274 14.3851 22.4274C14.6982 22.4274 14.7961 22.0525 14.5808 21.6383C14.4047 21.3029 14.4242 21.2437 14.7765 21.2437C14.9918 21.2437 15.168 21.1648 15.168 21.0859C15.168 21.007 14.6395 20.4151 13.9937 19.7641L12.8193 18.6002V20.3165ZM14.5808 21.007C14.3068 21.0464 14.1894 21.1845 14.2677 21.3621C14.3264 21.5199 14.4438 21.7763 14.5025 21.9342C14.7178 22.4471 14.2677 22.2498 14.0132 21.7172C13.7979 21.2042 13.7784 21.2042 13.4065 21.5396C13.0151 21.8947 13.0151 21.875 13.0151 20.4349V18.9947L14.0132 19.9614C14.8744 20.8294 14.9527 20.9478 14.5808 21.007Z" fill="#1F381C"/>
</svg>
