<svg width="46" height="46" viewBox="0 0 46 46" fill="none" xmlns="http://www.w3.org/2000/svg">
<path d="M19.284 0.152737C19.1852 0.278515 19.0864 0.88047 18.9247 2.5875C18.799 3.84531 18.6822 4.87852 18.6643 4.8875C18.6553 4.89648 18.0535 5.10313 17.335 5.33672C16.1045 5.73203 14.5057 6.4418 13.6884 6.95391L13.3112 7.1875L11.5328 5.70508C10.1137 4.52813 9.69155 4.22266 9.47599 4.22266C9.25145 4.22266 8.86524 4.57305 6.76352 6.66641C5.40729 8.01406 4.28458 9.20898 4.25764 9.3168C4.23069 9.41563 4.25764 9.6043 4.32051 9.7211C4.40134 9.88281 6.2875 12.2098 7.05992 13.1262C7.1677 13.243 7.08686 13.4496 6.52102 14.5637C5.85637 15.8574 5.47016 16.8098 5.1109 18.0316C5.0121 18.391 4.88635 18.6875 4.83246 18.6875C4.67977 18.6875 1.06016 19.0379 0.655981 19.1008C-0.0356085 19.1906 0.000318244 18.993 0.000318244 23C0.000318244 26.0727 0.0182816 26.6027 0.135043 26.7195C0.296714 26.8723 0.395512 26.8902 2.96427 27.1418C4.02411 27.2406 4.90432 27.3395 4.9133 27.3484C4.93126 27.3574 5.057 27.7707 5.20071 28.2648C5.551 29.4328 6.17972 30.9332 6.74556 31.9305C7.14076 32.6223 7.18566 32.7391 7.0689 32.8738C5.58692 34.6078 4.29356 36.2609 4.24865 36.4855C4.19476 36.7461 4.31153 36.8719 6.70065 39.2707C8.86524 41.4359 9.24247 41.7773 9.47599 41.7773C9.69155 41.7773 10.1047 41.4719 11.5328 40.2949L13.3112 38.8215L13.7782 39.091C14.7123 39.648 16.1494 40.2859 17.3709 40.6813C18.0715 40.9148 18.6553 41.1035 18.6643 41.1125C18.6822 41.1305 18.799 42.1547 18.9247 43.4125C19.0864 45.1195 19.1852 45.7215 19.284 45.8383C19.4187 45.991 19.7151 46 23.0473 46H26.6759L26.8017 45.8023C26.8825 45.6676 26.9813 44.9668 27.0801 43.8887L27.2328 42.1816L27.6998 42.6219C29.1369 44.0055 30.9961 44.9668 32.9631 45.3711C34.2924 45.6496 36.457 45.5957 37.7413 45.2543C41.4867 44.266 44.4147 41.3461 45.3578 37.6445C46.256 34.1227 45.268 30.3043 42.7891 27.7437L42.2951 27.2316L42.6813 27.1867C42.8968 27.1598 43.5166 27.0969 44.0555 27.043C45.4386 26.9172 45.6991 26.8633 45.8518 26.7105C46.0494 26.5129 46.0494 19.4871 45.8518 19.2895C45.6901 19.1187 45.5195 19.0918 43.0675 18.8582C41.9807 18.7594 41.0825 18.6605 41.0736 18.6516C41.0556 18.6426 40.9298 18.2293 40.7861 17.7352C40.4358 16.5672 39.8071 15.0668 39.2413 14.0695C38.8461 13.3688 38.8012 13.2609 38.9179 13.1262C39.6365 12.2996 41.5765 9.88281 41.6574 9.73008C41.7202 9.62226 41.7651 9.46055 41.7651 9.37969C41.7651 9.28984 40.6604 8.11289 39.2772 6.72031C37.2474 4.68086 36.7354 4.22266 36.5468 4.22266C36.3582 4.22266 35.8462 4.6 34.5169 5.69609L32.7385 7.17852L32.3613 6.95391C31.0859 6.21719 29.101 5.37266 27.9244 5.07617L27.3406 4.93242L27.134 2.66836C26.9993 1.19492 26.8825 0.332424 26.8017 0.197659L26.6759 0H23.0473C19.7151 0 19.4187 0.00898361 19.284 0.152737ZM25.7777 1.32071C25.7867 1.41055 25.8765 2.42578 25.9933 3.57578C26.155 5.18399 26.2358 5.69609 26.3526 5.82188C26.4334 5.9207 26.7298 6.04649 27.0172 6.10938C28.3734 6.40586 30.3584 7.22344 31.7506 8.03203C32.2086 8.31055 32.6936 8.53516 32.8194 8.53516C32.9721 8.53516 33.5559 8.10391 34.7774 7.08867L36.5109 5.65117L38.379 7.56485C39.403 8.61602 40.2383 9.49649 40.2383 9.52344C40.2383 9.55039 39.6095 10.332 38.8461 11.2664C37.7324 12.6141 37.4539 13.0004 37.4539 13.216C37.4539 13.3777 37.6156 13.7551 37.8491 14.1324C38.6754 15.507 39.4119 17.241 39.7892 18.7324C39.9059 19.1727 40.0676 19.6039 40.1574 19.6848C40.2742 19.7926 40.849 19.8824 42.5645 20.0352L44.8189 20.2508V23V25.7492L42.8878 25.9469L40.9658 26.1355L40.0317 25.6504C39.5197 25.3898 38.7563 25.0664 38.3431 24.9316L37.5887 24.698L37.5797 22.9281C37.5707 20.9426 37.436 20.0621 36.8611 18.3281C36.1516 16.1809 35.0019 14.348 33.3224 12.668C32.0649 11.4102 31.041 10.6734 29.5051 9.91875C28.1938 9.28086 27.3136 8.96641 26.1101 8.71484C22.1581 7.88828 18.2241 8.64297 14.847 10.8801C13.5806 11.7336 11.7663 13.5215 10.967 14.7344C9.88017 16.3695 9.09876 18.1934 8.69459 20.0711C8.52393 20.8527 8.49699 21.248 8.49699 23C8.49699 24.752 8.52393 25.1473 8.69459 25.9289C9.09876 27.8066 9.88017 29.6305 10.967 31.2656C11.7663 32.4785 13.5806 34.2664 14.847 35.1199C17.5415 36.8988 20.6941 37.7793 23.7569 37.5906L24.7449 37.5367L25.0502 38.4531C25.2209 38.9473 25.5352 39.675 25.7508 40.0523L26.155 40.7441L26.0023 42.3164C25.9214 43.1789 25.8316 44.1043 25.8047 44.3648L25.7508 44.832H23.0293H20.3079L20.263 44.5445C20.236 44.3828 20.1283 43.3586 20.0295 42.2715C19.9037 40.9777 19.8049 40.25 19.7241 40.1781C19.6612 40.1063 19.1223 39.9176 18.5385 39.7559C16.8769 39.2797 15.5207 38.7047 14.1285 37.8602C13.7603 37.6266 13.374 37.4648 13.2303 37.4648C13.0417 37.4738 12.5657 37.8152 11.2723 38.9023L9.56581 40.3219L7.65271 38.4262C6.61084 37.375 5.74859 36.5035 5.74859 36.4766C5.74859 36.4496 6.37731 35.668 7.14076 34.7336C8.25448 33.3859 8.53292 32.9996 8.53292 32.784C8.53292 32.6223 8.37125 32.2449 8.13772 31.8676C7.31141 30.493 6.57491 28.759 6.19768 27.2676C6.08092 26.8184 5.91925 26.3961 5.82943 26.3152C5.71267 26.2074 5.13784 26.1176 3.42234 25.9648L1.16794 25.7492V23V20.2508L3.39539 20.0441C4.8145 19.9184 5.68572 19.7926 5.81147 19.7207C5.92823 19.6398 6.03601 19.4332 6.09888 19.1547C6.39528 17.7441 7.19465 15.7586 8.02096 14.357C8.33532 13.827 8.53292 13.3867 8.53292 13.216C8.53292 13.0004 8.2455 12.6051 7.14076 11.2664C6.37731 10.332 5.74859 9.55039 5.74859 9.52344C5.74859 9.49649 6.61084 8.625 7.65271 7.57383L9.56581 5.67813L10.6436 6.57656C12.6735 8.26562 13.0327 8.53516 13.2483 8.53516C13.374 8.53516 13.7333 8.37344 14.0566 8.17578C15.4847 7.3043 17.3529 6.51367 18.8439 6.1543C19.8678 5.90274 19.8139 6.01055 20.0295 3.72852C20.1283 2.64141 20.236 1.61719 20.263 1.45547L20.3079 1.16797H23.0383C25.5891 1.16797 25.7777 1.17695 25.7777 1.32071ZM25.7508 9.87383C31.6069 11.1676 35.8911 16.0371 36.3671 21.9309C36.4121 22.4969 36.43 23.2965 36.4031 23.7188L36.3582 24.4824L35.2444 24.4555C33.9151 24.4195 32.8463 24.5813 31.6069 25.0125L30.7356 25.3L30.6907 24.7699C30.565 23.3324 29.2537 21.9129 27.7447 21.5715C27.2507 21.4547 25.9933 21.4457 25.7957 21.5535C25.6969 21.6074 25.4724 22.1105 25.2388 22.7664C25.0143 23.3863 24.8077 23.8984 24.7718 23.8984C24.7449 23.8984 24.3946 23.557 23.9994 23.1348C23.4964 22.5957 23.209 22.3531 23.0114 22.3172C22.706 22.2543 22.6791 22.2723 21.718 23.3414L21.215 23.9074L20.8378 22.7754C20.5684 21.9758 20.4067 21.6254 20.281 21.5535C20.1552 21.4906 19.7331 21.4637 19.1223 21.4906C18.2241 21.5266 18.0984 21.5535 17.4877 21.859C16.6883 22.2543 15.9608 22.991 15.5656 23.7816L15.3141 24.3027L15.2871 28.3637C15.2602 32.7121 15.2961 33.1254 15.7272 33.9699L15.9159 34.3383L15.368 33.9609C13.4728 32.6313 12.0627 30.9691 11.0388 28.8848C10.473 27.7258 10.1496 26.8004 9.93406 25.7492C9.31432 22.7574 9.66461 19.9184 10.9939 17.2051C12.9788 13.1531 16.4727 10.5566 21.0175 9.73906C22.0234 9.55938 24.682 9.63125 25.7508 9.87383ZM19.9576 24.0961C20.3798 25.3629 20.4786 25.5785 20.6851 25.6773C20.8199 25.7402 20.9276 25.866 20.9276 25.9648C20.9276 26.1535 20.3348 31.7777 20.245 32.4156L20.1911 32.8109L21.4306 34.0598C22.9665 35.6051 22.9934 35.6141 23.8916 34.7246L24.4754 34.1496L24.4934 35.2008C24.5023 35.9105 24.4664 36.2699 24.4035 36.3148C24.2149 36.4316 21.9875 36.3867 21.0803 36.252C20.5863 36.1801 19.8678 36.0273 19.4816 35.9195C18.8439 35.7488 18.7271 35.6859 18.4756 35.3625C18.3229 35.1559 17.9098 34.6887 17.5505 34.3113C16.5086 33.2063 16.5446 33.377 16.5176 28.6871C16.4997 24.8957 16.5086 24.734 16.6793 24.3297C17.1104 23.3594 18.1164 22.6855 19.1942 22.6496L19.4726 22.6406L19.9576 24.0961ZM27.8974 22.9012C28.6698 23.2426 29.2716 23.9883 29.4692 24.8508C29.6488 25.6324 29.5411 25.893 28.8495 26.3871C27.6819 27.2227 26.4783 28.5703 25.7688 29.8461C25.6251 30.1066 25.5083 30.3043 25.4993 30.2773C25.4993 30.2504 25.3825 29.2172 25.2478 27.9863L25.0053 25.7402L25.2119 25.7133C25.3197 25.6953 25.4454 25.6324 25.4903 25.5785C25.5352 25.5156 25.7867 24.8867 26.0472 24.168C26.3077 23.4492 26.5412 22.8113 26.5681 22.7395C26.622 22.5867 27.3765 22.6766 27.8974 22.9012ZM23.712 24.8418C23.712 24.9406 23.8916 26.6746 24.1161 28.7051L24.5113 32.3887L23.7569 33.1523L22.9934 33.916L22.23 33.1523L21.4755 32.3887L21.8977 28.4805L22.3198 24.5633L22.6342 24.1859L22.9485 23.7996L23.3347 24.2309C23.5413 24.4645 23.712 24.743 23.712 24.8418ZM37.1755 25.875C41.4508 26.9082 44.4596 30.6637 44.4596 34.9941C44.4596 39.2617 41.5765 42.9633 37.3731 44.0953C36.6186 44.293 36.3402 44.3199 35.0738 44.3199C33.7984 44.3199 33.5379 44.293 32.7475 44.0863C29.4063 43.1879 26.8735 40.6363 25.9394 37.2133C25.7777 36.6473 25.7508 36.252 25.7418 35.0391C25.7328 33.6824 25.7598 33.4758 25.9843 32.6582C27.0082 28.9477 30.089 26.2254 33.8613 25.6953C34.6966 25.5785 36.2953 25.6684 37.1755 25.875Z" fill="url(#paint0_linear_109_15647)"/>
<path d="M21.8255 12.7129C20.7387 13.0184 19.8675 13.7641 19.3646 14.8243C19.1041 15.3813 19.0861 15.4622 19.0592 16.7918C19.0143 18.418 19.14 19.02 19.6699 19.8376C20.4603 21.0594 22.0052 21.7422 23.4512 21.4907C24.9871 21.2301 26.1727 20.161 26.5499 18.6876C26.7655 17.834 26.6936 15.6868 26.4242 15.004C26.02 13.9977 25.2476 13.225 24.2506 12.8387C23.5949 12.5872 22.4902 12.5333 21.8255 12.7129ZM24.035 14.0876C24.52 14.3391 25.014 14.8692 25.2565 15.4083C25.4362 15.8036 25.4631 16.0012 25.4631 17.0704C25.4631 18.2204 25.4541 18.3102 25.2116 18.7954C24.4212 20.4036 22.4363 20.8079 21.116 19.6219C20.8555 19.3883 20.595 19.0379 20.4693 18.7594C20.2807 18.3372 20.2537 18.1485 20.2537 17.0704C20.2537 15.9922 20.2807 15.8036 20.4603 15.4083C20.7118 14.8692 21.2058 14.3391 21.6818 14.0876C22.3734 13.7282 23.3434 13.7282 24.035 14.0876Z" fill="url(#paint1_linear_109_15647)"/>
<path d="M34.9026 29.3429C34.7768 29.4597 34.7589 29.855 34.7589 32.2358V34.994L33.3667 36.3866C31.8757 37.878 31.768 38.0667 32.1542 38.453C32.5404 38.8394 32.711 38.7405 34.3726 37.0874L35.9265 35.5421V32.5144C35.9265 29.7023 35.9175 29.4866 35.7648 29.3519C35.5582 29.1632 35.0822 29.1542 34.9026 29.3429Z" fill="url(#paint2_linear_109_15647)"/>
<defs>
<linearGradient id="paint0_linear_109_15647" x1="0" y1="46" x2="18.1963" y2="-1.82759" gradientUnits="userSpaceOnUse">
<stop stop-color="#DFBD69"/>
<stop offset="0.53125" stop-color="#FEF7C0"/>
<stop offset="1" stop-color="#926F34"/>
</linearGradient>
<linearGradient id="paint1_linear_109_15647" x1="19.0508" y1="21.5425" x2="23.0059" y2="12.6706" gradientUnits="userSpaceOnUse">
<stop stop-color="#DFBD69"/>
<stop offset="0.53125" stop-color="#FEF7C0"/>
<stop offset="1" stop-color="#926F34"/>
</linearGradient>
<linearGradient id="paint2_linear_109_15647" x1="31.9639" y1="38.6409" x2="37.5515" y2="32.4727" gradientUnits="userSpaceOnUse">
<stop stop-color="#DFBD69"/>
<stop offset="0.53125" stop-color="#FEF7C0"/>
<stop offset="1" stop-color="#926F34"/>
</linearGradient>
</defs>
</svg>
