<svg width="46" height="46" viewBox="0 0 46 46" fill="none" xmlns="http://www.w3.org/2000/svg">
<path d="M21.4502 0.238483C20.5101 0.545216 18.8984 2.19391 18.6105 3.17162C18.246 4.39856 18.3227 5.16539 19.0327 7.10165C19.378 8.09853 19.7234 9.3063 19.8001 9.80474L19.9345 10.7058L10.6287 10.7633L1.30382 10.8208L0.689837 11.4534C0.152599 11.9902 0.056664 12.2011 0.056664 13.0254C0.056664 13.8498 0.152599 14.0607 0.689837 14.5975L1.30382 15.2301L4.46969 15.2876L7.63555 15.3451V19.1601V22.9559L6.63783 23.186C4.16269 23.7803 2.01374 25.4098 0.939269 27.5569C-2.05391 33.4807 2.49342 40.3056 9.11296 39.8071C11.9143 39.5962 14.6005 37.8134 15.8668 35.302C18.3803 30.3367 15.6174 24.4704 10.1874 23.186L9.17052 22.9559V19.1409V15.3259H14.5429H19.9153V27.2119C19.9153 34.7268 19.8385 39.0978 19.7234 39.0978C19.3972 39.0978 18.246 40.2289 18.0158 40.804C17.8431 41.2066 17.5553 41.4175 16.9797 41.59C15.4255 42.0501 14.4853 43.0853 14.2359 44.619C14.0057 46.076 13.5452 45.9993 22.9852 45.9993C32.4252 45.9993 31.9647 46.076 31.7345 44.5998C31.5426 43.3729 30.7943 42.3952 29.6431 41.8584C29.0867 41.6092 28.5494 41.3983 28.4343 41.3983C28.3192 41.3983 28.1081 41.1299 27.9738 40.8232C27.7244 40.248 26.5924 39.0978 26.247 39.0978C26.1319 39.0978 26.0551 34.7268 26.0551 27.2119V15.3259H31.4275H36.7999V19.3327V23.3202L33.0392 25.5632C30.9862 26.8093 29.2402 27.9595 29.1826 28.1129C28.9907 28.5922 29.3937 29.0331 30.0652 29.0906L30.66 29.1481V33.5191C30.66 36.6439 30.7176 37.9284 30.8903 38.1009C31.2164 38.4268 43.9183 38.4268 44.2445 38.1009C44.4171 37.9284 44.4747 36.6439 44.4747 33.5191V29.1481L45.0695 29.0906C45.7411 29.0331 46.144 28.5922 45.9521 28.1129C45.8945 27.9595 44.1485 26.8093 42.0955 25.5632L38.3348 23.3202V19.3327V15.3451L41.5007 15.2876L44.6666 15.2301L45.2806 14.5975C45.8178 14.0607 45.9137 13.8498 45.9137 13.0254C45.9137 12.2011 45.8178 11.9902 45.2806 11.4534L44.6666 10.8208L35.3609 10.7633C27.4558 10.7249 26.0551 10.6674 26.0551 10.4374C26.0551 9.80474 26.5348 8.04102 27.0337 6.75657C27.9163 4.55193 27.7244 3.09494 26.3046 1.52293C25.0574 0.142628 23.273 -0.336643 21.4502 0.238483ZM24.2132 1.79132C25.0958 2.15557 25.8824 3.26748 25.9976 4.26436C26.0743 4.85866 25.9592 5.39544 25.5946 6.2773C24.6161 8.5778 24.194 11.5685 24.7696 12.0477C24.9615 12.1819 27.9163 12.2778 34.5934 12.297C43.4578 12.3545 44.1677 12.3736 44.3596 12.6804C44.5131 12.9296 44.5131 13.1213 44.3596 13.3513C44.1677 13.6772 43.4578 13.6964 34.5934 13.7539C27.9163 13.7731 24.9615 13.869 24.7696 14.0032C24.5585 14.1757 24.5202 16.4379 24.5202 26.2725V38.331H22.9852H21.4502V26.2725C21.4502 16.4379 21.4119 14.1757 21.2008 14.0032C21.0089 13.869 18.0541 13.7731 11.377 13.7539C2.51261 13.6964 1.80269 13.6772 1.61082 13.3513C1.45732 13.1213 1.45732 12.9296 1.61082 12.6804C1.80269 12.3736 2.51261 12.3545 11.377 12.297C18.553 12.2586 21.0089 12.2011 21.22 12.0286C21.6421 11.6835 21.3927 9.15293 20.7787 7.42756C20.4909 6.66072 20.1839 5.72134 20.0688 5.3571C19.3397 2.96074 21.8532 0.794437 24.2132 1.79132ZM11.2043 25.1798C12.6817 25.8507 13.9865 27.1544 14.6772 28.6305C15.1377 29.6274 15.2144 30.0492 15.2144 31.4295C15.2144 32.8098 15.1377 33.2315 14.6772 34.2284C13.9865 35.7046 12.6817 37.0082 11.1852 37.6983C10.2066 38.1584 9.7845 38.2351 8.40304 38.2351C7.02157 38.2351 6.59945 38.1584 5.62091 37.6983C4.12432 37.0082 2.8196 35.7046 2.12887 34.2284C1.66838 33.2315 1.59163 32.8098 1.59163 31.4295C1.59163 30.0492 1.66838 29.6274 2.12887 28.6497C3.77895 25.1414 7.75067 23.6078 11.2043 25.1798ZM40.0617 26.1575L42.4601 27.5953H37.5674H32.6747L35.073 26.1575C36.397 25.3715 37.5098 24.7197 37.5674 24.7197C37.6249 24.7197 38.7378 25.3715 40.0617 26.1575ZM42.9397 32.9631V36.7973H41.424H39.9082L39.8506 35.1678C39.7739 33.6341 39.7355 33.5191 39.1407 32.9248C38.6035 32.388 38.3924 32.2921 37.5674 32.2921C36.7423 32.2921 36.5313 32.388 35.994 32.9248C35.3992 33.5191 35.3609 33.6341 35.2841 35.1678L35.2265 36.7973H33.7108H32.195V32.9631V29.129H37.5674H42.9397V32.9631ZM38.1046 33.96C38.2389 34.0942 38.3348 34.7268 38.3348 35.4937V36.7973H37.5674H36.7999V35.4937C36.7999 34.1709 36.9918 33.73 37.5674 33.73C37.74 33.73 37.9703 33.8258 38.1046 33.96ZM25.3836 40.4398C27.0529 41.3024 26.8226 41.3983 23.0044 41.3983C21.0281 41.3983 19.5315 41.3216 19.5315 41.2258C19.5315 40.9957 20.7019 40.2672 21.4119 40.0372C22.3904 39.7304 24.3859 39.9221 25.3836 40.4398ZM29.4896 43.5838C29.8158 43.9097 30.0844 44.2164 30.0844 44.3123C30.0844 44.389 26.8994 44.4656 22.9852 44.4656C19.0902 44.4656 15.886 44.389 15.886 44.3123C15.886 44.1014 16.8645 43.2004 17.2291 43.0662C17.3826 43.0087 20.088 42.9703 23.2154 42.9895L28.914 43.0278L29.4896 43.5838Z" fill="url(#paint0_linear_108_15577)"/>
<path d="M7.63545 26.4259C7.63545 26.656 7.36684 26.9244 6.92553 27.1544C4.23935 28.458 5.23707 32.1964 8.26863 32.1964C8.92099 32.1964 9.28554 32.3114 9.55416 32.5798C10.3792 33.4041 9.72684 34.4969 8.40294 34.4969C7.53952 34.4969 6.86797 33.9792 6.86797 33.3466C6.86797 33.0207 6.73366 32.9632 6.10049 32.9632C5.39057 32.9632 5.33301 33.0015 5.33301 33.5191C5.33301 34.2668 6.06212 35.302 6.92553 35.7046C7.36684 35.9347 7.63545 36.2031 7.63545 36.4331C7.63545 36.7399 7.76976 36.7974 8.40294 36.7974C9.03611 36.7974 9.17042 36.7399 9.17042 36.4331C9.17042 36.2031 9.43904 35.9347 9.88034 35.7046C12.5665 34.401 11.5688 30.6627 8.55643 30.6627C7.88489 30.6627 7.52033 30.5477 7.25171 30.2793C6.42667 29.4549 7.07903 28.3622 8.40294 28.3622C9.26636 28.3622 9.9379 28.8798 9.9379 29.5124C9.9379 29.8383 10.0722 29.8959 10.7054 29.8959C11.4153 29.8959 11.4729 29.8575 11.4729 29.3399C11.4729 28.5922 10.7438 27.557 9.88034 27.1544C9.43904 26.9244 9.17042 26.656 9.17042 26.4259C9.17042 26.1192 9.03611 26.0617 8.40294 26.0617C7.76976 26.0617 7.63545 26.1192 7.63545 26.4259Z" fill="url(#paint1_linear_108_15577)"/>
<defs>
<linearGradient id="paint0_linear_108_15577" x1="0" y1="46" x2="18.1963" y2="-1.82759" gradientUnits="userSpaceOnUse">
<stop stop-color="#DFBD69"/>
<stop offset="0.53125" stop-color="#FEF7C0"/>
<stop offset="1" stop-color="#926F34"/>
</linearGradient>
<linearGradient id="paint1_linear_108_15577" x1="5.33301" y1="36.7974" x2="11.2256" y2="27.9394" gradientUnits="userSpaceOnUse">
<stop stop-color="#DFBD69"/>
<stop offset="0.53125" stop-color="#FEF7C0"/>
<stop offset="1" stop-color="#926F34"/>
</linearGradient>
</defs>
</svg>
