<svg width="48" height="46" viewBox="0 0 48 46" fill="none" xmlns="http://www.w3.org/2000/svg">
<path d="M9.386 0.114079C9.30158 0.199615 9.27344 4.28639 9.27344 17.9343C9.27344 35.3364 9.27344 35.631 9.45166 35.7355C9.55484 35.783 9.68616 35.8306 9.75182 35.8306C9.81749 35.8306 10.3615 35.3268 10.9806 34.7186L12.0875 33.6066L13.1943 34.7186C13.8134 35.3268 14.3856 35.8306 14.4794 35.8306C14.5732 35.8306 15.1454 35.3268 15.7645 34.7186L16.8713 33.6066L17.9782 34.7186C18.5973 35.3268 19.1695 35.8306 19.2633 35.8306C19.3571 35.8306 19.9199 35.3364 20.5202 34.7376L21.6177 33.6446L22.5463 34.6045C23.6719 35.7545 23.8971 35.8971 24.2629 35.6975C24.4036 35.6215 24.9383 35.1273 25.4542 34.6045L26.3828 33.6446L27.4803 34.7376C28.0806 35.3364 28.6434 35.8306 28.7372 35.8306C28.831 35.8306 29.4032 35.3268 30.0223 34.7186L31.1291 33.6066L32.236 34.7186C32.8551 35.3268 33.4273 35.8306 33.5211 35.8306C33.6149 35.8306 34.1871 35.3268 34.8062 34.7186L35.913 33.6066L37.0199 34.7186C37.639 35.3268 38.183 35.8306 38.2487 35.8306C38.3143 35.8306 38.4456 35.783 38.5488 35.7355C38.727 35.631 38.727 35.3649 38.727 20.5955V5.55994L35.9787 2.77523L33.2397 2.67029e-05H21.3644C12.2657 2.67029e-05 9.47042 0.0285416 9.386 0.114079ZM32.5362 3.45953C32.5362 5.61696 32.5549 5.99713 32.6862 6.12068C32.8082 6.25374 33.1834 6.27275 35.3127 6.27275H37.789V20.2153V34.1578L36.9073 33.2835C36.4289 32.7988 36.0068 32.4091 35.9693 32.4091C35.7629 32.4091 35.2845 32.7892 34.4591 33.6351L33.5211 34.595L32.4893 33.5591C31.9265 32.9888 31.3636 32.4946 31.2417 32.4566C31.0541 32.3996 30.8665 32.5516 29.9003 33.5116L28.7841 34.633L27.6773 33.5211C27.0582 32.9128 26.486 32.4091 26.3922 32.4091C26.2984 32.4091 25.7262 32.9128 25.1071 33.5211L24.0002 34.633L22.8934 33.5211C22.2743 32.9128 21.7021 32.4091 21.6083 32.4091C21.5145 32.4091 20.9423 32.9128 20.3232 33.5211L19.2164 34.633L18.1001 33.5116C17.134 32.5516 16.9464 32.3996 16.7588 32.4566C16.6368 32.4946 16.074 32.9888 15.5112 33.5591L14.4794 34.595L13.5414 33.6351C12.7159 32.7892 12.2376 32.4091 12.0312 32.4091C11.9937 32.4091 11.5716 32.7988 11.0932 33.2835L10.2115 34.1578V17.5541V0.950439H21.3738H32.5362V3.45953ZM36.8604 5.05622L37.048 5.32234H35.2658H33.4742V3.45002V1.56821L35.0782 3.18391C35.9599 4.0773 36.7572 4.91366 36.8604 5.05622Z" fill="url(#paint0_linear_106_15028)"/>
<path d="M14.0948 5.56002C13.9541 5.77861 13.9541 5.81663 14.0948 6.03522L14.2449 6.27283H19.2163C23.5969 6.27283 24.1878 6.25382 24.3191 6.12076C24.5067 5.93068 24.5067 5.66456 24.3191 5.47448C24.1878 5.34142 23.5969 5.32241 19.2163 5.32241H14.2449L14.0948 5.56002Z" fill="url(#paint1_linear_106_15028)"/>
<path d="M14.1039 8.77236C13.9726 8.97194 13.9632 10.179 13.982 19.3695C14.0007 27.7236 14.0382 29.767 14.132 29.862C14.3103 30.0426 33.6896 30.0426 33.8678 29.862C33.9616 29.767 33.9992 27.7236 34.0179 19.3695C34.0367 10.179 34.0273 8.97194 33.896 8.77236L33.7553 8.55376H23.9999H14.2446L14.1039 8.77236ZM19.4037 10.7872V12.0703H17.1524H14.9012V10.7872V9.50417H17.1524H19.4037V10.7872ZM33.0987 10.7872V12.0703H26.7202H20.3417V10.7872V9.50417H26.7202H33.0987V10.7872ZM19.4037 14.2087V15.3967H17.1524H14.9012V14.2087V13.0207H17.1524H19.4037V14.2087ZM33.0987 14.2087V15.3967H26.7202H20.3417V14.2087V13.0207H26.7202H33.0987V14.2087ZM19.4037 17.5827V18.8182H17.1524H14.9012V17.5827V16.3471H17.1524H19.4037V17.5827ZM33.0987 17.5827V18.8182H26.7202H20.3417V17.5827V16.3471H26.7202H33.0987V17.5827ZM19.4037 20.9566V22.1447H17.1524H14.9012V20.9566V19.7686H17.1524H19.4037V20.9566ZM33.0987 20.9566V22.1447H26.7202H20.3417V20.9566V19.7686H26.7202H33.0987V20.9566ZM19.4037 24.2831V25.4711H17.1524H14.9012V24.2831V23.0951H17.1524H19.4037V24.2831ZM33.0987 24.2831V25.4711H26.7202H20.3417V24.2831V23.0951H26.7202H33.0987V24.2831ZM19.4037 27.7521V29.0827H17.1524H14.9012V27.7521V26.4215H17.1524H19.4037V27.7521ZM33.0987 27.7521V29.0827H26.7202H20.3417V27.7521V26.4215H26.7202H33.0987V27.7521Z" fill="url(#paint2_linear_106_15028)"/>
<path d="M5.38044 11.1294C4.65817 11.2434 4.35801 11.3575 3.78582 11.7471C3.17611 12.1558 2.59454 12.8781 2.30376 13.61L2.0974 14.1137L2.06926 27.6761L2.0505 41.2479H1.12186C0.446494 41.2479 0.16509 41.286 0.0900492 41.381C0.0150082 41.4665 -0.0131322 41.9417 0.00562808 42.8256L0.0337685 44.1467L1.84413 45.0781L3.6545 46H24H44.3455L46.1559 45.0686L47.9662 44.1467L47.9944 42.8256C48.0131 41.9417 47.985 41.4665 47.91 41.381C47.8349 41.286 47.5535 41.2479 46.8781 41.2479H45.9495L45.9307 27.6761L45.9026 14.1137L45.6962 13.61C45.2554 12.517 44.2798 11.5856 43.2574 11.2529C42.7415 11.0914 40.6216 10.9678 40.1057 11.0628C39.8337 11.1104 39.7492 11.1864 39.7023 11.3765C39.5804 11.8707 39.7023 11.9182 41.175 11.9847C42.0849 12.0228 42.6852 12.0893 43.0229 12.2033C43.6701 12.4219 44.4487 13.1442 44.7395 13.8L44.9646 14.3038L44.9927 27.7711L45.0115 41.2479H24H2.98851L3.00727 27.7711L3.03541 14.3038L3.26053 13.8C3.55132 13.1442 4.32987 12.4219 4.9771 12.2033C5.31478 12.0893 5.91511 12.0228 6.82498 11.9847C7.92246 11.9372 8.19448 11.8992 8.26952 11.7757C8.41022 11.5476 8.2789 11.1484 8.03502 11.0819C7.73485 11.0058 5.95263 11.0343 5.38044 11.1294ZM47.0751 42.8636V43.5289L45.5743 44.2893L44.0735 45.0496H24H3.92652L2.4257 44.2893L0.924881 43.5289V42.8636V42.1984H24H47.0751V42.8636Z" fill="url(#paint3_linear_106_15028)"/>
<path d="M17.9597 43.3008C17.8752 43.3768 17.8096 43.5289 17.8096 43.6239C17.8096 43.719 17.8752 43.871 17.9597 43.9471C18.091 44.0801 18.7663 44.0991 24.0005 44.0991C29.2346 44.0991 29.9099 44.0801 30.0413 43.9471C30.1257 43.871 30.1913 43.719 30.1913 43.6239C30.1913 43.5289 30.1257 43.3768 30.0413 43.3008C29.9099 43.1677 29.2346 43.1487 24.0005 43.1487C18.7663 43.1487 18.091 43.1677 17.9597 43.3008Z" fill="url(#paint4_linear_106_15028)"/>
<path d="M4.56435 13.8856C4.40489 13.9711 4.39551 14.6934 4.39551 26.8777C4.39551 36.7905 4.42365 39.8128 4.50807 39.8984C4.66753 40.0599 43.3324 40.0599 43.4919 39.8984C43.5763 39.8128 43.6044 36.7905 43.6044 26.8777C43.6044 14.2182 43.6044 13.9806 43.4262 13.8761C43.1542 13.7335 39.9181 13.7525 39.7774 13.8951C39.6367 14.0376 39.6367 14.4748 39.7774 14.6174C39.8524 14.6934 40.3214 14.7314 41.2782 14.7314H42.6664V26.8967V39.062H24H5.33352V26.8967V14.7314H6.72178C8.21322 14.7314 8.33516 14.6934 8.33516 14.2562C8.33516 14.1232 8.28826 13.9616 8.2226 13.8951C8.0819 13.7525 4.79885 13.743 4.56435 13.8856Z" fill="url(#paint5_linear_106_15028)"/>
<defs>
<linearGradient id="paint0_linear_106_15028" x1="9.27344" y1="35.8306" x2="25.5293" y2="0.70771" gradientUnits="userSpaceOnUse">
<stop stop-color="#DFBD69"/>
<stop offset="0.53125" stop-color="#FEF7C0"/>
<stop offset="1" stop-color="#926F34"/>
</linearGradient>
<linearGradient id="paint1_linear_106_15028" x1="13.9893" y1="6.27283" x2="14.0283" y2="5.14297" gradientUnits="userSpaceOnUse">
<stop stop-color="#DFBD69"/>
<stop offset="0.53125" stop-color="#FEF7C0"/>
<stop offset="1" stop-color="#926F34"/>
</linearGradient>
<linearGradient id="paint2_linear_106_15028" x1="13.9746" y1="29.9974" x2="22.8845" y2="8.09989" gradientUnits="userSpaceOnUse">
<stop stop-color="#DFBD69"/>
<stop offset="0.53125" stop-color="#FEF7C0"/>
<stop offset="1" stop-color="#926F34"/>
</linearGradient>
<linearGradient id="paint3_linear_106_15028" x1="0" y1="46" x2="10.7139" y2="7.34703" gradientUnits="userSpaceOnUse">
<stop stop-color="#DFBD69"/>
<stop offset="0.53125" stop-color="#FEF7C0"/>
<stop offset="1" stop-color="#926F34"/>
</linearGradient>
<linearGradient id="paint4_linear_106_15028" x1="17.8096" y1="44.0991" x2="17.8426" y2="42.9689" gradientUnits="userSpaceOnUse">
<stop stop-color="#DFBD69"/>
<stop offset="0.53125" stop-color="#FEF7C0"/>
<stop offset="1" stop-color="#926F34"/>
</linearGradient>
<linearGradient id="paint5_linear_106_15028" x1="4.39551" y1="40.0195" x2="11.8641" y2="10.6881" gradientUnits="userSpaceOnUse">
<stop stop-color="#DFBD69"/>
<stop offset="0.53125" stop-color="#FEF7C0"/>
<stop offset="1" stop-color="#926F34"/>
</linearGradient>
</defs>
</svg>
