<svg width="14" height="12" viewBox="0 0 14 12" fill="none" xmlns="http://www.w3.org/2000/svg">
<path d="M12.9409 5.905L7.65811 0.624925L7.30401 0.270823C7.22333 0.190674 7.11422 0.145691 7.0005 0.145691C6.88677 0.145691 6.77766 0.190674 6.69698 0.270823L1.06007 5.905C0.977394 5.98735 0.912057 6.08543 0.867911 6.19345C0.823765 6.30146 0.801706 6.41723 0.803035 6.53391C0.808504 7.01516 1.20909 7.39934 1.69034 7.39934H2.27139V11.8523H11.7296V7.39934H12.323C12.5567 7.39934 12.7769 7.30774 12.9423 7.14231C13.0237 7.06111 13.0883 6.96456 13.1322 6.85825C13.1761 6.75194 13.1984 6.63798 13.198 6.52297C13.198 6.29055 13.1064 6.07043 12.9409 5.905ZM7.76612 10.8679H6.23487V8.07883H7.76612V10.8679ZM10.7452 6.41496V10.8679H8.64112V7.75071C8.64112 7.44856 8.39639 7.20383 8.09425 7.20383H5.90675C5.6046 7.20383 5.35987 7.44856 5.35987 7.75071V10.8679H3.25577V6.41496H1.94327L7.00186 1.36047L7.31768 1.67629L12.0591 6.41496H10.7452Z" fill="#1F381C" fill-opacity="0.6"/>
</svg>
