<svg width="28" height="28" fill="none" xmlns="http://www.w3.org/2000/svg"><path d="M10.5.113c-.107.107-.113.186-.113 2.484v2.37h-5.08c-5.008 0-5.081 0-5.194.114C0 5.194 0 5.267 0 16.484s0 11.29.113 11.403C.226 28 .299 28 7.463 28h7.243l1.45-1.456c1.446-1.44 1.457-1.457 1.457-1.694 0-.316-.147-.463-.463-.463-.237 0-.254.017-1.598 1.355l-1.36 1.355H11.29v-1.242c0-1.169-.005-1.248-.113-1.355-.073-.073-.186-.113-.338-.113-.153 0-.266.04-.339.113-.107.107-.113.186-.113 1.355v1.242H.903v-8.58h9.484v1.241c0 1.169.006 1.248.113 1.355.152.152.525.152.677 0 .113-.113.113-.186.113-3.274s0-3.162-.113-3.274c-.152-.153-.525-.153-.677 0-.107.107-.113.186-.113 1.58v1.468H.903V5.87h9.484v2.597c0 2.523.006 2.602.113 2.71.073.073.186.112.339.112.152 0 .265-.04.338-.113.113-.112.113-.186.113-5.193V.904h15.807v16.709h-2.371c-2.298 0-2.377.006-2.484.113-.113.113-.113.186-.113 4.742v4.629h-1.92c-1.845 0-1.924.005-2.032.113-.152.152-.152.525 0 .677.108.107.187.113 2.371.113 2.185 0 2.264-.006 2.371-.113.113-.113.113-.186.113-4.742v-4.629h2.371c2.298 0 2.377-.005 2.484-.113.113-.113.113-.186.113-9.145s0-9.032-.113-9.145C27.774 0 27.701 0 19.193 0c-8.507 0-8.58 0-8.693.113z" fill="url(#paint0_linear_89_12171)"/><defs><linearGradient id="paint0_linear_89_12171" x1="0" y1="28" x2="11.076" y2="-1.112" gradientUnits="userSpaceOnUse"><stop stop-color="#DFBD69"/><stop offset=".531" stop-color="#FEF7C0"/><stop offset="1" stop-color="#926F34"/></linearGradient></defs></svg>