<svg width="28" height="28" fill="none" xmlns="http://www.w3.org/2000/svg"><path d="M1.294 1.3C.025 2.567 0 2.598 0 2.854c0 .206.031.287.163.387.343.269.468.206 1.35-.662l.8-.793V12.45c0 7.659.018 10.751.068 10.988.225 1.05 1.119 1.943 2.169 2.168.237.05 3.331.069 10.994.069h10.668l-.793.8c-.675.68-.794.83-.794 1a.52.52 0 00.525.524c.231 0 .3-.056 1.544-1.3C27.962 25.433 28 25.39 28 25.146s-.038-.287-1.3-1.55c-1.225-1.217-1.313-1.293-1.531-1.293-.306 0-.544.225-.544.507 0 .174.106.312.794 1.005l.793.8H15.556c-12.137 0-11.012.056-11.625-.556-.612-.612-.556.512-.556-11.62V1.787l.8.793c.694.687.831.793 1.006.793.282 0 .506-.237.506-.543 0-.219-.075-.306-1.293-1.53C3.13.036 3.087 0 2.844 0c-.244 0-.288.037-1.55 1.3zM7.756.163a.505.505 0 000 .668L7.881 1l8.825.012 8.825.019.32.144c.4.18.787.574.974.98l.144.313.019 8.82.018 8.822.163.125a.505.505 0 00.669 0L28 20.11v-8.89c0-7.953-.012-8.92-.1-9.227a2.84 2.84 0 00-1.85-1.88C25.694.006 25.263 0 16.781 0h-8.9l-.125.163z" fill="#113406"/><path d="M21.044 5.31a2.033 2.033 0 00-1.525 1.774c-.031.319-.025.356.156.531.2.206.375.238.594.119.2-.1.287-.244.294-.444 0-.28.156-.574.406-.762.556-.43 1.35-.081 1.45.637a.751.751 0 01-.063.431c-.05.1-.606.731-1.23 1.4-1.207 1.287-1.376 1.505-1.376 1.737 0 .256.188.562.413.668.18.088.425.1 1.625.081 1.4-.018 1.412-.018 1.53-.168.163-.2.157-.575-.012-.731-.112-.1-.262-.125-1.062-.15l-.938-.031.913-.969c1.019-1.087 1.212-1.4 1.262-2.018.07-.83-.33-1.555-1.056-1.911-.437-.213-.987-.288-1.381-.194zM8.781 8.109a.62.62 0 00-.262.156l-.144.125v5.048c0 2.774.019 5.091.037 5.148.05.118.344.28.525.28.075 0 .22-.08.32-.18l.18-.182v-7.727l.15-.313c.313-.675 1.038-1.056 1.726-.918.187.044.456.15.593.25.294.2.625.718.681 1.056.02.13.038 1.911.038 3.96 0 4.167-.025 3.955.444 4.03.181.03.256.006.406-.119l.181-.156.031-3.96c.026-2.893.05-4 .107-4.124.112-.25.512-.669.768-.8.763-.387 1.694-.075 2.094.713l.188.374.031 3.917c.031 3.642.038 3.936.144 4.036.162.162.569.144.744-.031l.143-.144.019-3.636c.012-2.286-.006-3.817-.05-4.13-.081-.63-.288-1.074-.694-1.505-1.006-1.062-2.706-1.106-3.75-.093l-.306.287-.256-.262c-.769-.781-2.05-.988-3.019-.475-.175.093-.338.175-.362.187-.032.013-.05-.087-.05-.225 0-.406-.282-.656-.657-.587z" fill="#113406"/></svg>