<svg width="22" height="30" fill="none" xmlns="http://www.w3.org/2000/svg"><path d="M9.368.074c-2.01.328-3.828 1.137-5.33 2.374-.496.41-1.422 1.366-1.795 1.859C1.3 5.55.543 7.214.233 8.75c-.349 1.695-.308 2.99.135 4.538 1.03 3.605 4.41 9.169 9.366 15.406 1.381 1.741 1.148 1.741 2.529 0 4.951-6.237 8.335-11.8 9.366-15.4.449-1.56.484-2.75.14-4.514-.326-1.653-1.153-3.412-2.237-4.749-.43-.527-1.421-1.489-1.951-1.882A11.281 11.281 0 0013.119.156c-.81-.164-2.954-.21-3.751-.082zm2.941.739c4.136.533 7.602 3.64 8.616 7.72.337 1.349.396 2.762.163 3.811-.647 2.92-3.053 7.27-7.025 12.704-1.259 1.723-2.977 3.928-3.065 3.928-.087 0-1.91-2.334-3.15-4.046-3.974-5.463-6.38-9.842-6.956-12.656-.35-1.718.012-3.934.944-5.81a10.454 10.454 0 013.6-4.074A10.28 10.28 0 0112.309.813z" fill="#113406"/><path d="M9.892 5.784a5.246 5.246 0 00-3.675 2.908c-.338.715-.46 1.178-.513 1.905-.047.739.023 1.419.204 2.011 1.194 3.805 5.883 5.042 8.75 2.304 1.21-1.16 1.764-2.638 1.63-4.38-.175-2.32-1.905-4.267-4.211-4.748a5.825 5.825 0 00-2.185 0zm2.36.827c2.003.633 3.29 2.362 3.296 4.414 0 1.143-.355 2.11-1.106 3.013-.519.628-1.503 1.237-2.365 1.46-.554.147-1.655.147-2.185 0a4.743 4.743 0 01-3.239-3.054c-.227-.68-.267-1.782-.087-2.492.437-1.747 1.788-3.048 3.56-3.43.553-.122 1.607-.075 2.125.089z" fill="#113406"/></svg>