<svg width="23" height="28" fill="none" xmlns="http://www.w3.org/2000/svg"><path d="M.22.07a.682.682 0 00-.157.24C-.025.548-.02 27.445.069 27.702c.035.099.11.21.169.239.07.035 3.984.058 10.931.058 10.646 0 10.827 0 10.938-.11a.67.67 0 00.152-.31c.017-.105.023-5.162.017-11.23l-.017-11.042-2.655-2.654L16.95 0H8.632C2.069 0 .296.018.22.07zm16.001 3.232V5.67l.17.17.168.168h4.737v21.059H.996V.934h15.225v2.368zm2.683.052l1.663 1.663h-3.354V3.354c0-.916.005-1.662.017-1.662.006 0 .758.746 1.674 1.662z" fill="#113406"/><path d="M8.13 6.598c-1.534 1.418-2.91 2.7-3.062 2.853l-.28.285v3.64c0 2.007.018 3.693.035 3.745.105.269-.006.263 6.323.263 6.33 0 6.219.006 6.324-.263.017-.052.035-1.738.035-3.745v-3.64l-.274-.286a300.417 300.417 0 00-2.672-2.484c-1.313-1.214-2.567-2.369-2.788-2.573-.677-.63-.38-.81-3.64 2.205zm5.7 1.08l2.683 2.478v6.236H14.18v-2.887c0-3.051-.012-3.162-.263-3.261-.128-.047-5.413-.047-5.541 0-.251.099-.263.21-.263 3.26v2.888H5.78v-6.235l2.671-2.48a293.17 293.17 0 012.684-2.479c.011-.006 1.225 1.114 2.695 2.48zm-.642 6.118v2.596H9.105v-2.1h.589c.571 0 .589-.006.758-.169.187-.192.21-.338.082-.583-.111-.222-.175-.24-.852-.24h-.577v-2.1h4.083v2.596zM3.691 19.85c-.134.146-.169.438-.07.624.03.058.14.134.24.17.262.093 14.309.093 14.571 0 .216-.076.298-.205.298-.479a.427.427 0 00-.135-.32l-.134-.13H3.814l-.123.135zm.134 3.203c-.297.158-.361.572-.128.794l.134.128H18.48l.122-.134c.129-.134.17-.397.094-.595-.105-.268.099-.263-7.56-.263-5.093.006-7.228.024-7.31.07z" fill="#113406"/></svg>