<svg width="37" height="42" fill="none" xmlns="http://www.w3.org/2000/svg"><path d="M10.813.124C8.953.792 7.89 2.636 8.285 4.511c.113.547.427 1.215.74 1.561.13.153.218.298.194.322-.024.032-.225.137-.45.234l-.395.185-.185-.193c-.29-.306-.95-.717-1.481-.918-.668-.25-1.723-.258-2.447-.008-1.28.443-2.157 1.4-2.463 2.68-.153.652-.153 1.2 0 1.795.145.555.54 1.32.805 1.57l.193.176-.563.282c-1.03.515-1.779 1.393-2.044 2.399-.097.37-.121.95-.121 2.607 0 1.996.008 2.15.169 2.48.12.24.282.418.54.57l.377.218 17.144.024c12.185.016 17.247-.008 17.497-.064.475-.121.78-.346.982-.74.153-.307.16-.435.137-2.713l-.024-2.39-.298-.612a4.18 4.18 0 00-1.795-1.787c-.266-.129-.499-.241-.515-.258-.016-.016.08-.152.225-.313.918-1.055 1.07-2.769.362-4.17-.297-.57-1.038-1.28-1.666-1.577-.66-.314-1.537-.45-2.237-.338-.636.105-1.53.54-1.996.966l-.346.322-.427-.21-.434-.209.313-.442a3.6 3.6 0 00.7-1.948c.113-1.602-.691-3.002-2.124-3.686-.62-.298-.636-.298-1.642-.298-.998 0-1.014 0-1.61.298-1.601.796-2.438 2.479-2.076 4.185.112.54.499 1.32.797 1.634l.241.241-.483.217-.475.21-.185-.201c-.507-.54-1.465-.998-2.326-1.103-.95-.12-2.237.306-2.962.982l-.346.33-.426-.21-.435-.209.314-.442a3.602 3.602 0 00.7-1.948c.113-1.602-.7-3.002-2.14-3.694-.572-.274-.669-.29-1.498-.314-.692-.016-.973.016-1.287.12zM12.97 1.55c.41.169.925.668 1.167 1.127.177.346.217.515.217 1.054 0 .54-.04.708-.217 1.055-.338.635-.966 1.142-1.586 1.28a2.424 2.424 0 01-2.72-1.313c-.185-.37-.226-.563-.226-1.022.008-1.754 1.73-2.865 3.365-2.181zm13.119.016c1.376.716 1.754 2.568.764 3.694-1.183 1.336-3.203 1.079-3.984-.507-.7-1.424.218-3.147 1.803-3.388.435-.064 1.07.032 1.417.201zM6.483 7.12c1.48.716 1.827 2.559.708 3.798-.628.7-1.787.95-2.632.564-.604-.274-.982-.636-1.248-1.175-.313-.636-.313-1.473-.008-2.077.628-1.215 1.988-1.69 3.18-1.11zm12.998-.033c.555.234 1.15.918 1.32 1.497.241.837.04 1.658-.572 2.334-.627.7-1.787.95-2.632.564-.965-.443-1.472-1.207-1.472-2.197.008-1.771 1.73-2.898 3.356-2.198zm13.038 0c.556.234 1.151.918 1.32 1.497.58 1.996-1.48 3.751-3.332 2.833-.885-.442-1.336-1.167-1.336-2.132 0-1.771 1.723-2.898 3.348-2.198zm-18.439.588c.25.08.531.201.636.282.17.128.177.16.089.555a3.5 3.5 0 00.032 1.658c.145.555.539 1.32.805 1.57l.193.176-.58.29c-1.03.507-1.827 1.481-2.06 2.52-.048.193-.089 1.271-.089 2.382v2.036h-2.253v-2.085c0-1.819-.016-2.149-.153-2.575-.306-.99-1.046-1.827-2.036-2.302l-.54-.257.234-.226c.281-.274.676-1.062.805-1.642.096-.418.072-1.432-.049-1.843-.048-.153.008-.201.41-.394.629-.282 1.12-.338 2.737-.314 1.039.016 1.473.056 1.82.169zm13.039 0c.25.08.531.201.628.274.169.128.169.152.072.708a3.295 3.295 0 00-.008 1.159c.105.644.531 1.61.861 1.915l.201.185-.58.29c-1.046.515-1.874 1.562-2.068 2.6-.048.233-.08 1.296-.08 2.374v1.964H23.89v-2.076c0-2.19-.048-2.536-.402-3.236-.274-.531-1.087-1.304-1.69-1.61a9.17 9.17 0 01-.556-.29c-.016-.016.089-.16.234-.33.33-.37.611-.973.732-1.553.089-.426.056-1.449-.056-1.835-.048-.153.008-.201.41-.394.628-.282 1.12-.338 2.737-.314 1.038.016 1.473.056 1.819.169zM7.263 13.147c.95.201 1.61.676 1.98 1.432l.242.5-.017 2.012-.024 2.012H1.476V17.01c0-2.02.008-2.109.185-2.43.379-.717 1.111-1.248 1.964-1.433.7-.153 2.922-.153 3.638 0zm13.49.104c.853.33 1.472.95 1.682 1.667.064.217.088.957.072 2.253l-.024 1.932h-7.968V17.01c0-2.02.008-2.109.185-2.43.225-.427.628-.838 1.095-1.111.611-.362 1.199-.443 2.945-.41 1.377.015 1.626.04 2.012.193zm13.038 0c.853.33 1.473.95 1.682 1.667.064.217.089.957.072 2.253l-.024 1.932h-7.968l-.024-1.948c-.024-2.278.032-2.535.684-3.187.781-.78 1.417-.95 3.566-.91 1.376.016 1.626.04 2.012.194z" fill="url(#paint0_linear_163_37)"/><path d="M.671 22.226c-.684.386-.796.934-.555 2.809.974 7.766 6.696 14.044 14.367 15.759 2.462.547 5.52.547 8.112-.016 1.554-.33 3.461-1.055 4.878-1.852 5.247-2.945 8.636-7.96 9.416-13.932.234-1.818.121-2.382-.563-2.768l-.322-.185H.993l-.322.185zm17.425 1.577c0 .62.161 1.602.33 2.077.218.563.845 1.247 1.4 1.513.974.459 2.077.443 4.79-.08.772-.145 1.601-.29 1.835-.314.458-.057.99.048 1.134.225.057.064.17.58.25 1.15.314 2.037.74 3.888 1.408 6.126.202.676.347 1.263.322 1.312-.032.04-.338.29-.692.563-2.294 1.747-5.127 2.922-8.04 3.332-1.224.17-3.453.17-4.668 0-1.57-.225-3.751-.853-4.79-1.384l-.289-.153.338-.475c.491-.716.684-.901 1.44-1.392 1.144-.74 2.19-1.578 2.987-2.407.877-.91 1.368-1.593 1.714-2.398.21-.491.241-.66.25-1.328 0-.676-.025-.821-.226-1.248-.628-1.344-2.27-2.1-5.32-2.455-.74-.088-1.706-.233-2.133-.33-.426-.088-1.183-.25-1.682-.354-1.843-.386-3.002-.33-4.088.201-.588.29-1.417 1.03-1.844 1.65l-.313.451-.113-.306c-.306-.869-.74-3.267-.74-4.096v-.274h16.74v.394zm17.546-.128c0 .145-.04.571-.08.941-.435 3.606-2.045 7.155-4.347 9.602l-.467.5-.217-.685c-.547-1.739-1.078-4.12-1.368-6.117-.161-1.119-.378-1.577-.91-1.931-.643-.427-1.617-.46-3.396-.121-.596.112-1.392.265-1.77.338a11.87 11.87 0 01-1.45.137c-.667.008-.812-.016-1.166-.194-.66-.33-.886-.804-.982-2.036l-.049-.7h16.202v.266zm-26.818 3.59c1.473.33 1.94.402 3.638.61 1.755.21 2.93.613 3.558 1.224.571.556.603 1.24.096 2.198-.603 1.15-1.843 2.366-3.678 3.597-1.103.74-1.891 1.505-2.277 2.19-.13.225-.274.41-.322.41-.049 0-.41-.218-.805-.475-1.996-1.328-3.88-3.252-5.103-5.223-.435-.7-1.046-1.892-1.046-2.037 0-.209.796-1.416 1.223-1.85 1.095-1.12 2.004-1.24 4.716-.645z" fill="url(#paint1_linear_163_37)"/><defs><linearGradient id="paint0_linear_163_37" x1=".068" y1="20.5" x2="5.01" y2="-2.854" gradientUnits="userSpaceOnUse"><stop stop-color="#DFBD69"/><stop offset=".531" stop-color="#FEF7C0"/><stop offset="1" stop-color="#926F34"/></linearGradient><linearGradient id="paint1_linear_163_37" x1="0" y1="41.202" x2="4.326" y2="19.248" gradientUnits="userSpaceOnUse"><stop stop-color="#DFBD69"/><stop offset=".531" stop-color="#FEF7C0"/><stop offset="1" stop-color="#926F34"/></linearGradient></defs></svg>