<svg width="46" height="46" fill="none" xmlns="http://www.w3.org/2000/svg"><path d="M24.389.104c-1.105.36-1.043.305-8.66 7.9-8.03 8.019-7.734 7.686-7.734 8.783.009 1.708 1.625 2.858 3.233 2.292a5.61 5.61 0 01.414-.135c.018 0 .036 1.474.036 3.281 0 3.146.009 3.28.17 3.37.252.127.512.109.674-.053.126-.117.144-.593.144-3.838V18l6.468-6.472L25.6 5.056l6.513 6.517 6.513 6.517v4.998c0 3.937.026 5.025.116 5.15.18.243.701.162.845-.125.09-.171.117-1.277.117-4.648v-4.422l.43.189c1.294.584 2.857-.081 3.315-1.412.171-.52.126-1.393-.107-1.878-.19-.396-14.616-14.84-15.245-15.263-.691-.467-1.293-.638-2.362-.674-.647-.018-1.114.018-1.348.099zm2.38 1.096c.225.09.566.27.764.405.197.135 3.602 3.496 7.563 7.47 7.806 7.82 7.519 7.505 7.303 8.251-.107.387-.575.863-.96.998-.755.242-.351.602-8.247-7.299-6.36-6.355-7.312-7.272-7.546-7.272-.233 0-1.168.899-7.41 7.137-5.804 5.798-7.205 7.155-7.493 7.245-.485.153-.934 0-1.338-.44-.386-.423-.494-.881-.323-1.313.17-.413 14.193-14.499 14.785-14.85 1.007-.583 1.968-.7 2.902-.332z" fill="url(#paint0_linear_89_11742)"/><path d="M25.036 12.743c-1.024.18-1.995.917-2.462 1.87-.224.467-.251.602-.251 1.456 0 .89.018.988.296 1.546a3.36 3.36 0 001.725 1.618c.377.152.692.197 1.302.206.728 0 .872-.026 1.41-.287a3.479 3.479 0 001.663-1.627c.215-.45.242-.611.251-1.411 0-.836-.018-.944-.296-1.502a3.398 3.398 0 00-3.638-1.87zm1.608 1.24c.43.216.988.818 1.167 1.24.18.423.153 1.349-.045 1.79-.556 1.231-1.958 1.752-3.135 1.159-1.599-.8-1.787-2.984-.341-3.973.243-.153.557-.324.719-.377.413-.126 1.23-.045 1.635.161z" fill="url(#paint1_linear_89_11742)"/><path d="M20.723 22.827c-.583.341-.691.701-.691 2.4 0 .836.036 1.537.09 1.636.062.117.188.17.404.17.52 0 .584-.188.584-1.77 0-1.34 0-1.375.215-1.51.18-.126.737-.135 4.438-.117 3.324.018 4.258.054 4.348.144.09.09.125.746.143 2.777.018 1.744.063 2.715.126 2.787.153.188.584.144.737-.081.125-.17.143-.593.143-2.814 0-2.535-.009-2.624-.197-3.01-.117-.226-.341-.495-.512-.603l-.306-.207h-4.59c-4.554 0-4.59.01-4.932.198z" fill="url(#paint2_linear_89_11742)"/><path d="M.117 27.133c-.09.09-.117 1.78-.117 7.83 0 7.685 0 7.703.189 7.802.125.072 1.024.09 2.847.072 2.56-.027 2.686-.036 3.126-.234.566-.26 1.222-.917 1.474-1.474.206-.477.098-.45 1.248-.234.638.117.79.18 6.432 2.499 5.48 2.256 5.596 2.301 6.495 2.48.97.19 2.847.162 3.808-.053.908-.198 1.94-.593 2.66-1.016 1.913-1.123 16.744-10.39 16.986-10.616.719-.665.952-1.95.512-2.885-.251-.548-1.123-1.375-1.778-1.699-1.114-.54-2.453-.638-3.567-.27-.296.1-1.724.962-3.593 2.158l-3.108 1.986-.063-.296c-.18-.81-.817-1.618-1.599-2.023l-.404-.216-4.536-.044c-5.157-.054-4.914-.018-5.579-.81-1.123-1.348-1.698-1.815-2.874-2.372-1.258-.594-1.536-.639-4.393-.639-2.174 0-2.65.027-3.144.162-.71.189-1.788.701-2.695 1.259-.368.233-.692.422-.728.422-.036 0-.09-.099-.116-.216-.081-.332-.845-1.123-1.348-1.384l-.458-.243-2.785-.027c-2.138-.018-2.811 0-2.892.081zm5.524 1.034c.423.17.79.521 1.015.962.171.323.171.548.153 5.842l-.027 5.51-.242.378a2.49 2.49 0 01-.674.62l-.431.252-2.22.027-2.227.036V28.023h2.156c1.752 0 2.228.027 2.497.144zm11.274 0c1.428.323 2.542 1.025 3.647 2.319.575.665.853.908 1.249 1.106l.512.251 4.51.045 4.5.045.395.27c1.33.944 1.213 2.714-.234 3.487l-.368.198-6.54.027-6.53.027-.144.216c-.117.189-.126.252-.018.467l.117.252h13.474l.566-.306c.638-.341 1.006-.737 1.303-1.384.188-.413.287-.485 3.476-2.508 1.806-1.141 3.45-2.157 3.656-2.247a3.463 3.463 0 013.908.81c.683.727.736 1.428.17 2.076-.188.224-15.495 9.797-17.085 10.696-1.644.917-3.917 1.205-5.803.728-.35-.099-3.108-1.177-6.117-2.418-5.516-2.265-6.109-2.48-7.106-2.58l-.548-.063v-9.68l.45-.225c.25-.126.682-.378.951-.548.764-.495 1.725-.917 2.372-1.061.88-.189 4.384-.189 5.237 0z" fill="url(#paint3_linear_89_11742)"/><defs><linearGradient id="paint0_linear_89_11742" x1="7.993" y1="28.382" x2="17.385" y2="-2.547" gradientUnits="userSpaceOnUse"><stop stop-color="#DFBD69"/><stop offset=".531" stop-color="#FEF7C0"/><stop offset="1" stop-color="#926F34"/></linearGradient><linearGradient id="paint1_linear_89_11742" x1="22.323" y1="19.439" x2="25.02" y2="12.453" gradientUnits="userSpaceOnUse"><stop stop-color="#DFBD69"/><stop offset=".531" stop-color="#FEF7C0"/><stop offset="1" stop-color="#926F34"/></linearGradient><linearGradient id="paint2_linear_89_11742" x1="20.032" y1="29.462" x2="21.819" y2="21.743" gradientUnits="userSpaceOnUse"><stop stop-color="#DFBD69"/><stop offset=".531" stop-color="#FEF7C0"/><stop offset="1" stop-color="#926F34"/></linearGradient><linearGradient id="paint3_linear_89_11742" x1="0" y1="46.001" x2="3.452" y2="23.981" gradientUnits="userSpaceOnUse"><stop stop-color="#DFBD69"/><stop offset=".531" stop-color="#FEF7C0"/><stop offset="1" stop-color="#926F34"/></linearGradient></defs></svg>