<svg width="55" height="54" fill="none" xmlns="http://www.w3.org/2000/svg"><path d="M14.981.103C9.354.7 5.187 5.896 5.871 11.501c.266 2.244 1.184 4.234 2.687 5.826 1.05 1.105 1.935 1.757 3.195 2.343 2.852 1.338 6.113 1.294 8.955-.121 2.299-1.14 3.957-2.963 4.996-5.484.321-.784.365-.829 2.3-2.52 1.083-.94 2.023-1.714 2.09-1.714.054 0 2.177 1.017 4.697 2.267 2.952 1.459 4.721 2.266 4.942 2.266.299 0 .53-.2 1.725-1.437.762-.796 2.874-2.996 4.698-4.898l3.316-3.46.056 1.095c.066 1.238.166 1.404.906 1.404.509 0 .818-.277.918-.796.044-.2.055-1.26.033-2.344l-.033-1.968-.31-.265c-.31-.265-.354-.265-2.454-.265-1.36 0-2.244.044-2.421.121-.509.232-.63.951-.243 1.482.133.176.32.232 1.094.276l.94.055-4.234 4.422c-2.333 2.432-4.29 4.411-4.345 4.4-.066-.011-2.133-1.017-4.62-2.244-3.328-1.636-4.61-2.211-4.898-2.211-.354 0-.586.166-1.901 1.315l-1.515 1.316-.077-.884c-.1-1.194-.42-2.377-.951-3.494-1.183-2.553-3.471-4.576-6.124-5.428-.874-.287-2.764-.597-3.339-.552-.11.01-.542.055-.973.099zm3.217 2.112c3.305.829 5.815 3.714 6.257 7.207.232 1.857-.298 4.024-1.37 5.572-1.393 2.012-3.35 3.261-5.738 3.648-.95.155-1.271.166-2.167.055-3.515-.442-6.345-2.918-7.23-6.312-.287-1.105-.31-2.863-.044-3.936.995-4.012 4.731-6.787 8.733-6.5.431.033 1.128.155 1.56.266z" fill="url(#paint0_linear_163_70)"/><path d="M15.38 3.818a1.213 1.213 0 00-.233.719c0 .32-.044.43-.177.43-.1 0-.475.156-.84.355-.752.398-1.349 1.094-1.537 1.79-.154.586-.077 1.791.155 2.245.476.906 1.537 1.536 3.25 1.901.553.122 1.161.299 1.338.387.796.409 1.028 1.238.509 1.758-.387.387-.951.563-1.77.563-.961-.01-1.558-.353-1.945-1.138-.343-.719-.553-.896-1.05-.896a.927.927 0 00-.918.907c0 .995 1.117 2.31 2.333 2.752.619.233.652.255.652.62 0 .276.089.475.32.707.366.354.642.398 1.106.155.354-.177.453-.365.453-.873 0-.332.034-.365.598-.542.806-.254 1.591-.796 2-1.382.31-.453.332-.553.332-1.492 0-1.14-.122-1.46-.796-2.134-.53-.53-1.514-.984-2.764-1.25-1.138-.242-1.591-.441-1.846-.806-.42-.597-.022-1.493.785-1.758 1.006-.332 2.078.044 2.554.884.298.531.53.675 1.061.675.464 0 .84-.41.84-.929 0-.763-1.105-1.99-2.144-2.377-.531-.199-.564-.232-.597-.63-.056-.608-.387-.928-.973-.928-.376 0-.52.055-.697.287z" fill="url(#paint1_linear_163_70)"/><path d="M46.123 10.086l-.243.254-.022 10.922-.034 10.923-1.293.762-1.304.752V20.865l-.332-.321-.32-.332-2.986.034c-2.94.033-2.995.033-3.239.287l-.254.254-.033 8.535c-.011 4.687-.066 8.567-.11 8.611a4.906 4.906 0 01-.664.299l-.575.232.155-.31c.31-.597.431-1.592.288-2.299-.188-.884-.476-1.426-1.117-2.045l-.542-.53v-7.916c0-8.38 0-8.413-.497-8.612-.1-.033-1.515-.066-3.14-.066-2.819 0-2.963.01-3.195.22-.132.134-.254.244-.265.255-.022.011-.055 3.162-.088 6.998l-.056 6.976-1.238-.443-1.25-.442v-4.079l-.32-.32-.32-.321h-2.974c-2.156.01-3.007.044-3.14.143-.387.288-.43.597-.43 2.654 0 1.768-.023 2.056-.178 2.111-.1.033-1.967 1.106-4.167 2.377-2.2 1.271-4.069 2.333-4.157 2.355-.088.022-.332-.277-.608-.741-.641-1.072-1.16-1.426-2.2-1.47l-.796-.034-1.713.951C.919 34.916.544 35.203.212 35.833c-.265.52-.287 1.614-.033 2.111.1.2 2.023 3.615 4.267 7.595 4.477 7.938 4.566 8.06 5.616 8.28.829.177 1.349.011 3.128-.995 1.758-.995 2.2-1.36 2.466-2.045.31-.807.176-1.603-.42-2.642l-.52-.873.818-.476.807-.475 6.61 1.78c3.682.984 6.999 1.813 7.485 1.868a7.533 7.533 0 004.433-.862c1.271-.697 18.827-11.564 19.114-11.84.166-.155.464-.608.663-1.006.332-.674.354-.785.354-1.935 0-1.116-.022-1.26-.31-1.79-.386-.741-.84-1.26-1.337-1.526l-.398-.221V20.599c0-10.137 0-10.181-.232-10.48l-.221-.287h-3.074c-3.062 0-3.073 0-3.305.254zm4.953 10.944v9.33l-.885.133c-.763.11-1.492.32-2.233.62-.188.077-.199-.432-.199-9.662v-9.74h3.316v9.32zm-19.457 4.6v7.063l-.464-.1a42.757 42.757 0 01-1.714-.453l-1.25-.342V18.566h3.428v7.063zm9.706 2.84l-.033 6.357-1.68.984-1.692.984V22.103h3.427l-.022 6.367zm-19.434.034v1.105l-.41-.077c-.552-.1-1.835-.1-2.487 0l-.53.088v-2.211h3.427v1.095zm1.382 3.603c3.338 1.183 4.974 1.703 6.632 2.112 2.289.564 2.333.575 2.709.884.453.387.685.862.685 1.426 0 .863-.508 1.493-1.37 1.725-.642.177-1.427.01-5.064-1.006-1.282-.365-2.476-.663-2.664-.663-.918 0-1.205 1.304-.376 1.735.299.166 5.285 1.526 6.578 1.802 1.559.343 3.648.41 4.665.166 1.072-.254 1.349-.398 7.164-3.792 5.649-3.283 6.655-3.814 7.86-4.068 1.802-.398 2.951.254 3.062 1.714.055.784-.1 1.315-.509 1.69-.464.443-18.738 11.653-19.456 11.94-.53.21-.83.254-1.957.243h-1.327l-5.97-1.614a965.33 965.33 0 00-6.92-1.868l-.961-.243-1.128.641c-.895.498-1.15.608-1.227.486-.785-1.238-4.743-8.434-4.676-8.5.21-.2 7.893-4.6 8.634-4.942 1.956-.907 2.708-.885 5.616.132zM5.55 35.004c.089.11 2.012 3.471 4.279 7.484 2.587 4.577 4.101 7.362 4.079 7.506-.044.332-2.874 1.968-3.339 1.924-.287-.022-.563-.476-4.499-7.43-2.874-5.062-4.19-7.494-4.168-7.671.022-.21.321-.431 1.526-1.128.818-.464 1.592-.862 1.725-.862.121-.011.31.077.397.177z" fill="url(#paint2_linear_163_70)"/><path d="M3.86 36.905c-.43.442-.453 1.16-.033 1.658.873 1.04 2.51 0 1.99-1.25-.21-.497-.575-.729-1.15-.729-.387 0-.541.066-.807.32z" fill="url(#paint3_linear_163_70)"/><defs><linearGradient id="paint0_linear_163_70" x1="5.798" y1="20.643" x2="9.908" y2="-3.22" gradientUnits="userSpaceOnUse"><stop stop-color="#DFBD69"/><stop offset=".531" stop-color="#FEF7C0"/><stop offset="1" stop-color="#926F34"/></linearGradient><linearGradient id="paint1_linear_163_70" x1="12.162" y1="17.226" x2="19.694" y2="5.96" gradientUnits="userSpaceOnUse"><stop stop-color="#DFBD69"/><stop offset=".531" stop-color="#FEF7C0"/><stop offset="1" stop-color="#926F34"/></linearGradient><linearGradient id="paint2_linear_163_70" x1="0" y1="53.881" x2="14.618" y2="5.907" gradientUnits="userSpaceOnUse"><stop stop-color="#DFBD69"/><stop offset=".531" stop-color="#FEF7C0"/><stop offset="1" stop-color="#926F34"/></linearGradient><linearGradient id="paint3_linear_163_70" x1="3.524" y1="38.988" x2="4.479" y2="36.492" gradientUnits="userSpaceOnUse"><stop stop-color="#DFBD69"/><stop offset=".531" stop-color="#FEF7C0"/><stop offset="1" stop-color="#926F34"/></linearGradient></defs></svg>