<svg width="46" height="46" fill="none" xmlns="http://www.w3.org/2000/svg"><path d="M22.428.076c-.06.04-1.206 1.726-2.531 3.735-2.501 3.796-2.672 4.119-2.23 4.36.11.051.743.102 1.406.102h1.205l.03 2.534.03 2.533.241.192c.232.192.382.202 2.22.172 1.497-.02 2.019-.06 2.14-.172.15-.12.17-.444.17-2.695V8.273h1.296c1.396 0 1.617-.07 1.617-.525 0-.202-4.41-7.026-4.851-7.531-.211-.222-.523-.283-.743-.141zm3.886 7.036c0 .03-.442.05-.974.05-1.426 0-1.336-.191-1.336 2.847v2.504h-2.51V10.06c0-3.08.08-2.898-1.356-2.898h-1.045l1.828-2.776 1.828-2.776 1.778 2.726c.984 1.504 1.787 2.746 1.787 2.776z" fill="url(#paint0_linear_89_11724)"/><path d="M38.186 5.043c-2.47.252-4.52 1.272-5.142 2.564-.201.424-.201.515-.201 17.888 0 16.758.01 17.474.19 17.858.503 1.1 1.98 1.989 4.028 2.433 1.256.272 3.646.242 4.922-.05 1.787-.404 3.324-1.363 3.816-2.373.201-.424.201-.515.201-17.858 0-17.303 0-17.444-.2-17.868-.834-1.777-4.22-2.938-7.614-2.594zm3.385 1.312c2.31.474 3.746 1.726 3.153 2.746-.391.686-1.667 1.393-3.023 1.706-2.029.454-4.58.212-6.217-.586-1.095-.535-1.657-1.251-1.496-1.897.19-.747 1.637-1.626 3.224-1.969 1.245-.262 3.113-.262 4.359 0zm-5.173 5.441c2.581.677 5.474.444 7.573-.605l.924-.465v1.05c0 1.181-.08 1.434-.653 1.938-.753.666-2.018 1.12-3.716 1.323-2.16.272-4.78-.323-5.926-1.323-.572-.505-.652-.757-.652-1.948v-1.06l.833.444c.452.242 1.175.535 1.617.646zm-.823 3.786c1.175.444 2.21.605 3.846.605 2.13 0 3.686-.363 4.972-1.16l.452-.283.03 1.08c.02.596-.02 1.252-.08 1.454-.191.676-1.236 1.373-2.722 1.807-.954.272-3.254.373-4.39.191-1.576-.252-3.083-.999-3.535-1.746-.17-.273-.2-.505-.2-1.555v-1.241l.482.303c.27.161.783.413 1.145.545zm.984 4.633c2.631.626 5.614.344 7.613-.737l.723-.393v1.16c0 1.353-.11 1.686-.713 2.161-.482.394-1.456.828-2.35 1.07-.984.262-3.696.273-4.77.01-1.327-.313-2.502-.969-2.914-1.635-.17-.283-.2-.505-.2-1.535v-1.211l.934.464c.502.253 1.265.545 1.677.646zM34.6 23.77c1.186.706 2.762 1.07 4.771 1.08 2.06 0 3.967-.444 5.042-1.181.2-.142.392-.253.422-.253.1 0 .07 2.292-.03 2.555-.15.393-.794.959-1.457 1.282-2.37 1.17-6.337 1.03-8.366-.293-.924-.596-1.034-.848-1.034-2.322 0-.666.02-1.222.04-1.222s.291.162.612.354zm10.245 5.875c-.08.434-.743 1.07-1.497 1.444-1.004.494-2.059.726-3.575.777-2.049.07-3.726-.323-4.962-1.171-.723-.505-.863-.828-.863-1.969 0-.535.02-.969.05-.969.03 0 .26.131.522.293.653.404 2.1.878 3.134 1.03 1.205.171 3.555.07 4.58-.202.873-.232 2.29-.858 2.49-1.1.1-.122.131 0 .151.696.02.464 0 .99-.03 1.171zm-.05 4.482c-.171.414-.794.96-1.477 1.292-2.792 1.393-7.653.879-9.1-.959-.2-.252-.22-.424-.25-1.575-.02-.706-.02-1.292.01-1.292s.291.152.602.334c1.547.938 4.57 1.342 6.93.928 1.035-.181 2.38-.656 2.933-1.04l.402-.282.03 1.16c.01.687-.02 1.273-.08 1.434zm-9.853 2.312c.361.182 1.085.444 1.607.585.874.233 1.135.253 2.872.253 1.738 0 1.999-.02 2.873-.253.944-.252 1.768-.615 2.33-1.01l.271-.19v1.22c0 1.363-.07 1.596-.653 2.11-1.165 1.02-3.615 1.585-5.885 1.333-1.667-.182-2.973-.646-3.757-1.333-.582-.514-.652-.736-.652-2.12 0-1.16.01-1.221.18-1.08.09.091.462.303.814.485zm.502 4.553c2.812 1.05 6.67.848 8.879-.465l.572-.343v1.242c0 1.474-.09 1.686-1.054 2.332-1.085.737-2.562 1.09-4.47 1.09-1.989-.01-3.776-.505-4.71-1.302-.643-.556-.713-.767-.713-2.15v-1.222l.472.303c.26.172.723.394 1.024.515z" fill="url(#paint1_linear_89_11724)"/><path d="M6.287 12.634c-.522.707-4.62 7.006-4.72 7.268-.08.222-.06.313.09.475.161.192.302.212 1.477.212h1.285v2.564c0 2.544 0 2.574.221 2.726.191.13.573.161 2.21.161 1.858 0 1.999-.01 2.19-.202.19-.192.2-.333.2-2.726V20.59h1.286c.864 0 1.326-.04 1.406-.121.311-.313.12-.677-2.25-4.29-1.305-1.99-2.44-3.675-2.53-3.746-.282-.212-.603-.141-.865.202zm2.37 4.099l1.788 2.695-1.074.05c-1.025.05-1.085.06-1.205.303-.09.182-.131.919-.131 2.645v2.403H5.524v-2.514c0-2.16-.02-2.544-.16-2.675-.121-.121-.382-.162-1.156-.162-.542 0-.994-.02-.994-.05 0-.091 3.546-5.4 3.606-5.4.03 0 .864 1.22 1.838 2.705z" fill="url(#paint2_linear_89_11724)"/><path d="M20.92 18.105c-2.108.404-3.665 1.292-4.278 2.433l-.22.404V43.05l.27.474c.533.899 1.598 1.595 3.134 2.04 3.666 1.07 8.226.09 9.481-2.04l.272-.474V20.942l-.221-.414c-.513-.959-1.879-1.827-3.546-2.261-1.095-.283-3.776-.374-4.891-.162zm4.54 1.272c1.126.293 1.97.717 2.512 1.252.401.414.451.505.451.919 0 .414-.05.504-.451.918-.533.535-1.366.95-2.511 1.262-1.165.323-3.757.323-4.922 0-1.145-.313-1.978-.727-2.51-1.262-.402-.414-.453-.505-.453-.918 0-.404.05-.505.442-.909.693-.697 1.939-1.232 3.425-1.464.964-.151 3.094-.04 4.018.202zm-7.13 4.755c.512.313 1.737.696 2.712.848 2.42.404 5.353-.03 6.89-1.01l.542-.343.03.777c.07 1.616-.19 2.11-1.487 2.787-1.004.535-2.028.777-3.565.838-2.531.1-4.69-.556-5.615-1.717-.3-.373-.31-.434-.351-1.564l-.03-1.171.271.181c.16.101.432.273.603.374zm.24 4.18c.302.15.975.393 1.507.534.874.232 1.145.263 2.873.263 1.647.01 2.029-.02 2.782-.212.934-.243 1.998-.687 2.5-1.05l.312-.222-.03 1.322c-.04 1.292-.04 1.323-.352 1.706-1.747 2.18-8.014 2.322-10.113.212-.513-.525-.573-.737-.573-2.17v-1.05l.281.192c.15.11.512.323.814.474zm.061 4.34c2.722 1.252 7.231 1.09 9.39-.353l.453-.303.03 1.01c.01.554-.02 1.19-.08 1.423-.232.858-1.366 1.605-3.074 2.019-1.165.292-3.314.313-4.51.05-1.436-.323-2.661-.969-3.073-1.635-.21-.354-.24-.535-.281-1.646l-.03-1.252.331.223c.191.12.573.333.844.464zm-.703 3.927c1.808 1.242 5.464 1.615 8.195.858.724-.202 2.03-.808 2.15-1 .03-.05.1-.1.16-.1.121 0 .111 1.978-.02 2.453-.391 1.413-3.445 2.463-6.387 2.18-2.31-.212-4.148-1.12-4.44-2.19-.11-.364-.16-2.443-.06-2.443.02 0 .201.11.402.242zm1.125 4.906c.321.121.994.313 1.486.424 1.195.283 3.626.293 4.821.04 1.035-.232 2.23-.696 2.752-1.07l.412-.302v.827c0 .465-.05 1.01-.11 1.222-.392 1.413-3.516 2.483-6.388 2.19-2.37-.252-4.148-1.12-4.44-2.19-.06-.212-.11-.757-.11-1.212v-.827l.502.343a6.76 6.76 0 001.075.555z" fill="url(#paint3_linear_89_11724)"/><path d="M5.122 30.492c-1.677.191-3.364.858-4.228 1.675-.924.869-.894.636-.894 6.017 0 5.41-.03 5.22.934 6.077 2.501 2.272 8.899 2.261 11.31 0 .954-.898.913-.646.913-6.057 0-4.553-.01-4.744-.2-5.158-.884-1.827-4.34-2.958-7.835-2.554zm4.108 1.393c1.055.313 1.778.676 2.27 1.16.723.687.723 1.252 0 1.939-.502.495-1.225.848-2.32 1.171-.693.202-1.014.232-2.601.232s-1.909-.03-2.612-.232c-1.677-.485-2.812-1.343-2.812-2.13 0-.929 1.326-1.827 3.335-2.271 1.044-.233 3.746-.162 4.74.13zm-5.785 5.3c2.581.747 5.775.484 7.884-.646l.723-.394v1.06c0 1.221-.08 1.453-.713 1.999-.944.807-2.731 1.302-4.76 1.302-2.03 0-3.817-.495-4.761-1.302-.633-.546-.713-.778-.713-2v-1.06l.733.395a9.722 9.722 0 001.607.646zM2.33 40.849c1.306.636 3.536.949 5.384.757 1.697-.171 2.852-.525 3.977-1.231l.361-.222v1.261c0 1.474-.1 1.696-1.004 2.302-1.085.737-2.561 1.1-4.47 1.1-1.908 0-3.384-.363-4.469-1.1-.904-.606-1.004-.828-1.004-2.302v-1.261l.361.222c.191.13.583.343.864.474z" fill="url(#paint4_linear_89_11724)"/><defs><linearGradient id="paint0_linear_89_11724" x1="17.477" y1="13.717" x2="23.967" y2=".602" gradientUnits="userSpaceOnUse"><stop stop-color="#DFBD69"/><stop offset=".531" stop-color="#FEF7C0"/><stop offset="1" stop-color="#926F34"/></linearGradient><linearGradient id="paint1_linear_89_11724" x1="32.843" y1="45.974" x2="56.889" y2="25.687" gradientUnits="userSpaceOnUse"><stop stop-color="#DFBD69"/><stop offset=".531" stop-color="#FEF7C0"/><stop offset="1" stop-color="#926F34"/></linearGradient><linearGradient id="paint2_linear_89_11724" x1="1.521" y1="26.04" x2="8.026" y2="12.929" gradientUnits="userSpaceOnUse"><stop stop-color="#DFBD69"/><stop offset=".531" stop-color="#FEF7C0"/><stop offset="1" stop-color="#926F34"/></linearGradient><linearGradient id="paint3_linear_89_11724" x1="16.421" y1="46" x2="32.728" y2="25.868" gradientUnits="userSpaceOnUse"><stop stop-color="#DFBD69"/><stop offset=".531" stop-color="#FEF7C0"/><stop offset="1" stop-color="#926F34"/></linearGradient><linearGradient id="paint4_linear_89_11724" x1="0" y1="45.961" x2="6.923" y2="30.565" gradientUnits="userSpaceOnUse"><stop stop-color="#DFBD69"/><stop offset=".531" stop-color="#FEF7C0"/><stop offset="1" stop-color="#926F34"/></linearGradient></defs></svg>