<svg width="46" height="42" fill="none" xmlns="http://www.w3.org/2000/svg"><path d="M41.085.252c-2.328.615-39.88 9.78-40.278 9.825-.26.036-.529.136-.63.235C0 10.485 0 10.756 0 22.438c0 11.836 0 11.954.185 12.135.186.18.307.18 13.17.18s12.984 0 13.17-.18c.25-.245.25-.842 0-1.087-.186-.181-.307-.181-12.614-.181H1.484V11.571h43.032v11.41c0 11.293 0 11.41.186 11.592.12.117.306.18.556.18.25 0 .436-.063.556-.18.186-.181.186-.299.186-12.108 0-11.564-.01-11.926-.176-12.107-.12-.127-.575-1.72-1.438-5.017C43.691 2.678 43.08.433 43.032.333c-.24-.426-.603-.435-1.947-.081zm1.799 5.587c.593 2.282 1.076 4.175 1.076 4.21 0 .046-.306.073-.687.073h-.686l-.185-.706a79.103 79.103 0 01-.538-2.038c-.186-.742-.418-1.43-.501-1.54-.14-.162-.26-.19-.844-.198-.918 0-1.243-.19-1.614-.906-.194-.38-.352-.561-.528-.625-.306-.108.26-.235-14.477 3.342l-11.027 2.671-2.625-.018-2.625-.027 16.99-4.184c9.34-2.29 17.028-4.184 17.084-4.184.055-.009.566 1.784 1.187 4.13zm-4.934.344c.464.516 1.002.824 1.697.978l.557.127L40.5 8.5l.353 1.413.046.208-10.637-.009-10.647-.009 8.81-2.155c4.85-1.186 8.885-2.155 8.987-2.164.093-.01.334.172.538.398z" fill="url(#paint0_linear_163_55)"/><path d="M39.74 3.613c-.306.172-.417.371-.417.733 0 .453.26.707.724.707.482 0 .76-.263.76-.716 0-.199-.074-.434-.157-.543-.205-.226-.659-.317-.91-.181z" fill="url(#paint1_linear_163_55)"/><path d="M3.385 13.01c-.297.128-.436.345-.436.698 0 .444.315.76.76.76.946 0 1.067-1.34.14-1.493-.158-.019-.362-.01-.464.036z" fill="url(#paint2_linear_163_55)"/><path d="M5.388 13.192c-.102.1-.213.362-.24.58-.121.787-.604 1.258-1.41 1.376-.223.027-.492.136-.594.235-.167.163-.176.38-.176 7.055 0 6.674.01 6.89.176 7.054.102.1.37.208.594.235.806.118 1.289.589 1.41 1.377.027.217.138.48.24.58.177.171.427.171 10.564.171 10.266 0 10.387 0 10.572-.18.25-.245.25-.843 0-1.087-.185-.181-.306-.181-10.053-.181H6.603l-.065-.263c-.139-.634-1.168-1.64-1.817-1.775l-.27-.063V16.569l.27-.063c.649-.136 1.678-1.141 1.817-1.775l.065-.263h32.794l.065.263c.139.634 1.168 1.64 1.817 1.775l.27.063v6.013c0 5.896 0 6.013.185 6.194.25.245.862.245 1.113 0 .185-.18.185-.298.185-6.7 0-6.322-.009-6.53-.176-6.693-.102-.1-.37-.208-.593-.235-.807-.118-1.29-.589-1.41-1.377-.028-.217-.14-.48-.241-.58-.177-.171-.52-.171-17.612-.171s-17.435 0-17.612.172z" fill="url(#paint3_linear_163_55)"/><path d="M41.734 13.2c-.12.119-.186.3-.186.544 0 .245.065.426.186.544.12.117.306.18.556.18.25 0 .436-.063.557-.18.12-.118.185-.3.185-.544 0-.244-.065-.425-.185-.543-.12-.118-.306-.181-.557-.181-.25 0-.436.063-.556.18z" fill="url(#paint4_linear_163_55)"/><path d="M22.379 15.206c-2.652.244-4.795 1.603-5.954 3.794-1.094 2.047-1.113 4.682-.065 6.747.76 1.485 1.753 2.463 3.255 3.17 1.308.615 1.8.724 3.525.724 1.39 0 1.53-.018 2.225-.254 2.449-.833 4.304-2.898 4.934-5.451.223-.915.195-2.509-.055-3.424-.223-.824-.844-2.037-1.262-2.472-.361-.371-.75-.407-1.103-.108-.353.307-.38.597-.102 1.068.51.878.871 1.703.973 2.237.177.878.084 2.291-.213 3.097-.584 1.612-1.938 2.943-3.589 3.514-.918.317-2.43.389-3.339.163-2.114-.535-3.756-2.138-4.312-4.22-.241-.888-.158-2.454.176-3.297a5.996 5.996 0 014.294-3.667c.64-.145 2.022-.118 2.67.045.307.081.882.299 1.29.498.872.435 1.261.462 1.53.127.427-.525.112-1.114-.834-1.576-.631-.317-1.623-.598-2.375-.679a13.284 13.284 0 01-.723-.082 9.263 9.263 0 00-.946.046z" fill="url(#paint5_linear_163_55)"/><path d="M22.768 18.99c-.455.208-.918.67-1.104 1.096-.074.18-.167.616-.195.978l-.074.652h-.491c-.612 0-.872.199-.872.67 0 .444.083.607.38.724l.25.1-.686.896c-.575.752-.686.96-.686 1.25 0 .226.065.408.186.525.176.172.306.181 3.524.181s3.348-.009 3.524-.18c.12-.118.185-.3.185-.544 0-.245-.064-.426-.185-.543-.176-.172-.306-.181-2.55-.181h-2.365l.315-.435c.167-.235.38-.562.464-.725.139-.262.194-.29.556-.29.5 0 .798-.271.798-.733 0-.353-.306-.715-.603-.715-.149 0-.158-.055-.111-.462.074-.625.269-.897.63-.897.594 0 .826.354.826 1.232 0 .616.204.851.741.851.622 0 .742-.199.742-1.204 0-.616-.046-.924-.176-1.196-.213-.443-.686-.896-1.14-1.077-.483-.2-1.42-.181-1.883.027z" fill="url(#paint6_linear_163_55)"/><path d="M9.2 19.733c-1.892.716-2.411 3.351-.946 4.791 1.484 1.44 4.192.924 4.906-.95.594-1.55-.149-3.306-1.614-3.84-.686-.254-1.67-.254-2.346 0zm1.91 1.53c1.206.716.687 2.536-.723 2.536-1.41 0-1.93-1.82-.723-2.535.398-.235 1.047-.235 1.446 0z" fill="url(#paint7_linear_163_55)"/><path d="M34.426 19.733c-1.892.716-2.411 3.351-.946 4.791 1.484 1.44 4.192.924 4.906-.95.593-1.55-.148-3.306-1.614-3.84-.686-.254-1.67-.254-2.346 0zm1.91 1.53c1.206.716.687 2.536-.723 2.536-1.41 0-1.929-1.82-.723-2.535.398-.235 1.048-.235 1.446 0z" fill="url(#paint8_linear_163_55)"/><path d="M33.758 28.235c-2.254.172-4.23.661-5.268 1.304-.426.263-.927.797-.992 1.078-.037.118-.047 1.069-.028 2.11l.028 1.91.25.327c.149.172.464.453.724.616l.463.29v3.748l.27.363C30.121 41.212 33.191 42 37.096 42c3.904 0 6.974-.788 7.892-2.02l.269-.362V37.68c0-1.503-.028-1.992-.13-2.191-.158-.29-.797-.878-1.131-1.023l-.223-.1v-1.847c0-2.065-.019-2.128-.63-2.672-.761-.67-2.3-1.186-4.35-1.467-1.27-.172-3.766-.244-5.036-.145zm4.693 1.685c1.548.199 3.144.66 3.626 1.05.306.245-.501.706-1.79 1.032-2.55.625-5.704.707-8.375.209-1.567-.3-3.014-.888-2.847-1.16.093-.135.714-.443 1.345-.651 1.836-.616 5.332-.824 8.04-.48zm-8.051 4.2c.027.643.027.652-.186.59a4.512 4.512 0 01-1.02-.517c-.232-.154-.26-.226-.26-.706v-.535l.724.263.714.253.028.652zm11.806-.054c-.12.136-.89.553-1.197.643-.213.063-.213.054-.185-.598l.028-.652.695-.235.696-.236.028.48c.018.272-.019.535-.065.598zm-2.885.362c0 .761.028.734-.862.825l-.621.063v-1.358l.677-.091c.361-.045.695-.09.742-.1.037 0 .064.29.064.661zm-6.186-.489h.25v1.386l-.602-.063c-.9-.091-.881-.073-.881-.797v-.643l.492.063c.26.027.593.054.741.054zm3.219.815v.725H34.87V34.03h1.484v.724zm7.298 1.422c.084.236-1.79.924-3.125 1.15-1.67.281-4.405.326-6.14.1-1.057-.136-2.374-.453-2.967-.725l-.306-.135.324.036c.177.027.872.108 1.53.199 1.503.19 5.009.136 6.28-.09.88-.155 2.55-.662 3.106-.942l.353-.181.454.235c.25.136.473.29.491.353zm-11.768 3.007l.027.643-.482-.181a5.13 5.13 0 01-.751-.372c-.232-.163-.26-.235-.26-.715v-.534l.723.262.715.254.027.643zm11.852-.118c-.047.109-.724.489-1.224.67l-.232.09.028-.642.028-.643.695-.245.696-.253.027.452c.019.245.01.508-.018.57zm-9.441-.1l.575.064v1.359l-.436-.055c-.25-.037-.584-.09-.742-.118l-.306-.045v-.68c0-.597.019-.67.167-.624.083.018.417.072.742.1zm6.51.535c0 .76.028.733-.862.824l-.622.063V39.03l.677-.09c.362-.046.696-.091.742-.1.037 0 .065.29.065.66zm-2.967.326v.724h-1.484v-1.448h1.484v.725z" fill="url(#paint9_linear_163_55)"/><path d="M3.385 30.398c-.297.126-.436.344-.436.697 0 .444.315.76.76.76.946 0 1.067-1.34.14-1.494-.158-.018-.362-.009-.464.037z" fill="url(#paint10_linear_163_55)"/><defs><linearGradient id="paint0_linear_163_55" x1="0" y1="34.754" x2="10.983" y2="-3.455" gradientUnits="userSpaceOnUse"><stop stop-color="#DFBD69"/><stop offset=".531" stop-color="#FEF7C0"/><stop offset="1" stop-color="#926F34"/></linearGradient><linearGradient id="paint1_linear_163_55" x1="39.323" y1="5.053" x2="39.924" y2="3.495" gradientUnits="userSpaceOnUse"><stop stop-color="#DFBD69"/><stop offset=".531" stop-color="#FEF7C0"/><stop offset="1" stop-color="#926F34"/></linearGradient><linearGradient id="paint2_linear_163_55" x1="2.949" y1="14.469" x2="3.534" y2="12.898" gradientUnits="userSpaceOnUse"><stop stop-color="#DFBD69"/><stop offset=".531" stop-color="#FEF7C0"/><stop offset="1" stop-color="#926F34"/></linearGradient><linearGradient id="paint3_linear_163_55" x1="2.968" y1="31.855" x2="6.854" y2="10.131" gradientUnits="userSpaceOnUse"><stop stop-color="#DFBD69"/><stop offset=".531" stop-color="#FEF7C0"/><stop offset="1" stop-color="#926F34"/></linearGradient><linearGradient id="paint4_linear_163_55" x1="41.548" y1="14.469" x2="42.111" y2="12.953" gradientUnits="userSpaceOnUse"><stop stop-color="#DFBD69"/><stop offset=".531" stop-color="#FEF7C0"/><stop offset="1" stop-color="#926F34"/></linearGradient><linearGradient id="paint5_linear_163_55" x1="15.589" y1="29.641" x2="21.207" y2="14.486" gradientUnits="userSpaceOnUse"><stop stop-color="#DFBD69"/><stop offset=".531" stop-color="#FEF7C0"/><stop offset="1" stop-color="#926F34"/></linearGradient><linearGradient id="paint6_linear_163_55" x1="19.29" y1="26.063" x2="22.101" y2="18.49" gradientUnits="userSpaceOnUse"><stop stop-color="#DFBD69"/><stop offset=".531" stop-color="#FEF7C0"/><stop offset="1" stop-color="#926F34"/></linearGradient><linearGradient id="paint7_linear_163_55" x1="7.409" y1="25.352" x2="9.663" y2="19.275" gradientUnits="userSpaceOnUse"><stop stop-color="#DFBD69"/><stop offset=".531" stop-color="#FEF7C0"/><stop offset="1" stop-color="#926F34"/></linearGradient><linearGradient id="paint8_linear_163_55" x1="32.635" y1="25.352" x2="34.889" y2="19.275" gradientUnits="userSpaceOnUse"><stop stop-color="#DFBD69"/><stop offset=".531" stop-color="#FEF7C0"/><stop offset="1" stop-color="#926F34"/></linearGradient><linearGradient id="paint9_linear_163_55" x1="27.461" y1="42" x2="31.924" y2="26.881" gradientUnits="userSpaceOnUse"><stop stop-color="#DFBD69"/><stop offset=".531" stop-color="#FEF7C0"/><stop offset="1" stop-color="#926F34"/></linearGradient><linearGradient id="paint10_linear_163_55" x1="2.949" y1="31.855" x2="3.534" y2="30.284" gradientUnits="userSpaceOnUse"><stop stop-color="#DFBD69"/><stop offset=".531" stop-color="#FEF7C0"/><stop offset="1" stop-color="#926F34"/></linearGradient></defs></svg>