<svg width="28" height="37" fill="none" xmlns="http://www.w3.org/2000/svg"><path d="M.154.188C.014.36 0 .477 0 1.22c0 .463.03.947.073 1.084.11.376.433.795.777.99l.308.181.037 2.146c.03 1.561.066 2.277.146 2.616.279 1.15.895 2.465 1.59 3.39.47.621.646.78 4.677 4.263 1.62 1.402 2.947 2.573 2.947 2.609 0 .036-1.327 1.207-2.947 2.609-4.031 3.483-4.207 3.642-4.676 4.263-.696.925-1.312 2.24-1.59 3.39-.081.34-.118 1.055-.147 2.616l-.037 2.146-.308.18c-.344.196-.667.615-.777.99-.043.14-.073.624-.073 1.087 0 .744.015.86.154 1.033L.3 37h27.4l.146-.188c.14-.173.154-.289.154-1.033 0-.463-.03-.947-.073-1.084-.11-.376-.433-.795-.777-.99l-.308-.181-.037-2.146c-.03-1.561-.066-2.277-.146-2.616-.279-1.15-.895-2.465-1.59-3.39-.47-.621-.646-.78-4.67-4.263-1.627-1.402-2.954-2.573-2.954-2.609 0-.036 1.327-1.207 2.954-2.609 4.024-3.483 4.2-3.642 4.67-4.264.695-.925 1.311-2.24 1.59-3.389.08-.34.117-1.055.146-2.616l.037-2.146.308-.18c.344-.196.667-.615.777-.99.044-.138.073-.622.073-1.085 0-.744-.015-.86-.154-1.033L27.7 0H.3L.155.188zm26.6 1.337c0 .31-.103.556-.286.694-.169.13-24.767.13-24.936 0-.183-.138-.286-.383-.286-.694v-.296h25.508v.296zm-1.246 4.032c0 1.807-.015 1.988-.176 2.616-.323 1.25-1.063 2.573-1.891 3.36-.213.203-2.016 1.778-3.995 3.491-2.397 2.067-3.628 3.18-3.658 3.295a.998.998 0 000 .362c.03.115.77.809 2.111 1.965 5.44 4.705 5.747 4.987 6.128 5.478.52.68 1.085 1.836 1.305 2.681.161.658.176.817.176 2.638v1.944H2.492v-1.944c0-1.821.015-1.98.176-2.638.22-.845.784-2.002 1.305-2.681.38-.491.689-.773 6.127-5.478 1.342-1.156 2.082-1.85 2.111-1.965a.998.998 0 000-.362c-.029-.115-1.26-1.228-3.657-3.295-1.98-1.713-3.782-3.288-3.995-3.49-.828-.788-1.568-2.11-1.89-3.36-.162-.63-.177-.81-.177-2.617V3.613h23.016v1.944zm.96 29.224c.183.138.286.383.286.694v.297H1.246v-.297c0-.31.103-.556.286-.694.169-.13 24.767-.13 24.936 0z" fill="url(#paint0_linear_89_11791)"/><path d="M3.782 4.885c-.19.195-.19.195-.19 1.33 0 1.315.11 1.878.579 2.854.557 1.178.623 1.243 5.043 5.066l4.12 3.57.021 2.608.022 2.61.205.173c.264.224.572.224.836 0l.205-.174.022-2.609.022-2.608 1.188-1.02c1.832-1.582 1.957-1.712 1.957-2.015 0-.42-.44-.73-.821-.586-.103.036-.806.607-1.561 1.265-.763.657-1.408 1.2-1.43 1.2-.066 0-7.645-6.562-7.93-6.873-.338-.369-.719-1.04-.976-1.734-.146-.398-.205-.723-.234-1.28l-.044-.737h18.368l-.044.737c-.05.99-.337 1.785-.989 2.754-.103.152-.836.838-1.62 1.51-2.096 1.8-2.133 1.843-2.133 2.175 0 .492.47.774.902.542.088-.043.938-.759 1.883-1.582 1.862-1.612 2.14-1.93 2.646-2.992.47-.976.58-1.54.58-2.855 0-1.134 0-1.134-.191-1.33l-.198-.187H3.98l-.198.188z" fill="url(#paint1_linear_89_11791)"/><path d="M7.806 7.61c-.432.36-.161 1.062.396 1.062.315-.007.484-.123.594-.39a.592.592 0 00-.198-.694.609.609 0 00-.792.022z" fill="url(#paint2_linear_89_11791)"/><path d="M10.958 9.214c-.25.238-.25.607.007.86a.611.611 0 001.056-.426c0-.55-.675-.824-1.063-.434z" fill="url(#paint3_linear_89_11791)"/><path d="M13.612 24.512c-.198.16-.272.47-.272 1.236l-.007.737-1.561 1.337c-.858.737-1.679 1.496-1.825 1.691-.367.47-.565 1.142-.565 1.865 0 .506.022.592.184.744l.175.18h8.518l.176-.18c.16-.152.183-.238.183-.744 0-.723-.198-1.395-.564-1.865-.147-.195-.968-.954-1.826-1.69l-1.56-1.338-.008-.73c0-.787-.088-1.149-.293-1.257-.191-.101-.609-.087-.755.014zm1.825 4.322c.755.658 1.436 1.257 1.517 1.337.14.137.271.412.374.737l.051.166h-6.758l.051-.166c.125-.412.25-.614.55-.896.711-.665 2.742-2.4 2.793-2.385.03.007.667.55 1.422 1.207z" fill="url(#paint4_linear_89_11791)"/><defs><linearGradient id="paint0_linear_89_11791" x1="0" y1="37" x2="17.673" y2="1.847" gradientUnits="userSpaceOnUse"><stop stop-color="#DFBD69"/><stop offset=".531" stop-color="#FEF7C0"/><stop offset="1" stop-color="#926F34"/></linearGradient><linearGradient id="paint1_linear_89_11791" x1="3.592" y1="23.264" x2="10.316" y2="3.447" gradientUnits="userSpaceOnUse"><stop stop-color="#DFBD69"/><stop offset=".531" stop-color="#FEF7C0"/><stop offset="1" stop-color="#926F34"/></linearGradient><linearGradient id="paint2_linear_89_11791" x1="7.593" y1="8.672" x2="8.068" y2="7.398" gradientUnits="userSpaceOnUse"><stop stop-color="#DFBD69"/><stop offset=".531" stop-color="#FEF7C0"/><stop offset="1" stop-color="#926F34"/></linearGradient><linearGradient id="paint3_linear_89_11791" x1="10.772" y1="10.264" x2="11.255" y2="8.978" gradientUnits="userSpaceOnUse"><stop stop-color="#DFBD69"/><stop offset=".531" stop-color="#FEF7C0"/><stop offset="1" stop-color="#926F34"/></linearGradient><linearGradient id="paint4_linear_89_11791" x1="9.382" y1="32.303" x2="12.133" y2="23.823" gradientUnits="userSpaceOnUse"><stop stop-color="#DFBD69"/><stop offset=".531" stop-color="#FEF7C0"/><stop offset="1" stop-color="#926F34"/></linearGradient></defs></svg>