<svg width="43" height="35" fill="none" xmlns="http://www.w3.org/2000/svg"><path d="M20.073.054c-2.208.21-4.19.764-6.087 1.696-.898.437-2.392 1.369-2.98 1.847-.21.168-.302.176-4.878.176H1.452l-.445.236a1.98 1.98 0 00-.705.596C.05 4.965.05 4.965.025 6.3L0 7.635h1.268V6.72c0-.974.092-1.393.335-1.52.21-.109 10.452-.109 10.662 0 .32.169.336.462.336 5.541 0 5.08-.017 5.373-.336 5.541-.1.05-1.57.084-3.744.084H4.928L3.14 17.374a77.108 77.108 0 01-1.83 1.007c-.026 0-.042-2.157-.042-4.785V8.81H.008v5.918c0 3.258.017 5.919.042 5.919.026 0 .983-.53 2.141-1.176 1.15-.646 2.15-1.2 2.225-1.225.1-.042.126.017.126.31 0 1.008.529 3.291 1.091 4.702 3.283 8.227 12.064 12.55 20.585 10.15 1.998-.572 4.29-1.73 5.776-2.93.201-.168.327-.177 2.947-.177h2.736l2.611 1.47c1.444.805 2.636 1.468 2.662 1.468.025 0 .042-1.813.042-4.03V25.18h-1.26v2.896c0 1.595-.017 2.897-.042 2.897-.016 0-.84-.454-1.83-1.008l-1.788-1.007h-3.593c-2.174 0-3.644-.034-3.744-.084-.32-.168-.336-.462-.336-5.54 0-5.08.017-5.374.336-5.542.21-.109 10.452-.109 10.662 0 .268.143.335.563.335 2.15v1.544H43l-.025-1.964-.025-1.965-.252-.36a1.98 1.98 0 00-.705-.597c-.445-.235-.47-.235-1.94-.235h-1.502l-.05-.487c-.152-1.427-.236-1.981-.42-2.745C36.602 6.93 31.85 2.086 25.73.533c-1.72-.437-4.088-.638-5.658-.479zm.755 4.635v3.265l-.898.059c-1.746.11-4.315.487-5.373.79-.15.041-.277.05-.277.008s.185-.52.403-1.075c.79-1.94 1.738-3.408 2.947-4.567.814-.79 1.52-1.25 2.342-1.545.949-.336.856-.671.856 3.065zm2.536-2.98c.822.335 1.41.73 2.124 1.435.822.823 1.469 1.771 2.132 3.156.504 1.033 1.142 2.67 1.066 2.737-.017.017-.277-.033-.57-.126-1.201-.377-3.2-.73-4.601-.814a14.431 14.431 0 01-1.066-.092l-.277-.042V1.398l.352.058c.193.034.571.143.84.252zm-6.918.612c-.067.084-.285.344-.495.58-.546.629-1.21 1.611-1.67 2.484l-.404.756-.033-.588c-.026-.47-.076-.646-.269-.932-.134-.184-.353-.411-.487-.495l-.243-.16.319-.21c.646-.42 1.486-.856 2.359-1.208.999-.412 1.108-.437.923-.227zm11.904.621c1.058.504 2.62 1.545 3.552 2.368 2.367 2.115 4.03 4.877 4.844 8.034.302 1.217.293 1.226-.513.36-1.3-1.393-3.047-2.669-4.877-3.559L30.34 9.65l-.436-1.326c-.756-2.3-1.612-3.971-2.77-5.407l-.588-.73.478.176c.26.092.865.353 1.326.58zm-7.522 9.898v3.526H13.86v-5.952l.487-.134c1.713-.504 4.29-.907 6.045-.957l.436-.009v3.526zm3.484-3.307a20.38 20.38 0 013.946.856l.924.31.184.823c.227 1.05.504 2.964.58 4.021l.058.823h-7.832V9.331l.529.034c.285.025 1.015.1 1.611.168zm7.002 2.123c.772.395 2.166 1.36 2.947 2.04.822.723 1.972 2.007 2.3 2.561.05.084-.495.11-2.586.11h-2.653v-.446c0-.747-.36-3.526-.562-4.315-.059-.243-.034-.243.554.05zM18.83 17.71h1.998v7.036l-.52-.034c-1.175-.092-2.762-.31-3.677-.512-1.041-.227-2.737-.747-2.804-.856-.177-.277-.689-3.493-.772-4.828l-.06-.915 1.915.05c1.058.034 2.82.06 3.92.06zm-7.119.899c.059.948.31 2.88.47 3.584.05.227.076.429.05.445-.142.143-2.442-1.343-3.492-2.258-.822-.722-1.973-2.006-2.3-2.569-.05-.075.487-.1 2.577-.1h2.636l.06.898zM29.14 20.69v2.972l-.429.126c-.696.21-2.283.545-3.156.68-.764.109-2.729.293-3.182.293h-.201V17.71h6.968v2.98zM8.252 21.764a17.592 17.592 0 003.392 2.158l1.016.503.436 1.319c.756 2.308 1.612 3.979 2.77 5.415l.588.73-.478-.177c-1.553-.562-3.551-1.77-4.878-2.946-1.729-1.545-3.223-3.635-4.063-5.684-.47-1.141-.982-2.88-.982-3.341 0-.075.31.193.713.63.387.42 1.058 1.04 1.486 1.393zm7.33 3.577c1.233.319 2.291.495 3.61.604.604.05 1.217.11 1.368.126l.268.042v6.565l-.352-.059c-.94-.15-2.04-.772-2.964-1.687-.822-.806-1.46-1.755-2.132-3.157-.42-.864-1.1-2.56-1.1-2.737 0-.025.084-.016.193.009.101.033.605.168 1.108.294zm12.928.528a23.018 23.018 0 01-.672 1.537c-1.318 2.753-3.475 4.852-5.356 5.205l-.31.059v-6.55l.864-.05c1.78-.118 3.669-.378 5.012-.705.344-.084.647-.143.663-.134.017.016-.075.302-.201.637zm.915 3.585c.134.185.353.412.487.496l.243.16-.327.209c-.823.546-3.224 1.67-3.333 1.561-.017-.016.193-.293.47-.612.622-.722 1.478-1.99 1.856-2.754l.277-.58.05.588c.034.462.092.664.277.932z" fill="url(#paint0_linear_163_26)"/><path d="M23.935 4.865v.671h1.343V4.193h-1.343v.672z" fill="url(#paint1_linear_163_26)"/><path d="M31.49 8.307v.672h1.344V7.635H31.49v.672z" fill="url(#paint2_linear_163_26)"/><path d="M6.305 8.097v.63H3.703v1.343h.536c.52 0 .538.008.638.26.06.134.345.613.63 1.05l.529.788-.747.647c-.412.352-.747.663-.747.68 0 .067.772 1.024.822 1.024.034 0 .403-.294.815-.663l.755-.655.756.655c.411.37.78.663.814.663.05 0 .823-.957.823-1.024 0-.017-.336-.328-.747-.68l-.747-.647.528-.789c.286-.436.571-.915.63-1.05.1-.251.118-.26.638-.26h.537V8.727H7.564v-1.26h-1.26v.63zm1.125 2.2c-.076.134-.227.352-.32.503l-.167.26-.185-.26c-.092-.151-.243-.37-.327-.504l-.143-.226H7.58l-.151.226z" fill="url(#paint3_linear_163_26)"/><path d="M34.294 23.141c-.638 1.705-1.167 3.123-1.167 3.165 0 .084.773.428 1.075.479.126.025.21-.101.428-.68l.269-.714h2.334l.235.63c.134.344.252.68.277.73.025.084.193.05.646-.117.336-.118.63-.227.638-.244.025-.017-1.628-4.45-2.292-6.187-.05-.118-.168-.143-.663-.143h-.604l-1.176 3.081zm2.1.017c.167.428.301.798.301.814 0 .017-.285.034-.638.034-.352 0-.62-.034-.604-.067.017-.034.16-.412.319-.84.16-.42.294-.755.302-.747.009.008.151.37.32.806z" fill="url(#paint4_linear_163_26)"/><path d="M41.732 23.334v.672h1.26v-1.343h-1.26v.671z" fill="url(#paint5_linear_163_26)"/><defs><linearGradient id="paint0_linear_163_26" x1="0" y1="34.068" x2="11.205" y2="-3.103" gradientUnits="userSpaceOnUse"><stop stop-color="#DFBD69"/><stop offset=".531" stop-color="#FEF7C0"/><stop offset="1" stop-color="#926F34"/></linearGradient><linearGradient id="paint1_linear_163_26" x1="23.935" y1="5.536" x2="24.466" y2="4.14" gradientUnits="userSpaceOnUse"><stop stop-color="#DFBD69"/><stop offset=".531" stop-color="#FEF7C0"/><stop offset="1" stop-color="#926F34"/></linearGradient><linearGradient id="paint2_linear_163_26" x1="31.49" y1="8.979" x2="32.022" y2="7.582" gradientUnits="userSpaceOnUse"><stop stop-color="#DFBD69"/><stop offset=".531" stop-color="#FEF7C0"/><stop offset="1" stop-color="#926F34"/></linearGradient><linearGradient id="paint3_linear_163_26" x1="3.702" y1="14.519" x2="6.674" y2="7.359" gradientUnits="userSpaceOnUse"><stop stop-color="#DFBD69"/><stop offset=".531" stop-color="#FEF7C0"/><stop offset="1" stop-color="#926F34"/></linearGradient><linearGradient id="paint4_linear_163_26" x1="33.127" y1="26.795" x2="36.056" y2="20.05" gradientUnits="userSpaceOnUse"><stop stop-color="#DFBD69"/><stop offset=".531" stop-color="#FEF7C0"/><stop offset="1" stop-color="#926F34"/></linearGradient><linearGradient id="paint5_linear_163_26" x1="41.732" y1="24.006" x2="42.289" y2="22.633" gradientUnits="userSpaceOnUse"><stop stop-color="#DFBD69"/><stop offset=".531" stop-color="#FEF7C0"/><stop offset="1" stop-color="#926F34"/></linearGradient></defs></svg>