<svg width="40" height="42" fill="none" xmlns="http://www.w3.org/2000/svg"><path d="M27.575.132c-2.993.586-5.61 2.608-6.922 5.33-1.103 2.292-1.27 5.163-.42 7.508a9.78 9.78 0 003.168 4.438l.709.56V37.23l2.389 2.38 2.38 2.39h.788l2.337-2.346 2.345-2.345v-2.862l-.744-.752c-.411-.42-.744-.788-.744-.814 0-.027.298-.272.657-.552.726-.56.831-.691.831-1.094 0-.227-.149-.42-.892-1.19-.482-.499-.867-.928-.85-.945.018-.009.394-.263.832-.56.438-.289.823-.595.858-.674.026-.079.052-2.284.052-4.901v-4.752l.595-.377c.324-.21.945-.735 1.383-1.172 4.98-4.91 3.326-13.312-3.142-15.981-1.19-.49-2.328-.691-3.798-.683-.665 0-1.48.062-1.812.132zm4.052 1.601c2.398.7 4.254 2.276 5.304 4.49.569 1.199.779 2.135.77 3.483 0 1.234-.131 1.952-.551 3.046-.587 1.514-2.022 3.22-3.405 4.043-.341.201-.682.455-.752.56-.114.149-.132.91-.132 4.971v4.787l-.997.648c-1.637 1.076-1.654 1.19-.342 2.52.517.526.92.963.893.98-1.286.98-1.479 1.182-1.479 1.532 0 .272.114.42.963 1.287l.962.971v1.567l-1.785 1.785-1.785 1.785-1.847-1.785-1.846-1.785v-9.654c0-6.17-.035-9.714-.088-9.819-.044-.087-.394-.376-.762-.639-.848-.586-1.881-1.68-2.354-2.477-.831-1.417-1.199-2.721-1.199-4.323 0-3.903 2.705-7.229 6.59-8.095.858-.193 2.994-.123 3.842.122z" fill="url(#paint0_linear_163_77)"/><path d="M28.924 5.434c-1.97.193-3.448 1.663-3.764 3.728-.34 2.17 1.208 4.367 3.396 4.823 1.435.297 2.853-.114 3.92-1.147 2.627-2.512 1.13-7.019-2.458-7.413a6.546 6.546 0 00-1.094.01zm1.523 1.61c.402.15.91.508 1.225.884.665.788.822 1.996.394 2.915-.316.665-.674 1.059-1.296 1.383-1.654.883-3.605-.018-4.078-1.882-.385-1.505.683-3.116 2.258-3.44.42-.078 1.006-.026 1.497.14z" fill="url(#paint1_linear_163_77)"/><path d="M11.157 14.668c-2.879.455-5.172 1.54-7.115 3.352C2.021 19.919.708 22.326.156 25.153c-.21 1.094-.21 3.465.01 4.55.936 4.726 4.183 8.446 8.628 9.881 1.182.385 2.136.56 3.37.63.98.062.989.062 1.216-.166.167-.166.228-.315.228-.578 0-.542-.228-.673-1.348-.735-2.897-.184-5.426-1.313-7.448-3.343-2.179-2.18-3.308-4.875-3.317-7.92-.008-1.418.105-2.188.49-3.413 1.287-4.061 4.569-6.984 8.752-7.798.473-.088 1.112-.166 1.41-.166.7-.01 1.207-.123 1.347-.316.175-.245.14-.796-.061-.997-.158-.158-.28-.175-1.112-.166-.525.008-1.041.034-1.164.052z" fill="url(#paint2_linear_163_77)"/><path d="M11.928 17.495c-.692.21-1.2.788-1.27 1.444-.026.21-.096.43-.148.464-.053.044-.43.228-.84.394l-.736.324-.315-.22c-.612-.42-1.295-.515-1.89-.262-.403.167-1.322 1.05-1.549 1.488-.236.473-.236 1.19.009 1.68.105.202.227.386.28.42.149.088.105.324-.202 1.007-.376.875-.358.849-.787.91-.674.105-1.234.56-1.444 1.182-.167.481-.131 1.916.061 2.328.201.455.613.796 1.085.919.788.21.753.175 1.068.962.166.412.306.78.306.823 0 .052-.105.236-.227.411-.315.464-.42.98-.29 1.506.08.34.22.56.675 1.041.761.805 1.094.971 1.855.928.464-.026.665-.079.972-.28.34-.228.402-.245.639-.14.148.06.507.192.796.306.551.21.534.184.744.989.122.481.525.936.997 1.111.298.114.604.14 1.34.114.875-.026.989-.044 1.33-.271.394-.263.796-.954.796-1.383 0-.289.053-.324.954-.691.578-.237.761-.272.875-.193.692.499 1.558.613 2.18.289.437-.228 1.295-1.111 1.461-1.514.263-.648.149-1.357-.341-2.04-.114-.157-.105-.236.131-.787.446-1.059.438-1.041.901-1.111.552-.08 1.05-.42 1.296-.884.236-.455.323-1.733.157-2.337-.192-.7-.989-1.313-1.733-1.313-.113 0-.218-.07-.253-.157a21.877 21.877 0 00-.333-.832l-.289-.691.271-.385c.316-.447.412-1.2.237-1.75-.149-.447-1.252-1.55-1.698-1.698-.56-.184-1.269-.08-1.724.245l-.385.28-.7-.307c-.385-.166-.753-.306-.806-.306-.06 0-.13-.105-.157-.245-.201-.98-.648-1.575-1.313-1.76-.394-.104-1.636-.113-1.986-.008zm1.627 1.54c.08.07.14.237.14.368.01.315.28.893.543 1.138.333.306 2.188 1.067 2.608 1.067.333 0 .788-.166 1.111-.402.15-.114.324-.21.386-.21.157 0 .954.796.954.945 0 .061-.097.245-.21.394-.237.324-.403.779-.403 1.111 0 .42.761 2.276 1.068 2.608.245.263.822.534 1.137.543.385 0 .508.21.508.823 0 .63-.053.709-.586.796-.49.079-1.086.473-1.27.84-.306.613-.778 1.82-.822 2.11-.07.393.096.962.359 1.277.122.149.219.315.219.385 0 .061-.21.333-.473.587l-.473.472-.411-.297c-.333-.237-.499-.298-.954-.324-.586-.035-.639-.018-2.214.691-.63.28-.972.718-1.05 1.322-.07.542-.14.595-.814.595-.665 0-.735-.053-.832-.569-.14-.805-.49-1.138-1.741-1.654-1.313-.551-1.996-.543-2.652.052-.228.22-.376.15-.893-.41-.359-.386-.367-.412-.236-.596.639-.884.656-1.427.087-2.757-.525-1.234-.857-1.584-1.654-1.724-.516-.096-.568-.166-.568-.823 0-.656.087-.796.472-.796.376 0 .99-.324 1.225-.648.114-.148.29-.498.394-.779.096-.28.263-.665.359-.848.123-.237.175-.517.175-.902 0-.508-.035-.613-.306-1.015l-.315-.446.455-.482c.254-.262.507-.481.586-.481.07 0 .236.096.376.219.28.227.762.393 1.156.393.14 0 .726-.192 1.313-.437.796-.324 1.137-.516 1.339-.744.262-.297.472-.805.472-1.155 0-.28.184-.377.753-.377.385 0 .586.044.682.14z" fill="url(#paint3_linear_163_77)"/><path d="M11.814 21.38c-2.95.56-5.023 3.046-5.032 6.03-.009 3.352 2.74 6.1 6.091 6.1a6.119 6.119 0 005.951-4.551c.236-.875.219-2.398-.044-3.238-.34-1.112-.761-1.803-1.584-2.635-1.137-1.146-2.354-1.68-4.017-1.776-.455-.026-.997 0-1.365.07zm2.512 1.636c.744.246 1.654.867 2.118 1.445 1.584 1.934 1.391 4.655-.447 6.336-1.435 1.312-3.404 1.584-5.19.726-.638-.306-1.724-1.4-2.039-2.056-.901-1.882-.56-3.869.91-5.33 1.252-1.252 3.011-1.672 4.648-1.12z" fill="url(#paint4_linear_163_77)"/><path d="M12.645 23.595a.777.777 0 00-.481.56.575.575 0 01-.289.377c-.315.166-.682.568-.796.866-.053.14-.097.525-.097.858 0 .7.184 1.146.613 1.514.271.227.271.227.061.227-.113 0-.315.079-.446.184-.569.446-.07 1.882.735 2.135.088.027.193.167.219.316.088.376.368.603.744.603.359 0 .7-.28.7-.586 0-.114.14-.263.42-.438.569-.35.805-.831.805-1.636 0-.692-.184-1.112-.656-1.523l-.315-.28h.297c1.033 0 .797-1.83-.297-2.275-.175-.08-.254-.175-.254-.307 0-.411-.56-.753-.963-.595zm.718 2.564c.044.167.149.368.245.447.149.131.131.14-.289.105-.822-.062-.849-.08-.849-.455 0-.42.044-.464.473-.43.315.027.359.053.42.333zm-.122 2.066c.13.035.14.577 0 .717s-.552.132-.666-.008a1.125 1.125 0 01-.148-.324 1.124 1.124 0 00-.193-.368c-.123-.14-.096-.14.385-.105.28.026.56.061.622.088z" fill="url(#paint5_linear_163_77)"/><defs><linearGradient id="paint0_linear_163_77" x1="19.694" y1="42" x2="44.191" y2="12.043" gradientUnits="userSpaceOnUse"><stop stop-color="#DFBD69"/><stop offset=".531" stop-color="#FEF7C0"/><stop offset="1" stop-color="#926F34"/></linearGradient><linearGradient id="paint1_linear_163_77" x1="25.113" y1="14.079" x2="28.538" y2="5.057" gradientUnits="userSpaceOnUse"><stop stop-color="#DFBD69"/><stop offset=".531" stop-color="#FEF7C0"/><stop offset="1" stop-color="#926F34"/></linearGradient><linearGradient id="paint2_linear_163_77" x1="0" y1="40.249" x2="14.447" y2="20.092" gradientUnits="userSpaceOnUse"><stop stop-color="#DFBD69"/><stop offset=".531" stop-color="#FEF7C0"/><stop offset="1" stop-color="#926F34"/></linearGradient><linearGradient id="paint3_linear_163_77" x1="2.929" y1="37.353" x2="10.808" y2="16.623" gradientUnits="userSpaceOnUse"><stop stop-color="#DFBD69"/><stop offset=".531" stop-color="#FEF7C0"/><stop offset="1" stop-color="#926F34"/></linearGradient><linearGradient id="paint4_linear_163_77" x1="6.782" y1="33.51" x2="11.612" y2="20.815" gradientUnits="userSpaceOnUse"><stop stop-color="#DFBD69"/><stop offset=".531" stop-color="#FEF7C0"/><stop offset="1" stop-color="#926F34"/></linearGradient><linearGradient id="paint5_linear_163_77" x1="10.966" y1="31.235" x2="15.362" y2="25.416" gradientUnits="userSpaceOnUse"><stop stop-color="#DFBD69"/><stop offset=".531" stop-color="#FEF7C0"/><stop offset="1" stop-color="#926F34"/></linearGradient></defs></svg>