<svg width="41" height="41" fill="none" xmlns="http://www.w3.org/2000/svg"><path d="M16.695.1c-1.105.161-2.25.417-3.26.738C6.574 3.008 1.505 8.798.239 15.917c-.224 1.249-.312 4.1-.168 5.373.745 6.583 4.645 12.188 10.507 15.135 1.417.705 3.483 1.442 4.14 1.466.432.008.657-.216.657-.68 0-.417-.193-.57-.961-.778-4.805-1.289-9.105-4.884-11.292-9.425-.728-1.522-1.193-2.971-1.53-4.725-.247-1.281-.303-3.916-.111-5.357l.136-1.05 1.802-.472c1.401-.36 1.842-.448 1.978-.384.112.048 1.113 1.65 2.81 4.468l2.635 4.397.048.92c.04.762.08 1.002.256 1.386.28.593.905 1.257 1.45 1.522.432.208 2.05.616 2.458.616.313 0 .56-.232.609-.568.04-.224.008-.329-.144-.505-.16-.184-.345-.256-1.17-.44-1.08-.248-1.489-.465-1.817-.953-.232-.353-.36-.993-.36-1.802 0-.408-.049-.633-.193-.92-.384-.754-5.189-8.714-5.397-8.93a2.068 2.068 0 00-1.201-.593c-.297-.032-.697.04-1.802.329-.785.208-1.466.368-1.506.352-.216-.072 1.105-3.147 1.922-4.46C6.397 5.97 10.264 3.088 14.63 1.91l.569-.152.056.608c.104 1.337.104 1.337 1.209 1.698.44.136.849.32.92.408.145.16 1.034 2.323 1.034 2.515 0 .064-.345.8-.769 1.641-.52 1.058-.817 1.554-.937 1.602-.096.048-1.385.28-2.859.52-1.473.24-2.77.481-2.883.53-.784.327-1.233 1-1.233 1.833 0 .625-.064.488 1.538 3.163.696 1.161 1.377 2.21 1.553 2.378.192.193.465.345.737.425.4.12.617.112 3.772-.16 3.331-.28 3.347-.28 3.675-.128.449.208 2.53 1.906 2.731 2.226l.32.52c.137.225.217.265.505.289.272.024.376-.016.537-.176.24-.249.256-.521.032-1.01-.273-.592-.505-.832-1.898-1.93-1.362-1.08-1.73-1.297-2.299-1.385-.176-.032-1.794.072-3.587.224-2.323.2-3.324.257-3.452.2-.24-.111-2.795-4.364-2.795-4.66-.008-.473.088-.505 3.123-1.01 2.923-.488 3.228-.576 3.644-1.024.112-.12.577-.961 1.025-1.866 1.097-2.186 1.081-2.074.329-3.98-.505-1.273-.617-1.49-.921-1.77-.305-.28-.881-.56-1.434-.696-.16-.04-.208-.12-.248-.417-.064-.488-.064-.825.016-.825.032 0 .288-.04.577-.08.808-.12 3.283-.104 4.284.032 1.21.168 2.45.457 2.498.577.024.056-.016.632-.088 1.273-.216 1.994-.144 2.603.417 3.251.16.185 1.04.977 1.97 1.778.929.793 1.73 1.482 1.785 1.53.056.056.185 1.16.345 2.89.136 1.538.28 2.98.328 3.204.104.536.36 1.017.705 1.345.272.264 3.964 2.37 5.029 2.875.408.192.593.232 1.081.232.32 0 .785-.04 1.025-.08.24-.04.449-.064.465-.048.056.048-.153 1.626-.313 2.443a23.895 23.895 0 01-.4 1.617c-.248.833-.224 1.177.088 1.346.192.104.608.104.8 0 .305-.16.922-2.563 1.13-4.397.144-1.273.056-4.124-.168-5.373C36.77 7.877 30.549 1.654 22.5.22c-1.29-.232-4.54-.296-5.806-.12zM27.45 3.345c5.47 2.811 9.265 8.593 9.601 14.623l.049.889-.545.096c-1.161.208-1.105.224-3.3-1.001-2.698-1.49-2.842-1.586-3.018-1.882-.128-.208-.2-.817-.449-3.484-.208-2.226-.328-3.275-.408-3.387-.064-.088-.993-.913-2.074-1.834-1.081-.929-2.01-1.778-2.066-1.89-.128-.28-.12-.736.024-2.01.064-.576.12-1.049.12-1.057 0-.04 1.37.577 2.066.937z" fill="url(#paint0_linear_163_52)"/><path d="M21.14 23.132c-1.842.304-3.156.88-3.909 1.706-.616.664-.576.208-.576 7.19 0 7.184-.064 6.575.793 7.368.664.625 1.673 1.073 3.09 1.394.762.168 3.412.24 4.301.12 1.498-.216 3.027-.785 3.692-1.362l.296-.264.296.264c.665.577 2.195 1.145 3.692 1.362.905.128 3.532.048 4.34-.128 1.378-.305 2.379-.761 3.052-1.386.84-.776.792-.448.792-5.461s.048-4.685-.792-5.462c-1.081-1-2.7-1.49-5.142-1.561-2.154-.064-3.515.16-4.868.785-.369.168-.681.312-.697.312-.016 0-.032-.513-.032-1.137 0-1.354-.08-1.586-.793-2.243-.673-.624-1.658-1.073-3.051-1.385-.705-.16-3.764-.24-4.485-.112zm3.002 1.305c1.946.112 3.964 1.033 3.964 1.81 0 .208-.072.336-.32.569-.945.905-3.227 1.409-5.622 1.257-2.146-.136-4.148-1.025-4.148-1.826 0-.553 1.01-1.201 2.467-1.57.712-.184 2.258-.352 2.738-.304.113.016.529.04.921.064zm11.532 3.844c1.946.112 3.964 1.033 3.964 1.81 0 .208-.072.336-.32.568-.945.905-3.227 1.41-5.622 1.258-2.146-.136-4.148-1.025-4.148-1.826 0-.553 1.009-1.201 2.466-1.57.713-.184 2.259-.352 2.74-.304.111.016.528.04.92.064zm-17.01.36c1.226.569 2.515.81 4.397.81 1.882 0 3.172-.241 4.397-.81.368-.168.68-.312.697-.312.015 0 .031.384.031.857 0 1.081-.096 1.305-.76 1.746-.97.648-2.515 1.009-4.365 1.009s-3.395-.36-4.364-1.01c-.665-.44-.76-.664-.76-1.745 0-.473.015-.857.031-.857s.329.144.697.312zm0 3.844c1.226.569 2.515.81 4.397.81 1.882 0 3.172-.241 4.397-.81.368-.168.68-.312.697-.312.015 0 .031.384.031.857 0 1.08-.096 1.305-.76 1.746-.97.648-2.515 1.009-4.365 1.009s-3.395-.36-4.364-1.01c-.665-.44-.76-.664-.76-1.745 0-.473.015-.857.031-.857s.329.144.697.312zm11.532 0c1.226.569 2.515.81 4.397.81 1.882 0 3.171-.241 4.396-.81.369-.168.681-.312.697-.312.016 0 .032.384.032.857 0 1.08-.096 1.305-.76 1.746-.97.648-2.515 1.009-4.365 1.009s-3.396-.36-4.364-1.01c-.665-.44-.761-.664-.761-1.745 0-.473.016-.857.032-.857s.328.144.697.312zm-11.53 3.845c1.225.569 2.514.809 4.396.809 1.882 0 3.172-.24 4.397-.809.368-.168.68-.312.697-.312.015 0 .031.384.031.857 0 1.08-.096 1.305-.76 1.745-.97.65-2.515 1.01-4.365 1.01s-3.395-.36-4.364-1.01c-.665-.44-.76-.664-.76-1.745 0-.473.015-.857.031-.857s.329.144.697.312zm11.532 0c1.225.569 2.514.809 4.396.809 1.882 0 3.171-.24 4.396-.809.369-.168.681-.312.697-.312.016 0 .032.384.032.857 0 1.08-.096 1.305-.76 1.745-.97.65-2.515 1.01-4.365 1.01s-3.396-.36-4.364-1.01c-.665-.44-.761-.664-.761-1.745 0-.473.016-.857.032-.857s.328.144.697.312z" fill="url(#paint1_linear_163_52)"/><defs><linearGradient id="paint0_linear_163_52" x1="0" y1="37.891" x2="14.829" y2="-1.646" gradientUnits="userSpaceOnUse"><stop stop-color="#DFBD69"/><stop offset=".531" stop-color="#FEF7C0"/><stop offset="1" stop-color="#926F34"/></linearGradient><linearGradient id="paint1_linear_163_52" x1="16.654" y1="40.973" x2="22.183" y2="21.209" gradientUnits="userSpaceOnUse"><stop stop-color="#DFBD69"/><stop offset=".531" stop-color="#FEF7C0"/><stop offset="1" stop-color="#926F34"/></linearGradient></defs></svg>