<svg width="118" height="118" fill="none" xmlns="http://www.w3.org/2000/svg"><path d="M18.64 61.615l-.232-.006-.15-1.105-8.083-.139-.174 1.1-.243-.006.058-3.524.243.006.14 1.105 3.997.07-3.622-3.958-.486 1.296-.243-.005.046-2.766.243.006.452.99 2.487 2.759 5.306-3.743.18-.81.23.005-.057 3.535-.232-.005-.138-1.094-4.438 3.066.665.73 3.697.063.185-1.1.232.007-.064 3.523z" fill="#1F381C"/><path d="M18.853 53.162l-.225-.052.075-1.11-7.892-1.76-.393 1.042-.237-.052 1.568-7.041 2.482.555-.07.318-2.412.405-.776 3.46 3.906.868.341-1.522-1.418-1.041.07-.307 3.425.764-.07.307-1.747.347-.335 1.51 3.98.885.822-3.674-2.17-1.492.07-.307 2.644.59-1.638 7.307zm1.817-8.088l-.214-.098.064-1.198-6.845-3.142-.856.833-.22-.104.932-2.025 8.25-1.892-5.48-2.516-.855.833-.22-.104 1.064-2.32.22.104-.08 1.215 7.457 3.425-.122.272-9.57 2.187 6.458 2.962.885-.862.214.098-1.082 2.332zm4.68-9.94l-.213 1.105-.157.214-2.302-1.683.156-.214 2.274.387c.74-.277 1.365-.763 1.868-1.452.417-.567.62-1.14.614-1.712-.006-.573-.26-1.042-.764-1.412-.364-.266-.74-.359-1.128-.272-.388.08-.84.347-1.354.793l-1.562 1.324c-.544.463-1.088.712-1.632.753a2.2 2.2 0 01-1.492-.434 2.783 2.783 0 01-.903-1.07 2.25 2.25 0 01-.174-1.326c.076-.468.284-.943.625-1.411.428-.585.909-1.047 1.43-1.377l.237-.909.156-.214 1.828 1.337-.15.214-1.817-.26a4.77 4.77 0 00-1.475 1.342c-.411.561-.602 1.099-.567 1.62.034.52.266.937.7 1.255.324.237.66.307 1.012.214.353-.092.747-.324 1.18-.688l1.69-1.424c.544-.462 1.07-.717 1.59-.757.522-.04 1.106.179 1.76.653.665.486 1.024 1.088 1.076 1.805.052.718-.191 1.447-.73 2.187-.445.585-1.035 1.06-1.775 1.412zm4.022-4.594l-.168-.162.648-.902-5.78-5.653-.88.677-.173-.173 2.459-2.517.173.168-.659.896 5.786 5.653.89-.671.168.162-2.464 2.522zm2.846-3.135l-.139-.186.637-1.018-4.45-6.075-1.156.307-.145-.197 1.8-1.319 8.128 2.366-3.564-4.865-1.157.306-.145-.196 2.06-1.505.145.197-.66 1.024 4.848 6.625-.242.179-9.42-2.754 4.195 5.74 1.192-.319.139.191-2.066 1.499zm9.431-6.654a3.952 3.952 0 01-2.043-.914c-.601-.51-1.087-1.18-1.446-2.025-.364-.845-.509-1.66-.44-2.459.07-.793.336-1.504.799-2.13.463-.624 1.1-1.11 1.898-1.451.757-.324 1.47-.423 2.146-.29l.445-.821.232-.098 1.088 2.534-.232.098-1.446-1.371c-.706-.18-1.412-.122-2.124.185a2.86 2.86 0 00-1.226.96 2.738 2.738 0 00-.498 1.482c-.029.566.093 1.174.37 1.822l.799 1.869c.278.648.625 1.157 1.041 1.533.417.376.874.607 1.366.688a2.63 2.63 0 001.51-.208c.63-.272 1.041-.66 1.238-1.169.197-.509.162-1.07-.098-1.672l-.405-.948-1.088.289-.098-.226 3.292-1.411.098.225-.966.585.41.948c.168.388.209.799.128 1.233-.081.434-.324.862-.718 1.278-.393.417-.96.787-1.689 1.1-.804.347-1.585.468-2.343.364zm8.649-2.725l-.046-.231 1.047-.377-1.573-8.053-1.939.376-.474 2.332-.341.063-.475-2.43 7.655-1.492.474 2.43-.353.069-1.302-1.984-1.95.381 1.574 8.054 1.111-.046.046.231-3.454.677zm8.292-1.498a4.08 4.08 0 01-1.551-1.701c-.359-.718-.527-1.534-.498-2.442.029-.908.243-1.713.648-2.407a4.106 4.106 0 011.655-1.597c.7-.37 1.48-.543 2.355-.515.867.03 1.643.25 2.314.66.67.41 1.192.978 1.55 1.701.36.717.527 1.533.498 2.441-.029.909-.243 1.713-.654 2.407a4.106 4.106 0 01-1.654 1.597c-.7.37-1.482.544-2.355.515-.862-.023-1.638-.243-2.309-.66zm3.887.034c.469-.266.84-.665 1.123-1.192.283-.526.434-1.157.457-1.891l.052-1.707c.023-.735-.087-1.371-.336-1.915-.249-.544-.596-.966-1.047-1.262a2.906 2.906 0 00-1.539-.468c-.584-.018-1.105.104-1.568.376-.463.266-.839.665-1.117 1.192-.277.526-.434 1.157-.457 1.892l-.052 1.706c-.023.735.087 1.372.336 1.915.249.544.59.967 1.035 1.262.446.295.96.451 1.545.468.579.018 1.1-.11 1.568-.376zm3.651.678l.064-.226 1.191-.122 2.054-7.244-.954-.723.07-.237 2.14.607 3.136 7.863 1.643-5.803-.955-.723.07-.237 2.453.694-.07.237-1.215.104-2.239 7.898-.29-.081-3.627-9.118-1.938 6.838.984.74-.064.226-2.453-.694zm15.783 6.132a3.941 3.941 0 01-.208-2.227c.144-.776.492-1.528 1.053-2.257.561-.729 1.198-1.261 1.92-1.591a4.095 4.095 0 012.251-.353c.776.099 1.51.41 2.199.937.654.498 1.088 1.07 1.307 1.724l.932-.017.202.15-1.672 2.193-.196-.15.48-1.938c-.191-.7-.59-1.29-1.204-1.76a2.862 2.862 0 00-1.434-.595c-.515-.058-1.024.04-1.54.295-.508.255-.977.66-1.405 1.22l-1.233 1.615c-.428.561-.7 1.11-.821 1.66-.122.55-.099 1.06.07 1.528.167.468.474.873.92 1.21.543.416 1.087.584 1.625.503.538-.081 1.007-.388 1.412-.909l.624-.822-.792-.798.15-.197 2.847 2.17-.15.197-.978-.55-.625.822a2.105 2.105 0 01-1.013.717c-.416.145-.908.145-1.464.006-.56-.139-1.157-.446-1.787-.932-.7-.526-1.186-1.14-1.47-1.851zm9.309 9.158c.012-.3.174-.636.498-1l1-1.129c.336-.381.522-.78.556-1.186.035-.404-.145-.844-.538-1.319l-.602-.717-3.008 2.5.578.954-.179.15-2.25-2.707.179-.15.833.74 6.22-5.167-.585-.949.185-.156 2.147 2.58c.833 1.002 1.29 1.846 1.371 2.535.081.688-.174 1.278-.764 1.77-.978.816-2.077.648-3.292-.503l-.052.04c.33.527.492 1.036.475 1.528-.012.491-.197.948-.55 1.37l-.636.73c-.278.312-.446.55-.51.712a.422.422 0 00.076.44.81.81 0 00.324.225c.139.058.289.098.457.121l-.024.284c-.335-.023-.624-.093-.862-.22a1.924 1.924 0 01-.63-.52c-.29-.33-.422-.654-.417-.955zm1.973-4.489c.37.445.787.694 1.25.729.457.04.937-.15 1.435-.561l.18-.15c.942-.788.936-1.76-.024-2.91l-.596-.718-3.101 2.58.856 1.03zm.776 8.319c.04-.792.294-1.515.757-2.175.463-.66 1.1-1.192 1.915-1.602.816-.405 1.626-.596 2.43-.573.805.023 1.534.26 2.193.7.66.44 1.18 1.047 1.574 1.822.387.776.561 1.563.521 2.355a4.16 4.16 0 01-.758 2.176c-.463.66-1.1 1.191-1.915 1.602-.816.405-1.626.596-2.43.573a4.133 4.133 0 01-2.193-.694c-.66-.44-1.18-1.047-1.574-1.828-.393-.782-.567-1.563-.52-2.355zm1.816 3.437c.457.284.984.423 1.585.423.602 0 1.227-.174 1.88-.498l1.528-.764c.654-.33 1.163-.728 1.528-1.203.364-.474.567-.983.613-1.516a2.868 2.868 0 00-.318-1.573 2.911 2.911 0 00-1.076-1.204c-.458-.283-.984-.416-1.58-.416-.596.005-1.226.173-1.88.497l-1.528.764c-.654.33-1.163.729-1.527 1.203-.359.475-.567.984-.613 1.516a2.913 2.913 0 00.318 1.58c.26.509.613.908 1.07 1.191zm2.043 5.717a4.08 4.08 0 011.26-1.927c.608-.527 1.355-.891 2.246-1.094.891-.202 1.718-.19 2.493.03.776.22 1.429.618 1.962 1.203.532.584.896 1.302 1.087 2.152.191.85.168 1.655-.063 2.407a4.123 4.123 0 01-1.256 1.927c-.607.526-1.354.89-2.245 1.093-.891.197-1.718.191-2.493-.029a4.111 4.111 0 01-1.962-1.203c-.532-.585-.896-1.302-1.087-2.153-.197-.85-.174-1.654.058-2.406zm.937 3.772c.376.387.856.648 1.435.792.578.14 1.226.128 1.944-.028l1.666-.377c.717-.162 1.307-.428 1.77-.804.469-.376.787-.815.961-1.325a2.972 2.972 0 00.075-1.608c-.127-.567-.376-1.047-.752-1.429-.376-.382-.851-.642-1.435-.781-.584-.139-1.227-.127-1.944.029l-1.666.376c-.718.162-1.308.428-1.77.804-.47.376-.788.816-.961 1.32a2.925 2.925 0 00-.07 1.613c.122.556.37 1.03.747 1.418zm.422 3.732l.174 1.099 8.088-.04.15-1.106h.243l.018 3.761c.006 1.18-.226 2.06-.689 2.638-.463.579-1.139.868-2.019.874-.879.006-1.556-.278-2.025-.85-.468-.573-.706-1.453-.711-2.633l-.006-1.342-3.043.011-.163 1.105h-.23l-.018-3.523.231.006zm3.495 3.581c.005 1.475.752 2.21 2.244 2.204h.446c1.481-.005 2.216-.746 2.21-2.227l-.006-1.175-4.894.023V56.6z" fill="#1F381C"/><path d="M59 117.423C26.785 117.423.577 91.214.577 59 .577 26.785 26.786.577 59 .577c32.215 0 58.423 26.209 58.423 58.423 0 32.215-26.209 58.423-58.423 58.423zM59 1.01C27.023 1.01 1.01 27.023 1.01 59S27.023 116.99 59 116.99 116.99 90.977 116.99 59 90.977 1.01 59 1.01z" fill="#1F381C"/><path d="M59 96.022c-20.412 0-37.022-16.61-37.022-37.022S38.588 21.978 59 21.978 96.022 38.588 96.022 59 79.418 96.022 59 96.022zm0-73.61c-20.175 0-36.588 16.413-36.588 36.588S38.825 95.588 59 95.588 95.588 79.175 95.588 59 79.175 22.412 59 22.412zM20.74 92.603a3.012 3.012 0 01-.567-.937 2.136 2.136 0 01-.162-.943l.636-.214c-.012.266.029.543.133.844.104.301.26.567.469.805.19.214.37.364.544.45a.814.814 0 00.491.093.779.779 0 00.411-.196.646.646 0 00.237-.428 1.152 1.152 0 00-.075-.51 5.017 5.017 0 00-.243-.56 9.5 9.5 0 01-.283-.603 2.892 2.892 0 01-.186-.619 1.26 1.26 0 01.053-.619c.069-.208.214-.405.433-.601.215-.191.457-.313.724-.37a1.49 1.49 0 01.844.08c.295.116.585.336.868.66.191.214.347.457.469.723.121.266.197.532.214.793l-.63.243a2.112 2.112 0 00-.186-.73 2.302 2.302 0 00-.376-.584c-.185-.208-.364-.352-.544-.433a.826.826 0 00-.497-.082.785.785 0 00-.417.203.666.666 0 00-.243.434c-.011.162.012.33.075.51.064.178.145.364.243.56.099.197.191.4.284.602.092.208.15.41.185.62.035.207.017.41-.046.612-.07.203-.209.4-.428.596a1.564 1.564 0 01-.724.365 1.42 1.42 0 01-.85-.093c-.278-.127-.573-.347-.857-.671zm3.24 2.332l2.088 1.984-.474.504-2.604-2.471 3.819-4.027 2.534 2.401-.475.504-2.019-1.915-2.87 3.02zm1.648-1.834l1.846 1.747-.463.492-1.845-1.748.462-.491zm2.795 6.688a2.536 2.536 0 01-.689-.81 2.415 2.415 0 01-.283-.978 2.966 2.966 0 01.121-1.047c.11-.353.29-.689.544-1.013.255-.324.538-.584.857-.77.318-.19.648-.312.989-.37.341-.057.683-.04 1.018.047a2.5 2.5 0 01.949.48c.3.237.532.51.694.822.162.312.249.653.249 1.018l-.671.11a1.896 1.896 0 00-.191-.781 1.872 1.872 0 00-1.198-.95 1.767 1.767 0 00-.758-.028c-.254.04-.503.139-.74.283a2.439 2.439 0 00-.642.585 2.495 2.495 0 00-.411.758 2.06 2.06 0 00-.098.787c.017.254.092.503.214.729.121.231.289.428.509.601.214.168.445.278.694.336.255.058.52.058.81-.006l.052.677a2.208 2.208 0 01-1.047.006 2.483 2.483 0 01-.972-.486zm4.327 3.037c-.55-.347-.867-.798-.96-1.348-.092-.549.081-1.168.51-1.845l1.689-2.668.596.376-1.672 2.639c-.33.52-.475.972-.423 1.342.052.37.266.677.637.914.376.237.746.301 1.105.191.358-.11.7-.428 1.035-.949l1.672-2.638.579.364-1.69 2.668c-.433.677-.914 1.093-1.452 1.249-.526.157-1.07.058-1.625-.295zm3.374 1.944l2.499-4.958 1.724.868c.388.197.683.428.885.706.203.272.313.578.33.914.017.335-.07.682-.249 1.041-.18.359-.41.631-.688.816a1.63 1.63 0 01-.932.272c-.347 0-.706-.098-1.093-.295l-1.377-.694.445-.186-.925 1.834-.62-.318zm1.515-1.446l-.11-.492 1.354.683c.405.202.758.26 1.065.168.306-.093.55-.313.729-.666.18-.353.214-.682.104-.978-.11-.3-.364-.549-.77-.752l-1.353-.682.462-.209-1.48 2.928zm1.435 2.933l-.214-2.366.677.341.226 2.372-.689-.347zm2.87.504l2.684 1.053-.254.642-3.338-1.314 2.03-5.166 3.246 1.273-.255.642-2.592-1.018-1.521 3.888zm.845-2.321l2.366.932-.249.625-2.366-.932.249-.625zm8.053 5.832l.446-2.077.058.515-1.256-4.275.74.156 1.054 3.61-.4-.087 2.448-2.858.682.145-2.892 3.385.254-.446-.445 2.077-.689-.145zm5.658 1.001a2.513 2.513 0 01-1.781-1.018 2.778 2.778 0 01-.446-.955 3.086 3.086 0 01-.07-1.139 3.09 3.09 0 01.325-1.1c.168-.324.382-.601.648-.833.26-.231.56-.393.896-.503a2.617 2.617 0 011.07-.098c.377.04.712.15 1.013.324.301.173.556.405.764.682.208.284.359.602.446.955a3.3 3.3 0 01.069 1.151c-.046.411-.15.781-.318 1.105-.168.33-.382.608-.648.833a2.436 2.436 0 01-.897.498c-.341.11-.694.139-1.07.098zm.082-.7a1.8 1.8 0 001.423-.451 2.09 2.09 0 00.474-.631c.122-.248.203-.52.238-.827a2.36 2.36 0 00-.053-.862 2.128 2.128 0 00-.324-.717 1.876 1.876 0 00-.555-.515 1.755 1.755 0 00-.735-.243 1.84 1.84 0 00-1.44.451 2.088 2.088 0 00-.48.631c-.128.248-.203.52-.238.827-.035.307-.017.59.046.862.07.266.18.509.33.717.15.214.336.382.556.515.231.133.48.214.758.243zm6.075 1.024c-.648.006-1.163-.202-1.54-.619-.375-.416-.566-1.024-.566-1.828l-.018-3.159.706-.006.017 3.124c.006.62.128 1.071.37 1.354.244.284.585.423 1.03.423.446 0 .793-.151 1.03-.434.243-.29.36-.741.353-1.36l-.017-3.124.683-.006.017 3.159c.006.804-.174 1.418-.544 1.834-.359.428-.868.642-1.521.642zm3.933-.202l-.659-5.514 1.915-.231c.428-.052.804-.018 1.129.098.324.116.584.307.78.579.197.266.325.601.37 1.001.047.399.007.752-.12 1.058a1.585 1.585 0 01-.626.741c-.283.191-.642.307-1.076.359l-1.527.185.272-.399.243 2.042-.7.081zm.464-2.048l-.36-.347 1.505-.18c.451-.052.776-.202.984-.451.208-.249.283-.567.237-.96-.046-.394-.197-.683-.457-.874-.255-.185-.608-.255-1.059-.203l-1.51.18.266-.434.394 3.269zm2.817 1.654l-1.487-1.851.752-.093 1.505 1.852-.77.092zm6.827-1.55l-.67.214-1.702-5.288 3.321-1.071.214.66-2.65.851 1.487 4.634zm-.966-2.766l2.43-.781.208.648-2.43.781-.208-.648zm6.828.608c-.591.272-1.14.295-1.656.069-.514-.225-.937-.7-1.272-1.435l-1.32-2.869.643-.295 1.302 2.84c.26.562.555.92.896 1.082.342.157.712.145 1.111-.04.405-.185.66-.463.764-.822.098-.358.023-.821-.237-1.383l-1.302-2.84.625-.284 1.319 2.87c.335.729.422 1.365.26 1.898-.162.532-.538.931-1.134 1.209zm4.257-2.314l-2.54-4.149-1.446.885-.359-.59 3.49-2.135.358.59-1.447.886 2.54 4.148-.596.365zm4.612-3.125c-.51.405-1.036.562-1.591.463-.55-.092-1.077-.457-1.58-1.088l-1.967-2.47.55-.44 1.95 2.448c.387.486.763.763 1.127.833.37.069.724-.029 1.07-.307.354-.278.533-.602.545-.978.011-.376-.174-.804-.561-1.29l-1.95-2.447.538-.428 1.967 2.47c.498.63.735 1.22.706 1.782-.023.561-.29 1.042-.804 1.452zm3.02-2.69l-4.044-3.807 1.324-1.406c.296-.312.608-.532.926-.648.318-.116.642-.139.966-.058.324.081.631.255.926.532.295.278.486.573.584.891a1.62 1.62 0 010 .967c-.098.33-.295.648-.596.966l-1.058 1.122-.047-.48 1.499 1.406-.48.515zm-.95-1.869l-.502-.035 1.04-1.105c.313-.33.464-.653.464-.972 0-.318-.145-.619-.434-.89-.29-.273-.59-.4-.908-.377-.319.023-.631.197-.944.527l-1.041 1.105-.07-.503 2.396 2.25zm3.218-.532l-2.332-.469.52-.55 2.338.458-.526.56zm1.319-2.748l1.678-2.343.561.404-2.095 2.917-4.512-3.24 2.036-2.835.561.405-1.62 2.262 3.39 2.43zm-2.043-1.383l1.482-2.066.55.394-1.482 2.065-.55-.393z" fill="#1F381C"/><path d="M14.584 76.49c.711-.735 1.064-1.62 1.064-2.65a3.75 3.75 0 001.042 2.65c.711.735 1.55 1.094 2.545 1.094-.995 0-1.84.358-2.545 1.093-.689.735-1.042 1.597-1.042 2.627 0-1.03-.353-1.892-1.064-2.627-.683-.735-1.551-1.094-2.546-1.094.995 0 1.857-.358 2.546-1.093zm86.952 0c.712-.735 1.065-1.62 1.065-2.65 0 1.03.353 1.915 1.041 2.65.712.735 1.551 1.094 2.546 1.094-.995 0-1.84.358-2.546 1.093-.688.735-1.041 1.597-1.041 2.627 0-1.03-.353-1.892-1.065-2.627-.683-.735-1.55-1.094-2.546-1.094.996 0 1.863-.358 2.546-1.093zM76.085 59.567v17.502h-4.507v-4.594a19.31 19.31 0 01-3.31 2.343v-.006a19.605 19.605 0 01-5.64 2.083c-1.435.3-2.893.446-4.351.417a20.01 20.01 0 01-4.374-.533v-2.198c.561.283 1.157.532 1.759.752 1.938.729 3.882 1.053 5.832.99.26-.012.52-.024.78-.053 1.667-.156 3.322-.648 4.953-1.47.272-.144.532-.289.781-.427a9.834 9.834 0 001.666-1.273 13.049 13.049 0 001.904-2.309V60.036a25.54 25.54 0 00-2.32.133c-1.053.087-2.083.26-3.072.492-.978.237-1.886.584-2.708 1.081v-2.175h12.607z" fill="#E0BE69"/><path d="M68.546 75.298c-.67.532-1.458.885-2.239 1.227-1.035.451-2.083.885-3.188 1.151-.017.006-.029 0-.046 0l2.135 3.732h6.85l-3.512-6.11zm-5.843-33.522l-.266.266c.457.099.914.243 1.377.324.156-.127.312-.248.468-.358a21.905 21.905 0 011.88-1.221c1.164-.66 2.28-.978 3.38-.978v-4.796l-6.84 6.763zM45.427 65.89c.364.73.758 1.436 1.186 2.095v5.392c-.52-.376-1.001-.81-1.487-1.25-1.874-1.718-3.28-3.644-4.206-5.797-.926-2.135-1.383-4.322-1.383-6.56 0-2.251.457-4.444 1.383-6.579.926-2.146 2.331-4.079 4.206-5.797.457-.428.926-.833 1.418-1.186V47.3c-.394.446-.73.926-1.042 1.435-.949 1.55-1.602 3.292-1.956 5.236-.34 1.852-.34 3.801-.028 5.861a21.05 21.05 0 001.909 6.058zm29.807-14.429l-3.662 2.124c-1.145-2.28-2.615-4.195-4.374-5.757-1.73-1.54-3.645-2.72-5.727-3.518a.153.153 0 01-.081-.029c-.29-.104-.573-.208-.874-.3-.012 0-.03-.012-.04-.012-.29-.104-.585-.168-.897-.249a15.332 15.332 0 00-4.392-.428c-.457.029-.914.064-1.342.145V42.8a18.345 18.345 0 014.756-.561c.78 0 1.55.052 2.32.156.341.03.677.081 1.018.145.116.011.22.04.324.052a23.046 23.046 0 013.454.949 18.756 18.756 0 016.266 3.853c1.337 1.267 2.43 2.61 3.251 4.067z" fill="#E0BE69"/><path d="M67.632 73.719c-1.759.897-3.61 2.06-5.64 2.054l-7.528-13.174a37.565 37.565 0 00-1.354-2.147v20.95h-5.693V36.615h5.693v14.661l.353-.347 6.474-6.416c.295.15.596.283.897.405a53.17 53.17 0 00-1.84 1.793 749.223 749.223 0 01-3.714 3.761l-1.817 1.724-.353.336v2.684c.457.093.909.203 1.354.353a9.58 9.58 0 012.881 1.54 8.01 8.01 0 012.176 2.487l8.111 14.123z" fill="#E0BE69"/></svg>