<svg width="24" height="18" fill="none" xmlns="http://www.w3.org/2000/svg"><path d="M2.1 1.822l8.55 5.98a2.397 2.397 0 002.7 0l8.55-5.98M4.52 16.66h14.96c1.232 0 1.848 0 2.319-.216a2.1 2.1 0 00.961-.865c.24-.423.24-.977.24-2.085V3.998c0-1.108 0-1.662-.24-2.085a2.103 2.103 0 00-.961-.864c-.47-.216-1.087-.216-2.319-.216H4.52c-1.232 0-1.848 0-2.319.216-.414.19-.75.492-.961.864C1 2.336 1 2.89 1 3.998v9.495c0 1.108 0 1.662.24 2.085.21.373.547.675.961.865.47.216 1.087.216 2.319.216z" stroke="#1F381C"/></svg>