<svg width="17" height="17" fill="none" xmlns="http://www.w3.org/2000/svg"><path d="M2.983.062C2.628.165 2.375.32 1.91.717 1.052 1.45.773 1.787.45 2.468c-.75 1.576-.558 3.654.546 5.9 1.08 2.188 2.838 4.296 4.989 5.974.409.32 1.452 1.024 1.861 1.254 2.726 1.542 5.205 1.825 7.007.794.502-.289.731-.492 1.323-1.167.661-.758.794-1.03.82-1.712.017-.462-.026-.688-.205-1.063-.183-.39-.32-.522-1.297-1.28-1.25-.97-1.266-.98-1.552-1.094-.505-.2-1.04-.21-1.566-.036-.299.103-.458.21-1.183.79l-.641.516-.37-.17c-1.907-.887-3.44-2.436-4.377-4.42l-.143-.306.512-.642c.283-.35.562-.715.618-.804a2.32 2.32 0 00.28-.855 2.217 2.217 0 00-.383-1.529C6.118 1.84 5.094.567 4.954.454a2.55 2.55 0 00-.83-.406c-.277-.07-.868-.063-1.14.014zm.954 1.466c.087.05.33.335.821.967.382.492.735.97.788 1.067a.64.64 0 01.013.628c-.04.08-.349.49-.688.911-.339.42-.648.831-.688.911-.15.293-.09.552.343 1.456a10.59 10.59 0 005.009 5.01c.904.432 1.163.492 1.456.342.08-.04.491-.349.91-.688.422-.34.831-.648.911-.688a.641.641 0 01.628.013c.097.053.579.406 1.07.791.758.589.911.722.971.845.093.19.096.472.007.641-.103.2-.864 1.047-1.087 1.21-1.473 1.087-3.796.698-6.522-1.097-.98-.645-1.755-1.286-2.709-2.244-1.316-1.316-2.2-2.513-2.875-3.876C1.933 6.996 1.78 6.6 1.63 6c-.289-1.144-.229-2.131.18-2.959.263-.528.362-.641 1.173-1.32.147-.12.32-.235.386-.255a.856.856 0 01.568.063z" fill="url(#paint0_linear_91_14406)"/><defs><linearGradient id="paint0_linear_91_14406" x1="0" y1="17" x2="6.725" y2="-.675" gradientUnits="userSpaceOnUse"><stop stop-color="#DFBD69"/><stop offset=".531" stop-color="#FEF7C0"/><stop offset="1" stop-color="#926F34"/></linearGradient></defs></svg>