<svg width="41" height="50" fill="none" xmlns="http://www.w3.org/2000/svg"><path d="M6.733.521c-.36.461-.42.822-.42 2.625V5.23l-1.042-.1c-.802-.1-1.163-.04-1.463.18-.401.321-.401.582-.461 18.638l-.04 18.316-1.664.06c-1.483.06-1.643.1-1.643.462 0 .4.16.4 12.625.5l12.605.1.16.782c.442 2.125 2.245 4.289 4.37 5.311.961.46 1.362.521 3.206.521 1.984 0 2.204-.04 3.447-.661 1.663-.822 3.166-2.385 3.787-4.008.642-1.604.642-4.289.02-5.852-.64-1.623-2.164-3.246-3.807-4.048-1.263-.621-1.463-.661-3.487-.661H30.76V9.038l-.44-.42c-.24-.221-.722-.402-1.042-.402-1.544 0-1.523.02-1.523-2.685 0-2.345-.02-2.485-.502-2.926-.44-.42-1.142-.54-9.358-1.523C13.006.481 8.597 0 8.076 0c-.761 0-1.002.1-1.343.521zm10.802 1.543c4.81.581 8.838 1.142 8.978 1.223.16.1.24.841.24 2.344 0 1.944-.04 2.185-.34 2.185-.2 0-4.51-.541-9.58-1.203-5.07-.661-9.278-1.202-9.358-1.202-.2 0-.22-4.088-.02-4.269.22-.24 1.162-.16 10.08.922zm-9.62 4.449c5.672.701 20.983 2.725 21.404 2.806l.44.1V35.21l-.981.622c-.541.36-1.283.982-1.624 1.382-.861.962-1.743 2.866-1.904 4.089l-.14.982h-2.745l-.06-4.43c-.06-4.107-.08-4.448-.441-4.709-.32-.22-1.323-.28-4.83-.28-4.128 0-4.469.02-4.79.38-.3.341-.34.882-.32 4.71l.02 4.329H4.309V24.289c0-9.9.06-18.077.12-18.137.08-.08.32-.1.561-.04.24.06 1.543.24 2.926.401zm13.388 31.603l.04 4.169h-8.417v-8.417l4.168.04 4.148.06.06 4.148zm13.827-2.144c1.563.46 3.006 1.743 3.848 3.407.641 1.222.701 1.523.701 2.986 0 1.443-.08 1.783-.661 2.966-.721 1.463-1.743 2.485-3.226 3.206-.762.38-1.263.461-2.826.461-1.683 0-2.024-.06-2.966-.561-5.491-2.886-4.77-10.762 1.162-12.585.862-.26 2.886-.2 3.968.12z" fill="#1F381C"/><path d="M7.915 12.625c-.32.32-.4.662-.4 1.904 0 1.343.06 1.583.5 2.004.442.44.642.501 2.105.501s1.663-.06 2.104-.5c.44-.422.501-.662.501-1.865 0-1.102-.08-1.503-.42-1.924-.381-.5-.502-.52-2.205-.52-1.523 0-1.844.06-2.185.4zm3.768 1.824c.08 1.443-.14 1.623-1.804 1.543l-1.262-.06-.06-1.082c-.1-1.624-.06-1.644 1.603-1.583l1.463.06.06 1.122zm3.247-1.824c-.34.34-.4.662-.4 1.944 0 .862.08 1.664.16 1.784.3.48 1.082.681 2.525.681 2.104 0 2.324-.24 2.324-2.465 0-2.224-.14-2.345-2.465-2.345-1.483 0-1.803.06-2.144.401zm3.567 1.944l-.06 1.363-.982.06c-1.803.12-1.924.02-1.924-1.463v-1.303h3.026l-.06 1.343zm3.346-1.944c-.48.541-.64 2.565-.3 3.427.32.782.882.982 2.585.982 1.082 0 1.483-.08 1.904-.42.48-.381.52-.522.52-2.005 0-2.204-.2-2.385-2.564-2.385-1.543 0-1.824.06-2.145.401zm3.668 1.944l-.06 1.363h-2.806l-.06-1.363-.06-1.343h3.046l-.06 1.343zm-17.596 4.87c-.32.32-.4.661-.4 1.904 0 1.343.06 1.583.5 2.004.421.44.662.5 2.065.5 2.224 0 2.505-.26 2.605-2.224.06-1.282.02-1.563-.36-2.044-.422-.52-.502-.54-2.225-.54-1.523 0-1.844.06-2.185.4zm3.688.922c.22.601.12 2.024-.16 2.264-.18.14-.802.22-1.564.18l-1.262-.06-.06-1.082c-.1-1.583-.06-1.623 1.543-1.623 1.082 0 1.403.08 1.503.32zm3.327-.922c-.34.34-.4.661-.4 1.984 0 1.483.04 1.623.52 2.004.762.601 3.487.621 4.088.02.441-.44.441-.501.401-2.405-.04-1.844-.22-2.004-2.445-2.004-1.503 0-1.823.06-2.164.4zm3.567 1.944l-.06 1.363-.982.06c-1.803.12-1.924.02-1.924-1.463V20.04h3.026l-.06 1.343zm3.247-1.803c-.381.48-.421.76-.361 2.043.1 1.964.4 2.225 2.565 2.225 1.263 0 1.643-.08 2.084-.421.481-.38.521-.521.521-2.004 0-2.204-.2-2.385-2.585-2.385-1.723 0-1.803.02-2.224.541zm3.767 1.803l-.06 1.363h-2.805l-.06-1.363-.06-1.343h3.045l-.06 1.343zm-17.596 4.87c-.32.32-.4.66-.4 1.903 0 1.343.06 1.584.5 2.004.442.441.642.501 2.105.501s1.663-.06 2.104-.5c.44-.422.501-.662.501-1.864 0-1.103-.08-1.503-.42-1.924-.381-.501-.502-.521-2.205-.521-1.523 0-1.844.06-2.185.4zm3.688.921c.2.541.14 1.984-.12 2.245-.24.24-2.085.34-2.646.12-.24-.1-.32-.4-.32-1.262 0-.642.06-1.223.14-1.283.06-.08.741-.14 1.483-.14 1.042 0 1.363.08 1.463.32zm3.367-1.002c-.4.28-.44.481-.44 1.984 0 1.563.04 1.704.52 2.084.762.602 3.407.602 4.048.02.481-.46.521-.701.461-2.505-.08-1.743-.3-1.903-2.405-1.903-1.242 0-1.863.08-2.184.32zm3.527 2.024l-.06 1.363h-2.805l-.06-1.363-.06-1.342h3.045l-.06 1.342zm3.326-1.923c-.3.34-.38.741-.38 2.004 0 2.084.18 2.264 2.364 2.344 1.443.06 1.704.02 2.205-.36.5-.401.54-.521.54-2.024 0-2.205-.2-2.385-2.564-2.385-1.564 0-1.824.06-2.165.42zm3.688 1.923l-.06 1.363h-2.806l-.06-1.363-.06-1.342h3.046l-.06 1.342zm7.195 8.818c-.08.06-.14.882-.14 1.804v1.663h-1.003c-1.663 0-1.803.28-1.803 3.387v2.585l.54.14c.762.18 5.291.08 5.732-.14.341-.18.361-.441.3-2.665-.08-2.986-.24-3.307-1.803-3.307-1.302 0-1.202-.46.08-.501 1.243-.02 1.564-.32 1.564-1.523 0-1.343-.301-1.583-1.984-1.583-.742 0-1.423.06-1.483.14zm2.424 1.403c.06.42-.02.46-.741.46-.742 0-.822-.04-.822-.52 0-.461.06-.501.762-.441.601.04.761.14.801.5zm.04 5.07c0 1.643-.06 2.004-.3 2.004-.22 0-.3-.24-.3-.982 0-1.162-.422-1.764-1.343-1.944-.541-.1-.742-.02-1.263.481-.5.501-.601.782-.601 1.523 0 .681-.08.922-.3.922-.241 0-.301-.36-.301-2.004v-2.004h4.408v2.004zm-1.843.24c.14.14.24.582.24 1.003 0 .72-.04.761-.6.761-.562 0-.602-.04-.602-.761 0-.682.28-1.243.601-1.243.06 0 .22.1.36.24z" fill="#1F381C"/></svg>