<svg width="46" height="46" fill="none" xmlns="http://www.w3.org/2000/svg"><path d="M21.45.238c-.94.307-2.552 1.956-2.84 2.934-.364 1.227-.287 1.993.423 3.93.345.997.69 2.204.767 2.703l.134.9-9.305.058-9.325.058-.614.632c-.537.537-.633.748-.633 1.572 0 .825.096 1.036.633 1.572l.614.633 3.166.058 3.166.057v7.611l-.998.23c-2.475.594-4.624 2.224-5.699 4.37-2.993 5.925 1.554 12.75 8.174 12.251 2.801-.21 5.488-1.994 6.754-4.505 2.513-4.965-.25-10.832-5.68-12.116l-1.016-.23v-7.63h10.744v11.886c0 7.515-.076 11.886-.192 11.886-.326 0-1.477 1.13-1.707 1.706-.173.403-.46.613-1.036.786-1.555.46-2.495 1.495-2.744 3.029-.23 1.457-.69 1.38 8.75 1.38s8.979.077 8.748-1.4c-.191-1.226-.94-2.204-2.09-2.74-.557-.25-1.095-.46-1.21-.46-.115 0-.326-.27-.46-.576-.25-.575-1.382-1.725-1.727-1.725-.115 0-.192-4.371-.192-11.886V15.326H36.8v7.994l-3.76 2.243c-2.054 1.246-3.8 2.396-3.857 2.55-.192.48.21.92.882.978l.595.057v4.371c0 3.125.058 4.41.23 4.582.326.326 13.028.326 13.355 0 .172-.173.23-1.457.23-4.582v-4.37l.594-.058c.672-.058 1.075-.499.883-.978-.057-.154-1.803-1.304-3.856-2.55l-3.761-2.243v-7.975l3.166-.057 3.166-.058.614-.633c.537-.536.633-.747.633-1.572 0-.824-.096-1.035-.633-1.572l-.614-.632-9.306-.058c-7.905-.038-9.306-.096-9.306-.326 0-.632.48-2.396.979-3.68.882-2.205.69-3.662-.73-5.234-1.246-1.38-3.03-1.86-4.854-1.285zm2.763 1.553c.883.365 1.67 1.476 1.785 2.473.076.595-.039 1.131-.403 2.013-.979 2.3-1.401 5.292-.825 5.77.192.135 3.146.23 9.823.25 8.865.057 9.575.077 9.767.383.153.25.153.441 0 .671-.192.326-.902.345-9.767.403-6.677.02-9.632.115-9.823.25-.212.172-.25 2.434-.25 12.269V38.33h-3.07V26.272c0-9.834-.038-12.096-.25-12.269-.191-.134-3.146-.23-9.823-.25-8.864-.057-9.574-.076-9.766-.402-.154-.23-.154-.421 0-.67.192-.307.902-.326 9.766-.384 7.176-.038 9.632-.096 9.843-.268.422-.345.173-2.876-.441-4.601a47.622 47.622 0 01-.71-2.07c-.73-2.397 1.784-4.564 4.144-3.567zM11.204 25.18c1.478.67 2.782 1.974 3.473 3.45.46.997.537 1.42.537 2.8s-.076 1.801-.537 2.798c-.69 1.477-1.995 2.78-3.492 3.47-.978.46-1.4.537-2.782.537-1.381 0-1.804-.077-2.782-.537-1.497-.69-2.801-1.993-3.492-3.47-.46-.997-.537-1.418-.537-2.799 0-1.38.076-1.802.537-2.78 1.65-3.508 5.622-5.041 9.075-3.47zm28.858.977l2.398 1.438h-9.785l2.398-1.438c1.324-.785 2.437-1.437 2.494-1.437.058 0 1.17.652 2.495 1.438zm2.878 6.806v3.834h-3.032l-.057-1.63c-.077-1.533-.115-1.648-.71-2.242-.538-.537-.749-.633-1.574-.633-.825 0-1.036.096-1.573.633-.595.594-.633.71-.71 2.243l-.057 1.63h-3.032v-7.67H42.94v3.834zm-4.835.997c.134.134.23.767.23 1.534v1.303H36.8v-1.303c0-1.323.192-1.764.767-1.764.173 0 .403.096.538.23zm-12.721 6.48c1.669.862 1.439.958-2.38.958-1.976 0-3.473-.076-3.473-.172 0-.23 1.17-.959 1.88-1.189.98-.307 2.975-.115 3.973.403zm4.106 3.144c.326.326.594.632.594.728 0 .077-3.185.154-7.099.154-3.895 0-7.099-.077-7.099-.154 0-.21.979-1.112 1.343-1.246.154-.057 2.859-.096 5.986-.077l5.699.039.576.556z" fill="url(#paint0_linear_108_15577)"/><path d="M7.635 26.426c0 .23-.268.498-.71.728-2.686 1.304-1.688 5.042 1.344 5.042.652 0 1.017.115 1.285.384.825.824.173 1.917-1.151 1.917-.863 0-1.535-.518-1.535-1.15 0-.326-.134-.384-.768-.384-.71 0-.767.038-.767.556 0 .748.73 1.783 1.593 2.186.44.23.71.498.71.728 0 .307.134.364.767.364s.767-.057.767-.364c0-.23.269-.498.71-.728 2.686-1.304 1.689-5.042-1.324-5.042-.671 0-1.036-.115-1.304-.384-.825-.824-.173-1.917 1.15-1.917.864 0 1.536.518 1.536 1.15 0 .326.134.384.767.384.71 0 .768-.038.768-.556 0-.748-.73-1.783-1.593-2.186-.441-.23-.71-.498-.71-.728 0-.307-.134-.364-.767-.364s-.768.057-.768.364z" fill="url(#paint1_linear_108_15577)"/><defs><linearGradient id="paint0_linear_108_15577" x1="0" y1="46" x2="18.196" y2="-1.828" gradientUnits="userSpaceOnUse"><stop stop-color="#DFBD69"/><stop offset=".531" stop-color="#FEF7C0"/><stop offset="1" stop-color="#926F34"/></linearGradient><linearGradient id="paint1_linear_108_15577" x1="5.333" y1="36.797" x2="11.226" y2="27.939" gradientUnits="userSpaceOnUse"><stop stop-color="#DFBD69"/><stop offset=".531" stop-color="#FEF7C0"/><stop offset="1" stop-color="#926F34"/></linearGradient></defs></svg>