<svg width="44" height="44" fill="none" xmlns="http://www.w3.org/2000/svg"><path d="M5.556.198a1.76 1.76 0 00-.643.618l-.261.413-.026 1.659-.035 1.658-1.67.026-1.678.026-.417.257a1.757 1.757 0 00-.626.636L0 5.87v18.38c0 16.397.017 18.416.13 18.7.174.404.435.679.844.885.313.155.739.163 14.547.163 15.46 0 14.521.035 15.026-.48.504-.5.53-.628.565-2.416l.035-1.658h1.574c1.356 0 1.634-.026 1.93-.163.46-.207.721-.473.921-.903.148-.335.166-.67.166-5.715v-5.362l2.87-4.907c1.582-2.698 2.903-4.958 2.947-5.027.06-.095.13-.086.383.069l.313.189-.592 1.005c-1.86 3.163-2.53 4.366-2.53 4.546 0 .258.443.713.687.713.487 0 .565-.111 2.287-3.068 2.026-3.463 1.895-3.214 1.895-3.54 0-.335-.165-.49-.982-.954l-.661-.37.13-.24c.14-.284.166-.877.035-1.117-.078-.13-.026-.275.261-.757.278-.472.348-.678.348-1.014 0-.661-.183-.842-1.53-1.615-1.079-.61-1.253-.688-1.644-.68-.583 0-.809.181-1.27.955-.304.541-.39.627-.6.627-.47 0-.782.327-1.556 1.667l-.748 1.29-.043-2.966-.044-2.956-.235-.386C35.12 8.198 27.087.3 26.677.138 26.39.018 25.164 0 16.147 0H5.94l-.383.198zM25.564 5.37c0 4.22.018 4.4.392 4.546.078.026 1.982.052 4.225.052h4.079v7.7l-2.93 5.018-2.931 5.019.156 2.02c.087 1.117.2 2.122.253 2.234.06.111.208.283.339.378.426.31.756.232 2.59-.645 2.105-.996 1.931-.893 2.253-1.392l.27-.43v3.954c0 2.956-.026 3.978-.105 4.056-.078.077-3.295.103-13.947.103-12.47 0-13.86-.017-13.982-.138-.122-.12-.14-1.881-.14-18.115 0-18.76-.008-18.167.349-18.296.07-.026 4.408-.051 9.634-.051l9.495-.009V5.37zm4.565.129l3.044 3.008h-6.13V5.5c0-1.659.008-3.008.026-3.008.008 0 1.39 1.35 3.06 3.008zM4.61 21.88c0 11.145.026 15.966.095 16.224.122.482.54.98.983 1.178.339.154.87.163 12.165.163H29.65v1.4c0 1.075-.026 1.444-.122 1.573-.121.164-.365.164-14.008.164-12.234 0-13.886-.018-13.956-.13-.13-.206-.113-36.204.018-36.333.07-.069.547-.103 1.565-.103h1.46V21.88zm36.233-9.368c.374.215.687.404.704.413.009.017-.07.18-.174.37l-.191.343-.748-.43-.748-.438.174-.326c.105-.18.209-.327.244-.327s.365.18.739.395zm-1.13 1.994l1.321.756-2.13 3.653a458.904 458.904 0 00-2.235 3.832c-.104.18-.13.172-1.478-.593-1.322-.747-1.365-.782-1.252-.962.06-.095 1.07-1.813 2.234-3.816 1.157-1.993 2.14-3.626 2.166-3.626.026 0 .643.344 1.373.756zm-5.253 8.955c.705.395 1.279.756 1.279.799 0 .077-2.67 4.683-2.791 4.82-.07.078-2.783-1.408-2.73-1.494.66-1.203 2.86-4.899 2.912-4.881.026.017.635.352 1.33.756zm-3.617 6.256l.713.412-.73.361-.74.361v-.455c0-.24-.025-.593-.051-.774-.035-.171-.026-.318.017-.318.044 0 .4.19.791.413z" fill="url(#paint0_linear_106_15064)"/><path d="M9.305 4.065a.725.725 0 00-.174 1.177c.174.172.313.172 5.765.172h5.6l.182-.198c.191-.197.252-.584.14-.876-.149-.378-.244-.387-5.922-.387-4.157 0-5.426.026-5.591.112z" fill="url(#paint1_linear_106_15064)"/><path d="M9.305 8.62a.725.725 0 00-.174 1.177c.174.172.313.172 5.765.172h5.6l.182-.198c.191-.198.252-.584.14-.877-.149-.378-.244-.386-5.922-.386-4.157 0-5.426.025-5.591.111z" fill="url(#paint2_linear_106_15064)"/><path d="M9.121 13.913c-.148.155-.252.344-.252.481 0 .138.104.327.252.482l.252.249h21.678l.209-.215a.71.71 0 000-1.031l-.21-.215H9.374l-.252.25z" fill="url(#paint3_linear_106_15064)"/><path d="M9.112 18.476c-.218.224-.252.31-.209.542a.863.863 0 00.278.464l.218.197h10.678c10.669 0 10.677 0 10.912-.18.183-.137.226-.25.226-.55 0-.3-.043-.413-.226-.55-.235-.18-.235-.18-10.921-.18H9.373l-.261.257z" fill="url(#paint4_linear_106_15064)"/><path d="M9.087 23.048c-.279.327-.253.696.095.989l.218.197h9.295c6.721 0 9.356-.026 9.513-.094.27-.13.434-.507.356-.843-.122-.558.513-.524-9.834-.524H9.32l-.234.275z" fill="url(#paint5_linear_106_15064)"/><path d="M9.209 27.44c-.4.3-.409.867-.018 1.177.218.172.34.172 8.565.172h8.34l.208-.215c.313-.3.304-.825-.009-1.066-.235-.18-.26-.18-8.59-.18-6.435.008-8.392.026-8.496.111z" fill="url(#paint6_linear_106_15064)"/><path d="M9.209 31.994a.733.733 0 00-.018 1.178c.218.163.348.171 3.87.171h3.643l.209-.215c.313-.3.304-.824-.009-1.065-.226-.18-.322-.18-3.895-.18-2.74.008-3.696.034-3.8.111z" fill="url(#paint7_linear_106_15064)"/><defs><linearGradient id="paint0_linear_106_15064" x1="0" y1="44" x2="17.405" y2="-1.748" gradientUnits="userSpaceOnUse"><stop stop-color="#DFBD69"/><stop offset=".531" stop-color="#FEF7C0"/><stop offset="1" stop-color="#926F34"/></linearGradient><linearGradient id="paint1_linear_106_15064" x1="8.903" y1="5.414" x2="8.984" y2="3.679" gradientUnits="userSpaceOnUse"><stop stop-color="#DFBD69"/><stop offset=".531" stop-color="#FEF7C0"/><stop offset="1" stop-color="#926F34"/></linearGradient><linearGradient id="paint2_linear_106_15064" x1="8.903" y1="9.969" x2="8.984" y2="8.234" gradientUnits="userSpaceOnUse"><stop stop-color="#DFBD69"/><stop offset=".531" stop-color="#FEF7C0"/><stop offset="1" stop-color="#926F34"/></linearGradient><linearGradient id="paint3_linear_106_15064" x1="8.869" y1="15.125" x2="8.912" y2="13.387" gradientUnits="userSpaceOnUse"><stop stop-color="#DFBD69"/><stop offset=".531" stop-color="#FEF7C0"/><stop offset="1" stop-color="#926F34"/></linearGradient><linearGradient id="paint4_linear_106_15064" x1="8.887" y1="19.679" x2="8.93" y2="17.942" gradientUnits="userSpaceOnUse"><stop stop-color="#DFBD69"/><stop offset=".531" stop-color="#FEF7C0"/><stop offset="1" stop-color="#926F34"/></linearGradient><linearGradient id="paint5_linear_106_15064" x1="8.897" y1="24.234" x2="8.947" y2="22.496" gradientUnits="userSpaceOnUse"><stop stop-color="#DFBD69"/><stop offset=".531" stop-color="#FEF7C0"/><stop offset="1" stop-color="#926F34"/></linearGradient><linearGradient id="paint6_linear_106_15064" x1="8.903" y1="28.789" x2="8.958" y2="27.052" gradientUnits="userSpaceOnUse"><stop stop-color="#DFBD69"/><stop offset=".531" stop-color="#FEF7C0"/><stop offset="1" stop-color="#926F34"/></linearGradient><linearGradient id="paint7_linear_106_15064" x1="8.903" y1="33.343" x2="9.02" y2="31.612" gradientUnits="userSpaceOnUse"><stop stop-color="#DFBD69"/><stop offset=".531" stop-color="#FEF7C0"/><stop offset="1" stop-color="#926F34"/></linearGradient></defs></svg>