<svg width="50" height="46" fill="none" xmlns="http://www.w3.org/2000/svg"><path d="M12.59.273c-.723.331-1.563 1.209-1.837 1.93-.137.332-.215 2.204-.215 4.543v3.978H7.705c-3.225 0-3.987.195-4.476 1.15-.254.488-.313 1.443-.313 5.733 0 5.323.04 5.596.821 5.596.645 0 .762-.878.743-5.772-.02-2.613.039-4.835.098-4.952.078-.117 1.29-.195 3.048-.195h2.912V26.38l.489.858c.86 1.442 1.114 1.501 6.449 1.618l4.69.098.9 2.612c.507 1.424 1.035 2.671 1.172 2.769.352.214 1.172.214 1.544-.02.156-.097.684-1.345 1.172-2.768l.88-2.593 4.69-.098c4.397-.098 4.73-.117 5.374-.526.391-.234.9-.78 1.134-1.19.43-.76.43-.916.43-7.818v-7.059l2.99.059 2.97.058.059 13.005.04 13.025H4.48v-5.927c0-5.148-.04-5.986-.313-6.24-.352-.37-.39-.37-.88-.117-.351.195-.37.468-.37 6.22v6.005L1.9 38.45c-.801.078-1.114.214-1.485.643-.43.527-.45.663-.39 2.75.058 2.378.234 2.788 1.406 3.665.528.41.704.41 17.589.468 15.439.04 17.1.02 17.334-.273.176-.214.196-.39.04-.624-.176-.312-1.603-.331-17.022-.429l-16.807-.097-.508-.468c-.47-.449-.509-.585-.509-2.3V39.97H18.55v.975c0 .8.098 1.092.49 1.462l.468.487h10.984l.469-.487c.39-.37.488-.663.488-1.462v-.975h17.003v1.813c0 1.716-.04 1.852-.509 2.3-.488.469-.566.469-4.475.527-3.791.059-3.987.078-4.104.449-.078.214-.02.526.117.682.196.254.88.293 4.398.234 3.83-.058 4.201-.097 4.69-.468 1.172-.877 1.348-1.287 1.407-3.665.059-2.087.039-2.223-.391-2.75-.371-.429-.684-.565-1.485-.643l-1.017-.098V25.407c0-14.214.04-13.766-1.172-14.39-.43-.214-1.27-.292-3.518-.292h-2.931V6.727c0-4.368-.098-4.855-1.095-5.791C37.487.117 36.902 0 34.01 0c-2.228 0-2.755.058-2.97.312-.176.214-.196.39-.04.624.157.273.665.35 2.913.429 3.029.117 3.478.253 3.908 1.267.43 1.034.41 22.871-.02 23.69-.566 1.092-.996 1.17-5.96 1.17-2.638 0-4.67.078-4.886.195-.234.117-.625.975-1.094 2.437-.41 1.229-.801 2.243-.86 2.243-.059 0-.45-1.014-.86-2.243-.469-1.462-.86-2.32-1.094-2.437-.215-.117-2.248-.195-4.886-.195-4.964 0-5.394-.078-5.96-1.17-.43-.838-.45-22.656 0-23.71.508-1.208.762-1.247 8.676-1.247 6.919 0 7.036 0 7.153-.39.313-.956.176-.975-7.602-.975-5.628.02-7.387.078-7.837.273zm17.452 40.42l-.059.74h-9.966l-.06-.74-.058-.722H30.1l-.058.721z" fill="#1F381C"/><path d="M20.818 6.24c-2.99 3.002-3.087 3.12-2.97 3.743.234 1.209 2.228 2.808 3.185 2.574.215-.059.489.039.645.214.235.273.157.41-.605 1.073-3.03 2.593-5.961 5.245-6.293 5.673-.587.82-.645 2.067-.098 3.081.684 1.326 1.29 1.677 2.892 1.677 1.31 0 1.368-.02 2.15-.78.45-.429 1.954-2.125 3.38-3.744 2.307-2.67 2.58-2.944 2.874-2.69.215.195.293.507.234.975-.078.624.02.8.977 1.755 1.74 1.735 1.779 1.715 5.511-2.048 2.99-3.002 3.088-3.12 2.971-3.743-.234-1.19-2.228-2.808-3.166-2.574-.274.078-.997-.527-2.814-2.36-2.306-2.3-2.423-2.476-2.365-3.139.04-.604-.058-.818-1.016-1.754-1.72-1.716-1.778-1.677-5.492 2.066zm4.476-.975l.566.604-2.618 2.613-2.619 2.632-.645-.624-.645-.624 2.58-2.593C23.34 5.849 24.55 4.68 24.61 4.68c.078 0 .371.273.684.585zm3.38 4.737c1.31 1.326 2.385 2.477 2.385 2.594 0 .097-.82.994-1.818 1.989l-1.817 1.793-2.482-2.437c-1.368-1.365-2.482-2.515-2.482-2.574 0-.136 3.576-3.763 3.713-3.763.059 0 1.173 1.073 2.502 2.398zm2.873 6.766l-2.638 2.633-.625-.644-.645-.624 2.638-2.632 2.619-2.632.645.624.664.624-2.657 2.651zm-7.64-1.774l.742.76-3.068 3.51c-3.499 4.017-3.928 4.27-5.16 3.237-.762-.644-.84-1.755-.156-2.477.645-.721 6.566-5.79 6.742-5.79.078 0 .489.35.9.76z" fill="#1F381C"/></svg>