<svg width="31" height="46" fill="none" xmlns="http://www.w3.org/2000/svg"><path d="M1.958 1.977L0 3.945l.018 20.9c.028 17.004.047 20.92.148 21.023.176.176 30.527.176 30.702 0 .176-.177.176-45.525 0-45.7-.101-.103-2.678-.122-13.531-.15L3.926 0 1.958 1.977zm27.599 21.04V44.55H1.477V4.965L3.206 3.23l1.737-1.745h24.614v21.532z" fill="#1F381C"/><path d="M6.65 4.409v1.429l-.342.056c-.194.037-.471.083-.628.111-.933.176-2.18 1.253-2.53 2.209-.186.482-.204.696-.176 1.624.027.975.055 1.114.295 1.56.517.937 1.69 1.81 2.614 1.93.194.028.444.065.564.093l.203.037v2.134c0 1.18-.028 2.135-.065 2.135-.23 0-.85-.232-1.117-.418-.665-.454-.86-.956-.989-2.487l-.064-.715H2.872l.046.854c.083 1.792.102 1.903.37 2.386.498.928 1.68 1.8 2.595 1.92.85.112.767-.046.767 1.57v1.438h1.478v-2.868l.35-.056c.185-.037.472-.083.62-.111.932-.176 2.18-1.253 2.53-2.209.185-.483.204-.696.176-1.624-.028-.975-.056-1.114-.296-1.56-.499-.909-1.635-1.772-2.512-1.92-.194-.028-.471-.084-.61-.103l-.258-.055v-4.27l.341.065c1.026.195 1.783 1.151 1.783 2.265 0 .185.028.557.055.817l.065.491h1.533l-.046-.863c-.083-1.782-.101-1.893-.37-2.376-.48-.89-1.616-1.763-2.493-1.912-.194-.027-.471-.083-.61-.102l-.258-.055V2.97H6.65v1.439zm0 5.243c0 1.17-.028 2.135-.065 2.135a3.04 3.04 0 01-.434-.102c-1.108-.306-1.755-1.392-1.515-2.543.167-.761 1.118-1.606 1.857-1.624.148 0 .157.158.157 2.134zm2.06 3.908c.665.185 1.339.974 1.477 1.735.194 1.021-.628 2.135-1.755 2.386l-.304.065v-2.144c0-1.652.027-2.144.12-2.144.055 0 .268.046.462.102zm4.59-7.62v.742h14.779V5.197h-14.78v.743zm0 4.455v.742h14.779V9.652h-14.78v.743zm0 4.455v.742h14.779v-1.485h-14.78v.743zm0 4.455v.742h14.779v-1.484h-14.78v.742zM3.14 26.916c-.185.185-.185.306-.185 7.981 0 7.676 0 7.797.185 7.982.185.186.305.186 12.377.186 12.072 0 12.192 0 12.377-.186.184-.185.184-.306.184-7.982 0-7.675 0-7.796-.184-7.981-.185-.186-.305-.186-12.377-.186-12.072 0-12.192 0-12.377.186zm5.726 7.981v6.683H4.433V28.215h4.433v6.682zm5.912 0v6.683h-4.434V28.215h4.434v6.682zm5.911 0v6.683h-4.433V28.215h4.433v6.682zm5.912 0v6.683h-4.434V28.215H26.6v6.682z" fill="#1F381C"/><path d="M5.911 30.442v.743H7.39V29.7H5.911v.742zm5.911 0v.743H13.3V29.7h-1.478v.742zm5.912 0v.743h1.478V29.7h-1.478v.742zm5.912 0v.743h1.478V29.7h-1.478v.742z" fill="#1F381C"/></svg>