<svg width="49" height="47" fill="none" xmlns="http://www.w3.org/2000/svg"><path d="M18.066.235C7.498 2.221 0 11.103 0 21.622c0 8.473 4.882 16.046 12.69 19.668 4.902 2.292 10.897 2.62 16.088.9l1.504-.511h8.94c7.951 0 8.96-.041 9.064-.328.062-.184.123-2.333.123-4.789 0-3.52.062-4.604.31-5.198.267-.614.309-1.617.267-5.505l-.061-4.748-2.596-.062-2.596-.061-.247-1.78c-.68-5.24-2.595-9.19-6.283-12.853-3.028-2.988-6.303-4.85-10.32-5.833-2.225-.553-6.613-.696-8.817-.287zm5.87 1.515c1.03.655 2.37 2.415 3.153 4.195.577 1.31 1.833 5.24 1.71 5.362-.33.307-3.05.573-6.14.573-3.872.021-6.962-.347-7.147-.839-.186-.47 1.36-4.83 2.224-6.324 1.999-3.417 3.976-4.359 6.2-2.967zm-5.89.45c-1.298 1.535-2.761 4.728-3.606 7.9l-.226.84-.742-.206c-2.08-.552-6.468-2.865-6.468-3.397 0-.184 1.669-1.617 2.987-2.538 1.957-1.391 5.109-2.763 7.622-3.295 1.133-.245 1.195-.163.432.696zm10.279-.082c2.637.84 6.015 2.906 7.93 4.871l.928.942-.515.388c-1.175.9-5.398 2.661-6.366 2.661-.247 0-.494-.553-.906-2.006-.7-2.415-1.937-5.075-3.028-6.508l-.804-1.064.866.205c.473.102 1.338.327 1.895.511zM7.189 9.015c1.257.9 3.482 2.006 5.274 2.579.803.246 1.463.47 1.483.491.02.02-.082.86-.268 1.863-.165 1.023-.35 3.008-.432 4.44l-.124 2.62H1.174l.124-1.596c.144-1.862.535-3.438 1.421-5.649.742-1.862 2.987-5.444 3.42-5.444.04 0 .515.307 1.05.696zm31.56.778c.988 1.371 2.595 4.81 3.048 6.57.536 2.026.783 4.645.453 4.645-.123 0-.226-.307-.226-.675-.021-.962-.68-2.272-1.463-2.824-.68-.492-.783-.492-5.17-.492-2.473 0-4.491-.081-4.491-.184 0-.102-.144-1.146-.33-2.312-.165-1.187-.288-2.17-.247-2.21.041-.021.845-.308 1.813-.615 1.854-.593 4.305-1.74 5.129-2.374.268-.225.577-.389.66-.389.102 0 .473.39.823.86zM17.262 12.74c2.451.41 7.313.45 9.784.102 1.03-.163 1.896-.204 1.999-.102.103.102.309 1.29.474 2.64.288 2.436.288 2.456-.186 3.357-.268.49-.494 1.207-.494 1.576v.695h-7.313c-6.819 0-7.313-.02-7.313-.368.02-1.863.762-8.227.947-8.227.062 0 .99.143 2.102.327zm22.165 5.485c.906.368 1.36 1.044 1.36 2.006v.777H30.076v-.614c0-.92.556-1.842 1.297-2.149.927-.409 7.087-.43 8.055-.02zm-26.223 6.262c.082 1.29.247 3.214.39 4.237.145 1.044.248 1.965.248 2.047 0 .061-.989.47-2.163.88-2.225.777-4.017 1.698-5.109 2.62l-.638.531-.392-.511c-2.43-3.03-4.305-7.961-4.305-11.256v-1.003l5.933.04 5.912.062.123 2.354zm8.425 1.536v3.99h-1.174c-.66 0-2.122.144-3.235.307-1.133.164-2.06.307-2.1.307-.248 0-1.03-7.777-.825-8.309.083-.225.783-.286 3.729-.286h3.605v3.99zm26.368-3.07v.716H22.866v-1.433h25.132v.717zm0 4.502c0 4.257-.31 4.605-4.038 4.605h-2.493l-.123-1.044c-.371-3.09-2.884-5.3-6.015-5.3-3.029.02-5.356 2.026-5.892 5.095l-.227 1.249h-2.472c-1.338 0-2.636-.102-2.863-.205-.803-.45-1.01-1.248-1.01-4.195v-2.763h25.135v2.558zm-11.104-.41c2.08.738 3.276 2.477 3.276 4.749 0 1.535-.392 2.558-1.298 3.5-1.277 1.33-2.884 1.862-4.47 1.473a5.222 5.222 0 01-3.235-2.394c-.494-.84-.576-1.208-.576-2.518.02-2.312.947-3.765 2.987-4.686 1.112-.512 2.1-.532 3.316-.123zm-14.811 4.442c.185.327.288 1.903.37 5.28l.104 4.79.515.122c.453.102.474.143.144.266-.639.246-1.978.164-2.596-.164-1.627-.839-3.646-4.113-4.655-7.552-.762-2.66-.845-2.496 1.504-2.763 4.47-.511 4.305-.511 4.614.02zm-7.354 2.62c.68 2.435 2.225 5.69 3.316 6.938l.783.9-.906-.143c-1.71-.266-4.697-1.392-6.386-2.395-1.772-1.043-4.511-3.151-4.676-3.602-.144-.368.577-.92 2.41-1.883 1.257-.655 4.264-1.842 4.758-1.862.062 0 .371.92.7 2.046zm12.38-.82h2.349l.206.553c.412 1.085.72 1.597 1.545 2.415 1.298 1.29 2.183 1.638 4.223 1.638 1.524 0 1.874-.062 2.698-.553 1.216-.716 2.287-1.883 2.781-3.09l.392-.962h2.472c1.36 0 2.678-.061 2.945-.123l.453-.123v7.614l-11.783-.041-11.803-.062-.062-3.765-.041-3.766.638.143c.35.062 1.71.123 2.987.123z" fill="#1F381C"/><path d="M35.04 27.619c-.123.122-.226.307-.226.409 0 .082-.33.47-.721.84-.577.552-.721.838-.721 1.432 0 1.31.577 1.924 2.06 2.149.638.123.72.204.783.798.061.532-.021.696-.412.839-.577.205-1.195-.061-1.34-.614-.061-.246-.288-.389-.597-.389-.762 0-.659.921.186 1.72.37.347.741.797.824.982.206.552.927.45 1.091-.144.062-.266.31-.552.515-.614.454-.143 1.01-1.105 1.01-1.74 0-1.104-.762-1.8-2.307-2.128-.742-.163-.948-.86-.412-1.391.515-.512 1.215-.328 1.483.368.206.553.968.675 1.153.205.145-.39-.432-1.494-.927-1.76-.226-.103-.453-.39-.535-.594-.144-.491-.598-.675-.907-.368zm7.808 17.191c0 1.78.123 2.067.638 1.453.227-.286.289-.266.536.205.165.286.37.532.474.532.33 0 .432-.389.206-.819-.186-.348-.165-.409.206-.409.226 0 .412-.082.412-.164 0-.081-.557-.695-1.236-1.37l-1.236-1.208v1.78zm1.854.716c-.289.041-.412.185-.33.369.062.164.185.43.247.593.227.532-.247.328-.515-.225-.226-.532-.247-.532-.638-.184-.412.368-.412.348-.412-1.146v-1.494l1.05 1.003c.907.9.989 1.023.598 1.084z" fill="#1F381C"/></svg>