<svg width="28" height="46" fill="none" xmlns="http://www.w3.org/2000/svg"><path d="M18.017.153c-.144.08-.63.458-1.07.853-.817.728-1.284.944-1.752.836-.126-.027-.476-.315-.781-.647-.477-.53-.584-.602-.872-.602-.278 0-.413.09-1.042.683-.728.71-1.087.88-1.555.755-.116-.027-.548-.252-.97-.504-.845-.494-1.23-.566-1.527-.269-.207.207-.243.79-.081 1.096.054.108.341.512.638.917.943 1.275 1.59 2.794 1.931 4.546l.153.808h5.885l.054-.34c.413-2.49 1.033-4.25 1.995-5.688.647-.953.745-1.186.745-1.698 0-.378-.044-.495-.233-.674C19.337.036 19.203 0 18.789 0c-.287.01-.62.072-.773.153zm-4.322 2.623c.251.279.907.548 1.473.602.405.045.647.01 1.168-.161.35-.126.647-.216.647-.198 0 .009-.099.234-.215.494-.288.656-.818 2.327-.962 3.019l-.117.566H12.34l-.118-.521c-.143-.656-.584-1.914-.862-2.462-.117-.233-.216-.45-.216-.476 0-.027.135-.045.297-.045.467 0 1.05-.234 1.545-.62.252-.198.476-.36.503-.36.027-.008.126.073.207.162z" fill="url(#paint0_linear_106_15016)"/><path d="M10.1 10.099c-.152.072-.305.189-.34.278-.117.306-.054.764.125.944.171.17.297.18 4.133.18 3.837 0 3.963-.01 4.133-.18.198-.198.243-.7.09-.988-.18-.333-.548-.36-4.259-.36-2.82.01-3.665.036-3.881.126z" fill="url(#paint1_linear_106_15016)"/><path d="M10.694 13.576c-.674 1.132-2.507 3.828-4.322 6.325a180.15 180.15 0 00-2.39 3.37C1.808 26.532.586 29.416.128 32.38c-.225 1.51-.144 4.187.17 5.373 1.168 4.439 5.31 7.53 10.89 8.158 1.042.117 4.618.117 5.66 0 5.58-.629 9.686-3.701 10.899-8.158.216-.817.234-.988.234-2.983.009-2.462-.117-3.306-.809-5.39-.925-2.768-2.022-4.664-5.48-9.444-1.915-2.641-3.307-4.672-4.17-6.082l-.566-.917h-5.885l-.377.638zm6.379 2.435c.611.907 2.12 3.073 3.36 4.807 2.714 3.818 3.253 4.663 4.223 6.595.782 1.563 1.267 2.91 1.6 4.42.18.8.206 1.168.197 2.893 0 1.887-.009 2.013-.242 2.768-.926 3.01-3.163 5.139-6.604 6.253-1.851.611-2.471.683-5.634.683-3.144 0-3.908-.099-5.723-.728-3.351-1.168-5.517-3.252-6.424-6.208-.234-.755-.243-.88-.243-2.768-.009-1.734.018-2.093.198-2.91.323-1.492.782-2.732 1.59-4.367.97-1.96 1.456-2.714 4.214-6.595 1.258-1.761 2.776-3.936 3.378-4.843l1.097-1.635h3.917l1.096 1.635z" fill="url(#paint2_linear_106_15016)"/><path d="M13.381 24.816c-.306.099-.323.135-1.159 2.525-.871 2.48-.899 2.848-.26 2.848.305 0 .377-.099.583-.746l.162-.52.935.026.943.027.162.485c.206.602.314.728.61.728.324 0 .459-.153.459-.512 0-.341-1.474-4.492-1.671-4.708-.171-.189-.476-.252-.764-.153zm.584 2.3l.315.917h-.638c-.468 0-.62-.027-.593-.117.027-.054.161-.485.296-.944.144-.449.27-.817.288-.8.018.019.17.45.332.944z" fill="url(#paint3_linear_106_15016)"/><path d="M16.992 24.79c-.503.134-.404.547.432 1.787l.539.809-.297.395c-.826 1.087-1.132 1.626-1.132 1.959 0 .368.099.45.53.45.288 0 .459-.172.998-.99.673-1.014.584-1.005 1.15-.161.665 1.015.8 1.15 1.14 1.15.729 0 .675-.494-.188-1.788-.467-.7-.665-1.07-.61-1.141 1.185-1.725 1.212-1.77 1.185-2.093-.018-.243-.072-.324-.252-.369-.395-.108-.601.054-1.167.899-.333.485-.593.79-.639.745a11.238 11.238 0 01-.592-.835c-.54-.773-.72-.908-1.097-.818z" fill="url(#paint4_linear_106_15016)"/><path d="M7.298 24.906c-.063.063-.108.216-.108.341 0 .378.153.45.917.45h.7v2.075c0 1.258.037 2.139.09 2.246.072.126.19.171.45.171s.377-.045.449-.17c.054-.108.09-.989.09-2.247v-2.075h.638c.35 0 .71-.045.808-.09.198-.108.234-.53.063-.701-.152-.153-3.944-.153-4.097 0z" fill="url(#paint5_linear_106_15016)"/><path d="M9.643 32.354c-.494.09-.817.27-1.168.638-.395.414-.566.872-.566 1.528.01 1.275.872 2.138 2.157 2.138.907 0 1.626-.44 1.985-1.213.225-.476.225-1.401 0-1.887-.395-.871-1.428-1.392-2.408-1.204zm.872 1.699c.099.098.18.296.18.449a.72.72 0 01-.18.449c-.387.386-1.078.099-1.078-.45 0-.152.08-.35.18-.448a.719.719 0 01.448-.18c.153 0 .35.08.45.18z" fill="url(#paint6_linear_106_15016)"/><path d="M15.878 32.363c-.198.072-.647.764-2.49 3.828-2.407 4.025-2.479 4.187-2.066 4.6.207.207.782.243 1.007.063.08-.054 1.14-1.761 2.354-3.792 2.3-3.827 2.408-4.06 2.102-4.474-.162-.216-.602-.324-.907-.225z" fill="url(#paint7_linear_106_15016)"/><path d="M17.028 36.47c-.781.359-1.213 1.078-1.213 2.003.01 1.276.872 2.138 2.157 2.138 1.294 0 2.156-.862 2.156-2.156 0-.934-.476-1.68-1.276-2.013-.467-.197-1.374-.18-1.824.027zm1.393 1.536c.099.099.18.296.18.449 0 .153-.081.35-.18.45-.386.386-1.078.098-1.078-.45 0-.341.287-.629.629-.629.152 0 .35.08.449.18z" fill="url(#paint8_linear_106_15016)"/><defs><linearGradient id="paint0_linear_106_15016" x1="8.266" y1="8.625" x2="10.974" y2="-.868" gradientUnits="userSpaceOnUse"><stop stop-color="#DFBD69"/><stop offset=".531" stop-color="#FEF7C0"/><stop offset="1" stop-color="#926F34"/></linearGradient><linearGradient id="paint1_linear_106_15016" x1="9.7" y1="11.501" x2="9.822" y2="9.691" gradientUnits="userSpaceOnUse"><stop stop-color="#DFBD69"/><stop offset=".531" stop-color="#FEF7C0"/><stop offset="1" stop-color="#926F34"/></linearGradient><linearGradient id="paint2_linear_106_15016" x1="0" y1="46" x2="14.716" y2="13.264" gradientUnits="userSpaceOnUse"><stop stop-color="#DFBD69"/><stop offset=".531" stop-color="#FEF7C0"/><stop offset="1" stop-color="#926F34"/></linearGradient><linearGradient id="paint3_linear_106_15016" x1="11.521" y1="30.189" x2="14.037" y2="24.947" gradientUnits="userSpaceOnUse"><stop stop-color="#DFBD69"/><stop offset=".531" stop-color="#FEF7C0"/><stop offset="1" stop-color="#926F34"/></linearGradient><linearGradient id="paint4_linear_106_15016" x1="16.534" y1="30.189" x2="19.044" y2="24.931" gradientUnits="userSpaceOnUse"><stop stop-color="#DFBD69"/><stop offset=".531" stop-color="#FEF7C0"/><stop offset="1" stop-color="#926F34"/></linearGradient><linearGradient id="paint5_linear_106_15016" x1="7.19" y1="30.189" x2="9.684" y2="24.951" gradientUnits="userSpaceOnUse"><stop stop-color="#DFBD69"/><stop offset=".531" stop-color="#FEF7C0"/><stop offset="1" stop-color="#926F34"/></linearGradient><linearGradient id="paint6_linear_106_15016" x1="7.909" y1="36.658" x2="9.636" y2="32.152" gradientUnits="userSpaceOnUse"><stop stop-color="#DFBD69"/><stop offset=".531" stop-color="#FEF7C0"/><stop offset="1" stop-color="#926F34"/></linearGradient><linearGradient id="paint7_linear_106_15016" x1="11.13" y1="40.97" x2="15.552" y2="33.198" gradientUnits="userSpaceOnUse"><stop stop-color="#DFBD69"/><stop offset=".531" stop-color="#FEF7C0"/><stop offset="1" stop-color="#926F34"/></linearGradient><linearGradient id="paint8_linear_106_15016" x1="15.815" y1="40.611" x2="17.518" y2="36.131" gradientUnits="userSpaceOnUse"><stop stop-color="#DFBD69"/><stop offset=".531" stop-color="#FEF7C0"/><stop offset="1" stop-color="#926F34"/></linearGradient></defs></svg>