<svg width="48" height="46" fill="none" xmlns="http://www.w3.org/2000/svg"><path d="M9.386.114c-.084.086-.113 4.172-.113 17.82 0 17.402 0 17.697.179 17.802a.966.966 0 00.3.095c.065 0 .61-.504 1.229-1.112l1.107-1.112 1.106 1.112c.62.608 1.192 1.112 1.285 1.112.094 0 .666-.504 1.286-1.112l1.106-1.112 1.107 1.112c.62.608 1.191 1.112 1.285 1.112.094 0 .657-.495 1.257-1.093l1.098-1.093.928.96c1.126 1.15 1.351 1.292 1.717 1.093.14-.077.675-.57 1.191-1.093l.929-.96 1.097 1.093c.6.598 1.163 1.093 1.257 1.093.094 0 .666-.504 1.285-1.112l1.107-1.112 1.107 1.112c.62.608 1.191 1.112 1.285 1.112.094 0 .666-.504 1.285-1.112l1.107-1.112 1.107 1.112c.619.608 1.163 1.112 1.229 1.112a.966.966 0 00.3-.096c.178-.104.178-.37.178-15.14V5.56l-2.748-2.785L33.239 0H21.365C12.266 0 9.47.029 9.386.114zm23.15 3.346c0 2.157.019 2.537.15 2.66.122.134.497.153 2.627.153h2.476v27.885l-.882-.875c-.478-.484-.9-.874-.938-.874-.206 0-.684.38-1.51 1.226l-.938.96-1.032-1.036c-.562-.57-1.125-1.064-1.247-1.102-.188-.057-.376.095-1.342 1.055l-1.116 1.121-1.107-1.112c-.619-.608-1.191-1.112-1.285-1.112-.094 0-.666.504-1.285 1.112L24 34.633l-1.107-1.112c-.619-.608-1.19-1.112-1.285-1.112-.093 0-.666.504-1.285 1.112l-1.107 1.112-1.116-1.121c-.966-.96-1.154-1.112-1.341-1.055-.122.038-.685.532-1.248 1.102l-1.032 1.036-.938-.96c-.825-.846-1.303-1.226-1.51-1.226-.037 0-.46.39-.938.874l-.882.875V.95h22.326v2.51zm4.324 1.596l.188.266h-3.574V1.568l1.604 1.616c.882.893 1.68 1.73 1.782 1.872z" fill="url(#paint0_linear_106_15028)"/><path d="M14.095 5.56c-.14.219-.14.257 0 .475l.15.238h4.971c4.38 0 4.972-.02 5.103-.152a.441.441 0 000-.647c-.131-.133-.722-.152-5.103-.152h-4.971l-.15.238z" fill="url(#paint1_linear_106_15028)"/><path d="M14.104 8.772c-.131.2-.14 1.407-.122 10.597.019 8.355.056 10.398.15 10.493.178.18 19.558.18 19.736 0 .094-.095.131-2.138.15-10.492.019-9.191.01-10.398-.122-10.598l-.14-.218H14.244l-.141.218zm5.3 2.015v1.283h-4.502V9.504h4.502v1.283zm13.695 0v1.283H20.342V9.504h12.757v1.283zM19.404 14.21v1.188h-4.502V13.02h4.502v1.188zm13.695 0v1.188H20.342V13.02h12.757v1.188zm-13.695 3.374v1.235h-4.502v-2.471h4.502v1.236zm13.695 0v1.235H20.342v-2.471h12.757v1.236zm-13.695 3.374v1.188h-4.502V19.77h4.502v1.188zm13.695 0v1.188H20.342V19.77h12.757v1.188zm-13.695 3.326v1.188h-4.502v-2.376h4.502v1.188zm13.695 0v1.188H20.342v-2.376h12.757v1.188zm-13.695 3.47v1.33h-4.502v-2.661h4.502v1.33zm13.695 0v1.33H20.342v-2.661h12.757v1.33z" fill="url(#paint2_linear_106_15028)"/><path d="M5.38 11.13c-.722.113-1.022.227-1.594.617-.61.409-1.191 1.131-1.482 1.863l-.207.504-.028 13.562-.018 13.572h-.93c-.675 0-.956.038-1.031.133-.075.086-.103.56-.084 1.445l.028 1.32 1.81.932 1.81.922h40.692l1.81-.931 1.81-.922.028-1.321c.02-.884-.009-1.36-.084-1.445-.075-.095-.356-.133-1.032-.133h-.928l-.02-13.572-.027-13.562-.207-.504c-.44-1.093-1.416-2.024-2.439-2.357-.515-.162-2.635-.285-3.151-.19-.272.047-.357.123-.404.313-.122.495 0 .542 1.473.609.91.038 1.51.104 1.848.218.647.219 1.426.941 1.716 1.597l.226.504.028 13.467.018 13.477H2.99l.018-13.477.028-13.467.226-.504c.29-.656 1.069-1.378 1.716-1.597.338-.114.938-.18 1.848-.218 1.097-.048 1.37-.086 1.445-.21.14-.227.009-.627-.235-.693-.3-.076-2.082-.048-2.655.047zm41.695 31.734v.665l-1.5.76-1.502.76H3.928l-1.501-.76-1.501-.76v-1.331h46.15v.666z" fill="url(#paint3_linear_106_15028)"/><path d="M17.96 43.3a.515.515 0 00-.15.324c0 .095.065.247.15.323.131.133.806.152 6.04.152 5.235 0 5.91-.019 6.041-.152a.516.516 0 00.15-.323.515.515 0 00-.15-.323c-.131-.133-.806-.152-6.04-.152-5.235 0-5.91.019-6.041.152z" fill="url(#paint4_linear_106_15028)"/><path d="M4.564 13.886c-.16.085-.168.807-.168 12.992 0 9.913.028 12.935.112 13.02.16.162 38.824.162 38.984 0 .084-.085.112-3.108.112-13.02 0-12.66 0-12.897-.178-13.002-.272-.143-3.508-.123-3.649.02-.14.142-.14.579 0 .721.075.076.544.114 1.501.114h1.388v24.331H5.334V14.731h1.388c1.491 0 1.613-.038 1.613-.475 0-.133-.047-.294-.112-.36-.141-.144-3.424-.153-3.659-.01z" fill="url(#paint5_linear_106_15028)"/><defs><linearGradient id="paint0_linear_106_15028" x1="9.273" y1="35.831" x2="25.529" y2=".708" gradientUnits="userSpaceOnUse"><stop stop-color="#DFBD69"/><stop offset=".531" stop-color="#FEF7C0"/><stop offset="1" stop-color="#926F34"/></linearGradient><linearGradient id="paint1_linear_106_15028" x1="13.989" y1="6.273" x2="14.028" y2="5.143" gradientUnits="userSpaceOnUse"><stop stop-color="#DFBD69"/><stop offset=".531" stop-color="#FEF7C0"/><stop offset="1" stop-color="#926F34"/></linearGradient><linearGradient id="paint2_linear_106_15028" x1="13.975" y1="29.997" x2="22.884" y2="8.1" gradientUnits="userSpaceOnUse"><stop stop-color="#DFBD69"/><stop offset=".531" stop-color="#FEF7C0"/><stop offset="1" stop-color="#926F34"/></linearGradient><linearGradient id="paint3_linear_106_15028" x1="0" y1="46" x2="10.714" y2="7.347" gradientUnits="userSpaceOnUse"><stop stop-color="#DFBD69"/><stop offset=".531" stop-color="#FEF7C0"/><stop offset="1" stop-color="#926F34"/></linearGradient><linearGradient id="paint4_linear_106_15028" x1="17.81" y1="44.099" x2="17.843" y2="42.969" gradientUnits="userSpaceOnUse"><stop stop-color="#DFBD69"/><stop offset=".531" stop-color="#FEF7C0"/><stop offset="1" stop-color="#926F34"/></linearGradient><linearGradient id="paint5_linear_106_15028" x1="4.396" y1="40.02" x2="11.864" y2="10.688" gradientUnits="userSpaceOnUse"><stop stop-color="#DFBD69"/><stop offset=".531" stop-color="#FEF7C0"/><stop offset="1" stop-color="#926F34"/></linearGradient></defs></svg>