<svg width="46" height="46" fill="none" xmlns="http://www.w3.org/2000/svg"><path d="M19.284.153c-.099.126-.198.727-.36 2.434-.125 1.258-.242 2.292-.26 2.3-.009.01-.61.216-1.329.45-1.23.395-2.83 1.105-3.647 1.617l-.377.234-1.778-1.483c-1.42-1.177-1.841-1.482-2.057-1.482-.225 0-.61.35-2.712 2.443-1.357 1.348-2.48 2.543-2.506 2.65a.663.663 0 00.063.405c.08.162 1.966 2.489 2.739 3.405.108.117.027.324-.539 1.438-.665 1.293-1.05 2.246-1.41 3.468-.099.359-.225.655-.279.655-.152 0-3.772.35-4.176.414C-.036 19.19 0 18.993 0 23c0 3.073.018 3.603.135 3.72.162.152.26.17 2.83.422 1.06.099 1.94.198 1.948.206.018.01.144.423.288.917.35 1.168.979 2.668 1.545 3.665.395.692.44.81.323.944-1.482 1.734-2.775 3.387-2.82 3.611-.054.261.063.387 2.452 2.786 2.164 2.165 2.541 2.506 2.775 2.506.216 0 .629-.305 2.057-1.482l1.778-1.474.467.27c.934.557 2.371 1.195 3.593 1.59.7.234 1.284.422 1.293.431.018.018.135 1.043.26 2.3.162 1.708.261 2.31.36 2.426.135.153.431.162 3.763.162h3.629l.126-.198c.08-.134.18-.835.278-1.913l.153-1.707.467.44c1.437 1.383 3.296 2.345 5.263 2.75 1.33.278 3.494.224 4.778-.118 3.746-.988 6.674-3.908 7.617-7.61.898-3.521-.09-7.34-2.569-9.9l-.494-.512.386-.045c.216-.027.836-.09 1.375-.144 1.383-.126 1.643-.18 1.796-.332.197-.198.197-7.224 0-7.421-.162-.171-.332-.198-2.784-.432a51.693 51.693 0 01-1.994-.206c-.018-.01-.144-.423-.288-.917-.35-1.168-.979-2.668-1.545-3.665-.395-.701-.44-.81-.323-.944.718-.826 2.659-3.243 2.74-3.396a.862.862 0 00.107-.35c0-.09-1.105-1.267-2.488-2.66-2.03-2.04-2.542-2.497-2.73-2.497-.189 0-.7.377-2.03 1.473L32.738 7.18l-.377-.225c-1.275-.737-3.26-1.581-4.437-1.878l-.583-.144-.207-2.264c-.135-1.473-.252-2.336-.332-2.47L26.676 0h-3.629c-3.332 0-3.628.009-3.763.153zm6.494 1.168c.009.09.099 1.105.215 2.255.162 1.608.243 2.12.36 2.246.08.099.377.224.664.287 1.356.297 3.341 1.114 4.734 1.923.458.279.943.503 1.068.503.153 0 .737-.431 1.958-1.446l1.734-1.438 1.868 1.914c1.024 1.051 1.86 1.931 1.86 1.958 0 .027-.63.809-1.393 1.743-1.114 1.348-1.392 1.734-1.392 1.95 0 .162.162.54.395.916.826 1.375 1.563 3.109 1.94 4.6.117.44.279.872.368.953.117.108.692.197 2.408.35l2.254.216v5.499l-1.931.197-1.922.189-.934-.486a14.537 14.537 0 00-1.689-.718l-.754-.234-.01-1.77c-.008-1.985-.143-2.866-.718-4.6-.71-2.147-1.86-3.98-3.539-5.66-1.257-1.258-2.281-1.995-3.817-2.75-1.311-.637-2.191-.952-3.395-1.203-3.952-.827-7.886-.072-11.263 2.165-1.266.854-3.08 2.641-3.88 3.854a15.644 15.644 0 00-2.272 5.337c-.171.782-.198 1.177-.198 2.929 0 1.752.027 2.147.198 2.929a15.644 15.644 0 002.272 5.337c.8 1.212 2.614 3 3.88 3.854 2.694 1.779 5.847 2.66 8.91 2.47l.988-.053.305.916c.17.494.485 1.222.7 1.6l.405.691-.153 1.572c-.08.863-.17 1.788-.197 2.049l-.054.467h-5.443l-.045-.288a68.231 68.231 0 01-.234-2.272c-.125-1.294-.224-2.022-.305-2.094-.063-.072-.602-.26-1.186-.422-1.661-.476-3.017-1.051-4.41-1.896-.368-.233-.754-.395-.898-.395-.188.009-.664.35-1.958 1.437l-1.706 1.42-1.913-1.896c-1.042-1.051-1.904-1.922-1.904-1.95 0-.026.628-.808 1.392-1.742 1.113-1.348 1.392-1.734 1.392-1.95 0-.162-.162-.54-.395-.916-.827-1.375-1.563-3.109-1.94-4.6-.117-.45-.279-.872-.369-.953-.116-.108-.691-.197-2.407-.35l-2.254-.216V20.25l2.227-.206c1.42-.126 2.29-.251 2.416-.323.117-.081.225-.288.288-.566.296-1.41 1.096-3.396 1.922-4.798.314-.53.512-.97.512-1.141 0-.216-.287-.61-1.392-1.95-.764-.934-1.392-1.716-1.392-1.743 0-.027.862-.898 1.904-1.95l1.913-1.895 1.078.899c2.03 1.689 2.389 1.958 2.604 1.958.126 0 .485-.162.809-.36 1.428-.87 3.296-1.661 4.787-2.02 1.024-.252.97-.144 1.185-2.426.1-1.088.207-2.112.234-2.274l.045-.287h2.73c2.551 0 2.74.009 2.74.153zm-.027 8.553c5.856 1.294 10.14 6.163 10.616 12.057.045.566.063 1.366.036 1.788l-.045.763-1.114-.026c-1.329-.037-2.398.125-3.637.556l-.871.288-.045-.53c-.126-1.438-1.437-2.857-2.946-3.198-.494-.117-1.752-.126-1.95-.018-.098.053-.323.556-.556 1.212-.225.62-.431 1.132-.467 1.132-.027 0-.377-.341-.773-.763-.503-.54-.79-.782-.988-.818-.305-.063-.332-.045-1.293 1.024l-.503.566-.377-1.132c-.27-.8-.431-1.15-.557-1.221-.126-.063-.548-.09-1.159-.063-.898.036-1.024.063-1.634.368a4.464 4.464 0 00-1.922 1.923l-.252.52-.027 4.062c-.027 4.348.01 4.761.44 5.606l.189.368-.548-.377c-1.895-1.33-3.305-2.992-4.33-5.076-.565-1.16-.888-2.085-1.104-3.136-.62-2.992-.27-5.83 1.06-8.544 1.985-4.052 5.479-6.648 10.023-7.466 1.006-.18 3.665-.108 4.734.135zm-5.793 14.222c.422 1.267.52 1.482.727 1.581.135.063.243.189.243.288 0 .189-.593 5.813-.683 6.45l-.054.396 1.24 1.249c1.535 1.545 1.562 1.554 2.46.665l.584-.575.018 1.05c.01.71-.027 1.07-.09 1.115-.188.117-2.415.072-3.323-.063a15.545 15.545 0 01-1.598-.333c-.638-.17-.755-.233-1.006-.556a15.165 15.165 0 00-.925-1.052c-1.042-1.105-1.006-.934-1.033-5.624-.018-3.791-.01-3.953.161-4.357.431-.97 1.437-1.644 2.515-1.68l.279-.01.485 1.456zm7.94-1.195c.772.342 1.374 1.087 1.571 1.95.18.781.072 1.042-.62 1.536-1.167.836-2.37 2.183-3.08 3.46-.144.26-.26.457-.27.43 0-.027-.116-1.06-.251-2.29l-.243-2.247.207-.027a.54.54 0 00.278-.135c.045-.062.297-.691.557-1.41.26-.719.494-1.357.521-1.428.054-.153.808-.063 1.33.161zm-4.186 1.94c0 .1.18 1.834.404 3.864l.395 3.684-.754.763-.764.764-.763-.764-.755-.763.423-3.909.422-3.917.314-.377.314-.386.387.43c.206.235.377.513.377.612zm13.463 1.034c4.276 1.033 7.285 4.789 7.285 9.12 0 4.267-2.883 7.968-7.087 9.1-.754.198-1.033.225-2.3.225-1.275 0-1.535-.027-2.325-.234-3.342-.898-5.874-3.45-6.809-6.873-.161-.566-.188-.961-.197-2.174-.01-1.357.018-1.563.242-2.38 1.024-3.711 4.105-6.434 7.877-6.964.836-.117 2.434-.027 3.315.18z" fill="url(#paint0_linear_109_15647)"/><path d="M21.826 12.713c-1.087.305-1.959 1.051-2.461 2.111-.26.557-.279.638-.306 1.968-.045 1.626.081 2.228.61 3.046.791 1.221 2.336 1.904 3.782 1.653 1.536-.26 2.722-1.33 3.099-2.803.215-.854.144-3.001-.126-3.684a3.82 3.82 0 00-2.173-2.165c-.656-.252-1.76-.306-2.425-.126zm2.209 1.375c.485.251.979.781 1.221 1.32.18.396.207.593.207 1.662 0 1.15-.009 1.24-.251 1.725-.79 1.609-2.776 2.013-4.096.827a2.897 2.897 0 01-.647-.863c-.188-.422-.215-.61-.215-1.689 0-1.078.027-1.266.206-1.662.252-.539.746-1.069 1.222-1.32.691-.36 1.661-.36 2.353 0z" fill="url(#paint1_linear_109_15647)"/><path d="M34.903 29.343c-.126.117-.144.512-.144 2.893v2.758l-1.392 1.393c-1.491 1.491-1.599 1.68-1.213 2.066.386.386.557.287 2.219-1.366l1.553-1.545v-3.028c0-2.812-.009-3.027-.161-3.162-.207-.189-.683-.198-.862-.01z" fill="url(#paint2_linear_109_15647)"/><defs><linearGradient id="paint0_linear_109_15647" x1="0" y1="46" x2="18.196" y2="-1.828" gradientUnits="userSpaceOnUse"><stop stop-color="#DFBD69"/><stop offset=".531" stop-color="#FEF7C0"/><stop offset="1" stop-color="#926F34"/></linearGradient><linearGradient id="paint1_linear_109_15647" x1="19.051" y1="21.543" x2="23.006" y2="12.671" gradientUnits="userSpaceOnUse"><stop stop-color="#DFBD69"/><stop offset=".531" stop-color="#FEF7C0"/><stop offset="1" stop-color="#926F34"/></linearGradient><linearGradient id="paint2_linear_109_15647" x1="31.964" y1="38.641" x2="37.551" y2="32.473" gradientUnits="userSpaceOnUse"><stop stop-color="#DFBD69"/><stop offset=".531" stop-color="#FEF7C0"/><stop offset="1" stop-color="#926F34"/></linearGradient></defs></svg>