<svg width="46" height="46" fill="none" xmlns="http://www.w3.org/2000/svg"><path d="M1.427.413c-.342.234-.809.7-1.043 1.042-.413.61-.413.629-.36 5.766.055 4.921.073 5.19.432 5.675.791 1.06 1.403 1.312 3.272 1.312h1.708l3.38 2.155c1.852 1.186 3.488 2.156 3.631 2.156.54 0 .666-.431.666-2.353v-1.922l1.6-.072c1.797-.054 2.337-.324 2.984-1.42.341-.574.36-.933.36-5.64 0-4.705-.019-5.064-.36-5.64a4.22 4.22 0 00-.863-.987c-.503-.36-.72-.377-7.659-.431L2.038 0l-.61.413zm14.868 1.293l.503.431v9.951l-.503.431c-.45.396-.666.431-2.194.431-.917 0-1.797.054-1.96.108-.233.09-.287.431-.287 1.904 0 .988-.072 1.76-.144 1.724a120.21 120.21 0 01-3.02-1.903L5.796 12.95H4.052c-1.69 0-1.762-.018-2.283-.52l-.522-.521V7.22c0-4.886.072-5.389.791-5.73.234-.126 2.859-.198 7.066-.198l6.687-.018.504.431z" fill="#1F381C"/><path d="M9.696 3.79c-.107.197-.18.503-.161.682.018.162.018 1.383 0 2.677l-.018 2.389H8.438V7.58c0-2.245.054-2.174-1.708-2.174S5.022 5.335 5.022 7.58c0 1.958 0 1.958-.431 1.958-.414 0-1.007.413-1.007.7 0 .503.557.557 5.52.557 4.548 0 5.105-.036 5.213-.287.161-.431-.18-.88-.72-.934l-.485-.054-.036-3-.054-3-1.564-.053c-1.42-.054-1.582-.018-1.762.323zm2.158 3.323v2.425h-1.079v-4.85h1.079v2.425zM7.18 8.1c0 1.419 0 1.437-.45 1.437S6.28 9.52 6.28 8.1c0-1.42 0-1.437.45-1.437s.45.018.45 1.437zM29.561.27c-.683.305-1.078.754-1.438 1.598-.216.52-.27 1.509-.27 5.28 0 4.132.037 4.707.342 5.371.54 1.204 1.276 1.581 3.128 1.653l1.564.072v1.85c0 2.12.072 2.425.575 2.425.216 0 1.834-.952 3.632-2.102l3.254-2.12 1.924-.09c2.067-.09 2.48-.269 3.272-1.328.36-.467.377-.773.431-5.658.054-5.12.054-5.155-.36-5.748-.233-.341-.647-.79-.916-.988-.504-.36-.72-.377-7.551-.413-5.573-.036-7.155 0-7.587.197zm14.347 1.203c.773.36.844.808.844 5.64 0 2.963-.071 4.724-.197 4.993-.306.665-.9.844-2.715.844h-1.636l-2.894 1.833c-1.582 1.023-2.93 1.868-3.02 1.903-.072.036-.162-.772-.18-1.796l-.054-1.85-2.014-.09c-3.038-.143-2.84.27-2.84-5.855V2.137l.503-.43.504-.432h6.633c4.477 0 6.778.072 7.066.198z" fill="#1F381C"/><path d="M35.53 3c-.071.071-.125.305-.125.52 0 .216-.288.7-.647 1.06-.594.61-.648.755-.558 1.401.054.467.27.916.558 1.204.413.413.647.467 1.905.52 1.475.072 1.942.306 1.726.845-.072.215-.467.27-1.96.27-1.492 0-1.923.053-2.12.287-.306.377 0 .862.61.934.378.053.468.161.522.628.036.485.126.575.503.575.36 0 .486-.126.63-.593.215-.772.809-.808.809-.054 0 .378.107.575.359.647.485.144.899-.198.899-.719 0-.233.252-.664.54-.951.772-.79.754-1.653-.073-2.48-.593-.592-.665-.61-1.96-.61-1.402 0-1.905-.233-1.69-.808.09-.198.54-.27 2.14-.306l2.032-.053v-.54c0-.448-.072-.556-.486-.592-.36-.036-.503-.162-.539-.52-.108-.989-1.222-1.043-1.222-.055 0 .773-.594.737-.81-.054-.18-.556-.737-.862-1.042-.556zM19.638 15.303c-1.258.485-2.445 1.689-2.912 2.946-.306.826-.378 1.42-.378 3.251 0 2.174-.017 2.245-.413 2.39-.234.089-.647.43-.899.735-1.079 1.276-.377 3.305 1.223 3.575.665.108.7.144.988 1.185.36 1.312.701 1.976 1.42 2.748.522.557.54.611.378 1.6-.09.556-.288 1.13-.431 1.274-.18.18-.9.324-2.122.413-2.409.198-3.883.593-4.926 1.33-1.024.736-1.977 2.047-2.319 3.215-.341 1.131-.377 5.496-.054 5.82.162.161 3.488.215 13.825.215 11.722 0 13.627-.036 13.825-.27.144-.179.198-1.005.144-2.91-.054-2.406-.09-2.747-.522-3.645-.575-1.222-1.708-2.353-2.912-2.964-.72-.341-1.492-.503-3.434-.7-1.708-.18-2.588-.36-2.768-.54-.162-.143-.342-.7-.396-1.22-.126-.899-.09-1.007.45-1.671.773-.952 1.006-1.401 1.348-2.695.27-.934.36-1.077.827-1.185 1.636-.323 2.355-1.958 1.492-3.377-.198-.323-.593-.683-.88-.79l-.54-.198v-2.299c0-2.802-.324-3.844-1.546-5.065-1.24-1.24-2.265-1.545-5.16-1.527-1.923 0-2.553.072-3.308.36zm6.077 1.096c1.744.593 2.678 2.101 2.678 4.31 0 .773-.053 1.402-.125 1.402-.414 0-1.277-.755-1.475-1.275-.125-.342-.305-.79-.395-1.024-.288-.737-.863-.503-1.33.575-.738 1.652-.9 1.724-4.423 1.724h-3.038V20.71c.018-2.174.647-3.359 2.247-4.095.791-.378 1.169-.431 3.074-.431 1.205 0 2.445.09 2.787.215zm1.546 6.682c.323.161.701.287.863.287.719 0-.234 5.55-1.24 7.239-.828 1.365-1.942 1.993-3.686 2.065-1.223.054-1.474.018-2.355-.449-1.528-.808-2.068-1.706-2.697-4.544-.305-1.293-.54-2.802-.54-3.34v-.97l1.313.017c1.06 0 1.223.036.881.198-.755.377-.773 1.67-.018 2.101.989.557 2.05-.305 1.672-1.383-.09-.251-.377-.575-.611-.7-.396-.198-.234-.234 1.222-.234 1.834 0 2.571-.215 3.254-.97l.45-.467.45.431c.25.234.718.557 1.042.719zM16.6 26.943c-.055.053-.235 0-.396-.09-.378-.252-.504-1.078-.198-1.455.216-.234.27-.162.467.593.108.485.18.916.126.952zm13.59-.952c0 .413-.431.97-.755.97-.09 0-.144-.108-.09-.252a8.08 8.08 0 00.234-.916c.09-.52.162-.593.36-.431.143.108.251.395.251.629zM23 33.966c.664 0 1.545-.126 1.959-.27.719-.251.737-.251.737.144 0 .215.054.557.108.772.072.306-.144.503-1.277 1.204-.737.467-1.438.844-1.528.844-.09 0-.79-.377-1.528-.844-1.133-.7-1.348-.898-1.276-1.204.054-.215.107-.557.107-.772 0-.395.018-.395.738-.144.413.144 1.294.27 1.96.27zm-2.248 2.892c.647.395 1.169.79 1.169.862 0 .27-1.385 1.455-2.032 1.724-.647.27-.683.27-.827-.126-.09-.233-.377-.88-.63-1.455-.25-.575-.467-1.077-.467-1.113 0-.108 1.097-.593 1.403-.611.125-.018.755.305 1.384.718zm6.562-.521c.395.125.719.287.719.359 0 .072-.216.593-.467 1.167-.252.575-.54 1.222-.63 1.455-.144.395-.18.395-.827.126-.647-.27-2.031-1.455-2.031-1.724 0-.144 2.157-1.563 2.39-1.581.073-.018.45.09.846.198zm-9.906 2.353c1.133 2.55 1.187 2.586 2.265 2.19.9-.358.99-.305 1.349.594.197.539.18.7-.36 1.922l-.593 1.347h-5.34v-1.24c0-.898-.072-1.329-.287-1.526-.647-.647-.971-.144-.971 1.455v1.31h-3.236v-1.85c0-2.155.162-2.855.953-4.005.737-1.078 1.995-1.796 3.541-2.012 1.834-.269 1.726-.34 2.68 1.815zm14.868-1.563c1.258.341 2.229 1.096 2.858 2.245.504.898.54 1.132.593 3.161l.072 2.21h-3.272V43.43c0-1.598-.323-2.101-.97-1.454-.216.197-.288.628-.288 1.526v1.24h-5.322l-.593-1.33c-.557-1.257-.575-1.382-.341-2.011.287-.809.413-.862 1.366-.54.413.163.863.234.989.198.108-.053.647-1.041 1.168-2.227l.953-2.12.935.073a12.92 12.92 0 011.852.34zM23.7 39.193l.611.718-.323.7c-.288.647-.396.719-.989.719s-.701-.072-.989-.718l-.323-.701.611-.718c.342-.396.647-.701.701-.701.054 0 .36.305.701.7zm.324 4.292c.611 1.24.593 1.258-1.025 1.258-.863 0-1.438-.072-1.438-.18s.198-.593.45-1.096c.43-.826.52-.898 1.042-.844.486.036.63.18.97.862z" fill="#1F381C"/><path d="M24.726 23.943c-.396.539-.36 1.078.072 1.545.7.754 2.031.251 2.031-.737 0-1.113-1.51-1.67-2.103-.808zm-2.266.952c-.107.144-.251.736-.305 1.347-.09.88-.036 1.15.216 1.437.647.719 2.121.234 1.707-.557-.107-.18-.323-.341-.467-.341-.252 0-.27-.144-.162-.826.162-1.132-.413-1.76-.989-1.06zm-1.599 3.933c-.306.36.018.916.737 1.294.827.43 2.517.27 3.11-.288.863-.808.342-1.598-.665-1.023-.647.377-1.582.395-2.05.035-.43-.323-.862-.34-1.132-.018z" fill="#1F381C"/></svg>