<svg width="46" height="46" fill="none" xmlns="http://www.w3.org/2000/svg"><path d="M25.767.338c-1.246.613-1.265.67-1.189 9.117l.058 7.623.633.613c.613.613.651.632 2.626.69l2.013.076v1.283c0 1.264.192 1.743.71 1.743.134 0 1.246-.67 2.492-1.494l2.262-1.474 4.64-.096 4.659-.096.613-.632.633-.613.057-7.623C46.051.989 46.032.93 44.767.338c-.94-.46-18.099-.44-19 0zm18.482 1.455c.326.326.326 14.538 0 14.864-.173.172-1.496.23-4.736.23h-4.505l-1.726 1.168-1.744 1.187-.058-.938c-.038-.517-.153-1.034-.268-1.169-.134-.172-.863-.249-2.435-.249-1.495 0-2.32-.076-2.473-.23-.326-.325-.326-14.537 0-14.863.326-.325 17.619-.325 17.945 0z" fill="url(#paint0_linear_108_15592)"/><path d="M34.74 4.092c-.134.134-.23.46-.23.747 0 .421-.115.555-.556.651-1.323.287-2.147 2.126-1.457 3.294.498.843.997 1.073 2.569 1.188 1.553.134 2.051.46 1.63 1.11-.173.288-.575.365-2.186.441-1.61.077-2.013.154-2.186.422-.364.594.077 1.015 1.19 1.072.938.058.977.077 1.034.652.115 1.206 1.342 1.206 1.457 0 .058-.48.173-.613.614-.71.652-.152 1.495-.938 1.649-1.57.191-.747-.096-1.685-.69-2.26-.499-.479-.767-.574-2.052-.67-1.591-.115-2.09-.44-1.668-1.111.173-.268.575-.345 2.186-.421 1.61-.077 2.013-.154 2.185-.441.365-.575-.076-.996-1.207-1.053-.92-.058-.978-.096-.978-.594 0-.575-.307-.977-.767-.977a.847.847 0 00-.537.23z" fill="url(#paint1_linear_108_15592)"/><path d="M7.074 9.474c-2.05.575-3.815 2.088-4.83 4.156-.595 1.207-.614 1.303-.691 4.29-.038 1.916.02 3.314.153 3.774.211.709 1.38 1.896 1.86 1.896.134 0 .288.345.364.785.23 1.322 1.361 3.333 2.416 4.272.537.498 1.054.88 1.15.88.096 0 .173.633.173 1.418v1.418l-2.147.69c-2.454.765-3.47 1.416-4.372 2.738C.173 37.285 0 38.205 0 42.074c0 2.432.077 3.543.23 3.696.173.172 2.953.23 11.292.23 9.471 0 11.082-.038 11.293-.287.172-.192.21-1.284.153-4.06-.057-3.43-.096-3.89-.48-4.713-.958-2.087-2.127-2.988-4.984-3.888l-2.166-.69v-1.417c0-.785.076-1.417.172-1.417.096 0 .595-.383 1.112-.843 1.074-.977 2.052-2.662 2.358-4.06.173-.767.307-.997.786-1.207.307-.134.806-.556 1.093-.939l.518-.67v-3.371c0-3.084-.038-3.467-.441-4.482-.633-1.551-2.224-3.218-3.834-4.003l-1.285-.632-3.93-.039c-2.723-.038-4.199.02-4.813.192zm9.241 1.781a6.387 6.387 0 012.991 2.912c.499 1.034.537 1.264.595 4.06.057 2.777.038 3.007-.326 3.448l-.384.479-.019-1.475c0-2.7-.403-3.007-3.873-3.046-1.303-.019-2.166-.076-1.917-.114.23-.039.422-.154.422-.23 0-.058-.518-.632-1.15-1.265l-1.15-1.13v2.433l-1.036-.996c-.575-.536-1.131-.977-1.227-.977-.115 0-.671.46-1.246 1.034-.786.786-1.246 1.073-1.802 1.169-1.918.325-2.359.862-2.359 2.969 0 1.379-.249 1.743-.575.842-.306-.785-.23-5.229.096-6.34.537-1.82 1.956-3.275 3.796-3.926.863-.306 1.515-.345 4.64-.306 3.26.057 3.738.095 4.524.46zm-3.086 5.976c-.269.038-.384.173-.307.345.057.153.172.402.23.555.21.498-.23.307-.48-.21-.21-.498-.23-.498-.594-.173-.383.345-.383.326-.383-1.072v-1.398l.978.938c.843.843.92.958.556 1.015zm-3.144.824c.92.977 1.15 1.034 4.39 1.13l3.067.096v5.363l-.651 1.206c-.729 1.341-1.342 1.935-2.78 2.682-.825.421-1.227.498-2.608.498-1.38 0-1.783-.077-2.607-.498-1.438-.747-2.052-1.34-2.78-2.682l-.652-1.206v-5.325l1.035-.268c.575-.134 1.438-.556 1.918-.92.479-.364.939-.67.996-.67.058 0 .346.268.671.594zm2.569 12.507l1.15-.191v2.336l-1.15 1.13-1.15 1.13-1.151-1.13-1.15-1.13v-2.336l1.15.191a7.721 7.721 0 002.3 0zm-3.298 4.386l1.016 1.035-.786.536c-.422.287-.805.498-.844.46-.076-.096-1.073-2.854-1.073-2.97 0-.038.153-.076.345-.076.192 0 .786.46 1.342 1.015zm5.982-.919c0 .191-.978 2.681-1.112 2.816-.077.076-.48-.077-.863-.364l-.729-.517 1.016-1.016c.556-.555 1.15-1.015 1.343-1.015.191 0 .345.038.345.096zm-8.34 2.586c.958 2.547.978 2.547 1.649 2.413.421-.076.613 0 .9.402.422.575.46.23-.555 3.735l-.384 1.303H1.495l.077-3.218c.077-3.563.23-4.099 1.534-5.363.67-.632 2.32-1.398 2.837-1.322.154.02.595.881 1.055 2.05zM18.27 34.89c1.074.402 2.166 1.379 2.742 2.49.306.555.364 1.206.421 3.869l.077 3.218h-7.112l-.383-1.303c-1.016-3.505-.978-3.16-.556-3.735.287-.402.48-.478.9-.402.672.134.787 0 1.63-2.317.403-1.035.767-1.973.806-2.05.134-.23.345-.192 1.476.23zm-6.154 2.547l.537.422-.384.632c-.48.785-.997.785-1.553.019l-.422-.594.556-.46c.671-.536.633-.536 1.266-.019zm-.058 4.501c.23.728.46 1.59.518 1.916l.134.613h-2.396l.115-.613c.249-1.264.9-3.218 1.073-3.218.096 0 .345.594.556 1.302z" fill="url(#paint2_linear_108_15592)"/><path d="M25.767 24.854c-1.246.613-1.265.67-1.189 9.117l.058 7.624.633.613c.613.613.651.632 2.626.69l2.013.076v1.283c0 1.264.192 1.743.71 1.743.134 0 1.246-.67 2.492-1.494l2.262-1.475 4.64-.096 4.659-.095.613-.632.633-.613.057-7.623c.077-8.466.058-8.524-1.207-9.118-.94-.46-18.099-.44-19 0zm18.482 1.456c.326.326.326 14.538 0 14.863-.173.173-1.496.23-4.736.23h-4.505l-1.726 1.169-1.744 1.187-.058-.938c-.038-.518-.153-1.035-.268-1.169-.134-.172-.863-.249-2.435-.249-1.495 0-2.32-.076-2.473-.23-.326-.325-.326-14.537 0-14.863.326-.326 17.619-.326 17.945 0z" fill="url(#paint3_linear_108_15592)"/><path d="M28.604 29.375c-.306.306-.287.823.039 1.091.421.364 2.415.192 2.684-.23.153-.23.153-.42 0-.67-.269-.402-2.34-.575-2.723-.191z" fill="url(#paint4_linear_108_15592)"/><path d="M33.206 29.375c-.307.306-.288.823.038 1.091.173.154 1.515.211 4.429.173 3.738-.058 4.199-.096 4.39-.402.154-.23.154-.422 0-.67-.191-.288-.652-.326-4.41-.384-3.105-.038-4.275.02-4.447.192z" fill="url(#paint5_linear_108_15592)"/><path d="M28.604 33.205c-.306.307-.287.824.039 1.092.421.364 2.415.192 2.684-.23.153-.23.153-.421 0-.67-.269-.402-2.34-.575-2.723-.192z" fill="url(#paint6_linear_108_15592)"/><path d="M33.206 33.205c-.307.307-.288.824.038 1.092.173.153 1.515.21 4.429.173 3.738-.058 4.199-.096 4.39-.403.154-.23.154-.421 0-.67-.191-.287-.652-.326-4.41-.383-3.105-.038-4.275.02-4.447.191z" fill="url(#paint7_linear_108_15592)"/><path d="M28.604 37.036c-.306.307-.287.824.039 1.092.421.364 2.415.191 2.684-.23.153-.23.153-.421 0-.67-.269-.403-2.34-.575-2.723-.192z" fill="url(#paint8_linear_108_15592)"/><path d="M33.206 37.036c-.307.306-.288.824.038 1.092.173.153 1.515.21 4.429.172 3.738-.057 4.199-.096 4.39-.402.154-.23.154-.422 0-.67-.191-.288-.652-.326-4.41-.384-3.105-.038-4.275.02-4.447.192z" fill="url(#paint9_linear_108_15592)"/><defs><linearGradient id="paint0_linear_108_15592" x1="24.553" y1="21.483" x2="33.062" y2="-.844" gradientUnits="userSpaceOnUse"><stop stop-color="#DFBD69"/><stop offset=".531" stop-color="#FEF7C0"/><stop offset="1" stop-color="#926F34"/></linearGradient><linearGradient id="paint1_linear_108_15592" x1="32.199" y1="14.574" x2="38.068" y2="5.71" gradientUnits="userSpaceOnUse"><stop stop-color="#DFBD69"/><stop offset=".531" stop-color="#FEF7C0"/><stop offset="1" stop-color="#926F34"/></linearGradient><linearGradient id="paint2_linear_108_15592" x1="0" y1="46" x2="19.402" y2="14.075" gradientUnits="userSpaceOnUse"><stop stop-color="#DFBD69"/><stop offset=".531" stop-color="#FEF7C0"/><stop offset="1" stop-color="#926F34"/></linearGradient><linearGradient id="paint3_linear_108_15592" x1="24.553" y1="46" x2="33.062" y2="23.673" gradientUnits="userSpaceOnUse"><stop stop-color="#DFBD69"/><stop offset=".531" stop-color="#FEF7C0"/><stop offset="1" stop-color="#926F34"/></linearGradient><linearGradient id="paint4_linear_108_15592" x1="28.386" y1="30.665" x2="28.71" y2="28.935" gradientUnits="userSpaceOnUse"><stop stop-color="#DFBD69"/><stop offset=".531" stop-color="#FEF7C0"/><stop offset="1" stop-color="#926F34"/></linearGradient><linearGradient id="paint5_linear_108_15592" x1="32.987" y1="30.65" x2="33.095" y2="28.897" gradientUnits="userSpaceOnUse"><stop stop-color="#DFBD69"/><stop offset=".531" stop-color="#FEF7C0"/><stop offset="1" stop-color="#926F34"/></linearGradient><linearGradient id="paint6_linear_108_15592" x1="28.386" y1="34.495" x2="28.71" y2="32.766" gradientUnits="userSpaceOnUse"><stop stop-color="#DFBD69"/><stop offset=".531" stop-color="#FEF7C0"/><stop offset="1" stop-color="#926F34"/></linearGradient><linearGradient id="paint7_linear_108_15592" x1="32.987" y1="34.481" x2="33.095" y2="32.728" gradientUnits="userSpaceOnUse"><stop stop-color="#DFBD69"/><stop offset=".531" stop-color="#FEF7C0"/><stop offset="1" stop-color="#926F34"/></linearGradient><linearGradient id="paint8_linear_108_15592" x1="28.386" y1="38.326" x2="28.71" y2="36.597" gradientUnits="userSpaceOnUse"><stop stop-color="#DFBD69"/><stop offset=".531" stop-color="#FEF7C0"/><stop offset="1" stop-color="#926F34"/></linearGradient><linearGradient id="paint9_linear_108_15592" x1="32.987" y1="38.312" x2="33.095" y2="36.558" gradientUnits="userSpaceOnUse"><stop stop-color="#DFBD69"/><stop offset=".531" stop-color="#FEF7C0"/><stop offset="1" stop-color="#926F34"/></linearGradient></defs></svg>