<svg width="40" height="46" fill="none" xmlns="http://www.w3.org/2000/svg"><path d="M18.377.809v.808h-8.97l-.519.521-.518.54.036 7.96.053 7.96.5.054c.269.035.501.035.52 0 .017-.036.088-3.576.142-7.87l.09-7.817 4.342-.054 4.324-.036v.863c0 .467.09.952.215 1.078.304.305 9.453.305 9.757 0 .125-.126.214-.611.214-1.078v-.863l5.058.036 5.039.054V39.44l-8.864.054c-7.237.036-8.917.09-9.078.288-.268.323-.071.808.411.916.197.054 4.343.072 9.186.054l8.827-.054.43-.503.428-.503V2.659l-.518-.52-.518-.522h-10.4V0H18.376v.809zm8.936 1.437v1.527h-7.686V.72h7.686v1.527z" fill="url(#paint0_linear_108_15582)"/><path d="M10.997 6.415c-.071.054-.125 2.803-.125 6.091 0 5.265.036 5.984.286 6.074.375.143.357.143.68-.18.25-.234.285-1.006.285-5.57V7.547h24.125v21.922h-3.092c-2.162 0-3.163.072-3.306.215-.143.144-.214 1.15-.214 3.325v3.108l-4.218.036c-3.663.054-4.253.09-4.414.342a.774.774 0 00-.071.593c.107.251.625.287 4.896.287h4.79l3.449-3.468 3.43-3.45-.035-12.039-.054-12.04-13.152-.053c-7.22-.018-13.206.018-13.26.09zM35.354 30.78c0 .018-1 1.043-2.234 2.282l-2.233 2.247v-4.582h2.233c1.233 0 2.234.017 2.234.053z" fill="url(#paint1_linear_108_15582)"/><path d="M29.33 9.11c-.518.198-.196.899.948 2.049l1.179 1.185-2.037.09c-2.77.144-3.789.54-5.326 2.103-.857.862-1.304 1.491-1.608 2.264-.41 1.042-.429 1.258-.5 6.882-.072 6.145-.036 6.397.75 6.289.376-.054.376-.144.465-5.984l.09-5.93.5-1.006c.268-.557.857-1.365 1.304-1.779 1.233-1.15 2.145-1.473 4.396-1.58 1.126-.055 1.93-.019 1.93.071s-.518.7-1.161 1.33c-1.233 1.222-1.394 1.653-.787 1.976.322.18.572 0 2.324-1.725 1.072-1.06 1.947-2.066 1.947-2.228 0-.305-3.735-4.133-4.02-4.115-.108 0-.286.054-.393.108z" fill="url(#paint2_linear_108_15582)"/><path d="M16.25 13.692c-1.447.773-1.984 2.48-1.287 4.025.43.953 1.27 1.546 2.36 1.653 1.107.108 1.607-.036 2.304-.61.75-.647 1.108-1.42 1.108-2.408 0-2.336-2.412-3.774-4.485-2.66zm2.68 1.384c.519.52.59.755.537 1.635-.054.683-.965 1.438-1.734 1.438-.822 0-1.25-.252-1.59-.899-.965-1.869 1.322-3.648 2.787-2.174z" fill="url(#paint3_linear_108_15582)"/><path d="M5.617 19.28c-.768.557-.643 2.93.25 4.564.447.845.465.953.179.953-.447 0-.768.467-.661.934.09.324-.054.54-.697 1.024-1.59 1.222-3.449 4.277-4.182 6.883-.196.718-.41 2.084-.482 3.018-.25 4.007 1.483 7.26 4.682 8.805L5.832 46h8.202l1.287-.647c3.038-1.527 4.485-4.133 4.52-8.068.019-3.881-1.643-7.744-4.413-10.296-.858-.773-1.162-1.186-1.162-1.527 0-.306-.125-.503-.375-.575-.197-.072-.34-.18-.304-.234 1.52-2.875 1.626-5.175.268-5.534-.232-.054-.911.072-1.519.27-1.43.484-3.341.484-4.682.017-1.161-.413-1.608-.431-2.037-.125zm4.253 1.743c1.144 0 2.502-.251 3.378-.628.25-.108.304-.036.304.485 0 1.042-.5 2.372-1.18 3.162l-.643.755H9.995c-1.697 0-1.75-.018-2.287-.54-.768-.754-1.18-1.706-1.269-2.91l-.071-1.024 1.108.359a9.283 9.283 0 002.394.341zm-.429 5.157c0 .072-.107.396-.214.737-.197.54-.197.63.107.845.411.323.804.161 1.019-.431l.178-.45.376.611c.214.342.482.809.625 1.024.286.486.858.54 1.108.09.125-.233.018-.575-.447-1.437l-.625-1.132.625.27c3.181 1.329 5.933 5.552 6.326 9.684.554 5.553-2.18 8.841-7.63 9.218-3.592.27-6.558-.808-8.167-2.928-3.234-4.26-.75-13.064 4.396-15.651 1.019-.521 2.323-.773 2.323-.45z" fill="url(#paint4_linear_108_15582)"/><path d="M9.442 31.607c-.09.198-.179.485-.179.629 0 .162-.196.323-.446.395-.25.054-.697.395-1.001.755-.483.539-.536.737-.465 1.33.107.826.518 1.347 1.34 1.707.519.215.572.305.572 1.042v.808h-.786c-1.537 0-1.59 1.114-.071 1.222.732.054.822.108.911.557.179.917 1.197.845 1.197-.072 0-.287.179-.467.697-.664 1.787-.701 1.787-2.965 0-3.72-.643-.27-.697-.341-.697-1.06v-.755h.894c.965 0 1.358-.341 1.054-.934-.125-.252-.393-.324-1.054-.324-.858 0-.894-.018-.894-.52 0-.737-.732-1.007-1.072-.396zm-.179 2.91c0 .756-.25.881-.607.288-.143-.215-.09-.377.143-.647.196-.215.375-.377.41-.377.019 0 .054.324.054.737zm2.02 2.714c.107.342-.197.863-.5.863-.197 0-.269-.216-.269-.72 0-.664.036-.718.34-.538.196.09.375.27.429.395z" fill="url(#paint5_linear_108_15582)"/><path d="M27.17 20.16c-.358.36-.251.666.624 1.6l.823.899-.84.862c-.93.952-1.037 1.51-.304 1.6.304.053.643-.162 1.25-.755l.84-.827.787.809c.59.61.911.808 1.25.772.751-.09.662-.647-.285-1.599l-.858-.88.858-.88c.876-.9 1-1.348.429-1.708-.268-.162-.483-.036-1.269.755l-.947.934-.876-.898c-.929-.935-1.126-1.042-1.483-.683z" fill="url(#paint6_linear_108_15582)"/><defs><linearGradient id="paint0_linear_108_15582" x1="8.37" y1="40.76" x2="27.546" y2="1.648" gradientUnits="userSpaceOnUse"><stop stop-color="#DFBD69"/><stop offset=".531" stop-color="#FEF7C0"/><stop offset="1" stop-color="#926F34"/></linearGradient><linearGradient id="paint1_linear_108_15582" x1="10.872" y1="37.375" x2="24.575" y2="6.493" gradientUnits="userSpaceOnUse"><stop stop-color="#DFBD69"/><stop offset=".531" stop-color="#FEF7C0"/><stop offset="1" stop-color="#926F34"/></linearGradient><linearGradient id="paint2_linear_108_15582" x1="21.961" y1="29.988" x2="33.56" y2="12.87" gradientUnits="userSpaceOnUse"><stop stop-color="#DFBD69"/><stop offset=".531" stop-color="#FEF7C0"/><stop offset="1" stop-color="#926F34"/></linearGradient><linearGradient id="paint3_linear_108_15582" x1="14.66" y1="19.403" x2="17.077" y2="13.071" gradientUnits="userSpaceOnUse"><stop stop-color="#DFBD69"/><stop offset=".531" stop-color="#FEF7C0"/><stop offset="1" stop-color="#926F34"/></linearGradient><linearGradient id="paint4_linear_108_15582" x1="0" y1="46" x2="13.066" y2="20.695" gradientUnits="userSpaceOnUse"><stop stop-color="#DFBD69"/><stop offset=".531" stop-color="#FEF7C0"/><stop offset="1" stop-color="#926F34"/></linearGradient><linearGradient id="paint5_linear_108_15582" x1="7.295" y1="40.705" x2="12.521" y2="33.036" gradientUnits="userSpaceOnUse"><stop stop-color="#DFBD69"/><stop offset=".531" stop-color="#FEF7C0"/><stop offset="1" stop-color="#926F34"/></linearGradient><linearGradient id="paint6_linear_108_15582" x1="26.977" y1="25.128" x2="29.028" y2="19.774" gradientUnits="userSpaceOnUse"><stop stop-color="#DFBD69"/><stop offset=".531" stop-color="#FEF7C0"/><stop offset="1" stop-color="#926F34"/></linearGradient></defs></svg>