<svg width="50" height="48" fill="none" xmlns="http://www.w3.org/2000/svg"><path d="M22.45.155c-6.91.907-12.997 5.267-16.07 11.54-1.487 3.058-2.172 6.136-2.172 9.864 0 1.42-.078 2.27-.215 2.368-.118.059-.392.513-.587.986-.294.67-.51.868-1.018.967-.842.197-1.644.789-2.055 1.539-.255.493-.333 1.124-.333 2.9 0 2.012.059 2.347.45 2.979.43.73 1.448 1.36 2.134 1.36.274 0 .508.277.763.83.548 1.222 1.409 2.13 2.525 2.643.841.394 1.291.473 3.092.473 2.368 0 2.897-.197 3.249-1.223.137-.394.215-3.018.215-7.2 0-7.34-.039-7.537-1.272-8.07-.372-.157-1.135-.275-1.683-.275H8.455l.157-1.815c.548-7.24 4.951-12.804 11.84-14.994 1.273-.394 1.86-.453 4.502-.453 2.642 0 3.23.059 4.502.453 2.544.81 4.736 2.092 6.576 3.828 3.288 3.156 4.913 6.608 5.265 11.185l.157 1.796h-1.116c-.607 0-1.37.138-1.683.296-1.136.591-1.175.808-1.175 8.048 0 4.183.079 6.807.216 7.201.352 1.006.9 1.223 3.131 1.223h1.977l-.078 1.184c-.098 1.44-.842 2.624-2.016 3.235-.724.395-1.155.415-6.4.474l-5.637.059-.313-.79c-.51-1.301-2.055-2.386-3.406-2.386-.665 0-1.78.434-2.368.927-2.29 1.953-1.468 5.8 1.429 6.57 1.683.473 3.581-.454 4.286-2.092l.392-.868h5.714c5.579 0 5.735-.02 6.694-.473 1.096-.513 2.29-1.736 2.74-2.802.157-.394.352-1.36.43-2.13.118-1.322.157-1.44.92-2.111.45-.395 1.018-1.184 1.273-1.736.333-.69.587-1.006.861-1.006.685 0 1.683-.632 2.094-1.302.49-.77.705-2.821.51-4.479-.197-1.519-.764-2.308-2.076-2.84-.665-.257-1.115-.573-1.213-.849-.078-.236-.333-.69-.548-.986-.333-.473-.391-.868-.391-2.723 0-7.042-2.936-13.158-8.299-17.242C33.194 1.023 27.557-.516 22.45.155zm7.26 1.933c3.425.907 6.009 2.407 8.67 5.05 3.817 3.788 5.755 8.306 5.755 13.415v1.835l-.685-.217-.685-.197v-1.5c-.02-6.569-4.15-12.921-10.256-15.802-2.76-1.321-4.267-1.637-7.555-1.637-3.307 0-4.912.355-7.613 1.657-6.107 2.92-10.178 9.252-10.197 15.763v1.48l-.685.216-.685.217v-1.834c0-4.755 1.879-9.39 5.265-12.962 2.896-3.058 6.36-4.971 10.49-5.78 1.977-.375 6.204-.237 8.181.296zM8.318 30.318c0 7.714.118 7.142-1.41 6.669-.939-.277-2.25-1.697-2.406-2.605-.079-.335-.098-2.386-.06-4.576.06-3.946.06-3.966.588-4.774.626-.928 1.722-1.599 2.662-1.618h.626v6.905zm2.447 0v6.807l-.431.059-.45.06v-13.85l.45.06.43.058v6.807zm29.26.02v6.905l-.43-.06-.451-.058-.059-6.61c-.02-3.63 0-6.726.059-6.845.04-.138.274-.256.49-.256.39 0 .39.098.39 6.924zm3.523-6.53c.43.217 1.017.77 1.311 1.224.548.808.548.828.607 4.774.039 2.19.02 4.241-.059 4.576-.157.908-1.468 2.328-2.407 2.605-1.527.473-1.41 1.045-1.41-6.668v-6.905h.588c.332 0 .959.177 1.37.394zm-40.71 6.51c0 1.934-.078 2.96-.196 2.96-.117 0-.43-.217-.685-.493-.45-.434-.49-.612-.49-2.466 0-1.855.04-2.032.49-2.466.255-.277.568-.494.685-.494.118 0 .196 1.026.196 2.96zm45.192-2.446c.352.454.41.81.41 2.486 0 1.815-.038 1.993-.489 2.427-.254.276-.567.493-.685.493-.117 0-.195-1.026-.195-2.96 0-2.426.058-2.959.274-2.959.156 0 .47.237.685.513zm-21.725 14.58c.86.749 1.096 1.617.685 2.643-.763 1.933-3.367 1.834-4.189-.158-.528-1.282.705-2.979 2.153-2.979.529 0 .94.158 1.35.493z" fill="#1F381C"/><path d="M22.801 16.075c-.352.296-.47.631-.548 1.539-.039.631-.176 1.282-.274 1.4-.391.474-1.233.296-1.918-.433-.978-1.007-1.683-.967-2.955.236-.998.947-1.546 1.756-1.546 2.328 0 .158.352.69.783 1.164.43.473.782 1.046.782 1.263 0 .611-.743 1.026-1.8 1.026-1.488 0-1.723.374-1.723 2.643 0 1.776.02 1.894.51 2.269.371.296.802.414 1.467.414 1.703 0 1.997.848.764 2.269-.431.493-.783 1.085-.783 1.322 0 .216.567.986 1.311 1.755 1.585 1.657 1.977 1.717 3.288.572.49-.434 1.018-.789 1.155-.789.567 0 .861.513.94 1.657.078.987.195 1.243.645 1.657.51.435.685.474 2.173.395 2.094-.079 2.485-.395 2.564-2.071.039-.81.156-1.224.391-1.381.509-.395.744-.316 1.722.532 1.312 1.145 1.703 1.085 3.289-.572.743-.77 1.31-1.539 1.31-1.756 0-.236-.352-.828-.782-1.321-1.233-1.42-.94-2.269.763-2.269.666 0 1.096-.118 1.468-.414.49-.375.509-.494.509-2.269 0-2.308-.235-2.643-1.82-2.643-.783 0-1.135-.1-1.37-.356-.51-.552-.411-1.006.45-1.933.43-.473.783-1.006.783-1.164 0-.572-.548-1.38-1.546-2.328-1.253-1.183-1.899-1.223-2.975-.236-.783.71-1.546.887-1.899.434-.098-.119-.235-.77-.274-1.401-.137-1.657-.47-1.894-2.7-1.894-1.37 0-1.801.079-2.154.355zm3.367 2.23c.117 1.242.646 1.972 1.663 2.327.979.355 1.644.178 2.584-.67l.744-.671.802.828.822.849-.49.473c-.254.237-.625.829-.782 1.263-.626 1.637.391 3.077 2.31 3.274l1.017.1.059 1.124.059 1.144h-.685c-2.682 0-3.856 2.584-2.036 4.478l.626.651-.822.829-.822.828-.528-.513c-.783-.71-1.292-.947-2.173-.947-1.35 0-2.387 1.204-2.387 2.762v.79h-2.31l-.078-1.125c-.078-.967-.176-1.184-.803-1.776-1.115-1.006-2.427-.907-3.718.296l-.529.513-.822-.828-.822-.829.627-.651c1.82-1.894.645-4.478-2.036-4.478h-.685l.059-1.144.058-1.125 1.018-.099c1.253-.138 2.036-.67 2.349-1.637.332-.986.137-1.756-.627-2.643l-.645-.75.783-.829.802-.828.744.67c.94.849 1.605 1.026 2.603.671 1.037-.355 1.683-1.322 1.683-2.466v-.868h2.29l.098 1.006z" fill="#1F381C"/><path d="M23.995 21.658c-2.818.533-4.6 2.723-4.6 5.603 0 3.058 2.134 5.366 5.168 5.563 2.329.178 4.462-1.085 5.519-3.275 1.018-2.052.352-5.07-1.448-6.609-1.214-1.045-3.093-1.578-4.64-1.282zm2.486 1.677c.92.375 1.722 1.144 2.23 2.13.588 1.165.431 2.98-.351 4.104-1.88 2.703-5.97 2.308-7.223-.67-1.39-3.414 2.016-6.965 5.344-5.564z" fill="#1F381C"/><path d="M24.523 23.512c-.136.178-.548.632-.88 1.026-.744.81-.861 1.835-.333 2.585.294.414.294.493-.02.828-.41.454-.274 1.223.353 1.874a5.3 5.3 0 01.646.81c.274.473 1.056.473 1.33 0 .118-.198.45-.612.764-.908.646-.69.724-1.874.156-2.486-.352-.395-.352-.414.02-.65.528-.336.352-1.204-.43-2.171-.333-.395-.686-.829-.803-.967-.255-.315-.49-.296-.803.06zm.823 2.447c.273.532.254.611-.177.611-.43 0-.88-.493-.704-.789.195-.315.646-.236.88.178zm.156 2.407c.078.473-.587.67-.88.256-.392-.533-.314-.71.273-.631.314.04.568.197.607.375zM12.82 20.317c0 1.716.117 1.992.606 1.4.215-.276.274-.256.509.197.156.277.352.513.45.513.313 0 .411-.375.196-.789-.176-.335-.157-.394.196-.394.215 0 .391-.08.391-.158 0-.079-.528-.67-1.174-1.322L12.819 18.6v1.716zm1.76.69c-.273.04-.39.177-.312.355.058.158.176.414.234.572.216.513-.234.316-.489-.217-.215-.513-.235-.513-.607-.177-.39.355-.39.335-.39-1.105v-1.44l.997.966c.861.868.94.987.568 1.046z" fill="#1F381C"/></svg>